<svg xmlns="http://www.w3.org/2000/svg" width="44" height="40" viewBox="0 0 44 40"><defs><style>.a{fill:#2f75ff;}.b{fill:#6bcfff;}.c{fill:#ffc760;}</style></defs><g transform="translate(1326 9946)"><path class="a" d="M-1323-9943.03v3.044l16.994,11.011,17.093-11.011.193-3.243-17.285,10.895Z"/><path class="b" d="M39.6,44a6.223,6.223,0,0,1-4.7-2A6.723,6.723,0,0,1,33,37.2V26a3.852,3.852,0,0,1,1.175-2.825A3.91,3.91,0,0,1,37.05,22a3.77,3.77,0,0,1,2.8,1.175A3.894,3.894,0,0,1,41,26V36a1.5,1.5,0,1,1-3,0V25.85a2.052,2.052,0,0,0-.225-.975.761.761,0,0,0-.725-.425.872.872,0,0,0-.775.425A1.755,1.755,0,0,0,36,25.85V37.3a4.508,4.508,0,0,0,1,2.9,3.174,3.174,0,0,0,2.6,1.25,3.008,3.008,0,0,0,2.45-1.175A4.279,4.279,0,0,0,43,37.5V29.15a1.5,1.5,0,1,1,3,0V37.5a6.352,6.352,0,0,1-1.85,4.6A6.1,6.1,0,0,1,39.6,44ZM5.15,36a3.059,3.059,0,0,1-2.2-.925A2.835,2.835,0,0,1,2,33V7a2.906,2.906,0,0,1,.9-2.075A2.841,2.841,0,0,1,5,4H39a2.869,2.869,0,0,1,2.075.925A2.869,2.869,0,0,1,42,7V20.5H36.55a4.579,4.579,0,0,0-3.625,1.65A5.708,5.708,0,0,0,31.5,26V36ZM22,20.55a1.565,1.565,0,0,0,.425-.05,2.195,2.195,0,0,0,.375-.15l15.6-10a1.386,1.386,0,0,0,.425-.4A1.11,1.11,0,0,0,39,9.3a1.243,1.243,0,0,0-.625-1.1,1.2,1.2,0,0,0-1.325,0L22,17.65,6.95,8.35a1.5,1.5,0,0,0-1.325-.075A1.02,1.02,0,0,0,5,9.3a1.139,1.139,0,0,0,.175.625,1.294,1.294,0,0,0,.425.425l15.6,10a2.195,2.195,0,0,0,.375.15A1.565,1.565,0,0,0,22,20.55Z" transform="translate(-1328 -9950)"/><path class="c" d="M39.6,44a6.223,6.223,0,0,1-4.7-2A6.723,6.723,0,0,1,33,37.2V26a3.852,3.852,0,0,1,1.175-2.825A3.91,3.91,0,0,1,37.05,22a3.77,3.77,0,0,1,2.8,1.175A3.894,3.894,0,0,1,41,26V36a1.5,1.5,0,1,1-3,0V25.85a2.052,2.052,0,0,0-.225-.975.761.761,0,0,0-.725-.425.872.872,0,0,0-.775.425A1.755,1.755,0,0,0,36,25.85V37.3a4.508,4.508,0,0,0,1,2.9,3.174,3.174,0,0,0,2.6,1.25,3.008,3.008,0,0,0,2.45-1.175A4.279,4.279,0,0,0,43,37.5V29.15a1.5,1.5,0,1,1,3,0V37.5a6.352,6.352,0,0,1-1.85,4.6A6.1,6.1,0,0,1,39.6,44ZM5,10V8.2H5v0H5V33H5V10Z" transform="translate(-1328 -9950)"/></g></svg>