<svg xmlns="http://www.w3.org/2000/svg" width="6434.215" height="4364.047" viewBox="0 0 6434.215 4364.047"><defs><style>.a{fill:#2f75ff;}.b,.d,.j,.m,.q,.s,.v,.y{fill:#fff;}.b{opacity:0.7;}.c{opacity:0.4;}.e{fill:#ffc760;}.aa,.f,.l,.z{fill:#6bcfff;}.f,.j,.k{opacity:0.5;}.g{fill:#e0e0e0;}.ab,.h,.t{fill:none;}.h{stroke:#2f75ff;stroke-linecap:round;stroke-linejoin:round;}.i{fill:#263238;}.m,.y{opacity:0.6;}.n,.x{opacity:0.2;}.o{opacity:0.8;}.p{fill:rgba(107,207,255,0.7);}.q{opacity:0.9;}.r,.w{fill:#dfe5eb;}.aa,.r,.s,.u,.v,.x,.y,.z{isolation:isolate;}.s{opacity:0.753;}.z{opacity:0.501;}.aa{opacity:0.499;}.ab{stroke:#fff;stroke-width:16px;}</style></defs><g transform="translate(7936.215 21163.672)"><g transform="translate(3223.786 551.328)"><g transform="translate(-10776.983 -21715)"><path class="a" d="M5062.084,865.44C4635.177,408.317,4039.231,104.218,3394,84.725,2475.016,56.877,2001.6,780.922,1319.329,1115.1S163.641,1741.674,80.1,2396.1,66.174,3663.178,637.056,3969.5,1556.036,3760.646,2294,3788.494s1183.535,863.284,2109.477,612.653c609.172-165,1060.865-769.576,1230.737-1351.318C5866.749,2253.379,5597.321,1438.828,5062.084,865.44Z" transform="translate(-50.903 -83.944)"/><path class="b" d="M5062.084,865.44C4635.177,408.317,4039.231,104.218,3394,84.725,2475.016,56.877,2001.6,780.922,1319.329,1115.1S163.641,1741.674,80.1,2396.1,66.174,3663.178,637.056,3969.5,1556.036,3760.646,2294,3788.494s1183.535,863.284,2109.477,612.653c609.172-165,1060.865-769.576,1230.737-1351.318C5866.749,2253.379,5597.321,1438.828,5062.084,865.44Z" transform="translate(-50.903 -83.944)"/></g><g transform="translate(-11160 -21528.254)"><g transform="matrix(0.996, -0.087, 0.087, 0.996, 0, 2081.53)"><path class="a" d="M2781.679,1911.323l-2665.155-213.5A127,127,0,0,1,.382,1561.488L116.141,116.154A126.876,126.876,0,0,1,252.472.394L2917.627,213.77A127.77,127.77,0,0,1,3033.77,350.1L2918.01,1795.563a127.77,127.77,0,0,1-136.33,115.76Z" transform="translate(47.348 4.149)"/><path class="c" d="M2781.679,1911.323l-2665.155-213.5A127,127,0,0,1,.382,1561.488L116.141,116.154A126.876,126.876,0,0,1,252.472.394L2917.627,213.77A127.77,127.77,0,0,1,3033.77,350.1L2918.01,1795.563a127.77,127.77,0,0,1-136.33,115.76Z" transform="translate(47.348 4.149)"/><path class="a" d="M2781.625,1911.639,116.47,1698.263A127.77,127.77,0,0,1,.327,1561.932L116.087,116.469A127.77,127.77,0,0,1,252.417.327L2917.573,213.7a127.77,127.77,0,0,1,116.142,135.82l-115.76,1445.463a127.77,127.77,0,0,1-136.331,116.655Z" transform="translate(0 0)"/><path class="d" d="M2864.282,1509.281,19.482,1281.467A21.082,21.082,0,0,1,.061,1258.852L99.339,19.482A21.082,21.082,0,0,1,121.954.061L2966.882,227.875a21.211,21.211,0,0,1,19.421,23.51l-99.277,1239.369A21.082,21.082,0,0,1,2864.282,1509.281Z" transform="translate(21.859 225.908)"/><path class="d" d="M75.385,144.832a45.149,45.149,0,0,1-5.877,0,72.446,72.446,0,1,1,5.877,0Zm0-135.436a63.118,63.118,0,1,0,4.983,0Z" transform="translate(229.674 48.939)"/><path class="d" d="M79.6,153.268H73.724a76.659,76.659,0,1,1,5.877,0Zm0-135.436a62.479,62.479,0,1,0,40.5,110.01,61.841,61.841,0,0,0,21.721-42.547h0A62.479,62.479,0,0,0,84.584,18.087Z" transform="translate(435 57.241)"/><path class="d" d="M75,144.064H69.124a72.059,72.059,0,1,1,5.878,0ZM75,8.628a61.582,61.582,0,1,0,4.983,0Z" transform="translate(648.632 83.31)"/><rect class="e" width="137.864" height="549.411" transform="translate(1127.346 519.621) rotate(94.58)"/><rect class="e" width="137.864" height="549.411" transform="translate(2335.526 794.935) rotate(94.58)"/><rect class="f" width="137.864" height="549.411" transform="translate(1710.101 923.498) rotate(94.58)"/><rect class="f" width="137.864" height="549.411" transform="translate(1070.522 1229.718) rotate(94.58)"/><rect class="e" width="137.864" height="549.411" transform="translate(2932.416 1021.41) rotate(94.58)"/><rect class="f" width="137.864" height="549.411" transform="translate(2918.143 1198.929) rotate(94.58)"/><rect class="e" width="137.864" height="549.411" transform="translate(2292.846 1327.502) rotate(94.58)"/><path class="g" d="M2957.109,392v-6.261l-608.057-48.68,15.2-189.994H2358l-15.2,189.994-604.863-48.425,15.2-189.994h-6.389l-15.2,189.994-604.864-48.425,15.2-189.994h-6.261l-14.566,188.461L516.191,190.25,531.268,0h-6.261L509.8,189.994,70.657,154.857v6.261L509.8,196.255,494.981,367.339,56.474,332.2v6.388L494.981,373.6,481.31,544.812,42.164,509.675v6.261L481.31,551.2,467.638,722.412,28.493,687.275v6.261l438.124,34.753-13.8,171.34L13.8,864.364v6.388l439.145,35.137-13.8,171.212L0,1041.964v6.261l439.018,35.264L423.3,1280.383h6.261l15.844-197.022,604.863,48.552-15.844,196.894h6.389l15.716-197.022,604.863,48.425-16.482,198.427h6.261l15.716-197.021,604.863,48.425-15.716,197.021h6.261l15.843-197.021,607.93,48.68v-6.26l-607.93-48.681,13.672-171.212,608.058,48.681v-6.389l-607.163-47.147L2306.376,876.5l608.058,48.68v-6.261l-608.058-48.68,13.8-171.34,607.93,48.68v-6.26l-607.93-48.68,13.672-171.212L2941.9,570.11v-6.388L2334.869,514.53l13.671-171.212ZM1731.54,293.871l-13.672,171.339L1113,416.786l13.672-171.34Zm-646.9,477.988,13.672-171.212,604.863,48.425L1689.5,820.284Zm604.352,54.685-13.8,171.34-605.247-48.553,13.8-171.212Zm-590.17-232.286,13.672-171.212,604.864,48.425-13.672,171.212ZM515.552,196.511l605.5,48.425-13.671,171.34L502.52,367.85Zm-14.182,177.6,604.863,48.425-13.8,171.212L487.57,545.323Zm-14.31,177.6,604.863,48.808-13.671,171.212L473.388,723.306ZM472.877,729.184l604.863,48.425-13.672,171.34L459.205,900.523ZM445.023,1078l13.672-171.212,604.863,48.425-13.672,171.212Zm611.124,48.936,13.8-171.212,604.863,48.425-13.8,171.339Zm1215.987,97.361-604.863-48.808,13.8-171.211,604.863,48.425Zm14.31-177.6-604.863-48.425,13.671-171.212,604.863,48.425Zm14.183-177.856L1696.02,820.795l13.672-171.212,604.863,48.425Zm14.182-177.6-604.863-48.425L1723.618,471.6l604.863,48.425Zm14.182-177.473-604.863-48.425,13.8-171.467L2342.791,342.3Z" transform="translate(36.997 260.083)"/></g><g transform="translate(1886.852)"><g transform="translate(0 0)"><g transform="translate(0 0)"><rect class="d" width="2333.728" height="2530.665" transform="translate(1.378 140.21)"/><path class="a" d="M2538.592,110.966v2484.5H250.8V110.966h2287.8M2561.558,88H227.83V2618.435H2561.558Z" transform="translate(-227.83 72.994)"/><line class="h" x1="52.823" transform="translate(1813.31)"/><line class="h" x1="363.787" transform="translate(1915.74)"/><path class="a" d="M285.246,79.78H2504.258a57.416,57.416,0,0,1,57.416,57.416V295.434H227.83V137.2A57.416,57.416,0,0,1,285.246,79.78Z" transform="translate(-227.83 -13.178)"/><rect class="d" width="338.18" height="71.081" transform="translate(89.109 133.435)"/><rect class="d" width="75.559" height="11.483" transform="translate(1749.923 199.118)"/><rect class="d" width="11.483" height="75.559" transform="translate(2176.82 152.218) rotate(-45)"/><rect class="d" width="75.559" height="11.483" transform="translate(2176.624 197.215) rotate(-45)"/><rect class="d" width="80.612" height="11.483" transform="translate(1976.457 200.747) rotate(-45)"/><path class="d" d="M424.773,115.673H399.51V90.41Z" transform="translate(1571.924 98.259)"/><path class="d" d="M403.68,86.24h25.263V111.5Z" transform="translate(1615.639 54.544)"/><rect class="g" width="2136.103" height="11.483" transform="translate(100.133 425.222)"/><rect class="g" width="2136.103" height="11.483" transform="translate(100.133 576.915)"/><path class="e" d="M5.693,0H479.587a5.693,5.693,0,0,1,5.693,5.693V167.244a5.693,5.693,0,0,1-5.693,5.693H5.693A5.693,5.693,0,0,1,0,167.244V5.693A5.693,5.693,0,0,1,5.693,0Z" transform="translate(79.349 2435.469)"/><rect class="i" width="854.923" height="45.818" transform="translate(97.722 484.016)"/><rect class="g" width="854.923" height="45.818" transform="translate(97.722 484.016)"/><rect class="g" width="339.902" height="45.818" transform="translate(97.722 642.14)"/><rect class="g" width="1500.623" height="45.818" transform="translate(579.786 821.622)"/><rect class="g" width="1843.741" height="45.818" transform="translate(236.669 898.559)"/><rect class="g" width="546.944" height="45.818" transform="translate(236.669 975.497)"/><rect class="i" width="231.616" height="45.818" transform="translate(97.722 333.816)"/><rect class="g" width="231.616" height="45.818" transform="translate(97.722 333.816)"/><path class="d" d="M331.658,292.24l-31.349,31.234L268.96,292.24Z" transform="translate(203.343 2214.081)"/><rect class="d" width="11.483" height="121.492" transform="translate(431.883 2461.192)"/><rect class="i" width="77.052" height="77.052" transform="translate(638.58 2513.67)"/><rect class="i" width="77.052" height="77.052" transform="translate(746.522 2513.67)"/><rect class="i" width="77.052" height="77.052" transform="translate(854.464 2513.67)"/><rect class="i" width="77.052" height="77.052" transform="translate(962.521 2513.67)"/><rect class="i" width="77.052" height="77.052" transform="translate(1070.463 2513.67)"/><rect class="i" width="77.052" height="77.052" transform="translate(1178.405 2513.67)"/><rect class="i" width="77.052" height="77.052" transform="translate(1286.347 2513.67)"/><rect class="i" width="77.052" height="77.052" transform="translate(1394.289 2513.67)"/><rect class="j" width="77.052" height="77.052" transform="translate(638.58 2513.67)"/><rect class="j" width="77.052" height="77.052" transform="translate(746.522 2513.67)"/><rect class="j" width="77.052" height="77.052" transform="translate(854.464 2513.67)"/><rect class="j" width="77.052" height="77.052" transform="translate(962.521 2513.67)"/><rect class="j" width="77.052" height="77.052" transform="translate(1070.463 2513.67)"/><rect class="j" width="77.052" height="77.052" transform="translate(1178.405 2513.67)"/><rect class="j" width="77.052" height="77.052" transform="translate(1286.347 2513.67)"/><rect class="j" width="77.052" height="77.052" transform="translate(1394.289 2513.67)"/><rect class="i" width="77.052" height="77.052" transform="translate(2163.088 2513.67)"/><rect class="j" width="77.052" height="77.052" transform="translate(2163.088 2513.67)"/><path class="i" d="M432.692,304.976a12.862,12.862,0,1,1-3.726-9.168A12.975,12.975,0,0,1,432.692,304.976Z" transform="translate(1647.717 2211.564)"/><path class="i" d="M432.692,308.261A12.976,12.976,0,1,1,419.831,295.4a12.977,12.977,0,0,1,12.861,12.861Z" transform="translate(1647.717 2247.208)"/><path class="i" d="M432.692,311.766a12.861,12.861,0,1,1-3.726-9.168A12.976,12.976,0,0,1,432.692,311.766Z" transform="translate(1647.717 2282.746)"/><g class="k" transform="translate(2054.457 2503.564)"><path class="d" d="M432.692,304.976a12.862,12.862,0,1,1-3.726-9.168A12.975,12.975,0,0,1,432.692,304.976Z" transform="translate(-406.74 -292)"/><path class="d" d="M432.692,308.261A12.976,12.976,0,1,1,419.831,295.4a12.977,12.977,0,0,1,12.861,12.861Z" transform="translate(-406.74 -256.357)"/><path class="d" d="M432.692,311.766a12.861,12.861,0,1,1-3.726-9.168A12.976,12.976,0,0,1,432.692,311.766Z" transform="translate(-406.74 -220.819)"/></g><path class="d" d="M239.79,351.378l5.282-11.483a39.043,39.043,0,0,0,21.818,6.889c9.072,0,12.746-2.985,12.746-7.119,0-12.4-38.469-3.9-38.469-28.363,0-11.483,9.072-20.67,27.9-20.67a43.637,43.637,0,0,1,22.966,5.856l-4.708,11.483a37.434,37.434,0,0,0-18.258-5.167c-9.072,0-12.632,3.445-12.632,7.579,0,12.172,38.469,3.789,38.469,28.019,0,11.483-9.187,20.555-28.019,20.555a46.967,46.967,0,0,1-27.1-7.579Z" transform="translate(-102.451 2197.085)"/><path class="d" d="M298.364,322.336H259.9a13.55,13.55,0,0,0,14.583,10.22,17.222,17.222,0,0,0,12.747-4.938l7.808,8.5a26.527,26.527,0,0,1-21.014,8.153A26.3,26.3,0,0,1,245.082,318.2a25.837,25.837,0,0,1,27.1-26.182,25.147,25.147,0,0,1,26.411,26.3C298.594,319.465,298.479,321.073,298.364,322.336Zm-38.7-8.612H284.7a12.747,12.747,0,0,0-25.033,0Z" transform="translate(-46.997 2211.429)"/><path class="d" d="M302.5,314.165v29.052h-14.7v-26.87c0-8.153-3.789-11.483-10.335-11.483S265.3,309.227,265.3,318.529v25.148H250.6v-50.87h14.124v5.971a21.934,21.934,0,0,1,16.766-6.66A19.866,19.866,0,0,1,302.5,314.165Z" transform="translate(10.872 2212.366)"/><path class="d" d="M310.417,290.38v70.048H296.408v-5.512a19.407,19.407,0,0,1-15.847,6.546,26.182,26.182,0,0,1,0-52.249,19.522,19.522,0,0,1,15.158,6.087V290.725Zm-14.354,44.67a12.976,12.976,0,1,0-3.415,9.851,13.091,13.091,0,0,0,3.415-9.851Z" transform="translate(68.643 2194.582)"/><path d="M398.5,130.657a29.971,29.971,0,0,1,52.019-18.488l-8.038,7.464a16.567,16.567,0,1,0-13.78,28.019,17.339,17.339,0,0,0,13.78-6.545l8.038,7.464A29.971,29.971,0,0,1,398.5,130.2Z" transform="translate(1561.336 224.403)"/><path d="M403.3,125.212a21.589,21.589,0,0,1,22.966-21.588A19.176,19.176,0,0,1,444.984,114.3l-9.416,5.053a10.449,10.449,0,0,0-9.416-5.742,11.483,11.483,0,1,0,0,22.967,10.45,10.45,0,0,0,9.416-5.742l9.416,5.053a19.407,19.407,0,0,1-18.718,10.565A21.589,21.589,0,0,1,403.3,125.212Z" transform="translate(1611.655 236.164)"/><path d="M460.362,142.167c0,9.416-7.464,14.813-21.818,14.813H410.41V102.55h26.641c13.55,0,20.555,5.627,20.555,14.124a12.977,12.977,0,0,1-7.235,11.483,13.55,13.55,0,0,1,9.991,14.01Zm-37.435-30.2v12.861h12.517c6.086,0,9.531-2.182,9.531-6.431s-3.445-6.431-9.531-6.431Zm24.689,28.823c0-4.593-3.445-6.775-9.99-6.775h-14.7v13.435h14.7c6.546-.23,9.99-2.182,9.99-6.89Z" transform="translate(1686.191 225.525)"/><path d="M415.25,125.218a21.589,21.589,0,0,1,22.967-21.588,19.062,19.062,0,0,1,18.718,10.679l-9.417,5.053a10.22,10.22,0,0,0-9.416-5.742,11.483,11.483,0,1,0,0,22.966,10.22,10.22,0,0,0,9.416-5.742l9.417,5.053a19.293,19.293,0,0,1-18.718,10.564,21.589,21.589,0,0,1-22.966-21.244Z" transform="translate(1736.929 236.158)"/><path d="M419.21,125.212a21.588,21.588,0,0,1,22.966-21.588A19.176,19.176,0,0,1,460.894,114.3l-9.416,5.053a10.449,10.449,0,0,0-9.417-5.742,11.483,11.483,0,1,0,0,22.967,10.45,10.45,0,0,0,9.417-5.742l9.416,5.053a19.407,19.407,0,0,1-18.718,10.565,21.588,21.588,0,0,1-22.966-21.244Z" transform="translate(1778.443 236.164)"/></g><path class="l" d="M352.586,513.768A105.416,105.416,0,0,1,247.4,408.468V204.526a11.483,11.483,0,0,1,22.277,0V408.468a83.024,83.024,0,1,0,165.933,0V193.962a11.483,11.483,0,1,1,22.278,0V408.468a105.416,105.416,0,0,1-105.3,105.3Z" transform="translate(-22.674 1034.166)"/><rect class="a" width="607.231" height="841.488" rx="4.35" transform="translate(149.852 1270.73) rotate(-8.88)"/><rect class="m" width="607.231" height="841.488" rx="4.35" transform="translate(149.852 1270.73) rotate(-8.88)"/><rect class="n" width="431.269" height="26.717" rx="1.003" transform="matrix(0.987, -0.16, 0.16, 0.987, 315.774, 1647.553)"/><rect class="n" width="430.045" height="26.641" rx="1" transform="matrix(0.987, -0.159, 0.159, 0.987, 322.984, 1750.663)"/><rect class="n" width="430.045" height="26.641" rx="1" transform="matrix(0.987, -0.159, 0.159, 0.987, 340.351, 1858.262)"/><rect class="a" width="607.231" height="841.488" rx="4.35" transform="matrix(0.993, -0.115, 0.115, 0.993, 136.059, 1274.619)"/><rect class="b" width="607.231" height="841.488" rx="4.35" transform="matrix(0.993, -0.115, 0.115, 0.993, 136.059, 1274.619)"/><rect class="n" width="430.045" height="26.641" rx="1" transform="translate(277.096 1653.028) rotate(-6.87)"/><rect class="n" width="430.045" height="26.641" rx="1" transform="translate(290.057 1761.166) rotate(-6.87)"/><rect class="n" width="430.045" height="26.641" rx="1" transform="translate(303.118 1869.178) rotate(-6.87)"/><path class="a" d="M849.833,383.48l1.149,623.652a14.584,14.584,0,0,1-14.583,14.584l-576.686,1.034a14.469,14.469,0,0,1-14.583-14.469L243.75,196.993a14.469,14.469,0,0,1,14.469-14.584l388.591-.689Z" transform="translate(-60.938 1055.478)"/><g class="o" transform="translate(182.812 1237.198)"><path class="d" d="M849.833,383.48l1.149,623.652a14.584,14.584,0,0,1-14.583,14.584l-576.686,1.034a14.469,14.469,0,0,1-14.583-14.469L243.75,196.993a14.469,14.469,0,0,1,14.469-14.584l388.591-.689Z" transform="translate(-243.75 -181.72)"/></g><rect class="p" width="430.045" height="26.641" rx="1" transform="translate(271.376 1628.754) rotate(-0.28)"/><rect class="p" width="430.045" height="26.641" rx="1" transform="translate(271.443 1738.132) rotate(-0.27)"/><rect class="p" width="430.045" height="26.641" rx="1" transform="translate(272.441 1846.585) rotate(-0.28)"/><path class="a" d="M278.88,181.68V369.775a14.584,14.584,0,0,0,14.47,14.584H480.984Z" transform="translate(307.337 1055.059)"/><path class="q" d="M278.88,181.68V369.775a14.584,14.584,0,0,0,14.47,14.584H480.984Z" transform="translate(307.337 1055.059)"/><path class="l" d="M399.782,284.656H377.5V246.417a53.971,53.971,0,0,0-107.827,0v27.1H247.4v-27.1a76.248,76.248,0,0,1,152.382,0Z" transform="translate(-22.674 965.403)"/><path class="l" d="M300.33,417.609a47.77,47.77,0,0,1-47.655-47.77V194.032a11.483,11.483,0,1,1,22.277,0V370.413a25.493,25.493,0,1,0,50.87,0V204.022a11.483,11.483,0,1,1,22.277,0V369.839a47.77,47.77,0,0,1-47.77,47.77Z" transform="translate(29.007 1034.9)"/></g></g><g transform="translate(3644.48 1392.815)"><rect class="a" width="2789.734" height="2597.226"/><path class="d" d="M0,0H2693.568V2529H0Z" transform="translate(49.48)"/><rect class="a" width="2789.734" height="132.177"/><rect class="r" width="90.691" height="2396.824" transform="translate(2652.357 132.177)"/><rect class="s" width="54.58" height="343.742" rx="1.68" transform="translate(2671.377 190.615)"/><path class="t" d="M410.394,230.917h76.219l7.856-93.447H402.4Z" transform="translate(1943.428 205.721)"/><path class="t" d="M435.687,229.894l.689-17.228,37.489-46.448v-30.6H384.14V254.565h89.726V199.021l-21.5,26.6Z" transform="translate(1710.015 182.072)"/><circle class="d" cx="180.279" cy="180.279" r="180.279" transform="translate(60.24 379.546) rotate(-45)"/><circle class="e" cx="152.713" cy="152.713" r="152.713" transform="translate(131.272 492.921) rotate(-76.72)"/><path class="d" d="M302.684,135.21V250.985H275.945V156.711H252.79v-21.5Z" transform="translate(30.997 176.831)"/><rect class="d" width="1404.465" height="270.694" rx="3.07" transform="translate(557.513 244.231)"/><rect class="e" width="215.563" height="1349.334" rx="1.18" transform="translate(1934.274 271.796) rotate(90)"/><path class="d" d="M291.283,184.856a48.79,48.79,0,0,1,51.41-48.791,47.688,47.688,0,0,1,36.662,15.023l-8.959,8.683a35.7,35.7,0,0,0-27.565-11.439,37.076,37.076,0,1,0,0,74.151A35.834,35.834,0,0,0,370.4,210.906l8.959,8.684a47.826,47.826,0,0,1-36.8,15.161,48.791,48.791,0,0,1-51.272-49.894Z" transform="translate(522.865 186.865)"/><path class="d" d="M298.384,188.882a51.272,51.272,0,1,1,51.41,49.343,49.068,49.068,0,0,1-51.41-49.343Zm88.761,0a37.489,37.489,0,1,0-37.351,37.076,36.249,36.249,0,0,0,37.351-37.076Z" transform="translate(613.347 182.838)"/><path class="d" d="M397.144,232.479V162.187l-34.733,58.577h-6.34l-35.008-57.2v68.914H307.28V136h11.3l40.246,67.811L398.523,136h11.164v96.479Z" transform="translate(727.53 186.93)"/><path class="d" d="M394.743,170.181c0,20.95-15.161,33.63-40.246,33.63H330.653v28.668H316.87V136H354.5C379.582,136,394.743,149.783,394.743,170.181Zm-13.783,0c0-13.783-9.235-21.639-26.877-21.639H330.653V191.82h23.431C371.726,191.82,380.96,183.964,380.96,170.181Z" transform="translate(850.117 186.93)"/><path class="d" d="M324,136h13.783v84.488H390.02v11.991H324Z" transform="translate(941.259 186.93)"/><path class="d" d="M399.936,221.04v11.44H329.92V136h68.087v11.991H343.7v29.633H392.08v11.715H343.7v31.149Z" transform="translate(1016.933 186.93)"/><path class="d" d="M368.678,148.542H335.6V136h79.8v11.991H382.461v84.488H368.678Z" transform="translate(1089.539 186.93)"/><path class="d" d="M412.516,221.04v11.44H342.5V136h68.087v11.991h-54.3v29.633h48.24v11.715h-48.24v31.149Z" transform="translate(1177.74 186.93)"/><path class="d" d="M349.2,136.128h40.66a48.377,48.377,0,1,1,0,96.479H349.2Zm39.832,84.488a36.387,36.387,0,1,0,0-72.5H362.983v72.5Z" transform="translate(1263.385 186.802)"/><rect class="r" width="215.563" height="205.363" rx="1.18" transform="translate(2495.096 271.796) rotate(90)"/><g class="u" transform="translate(2319.228 306.253)"><path class="d" d="M545.6,136.64H400.47v13.783h12.818l9.1,107.23H523.963l8.959-107.23H545.6ZM511.007,243.87H435.34l-7.856-93.447h92.069Z" transform="translate(-400.47 -111.142)"/><path class="d" d="M464.142,134.79H408.184l-4.824,13.783h65.606Z" transform="translate(-363.528 -134.79)"/></g><rect class="r" width="215.563" height="205.363" rx="1.18" transform="translate(2241.631 271.796) rotate(90)"/><path class="v" d="M522.622,134.79l-22.19,27.566V134.79H383.14V281.3H500.431v-86.28l38.316-47.137ZM486.649,267.518H396.922V148.573h89.726v30.46l-37.627,46.448v17.229l16.677-4.273,21.5-26.463Z" transform="translate(1697.233 171.464)"/><circle class="d" cx="180.279" cy="180.279" r="180.279" transform="translate(60.215 841.245) rotate(-45)"/><circle class="e" cx="152.713" cy="152.713" r="152.713" transform="translate(131.33 954.716) rotate(-76.72)"/><path class="d" d="M343.649,265.086v21.777H256.266V269.5l44.518-42.175c10.337-9.786,12.129-15.712,12.129-21.363,0-8.959-6.34-13.783-18.469-13.783a28.256,28.256,0,0,0-23.293,10.475L251.58,190.107a53.753,53.753,0,0,1,46.034-21.5c25.774,0,42.865,13.783,42.865,34.181a45.76,45.76,0,0,1-19.3,36.524l-26.6,25.223Z" transform="translate(15.53 602.677)"/><rect class="d" width="1404.465" height="270.694" rx="3.07" transform="translate(557.513 705.954)"/><rect class="e" width="215.563" height="1349.334" rx="1.18" transform="translate(1934.274 733.519) rotate(90)"/><path class="d" d="M291.274,218.815a48.79,48.79,0,0,1,51.134-49.342A47.689,47.689,0,0,1,379.07,184.5l-8.959,8.683a35.7,35.7,0,0,0-27.565-11.44,37.076,37.076,0,1,0,0,74.151,35.835,35.835,0,0,0,27.565-11.578L379.07,253a47.827,47.827,0,0,1-36.8,15.161,48.791,48.791,0,0,1-51-49.343Z" transform="translate(522.874 614.078)"/><path class="d" d="M298.384,222.342a51.272,51.272,0,1,1,51.41,49.343,49.067,49.067,0,0,1-51.41-49.343Zm88.761,0a37.489,37.489,0,1,0-37.351,37.076,36.248,36.248,0,0,0,37.351-37.076Z" transform="translate(613.347 610.551)"/><path class="d" d="M397.016,266.019V195.727L362.283,254.3h-6.34l-34.87-58.163v69.879H307.29V169.54h11.3l40.246,67.811,39.694-67.811H409.7v96.479Z" transform="translate(727.659 615.665)"/><path class="d" d="M394.743,203.194c0,20.95-15.161,33.63-40.246,33.63H330.653v29.219H316.87V169.564H354.5C379.582,169.288,394.743,181.969,394.743,203.194Zm-13.783,0c0-13.783-9.235-21.639-26.877-21.639H330.653v43.278h23.431C371.726,224.557,380.96,216.977,380.96,203.194Z" transform="translate(850.117 615.917)"/><path class="d" d="M324,169.54h13.783v84.488H390.02v11.991H324Z" transform="translate(941.259 615.665)"/><path class="d" d="M399.936,254.029v11.991H329.92V169.54h68.087v11.991H343.7v29.633H392.08v11.715H343.7v31.149Z" transform="translate(1016.933 615.665)"/><path class="d" d="M368.678,181.531H335.6V169.54h79.8v11.991H382.461v84.488H368.678Z" transform="translate(1089.539 615.665)"/><path class="d" d="M412.516,254.029v11.991H342.5V169.54h68.087v11.991h-54.3v29.633h48.24v11.715h-48.24v31.149Z" transform="translate(1177.74 615.665)"/><path class="d" d="M349.2,169.668h40.66a48.377,48.377,0,1,1,0,96.479H349.2Zm39.832,84.488a36.387,36.387,0,1,0,0-72.5H362.983v72.5Z" transform="translate(1263.385 615.537)"/><rect class="r" width="215.563" height="205.363" rx="1.18" transform="translate(2495.096 733.519) rotate(90)"/><g class="u" transform="translate(2319.228 767.976)"><path class="d" d="M545.6,170.14H400.47v13.783h12.818l9.1,107.23H523.963l8.959-107.23H545.6ZM511.007,277.37H435.34l-7.856-93.447h92.069Z" transform="translate(-400.47 -144.642)"/><path class="d" d="M464.142,168.29H408.184l-4.824,13.783h65.606Z" transform="translate(-363.528 -168.29)"/></g><rect class="r" width="215.563" height="205.363" rx="1.18" transform="translate(2241.631 733.519) rotate(90)"/><path class="v" d="M522.622,168.29l-22.19,27.565V168.29H383.14V314.8H500.431v-86.28l38.316-47.137ZM486.649,301.018H396.922V182.073h89.726v30.6l-37.627,46.448v17.228l16.677-4.273,21.5-26.463Z" transform="translate(1697.233 599.687)"/><circle class="d" cx="180.279" cy="180.279" r="180.279" transform="translate(60.19 1302.941) rotate(-45)"/><circle class="r" cx="152.713" cy="152.713" r="152.713" transform="translate(131.251 1416.374) rotate(-76.72)"/><path class="v" d="M343.569,282.651c0,19.571-15.023,37.351-47.964,37.351a78.7,78.7,0,0,1-44.1-12.4l10.337-20.4a56.233,56.233,0,0,0,33.079,10.337c13.783,0,21.639-5.375,21.639-14.886s-6.478-13.783-21.639-13.783H282.649V251.227l23.844-27.566h-49.2v-21.5h80.9v17.366L312.144,249.3a32.94,32.94,0,0,1,31.425,33.354Z" transform="translate(14.508 1032.639)"/><rect class="d" width="1404.465" height="270.694" rx="3.07" transform="translate(557.513 1167.677)"/><path class="w" d="M1.124,0H214.438a1.124,1.124,0,0,1,1.124,1.124V1348.209a1.124,1.124,0,0,1-1.124,1.124H1.124A1.124,1.124,0,0,1,0,1348.209V1.124A1.124,1.124,0,0,1,1.124,0Z" transform="translate(1934.274 1195.242) rotate(90)"/><g class="u" transform="translate(1092.974 1227.493)"><path class="d" d="M346.922,203v96.479H333.139V214.991H311.5V203Z" transform="translate(-311.5 -184.118)"/><path class="d" d="M315.6,252.3c0-31.425,16.815-49.342,39.419-49.342S394.3,220.878,394.3,252.3s-16.815,49.343-39.281,49.343S315.6,283.727,315.6,252.3Zm64.917,0c0-24.671-10.475-37.076-25.5-37.076s-25.636,12.4-25.636,37.076,10.475,37.076,25.636,37.076S380.516,276.974,380.516,252.3Z" transform="translate(-259.09 -184.629)"/><path class="d" d="M366.793,201.63h11.991L333.3,331.326H321.31Z" transform="translate(-186.101 -201.63)"/><path class="d" d="M361.039,203v96.479H347.257V214.991H325.48V203Z" transform="translate(-132.797 -184.118)"/><path class="d" d="M329.59,252.3c0-31.425,16.815-49.342,39.418-49.342s39.281,17.918,39.281,49.342-16.815,49.343-39.281,49.343S329.59,283.727,329.59,252.3Zm64.917,0c0-24.671-10.475-37.076-25.5-37.076s-25.636,12.4-25.636,37.076,10.475,37.076,25.636,37.076S394.507,276.974,394.507,252.3Z" transform="translate(-80.259 -184.629)"/></g><rect class="r" width="215.563" height="205.363" rx="1.18" transform="translate(2495.096 1195.242) rotate(90)"/><g class="u" transform="translate(2319.228 1229.698)"><path class="d" d="M545.6,203.64H400.47v13.783h12.818l9.1,107.23H523.963l8.959-107.23H545.6ZM511.007,310.87H435.34l-7.856-93.447h92.069Z" transform="translate(-400.47 -178.142)"/><path class="d" d="M464.142,201.79H408.184l-4.824,13.783h65.606Z" transform="translate(-363.528 -201.79)"/></g><rect class="r" width="215.563" height="205.363" rx="1.18" transform="translate(2241.631 1195.242) rotate(90)"/><path class="v" d="M522.622,201.79l-22.19,27.566V201.79H383.14V348.3H500.431v-86.28l38.316-47.137ZM486.649,334.518H396.922V215.573h89.726v30.46l-37.627,46.448v17.229l16.677-4.273,21.5-26.463Z" transform="translate(1697.233 1027.909)"/><path class="x" d="M2778.712,203.673H242.681a6.891,6.891,0,1,1,0-13.783H2778.712a7.03,7.03,0,0,1,6.891,6.891,6.891,6.891,0,0,1-6.891,6.891Z" transform="translate(-186.31 875.794)"/><path class="x" d="M2778.712,169.673H242.681a6.891,6.891,0,1,1,0-13.783H2778.712a7.03,7.03,0,0,1,6.891,6.892A6.891,6.891,0,0,1,2778.712,169.673Z" transform="translate(-186.31 441.179)"/><rect class="r" width="2542.922" height="987.812" transform="translate(49.48 1541.19)"/><rect class="y" width="2058.595" height="116.602" transform="translate(162.361 1701.896)"/><path class="z" d="M675.814,229.482H260.539A16.815,16.815,0,0,0,244,246.3h0a16.815,16.815,0,0,0,16.815,16.815H676.09A16.815,16.815,0,0,0,692.9,246.3h0a16.816,16.816,0,0,0-17.091-16.815Z" transform="translate(-81.363 1381.861)"/><rect class="y" width="955.973" height="116.602" transform="translate(162.361 2005.118)"/><path class="aa" d="M675.814,251.482H260.539A16.815,16.815,0,0,0,244,268.3h0a16.815,16.815,0,0,0,16.815,16.815H676.09A16.815,16.815,0,0,0,692.9,268.3h0a16.816,16.816,0,0,0-17.091-16.815Z" transform="translate(-81.363 1663.083)"/><rect class="y" width="1601.145" height="116.602" transform="translate(162.361 2280.774)"/><path class="aa" d="M675.814,271.482H260.539A16.815,16.815,0,0,0,244,288.3h0a16.815,16.815,0,0,0,16.815,16.815H676.09A16.815,16.815,0,0,0,692.9,288.3h0a16.816,16.816,0,0,0-17.091-16.815Z" transform="translate(-81.363 1918.738)"/><rect class="y" width="955.973" height="116.602" transform="translate(1264.983 2005.118)"/><path class="aa" d="M755.815,251.482H340.54A16.815,16.815,0,0,0,324,268.3h0a16.815,16.815,0,0,0,16.815,16.815H756.091A16.815,16.815,0,0,0,772.905,268.3h0a16.817,16.817,0,0,0-17.091-16.815Z" transform="translate(941.258 1663.083)"/><rect class="aa" width="116.602" height="116.602" transform="translate(2259.686 1701.896)"/><rect class="aa" width="116.602" height="116.602" transform="translate(2260.926 2005.118)"/><rect class="aa" width="116.602" height="116.602" transform="translate(1801.133 2280.774)"/><circle class="y" cx="33.216" cy="33.216" r="33.216" transform="translate(2676.615 32.94)"/><circle class="y" cx="33.216" cy="33.216" r="33.216" transform="translate(2559.462 32.94)"/><circle class="y" cx="33.216" cy="33.216" r="33.216" transform="translate(2442.308 32.94)"/></g></g></g><path class="ab" d="M-6899.593-19085.594s-41.6-561.035,495.611-520.727" transform="translate(142 60)"/><path class="d" d="M-6271.085-19564.064v57.945l42.246-27.916Z" transform="translate(0.519 -10.4)"/><path class="ab" d="M-3556.727-20235.533s532.361-61.609,522.727,477.564"/><path class="d" d="M-3054.926-19757.969h53.762l-28.017,32.74Z" transform="translate(-5.826 -1)"/></g></svg>