<svg width="240" height="120" viewBox="0 0 345 113" fill="none" xmlns="http://www.w3.org/2000/svg">
<path d="M106.875 38.1375L95 44.6115L83.125 55.7937V94.1667H99.75C103.685 94.1667 106.875 91.005 106.875 87.1042V38.1375Z" fill="#4CAF50"/>
<path d="M7.125 38.1375L15.7082 42.1631L30.875 55.7937V94.1667H14.25C10.3146 94.1667 7.125 91.005 7.125 87.1042V38.1375Z" fill="#1E88E5"/>
<path d="M83.125 26.3667L57 45.7885L30.875 26.3667L28.5 40.0208L30.875 55.7938L57 75.2156L83.125 55.7938L85.5 40.0208L83.125 26.3667Z" fill="#E53935"/>
<path d="M7.125 28.9515V38.1375L30.875 55.7937V26.3667L23.4555 20.8556C21.6885 19.5419 19.5415 18.8333 17.3327 18.8333C11.6945 18.8333 7.125 23.3627 7.125 28.9515Z" fill="#C62828"/>
<path d="M106.875 28.9515V38.1375L83.125 55.7937V26.3667L90.5445 20.8556C92.3115 19.5419 94.4585 18.8333 96.6672 18.8333C102.305 18.8333 106.875 23.3627 106.875 28.9515Z" fill="#FBC02D"/>
<path d="M154.8 30.52C158.427 30.52 161.627 31.08 164.4 32.2C167.227 33.2667 169.893 34.8667 172.4 37L166.72 42.92C164.747 41.3733 162.88 40.2533 161.12 39.56C159.413 38.8667 157.413 38.52 155.12 38.52C150.853 38.52 147.36 40.2267 144.64 43.64C141.92 47.0533 140.56 52.28 140.56 59.32C140.56 66.68 141.627 71.9867 143.76 75.24C145.947 78.4933 149.253 80.12 153.68 80.12C157.04 80.12 159.973 79.4 162.48 77.96V63.56H154.16L153.04 55.72H172.88V82.76C166.907 86.3867 160.56 88.2 153.84 88.2C145.947 88.2 139.893 85.7467 135.68 80.84C131.52 75.9333 129.44 68.76 129.44 59.32C129.44 53.2933 130.56 48.12 132.8 43.8C135.093 39.4267 138.16 36.12 142 33.88C145.84 31.64 150.107 30.52 154.8 30.52ZM228.056 43.48C231.469 43.48 234.189 44.6533 236.216 47C238.242 49.2933 239.256 52.4133 239.256 56.36V87H229.016V57.96C229.016 53.4267 227.469 51.16 224.376 51.16C222.722 51.16 221.282 51.6933 220.056 52.76C218.882 53.7733 217.656 55.3733 216.376 57.56V87H206.136V57.96C206.136 53.4267 204.589 51.16 201.496 51.16C199.789 51.16 198.322 51.6933 197.096 52.76C195.922 53.7733 194.696 55.3733 193.416 57.56V87H183.176V44.68H192.056L192.856 50.2C196.056 45.72 200.136 43.48 205.096 43.48C207.549 43.48 209.656 44.12 211.416 45.4C213.229 46.6267 214.536 48.36 215.336 50.6C217.042 48.3067 218.909 46.5467 220.936 45.32C223.016 44.0933 225.389 43.48 228.056 43.48ZM282.424 75.8C282.424 77.4533 282.664 78.68 283.144 79.48C283.678 80.2267 284.504 80.8133 285.624 81.24L283.464 88.04C281.064 87.8267 279.091 87.24 277.544 86.28C276.051 85.32 274.904 83.8533 274.104 81.88C272.664 84.0133 270.851 85.6133 268.664 86.68C266.531 87.6933 264.131 88.2 261.464 88.2C257.251 88.2 253.918 87 251.464 84.6C249.011 82.2 247.784 79.0533 247.784 75.16C247.784 70.5733 249.438 67.08 252.744 64.68C256.104 62.2267 260.878 61 267.064 61H272.344V58.6C272.344 55.88 271.704 53.9867 270.424 52.92C269.198 51.8 267.198 51.24 264.424 51.24C261.331 51.24 257.598 51.9867 253.224 53.48L250.824 46.52C256.104 44.4933 261.224 43.48 266.184 43.48C277.011 43.48 282.424 48.3333 282.424 58.04V75.8ZM264.184 80.76C267.651 80.76 270.371 79.0267 272.344 75.56V67H268.104C261.491 67 258.184 69.4533 258.184 74.36C258.184 76.3867 258.691 77.96 259.704 79.08C260.718 80.2 262.211 80.76 264.184 80.76ZM305.056 44.68V87H294.816V44.68H305.056ZM299.856 23.24C301.776 23.24 303.323 23.8533 304.496 25.08C305.723 26.2533 306.336 27.72 306.336 29.48C306.336 31.24 305.723 32.7067 304.496 33.88C303.323 35.0533 301.776 35.64 299.856 35.64C297.99 35.64 296.443 35.0533 295.216 33.88C294.043 32.7067 293.456 31.24 293.456 29.48C293.456 27.72 294.043 26.2533 295.216 25.08C296.443 23.8533 297.99 23.24 299.856 23.24ZM327.394 88.2C324.141 88.2 321.581 87.2667 319.714 85.4C317.901 83.48 316.994 80.7867 316.994 77.32V27.72L327.234 26.6V77C327.234 78.9733 328.034 79.96 329.634 79.96C330.434 79.96 331.234 79.8267 332.034 79.56L334.194 86.76C332.061 87.72 329.794 88.2 327.394 88.2Z" fill="#6B7280"/>
</svg>
