<svg width="240" height="100" viewBox="0 0 336 96" fill="none" xmlns="http://www.w3.org/2000/svg">
<path d="M131.4 11.76C133.213 11.76 134.813 12.04 136.2 12.6C137.613 13.1333 138.947 13.9333 140.2 15L137.36 17.96C136.373 17.1867 135.44 16.6267 134.56 16.28C133.707 15.9333 132.707 15.76 131.56 15.76C129.427 15.76 127.68 16.6133 126.32 18.32C124.96 20.0267 124.28 22.64 124.28 26.16C124.28 29.84 124.813 32.4933 125.88 34.12C126.973 35.7467 128.627 36.56 130.84 36.56C132.52 36.56 133.987 36.2 135.24 35.48V28.28H131.08L130.52 24.36H140.44V37.88C137.453 39.6933 134.28 40.6 130.92 40.6C126.973 40.6 123.947 39.3733 121.84 36.92C119.76 34.4667 118.72 30.88 118.72 26.16C118.72 23.1467 119.28 20.56 120.4 18.4C121.547 16.2133 123.08 14.56 125 13.44C126.92 12.32 129.053 11.76 131.4 11.76ZM154.228 18.24C157.348 18.24 159.774 19.24 161.508 21.24C163.268 23.2133 164.148 25.9333 164.148 29.4C164.148 31.6133 163.748 33.5733 162.948 35.28C162.148 36.96 161.001 38.2667 159.508 39.2C158.014 40.1333 156.241 40.6 154.188 40.6C151.068 40.6 148.628 39.6133 146.868 37.64C145.108 35.64 144.228 32.8933 144.228 29.4C144.228 27.1867 144.628 25.24 145.428 23.56C146.228 21.88 147.374 20.5733 148.868 19.64C150.388 18.7067 152.174 18.24 154.228 18.24ZM154.228 22.12C151.161 22.12 149.628 24.5467 149.628 29.4C149.628 31.9067 150.001 33.76 150.748 34.96C151.521 36.1333 152.668 36.72 154.188 36.72C155.708 36.72 156.841 36.12 157.588 34.92C158.361 33.72 158.748 31.88 158.748 29.4C158.748 26.92 158.361 25.0933 157.588 23.92C156.841 22.72 155.721 22.12 154.228 22.12ZM177.587 18.24C180.707 18.24 183.134 19.24 184.867 21.24C186.627 23.2133 187.507 25.9333 187.507 29.4C187.507 31.6133 187.107 33.5733 186.307 35.28C185.507 36.96 184.361 38.2667 182.867 39.2C181.374 40.1333 179.601 40.6 177.547 40.6C174.427 40.6 171.987 39.6133 170.227 37.64C168.467 35.64 167.587 32.8933 167.587 29.4C167.587 27.1867 167.987 25.24 168.787 23.56C169.587 21.88 170.734 20.5733 172.227 19.64C173.747 18.7067 175.534 18.24 177.587 18.24ZM177.587 22.12C174.521 22.12 172.987 24.5467 172.987 29.4C172.987 31.9067 173.361 33.76 174.107 34.96C174.881 36.1333 176.027 36.72 177.547 36.72C179.067 36.72 180.201 36.12 180.947 34.92C181.721 33.72 182.107 31.88 182.107 29.4C182.107 26.92 181.721 25.0933 180.947 23.92C180.201 22.72 179.081 22.12 177.587 22.12ZM210.707 19.96C209.347 20.44 207.307 20.68 204.587 20.68C205.893 21.2667 206.853 22 207.467 22.88C208.107 23.7333 208.427 24.8133 208.427 26.12C208.427 27.5067 208.08 28.7333 207.387 29.8C206.72 30.8667 205.733 31.7067 204.427 32.32C203.147 32.9333 201.64 33.24 199.907 33.24C198.947 33.24 198.107 33.1333 197.387 32.92C196.8 33.32 196.507 33.84 196.507 34.48C196.507 35.4667 197.36 35.96 199.067 35.96H202.307C203.853 35.96 205.2 36.2133 206.347 36.72C207.52 37.2267 208.427 37.9467 209.067 38.88C209.707 39.7867 210.027 40.8133 210.027 41.96C210.027 44.0933 209.12 45.7467 207.307 46.92C205.493 48.12 202.88 48.72 199.467 48.72C197.013 48.72 195.08 48.4667 193.667 47.96C192.28 47.4533 191.293 46.72 190.707 45.76C190.12 44.8 189.827 43.5733 189.827 42.08H194.427C194.427 42.8267 194.56 43.4133 194.827 43.84C195.12 44.2667 195.627 44.5867 196.347 44.8C197.093 45.0133 198.16 45.12 199.547 45.12C201.493 45.12 202.867 44.88 203.667 44.4C204.467 43.92 204.867 43.2267 204.867 42.32C204.867 41.52 204.56 40.8933 203.947 40.44C203.333 40.0133 202.44 39.8 201.267 39.8H198.067C196.067 39.8 194.56 39.4133 193.547 38.64C192.533 37.8667 192.027 36.8933 192.027 35.72C192.027 34.9733 192.24 34.2533 192.667 33.56C193.12 32.8667 193.733 32.28 194.507 31.8C193.227 31.1333 192.28 30.32 191.667 29.36C191.08 28.3733 190.787 27.2 190.787 25.84C190.787 24.32 191.16 22.9867 191.907 21.84C192.653 20.6933 193.68 19.8133 194.987 19.2C196.32 18.56 197.84 18.24 199.547 18.24C201.787 18.2933 203.587 18.1333 204.947 17.76C206.333 17.36 207.827 16.7333 209.427 15.88L210.707 19.96ZM199.627 21.72C198.48 21.72 197.573 22.0933 196.907 22.84C196.267 23.56 195.947 24.5333 195.947 25.76C195.947 27.04 196.28 28.0533 196.947 28.8C197.613 29.5467 198.533 29.92 199.707 29.92C200.933 29.92 201.867 29.56 202.507 28.84C203.147 28.0933 203.467 27.0533 203.467 25.72C203.467 23.0533 202.187 21.72 199.627 21.72ZM218.791 40.6C217.164 40.6 215.884 40.1333 214.951 39.2C214.044 38.24 213.591 36.8933 213.591 35.16V10.36L218.711 9.8V35C218.711 35.9867 219.111 36.48 219.911 36.48C220.311 36.48 220.711 36.4133 221.111 36.28L222.191 39.88C221.124 40.36 219.991 40.6 218.791 40.6ZM242.753 28.92C242.753 29.1867 242.713 29.88 242.633 31H229.353C229.513 33.0533 230.046 34.52 230.953 35.4C231.859 36.28 233.059 36.72 234.553 36.72C235.486 36.72 236.366 36.5733 237.193 36.28C238.019 35.96 238.899 35.48 239.833 34.84L241.953 37.76C239.606 39.6533 236.993 40.6 234.113 40.6C230.886 40.6 228.393 39.6133 226.633 37.64C224.899 35.6667 224.033 32.9733 224.033 29.56C224.033 27.4 224.406 25.4667 225.153 23.76C225.899 22.0267 226.979 20.68 228.393 19.72C229.806 18.7333 231.486 18.24 233.433 18.24C236.393 18.24 238.686 19.1867 240.313 21.08C241.939 22.9467 242.753 25.56 242.753 28.92ZM237.673 27.44C237.673 23.7333 236.299 21.88 233.553 21.88C232.299 21.88 231.313 22.3467 230.593 23.28C229.899 24.1867 229.486 25.6533 229.353 27.68H237.673V27.44ZM128.2 59.76C130.147 59.76 131.84 60.04 133.28 60.6C134.72 61.16 136.067 62.0133 137.32 63.16L134.72 66.16C133.733 65.3333 132.733 64.7333 131.72 64.36C130.733 63.9867 129.667 63.8 128.52 63.8C127.24 63.8 126.2 64.0933 125.4 64.68C124.627 65.24 124.24 66.04 124.24 67.08C124.24 67.7733 124.387 68.3467 124.68 68.8C125 69.2533 125.56 69.68 126.36 70.08C127.16 70.48 128.347 70.92 129.92 71.4C132.64 72.2533 134.68 73.32 136.04 74.6C137.427 75.8533 138.12 77.6933 138.12 80.12C138.12 81.7733 137.693 83.24 136.84 84.52C136.013 85.8 134.813 86.8 133.24 87.52C131.667 88.24 129.8 88.6 127.64 88.6C125.533 88.6 123.64 88.2667 121.96 87.6C120.307 86.9067 118.88 85.9733 117.68 84.8L120.4 81.76C121.467 82.6667 122.573 83.36 123.72 83.84C124.867 84.2933 126.133 84.52 127.52 84.52C129.04 84.52 130.267 84.16 131.2 83.44C132.133 82.72 132.6 81.7067 132.6 80.4C132.6 79.6 132.44 78.9467 132.12 78.44C131.8 77.9067 131.253 77.44 130.48 77.04C129.707 76.6133 128.587 76.1733 127.12 75.72C124.187 74.8133 122.067 73.72 120.76 72.44C119.453 71.16 118.8 69.48 118.8 67.4C118.8 65.88 119.2 64.5467 120 63.4C120.8 62.2533 121.907 61.36 123.32 60.72C124.76 60.08 126.387 59.76 128.2 59.76ZM153.743 66.24C155.609 66.24 157.076 66.8133 158.143 67.96C159.209 69.1067 159.743 70.68 159.743 72.68V88H154.623V73.48C154.623 72.2267 154.396 71.3467 153.943 70.84C153.516 70.3333 152.876 70.08 152.023 70.08C151.169 70.08 150.383 70.36 149.663 70.92C148.943 71.4533 148.249 72.2267 147.583 73.24V88H142.463V58.4L147.583 57.88V69.36C149.289 67.28 151.343 66.24 153.743 66.24ZM183.065 76.92C183.065 77.1867 183.025 77.88 182.945 79H169.665C169.825 81.0533 170.358 82.52 171.265 83.4C172.172 84.28 173.372 84.72 174.865 84.72C175.798 84.72 176.678 84.5733 177.505 84.28C178.332 83.96 179.212 83.48 180.145 82.84L182.265 85.76C179.918 87.6533 177.305 88.6 174.425 88.6C171.198 88.6 168.705 87.6133 166.945 85.64C165.212 83.6667 164.345 80.9733 164.345 77.56C164.345 75.4 164.718 73.4667 165.465 71.76C166.212 70.0267 167.292 68.68 168.705 67.72C170.118 66.7333 171.798 66.24 173.745 66.24C176.705 66.24 178.998 67.1867 180.625 69.08C182.252 70.9467 183.065 73.56 183.065 76.92ZM177.985 75.44C177.985 71.7333 176.612 69.88 173.865 69.88C172.612 69.88 171.625 70.3467 170.905 71.28C170.212 72.1867 169.798 73.6533 169.665 75.68H177.985V75.44ZM205.018 76.92C205.018 77.1867 204.978 77.88 204.898 79H191.618C191.778 81.0533 192.311 82.52 193.218 83.4C194.125 84.28 195.325 84.72 196.818 84.72C197.751 84.72 198.631 84.5733 199.458 84.28C200.285 83.96 201.165 83.48 202.098 82.84L204.218 85.76C201.871 87.6533 199.258 88.6 196.378 88.6C193.151 88.6 190.658 87.6133 188.898 85.64C187.165 83.6667 186.298 80.9733 186.298 77.56C186.298 75.4 186.671 73.4667 187.418 71.76C188.165 70.0267 189.245 68.68 190.658 67.72C192.071 66.7333 193.751 66.24 195.698 66.24C198.658 66.24 200.951 67.1867 202.578 69.08C204.205 70.9467 205.018 73.56 205.018 76.92ZM199.938 75.44C199.938 71.7333 198.565 69.88 195.818 69.88C194.565 69.88 193.578 70.3467 192.858 71.28C192.165 72.1867 191.751 73.6533 191.618 75.68H199.938V75.44ZM221.731 87C220.985 87.5333 220.145 87.9333 219.211 88.2C218.305 88.4667 217.371 88.6 216.411 88.6C214.331 88.5733 212.745 87.9867 211.651 86.84C210.585 85.6667 210.051 83.9467 210.051 81.68V70.52H206.731V66.84H210.051V62.16L215.171 61.56V66.84H220.091L219.571 70.52H215.171V81.56C215.171 82.6 215.345 83.3467 215.691 83.8C216.065 84.2533 216.638 84.48 217.411 84.48C218.185 84.48 219.025 84.2267 219.931 83.72L221.731 87ZM231.291 66.24C234.145 66.24 236.651 67.08 238.811 68.76L236.811 71.76C234.998 70.6133 233.225 70.04 231.491 70.04C230.478 70.04 229.691 70.24 229.131 70.64C228.571 71.0133 228.291 71.52 228.291 72.16C228.291 72.64 228.411 73.04 228.651 73.36C228.891 73.68 229.318 73.9867 229.931 74.28C230.571 74.5467 231.505 74.8533 232.731 75.2C235.025 75.8133 236.718 76.6267 237.811 77.64C238.931 78.6533 239.491 80.0667 239.491 81.88C239.491 83.9867 238.638 85.64 236.931 86.84C235.225 88.0133 233.105 88.6 230.571 88.6C228.838 88.6 227.251 88.3333 225.811 87.8C224.398 87.2667 223.171 86.5333 222.131 85.6L224.691 82.72C226.531 84.1067 228.451 84.8 230.451 84.8C231.598 84.8 232.505 84.5733 233.171 84.12C233.865 83.6667 234.211 83.04 234.211 82.24C234.211 81.6267 234.078 81.1467 233.811 80.8C233.571 80.4267 233.118 80.1067 232.451 79.84C231.811 79.5467 230.798 79.2 229.411 78.8C227.251 78.2133 225.665 77.4 224.651 76.36C223.638 75.2933 223.131 73.9733 223.131 72.4C223.131 71.2267 223.465 70.1733 224.131 69.24C224.825 68.3067 225.785 67.5733 227.011 67.04C228.265 66.5067 229.691 66.24 231.291 66.24Z" fill="#6B7280"/>
<path d="M74 90H22C18.686 90 16 87.314 16 84V12C16 8.686 18.686 6 22 6H60L80 26V84C80 87.314 77.314 90 74 90Z" fill="#43A047"/>
<path d="M80 26H60V6L80 26Z" fill="#C8E6C9"/>
<path d="M60 26L80 46V26H60Z" fill="#2E7D32"/>
<path d="M62 46H34H30V50V54V58V62V66V70V74H66V70V66V62V58V54V50V46H62ZM34 50H42V54H34V50ZM34 58H42V62H34V58ZM34 66H42V70H34V66ZM62 70H46V66H62V70ZM62 62H46V58H62V62ZM62 54H46V50H62V54Z" fill="#E8F5E9"/>
</svg>
