<svg xmlns="http://www.w3.org/2000/svg" width="41" height="41" viewBox="0 0 41 41"><defs><style>.a{fill:#ffc760;}.a,.b{stroke:#2f75ff;}.b{fill:#6bcfff;}</style></defs><g transform="translate(9911.5 11398.109)"><path class="a" d="M72.771,98.509h9.657V88.851H72.771Zm26.784,2.721,6.883-6.883-6.883-6.883-6.883,6.883ZM95.073,120.81h9.657v-9.657H95.073Zm-22.3,0h9.657v-9.657H72.771ZM82.428,98.509ZM92.672,94.347ZM82.428,111.153ZM95.073,111.153Z" transform="translate(-9980.794 -11481.389)"/><path class="b" d="M35.421,25.158a1.545,1.545,0,0,1-.579-.105,1.6,1.6,0,0,1-.526-.368l-9-9a1.6,1.6,0,0,1-.368-.526,1.645,1.645,0,0,1,0-1.158,1.6,1.6,0,0,1,.368-.526l9-9a1.6,1.6,0,0,1,.526-.368,1.645,1.645,0,0,1,1.158,0,1.6,1.6,0,0,1,.526.368l9,9a1.6,1.6,0,0,1,.368.526,1.645,1.645,0,0,1,0,1.158,1.6,1.6,0,0,1-.368.526l-9,9a1.6,1.6,0,0,1-.526.368A1.545,1.545,0,0,1,35.421,25.158ZM7.579,22A1.53,1.53,0,0,1,6,20.421V7.737A1.53,1.53,0,0,1,7.579,6.158H20.263a1.53,1.53,0,0,1,1.579,1.579V20.421A1.53,1.53,0,0,1,20.263,22Zm22,22A1.53,1.53,0,0,1,28,42.421V29.737a1.53,1.53,0,0,1,1.579-1.579H42.263a1.53,1.53,0,0,1,1.579,1.579V42.421A1.53,1.53,0,0,1,42.263,44Zm-22,0A1.53,1.53,0,0,1,6,42.421V29.737a1.53,1.53,0,0,1,1.579-1.579H20.263a1.53,1.53,0,0,1,1.579,1.579V42.421A1.53,1.53,0,0,1,20.263,44ZM9.158,18.842h9.526V9.316H9.158Zm26.421,2.684,6.789-6.789L35.579,7.947l-6.789,6.789ZM31.158,40.842h9.526V31.316H31.158Zm-22,0h9.526V31.316H9.158ZM18.684,18.842ZM28.789,14.737ZM18.684,31.316ZM31.158,31.316Z" transform="translate(-9917 -11401.609)"/></g></svg>