<svg xmlns="http://www.w3.org/2000/svg" width="512" height="451.212" viewBox="0 0 512 451.212"><defs><style>.a{fill:#f0f0f0;}.b{fill:#e0e0e0;}.c{fill:#2f75ff;}.d{opacity:0.1;}.e{fill:#6bcfff;opacity:0.5;}.f{opacity:0.2;}.g{fill:#ffa8a7;}.h{fill:#263238;}.i{opacity:0.15;}.j{fill:#f28f8f;}.k{fill:#e6e6e6;}.l{fill:#b16668;}.m{fill:#455a64;}.n{fill:#37474f;}.o{fill:#9a4a4d;}.p{fill:#fafafa;}.q{fill:#ffc760;}.r{fill:#dfe5eb;}</style></defs><g transform="translate(-13.44 -65.849)"><g transform="translate(13.44 243.584)"><path class="a" d="M88.428,461.446c99.966,53.4,262.053,53.4,362.029,0s99.977-139.97,0-193.378-262.064-53.4-362.04,0S-11.549,408.06,88.428,461.446Z" transform="translate(-13.44 -228.016)"/></g><g transform="translate(140.773 379.119)"><ellipse class="b" cx="43.697" cy="25.23" rx="43.697" ry="25.23" transform="translate(269.725)"/><ellipse class="b" cx="43.697" cy="25.23" rx="43.697" ry="25.23" transform="translate(0 4.494)"/></g><g transform="translate(39.963 65.849)"><path class="c" d="M37.651,232.5a8.516,8.516,0,0,1,3.847-6.686L238.777,111.9a8.549,8.549,0,0,1,7.672,0l4.384,2.51a8.527,8.527,0,0,1,3.858,6.675V272.332a8.582,8.582,0,0,1-3.858,6.686L53.554,392.935a8.615,8.615,0,0,1-7.672,0l-4.384-2.51a8.549,8.549,0,0,1-3.858-6.686Z" transform="translate(-37.64 -61.515)"/><path class="c" d="M246.427,116.233,148.949,67.352a10.127,10.127,0,0,0-14.16,3.7L38.67,233.033l5.1,2.937L251.436,119.192Z" transform="translate(-37.541 -65.849)"/><path class="d" d="M246.427,116.233,148.949,67.352a10.127,10.127,0,0,0-14.16,3.7L38.67,233.033l5.1,2.937L251.436,119.192Z" transform="translate(-37.541 -65.849)"/><path class="d" d="M37.64,222.179V373.427a8.516,8.516,0,0,0,3.869,6.675l4.384,2.521a7.24,7.24,0,0,0,1.1.471,7.837,7.837,0,0,0,1.589.362,9.174,9.174,0,0,0,3.047-.11,2.588,2.588,0,0,0,.745-.2,2.762,2.762,0,0,0,.449-.186,2.269,2.269,0,0,1-1.841,0,2.674,2.674,0,0,1-1.184-2.532V229.183a3.387,3.387,0,0,1,2.006-3.288l-2.006-1.162-10.96-6.313a7.968,7.968,0,0,0-1.195,3.759Z" transform="translate(-37.64 -51.202)"/><path class="e" d="M253.283,117.348,164.365,259.641l-4.384-.855a17.941,17.941,0,0,0-17.952,7.069l-5.392,7.431-85.488-37.45L43.29,231.3,251,114.52A8.768,8.768,0,0,1,253.283,117.348Z" transform="translate(-37.098 -61.176)"/><path class="c" d="M250.989,118.939a14.1,14.1,0,0,0-1.677-1.1L153.665,70.035a10.127,10.127,0,0,0-14.248,3.7L43.32,235.717Z" transform="translate(-37.095 -65.595)"/><path class="f" d="M241.773,264.093a8.45,8.45,0,0,0,1.808-4.724L153.71,246.93Z" transform="translate(-26.498 -48.466)"/><path class="f" d="M136.128,259.38,49.544,378.745a2.893,2.893,0,0,1-.833-2.28v-1.644Z" transform="translate(-36.578 -47.27)"/></g><g transform="translate(378.68 141.277)"><path class="g" d="M399.758,223.2c13.4-11.519,25.931-37.757,22.358-45.944-6.17-.318-10.686,2.028-14.653,9.327,0,0-11.267,21.92-17.591,28.375a45.681,45.681,0,0,1-19.728,12.3,13.218,13.218,0,0,1-4.954-.1c-2.795-.855-4.384-.121-7.047-.252-2.115-.1-3.211-.789-3.452-.329a2.4,2.4,0,0,0,1.184,3.047,12.419,12.419,0,0,0,3.2,1.195,24.475,24.475,0,0,1-6.773,1.1c-5.48.164-7.8,1.973-3.025,7.091,2.356,2.521,8.593,4.055,17.065,1.786a94.006,94.006,0,0,0,10.576-4.154A95.5,95.5,0,0,0,399.758,223.2Z" transform="translate(-346.689 -130.585)"/><path class="h" d="M435.682,365.751V364.37c-.548,1.622-3.058,8.56-6.872,12.056-3.036,2.762-7.179,5.962-8.231,9.042s5.765,4.285,8.593,3.781c3.288-.581,7.551-2.444,9.864-5.294,1.633-2.006,2.663-4.384,3.836-5.951s3.847-3.343,4.472-5.162c.351-1-.066-3.189-.548-5.042s-.932-3.573-1.512-3.419v1.1a7.519,7.519,0,0,1-4.8,1.622C439.08,367.1,435.671,366.825,435.682,365.751Z" transform="translate(-339.606 -112.62)"/><path class="g" d="M425.661,379.538l2.751-2.444c2.663-2.433,4.691-6.576,5.864-9.371a13.152,13.152,0,0,0,1.008-5.063v-5.48H444.9V366.1h0v.241h0c-.46,2.006-4.877,7.321-7.387,10.785-1.677,2.324-4.877,5.283-8.691,5.787C425.157,383.418,423.316,382.278,425.661,379.538Z" transform="translate(-339.208 -113.31)"/><path class="h" d="M401.451,357.121V355.74c-.537,1.622-3.058,8.56-6.872,12.056-3.036,2.762-7.168,5.962-8.22,9.042s5.754,4.285,8.593,3.781c3.288-.581,7.551-2.444,9.864-5.294,1.622-2.006,2.663-4.384,3.825-5.951s3.847-3.288,4.483-5.162c.34-1-.066-3.189-.548-5.042s-.932-3.573-1.512-3.42v1.1a7.552,7.552,0,0,1-4.811,1.622C404.86,358.447,401.44,358.217,401.451,357.121Z" transform="translate(-342.891 -113.448)"/><path class="g" d="M391.442,370.888c.932-.844,1.885-1.666,2.74-2.444,2.663-2.433,4.7-6.576,5.864-9.371a13.152,13.152,0,0,0,1.008-5.064v-5.48h9.623v8.921h0v.241h0c-.46,2.006-4.866,7.321-7.376,10.785-1.688,2.324-4.877,5.283-8.691,5.787C390.938,374.768,389.086,373.628,391.442,370.888Z" transform="translate(-342.494 -114.14)"/><path class="c" d="M445.663,229.481c7.453,16.276-.274,73.64-.274,73.64.23,2.641,3.288,7.836,4.384,19.476,1.326,13.733-2.082,48.224-2.082,48.224a10.434,10.434,0,0,1-9.721.384s-9.163-51.972-10.894-65.628c-1.5-11.924-4.384-38.141-4.384-38.141l-8.209,38.075a70.837,70.837,0,0,1,2.6,11.771c.778,8.034-7,45.451-7,45.451s-3.288,1.217-9.623.285c0,0-2.751-49.649-3.474-59.337-1.217-16.254,3.1-66.987,6.083-76.61Z" transform="translate(-341.882 -125.8)"/><path class="i" d="M421.926,265.813,419.5,250.688s-10.237-2.126-14.884-6.488c0,0,4.866,6.061,12.111,8.045l2.718,11.639-4.757,35.258Z" transform="translate(-341.128 -124.156)"/><path class="a" d="M432.063,177.686h0c9.557.658,10.226,5.272,12.615,10.324a16.44,16.44,0,0,1,.46,12.319L438.475,219.6s3.113,7.54,6.74,14.664c-16.714,9.327-37.593,4.384-42.612-2.389-.219-1.447,1.1-12.735,1.874-20.1-2.948-7.387-3.726-12.056-2.477-16.955,2.3-9.053,11.256-17.887,15.212-17.536Z" transform="translate(-341.434 -130.58)"/><path class="h" d="M7.913,0H42.777V24.748a19.64,19.64,0,0,1-19.64,19.64h-3.5A19.64,19.64,0,0,1,0,24.748V7.913A7.913,7.913,0,0,1,7.913,0Z" transform="translate(103.584 44.388) rotate(180)"/><path class="h" d="M438.85,137,436,141.647a2.663,2.663,0,0,0,3.77-.767,2.882,2.882,0,0,0-.921-3.88Z" transform="translate(-338.115 -134.446)"/><path class="h" d="M442.714,140.88l-5.414.811a2.652,2.652,0,0,0,3.025,2.367,2.882,2.882,0,0,0,2.389-3.178Z" transform="translate(-337.991 -134.074)"/><path class="g" d="M410,142.57c-2.258,1.337-5.053,7.014-4.779,18.928.241,10.105,3.507,12.593,5.151,13.316s4.811.274,7.891-.23v6.061s-4.252,4.943-3.989,7.672,6.149,3.441,10.138.723a26.008,26.008,0,0,0,6.576-6.85v-14.6s2.071,2.773,5.48.515,3.529-7.847,1.545-9.864-6.236-1.37-7.025,1.4c0,0-4.921.175-11.464-3.42A18.4,18.4,0,0,1,410,142.57Z" transform="translate(-341.072 -133.912)"/><path class="h" d="M416.541,157.64a1.263,1.263,0,1,0,1.337-1.26A1.3,1.3,0,0,0,416.541,157.64Z" transform="translate(-339.984 -132.586)"/><path class="j" d="M415.458,165.34l-2.948.943a1.512,1.512,0,0,0,1.918,1.1,1.622,1.622,0,0,0,1.03-2.039Z" transform="translate(-340.37 -131.726)"/><path class="h" d="M407.022,154.218l2.576-1.776a1.5,1.5,0,0,0-2.137-.438,1.633,1.633,0,0,0-.438,2.214Z" transform="translate(-340.922 -133.032)"/><path class="h" d="M407.58,156.8a1.273,1.273,0,1,0,1.332-1.211,1.273,1.273,0,0,0-1.332,1.211Z" transform="translate(-340.844 -132.662)"/><path class="j" d="M413.611,156.03l-.2,7.639-4.033-1.238Z" transform="translate(-340.671 -132.62)"/><path class="j" d="M417.12,172.217c3.288-.427,9.93-2.345,10.96-4.987a6.861,6.861,0,0,1-2.324,3.365c-1.995,1.71-8.625,3.639-8.625,3.639Z" transform="translate(-339.928 -131.544)"/><path class="k" d="M427.082,235.036a10.083,10.083,0,0,0,7.519-12.308,5.128,5.128,0,0,0-.164-.526,3.288,3.288,0,0,0-3.387-2.247h0a9.776,9.776,0,0,0,4.176-6.225l2.028-12.056a13.974,13.974,0,0,0-.515-5.864l6.718-7.771,1.249.866a16.834,16.834,0,0,1-.274,10.412l-6.664,19.268s3.113,7.54,6.74,14.664a43.237,43.237,0,0,1-35.719,2.367A49.111,49.111,0,0,0,427.082,235.036Z" transform="translate(-340.727 -129.547)"/><path class="g" d="M459.4,225.538c-8.68-35.466-15.1-47.292-25.646-47.128-3.069,3.683-2.192,14.8,2.641,21.536,0,0,10.839,22.873,12.571,31.006,1.523,7.146,3.288,16.133,3.135,22.282a4.45,4.45,0,0,1-1.206,2.915c-1.973,2.192-1.984,3.88-3.288,6.258-1.008,1.852-2.1,2.554-1.8,2.97a2.4,2.4,0,0,0,3.288.241,12.516,12.516,0,0,0,2.477-2.367,24.67,24.67,0,0,1-1.962,6.576c-2.192,5.02-1.688,7.584,5.1,5.8,4.241-1.1,6.9-4.658,7.54-14.862a78.059,78.059,0,0,0,.11-11.3C461.442,239.753,460.784,231.248,459.4,225.538Z" transform="translate(-338.503 -130.471)"/></g><g transform="translate(154.187 74.804)"><g transform="translate(0 68.716)"><path class="l" d="M239.664,200.912c-1.666,1.381-3.573,2.082-5.765,4.22a12.944,12.944,0,0,1-5.1,3.54c-2.532,1-4.91.7-11.924-.416-8.593-1.381-12.286-2.817-15.991-5.984-4.329-3.693-14.007-14.829-18.7-19.213-4.943-4.625-11.76-2.839-11.76-2.839a71.1,71.1,0,0,0,9.294,19.279c3.748,5.337,10.752,10.445,13.93,13.086,5.063,4.22,7.76,5.885,18.906,6.718,8.406.636,9.524.844,16.44.636,2.488-.077,4.044-.1,8.11-.438a23.411,23.411,0,0,0,5.228-.91,19.377,19.377,0,0,0,5.48-2.192,14.752,14.752,0,0,0,5.2-5.842,9.173,9.173,0,0,0,.964-4.2,6.127,6.127,0,0,0-1.512-3.978,1.633,1.633,0,0,0-.7-.515,2.049,2.049,0,0,0-1.512.318c-2.641,1.359-5.294,3.211-8.045,4.274-2.334.9-4.1,1.206-3.935.734s1.578-.9,3.025-2.532,1.808-3.9.877-4.6S241.341,199.531,239.664,200.912Z" transform="translate(-139.117 -132.574)"/><path class="m" d="M168.61,180.271a12.834,12.834,0,0,1,8.516-.921c4.384,1.238,7.814,4.077,11.946,8.5s11.1,11.618,11.1,11.618-3.43,8.691-11.146,11.771l-16.177-14.96Z" transform="translate(-139.291 -132.658)"/><rect class="l" width="9.809" height="16.791" transform="translate(15.356 262.998) rotate(180)"/><path class="l" d="M171.69,366.776l9.8.34.493-17.766-10.291-.34Z" transform="translate(-138.996 -116.338)"/><path class="n" d="M143.241,248.174c0,9.36,1.655,63.831,1.655,63.831-.23,2.7-2.828,7.486-3.025,17.2-.3,14.073,5.129,52.717,5.129,52.717a12.889,12.889,0,0,0,10.96.219s4.45-52.389,6.2-66.319c1.534-12.166,4.132-45.2,4.132-45.2l4.625,39.7A55.776,55.776,0,0,0,171.7,325.9c.46,6.444,2.269,46.35,2.269,46.35a13.371,13.371,0,0,0,11.322.866s6.916-56.882,7.036-62.8c.132-6.74-2.565-75.547-2.565-75.547Z" transform="translate(-141.859 -127.305)"/><path class="a" d="M149.564,184.641a9.02,9.02,0,0,0-4.735,4.921,23.1,23.1,0,0,0-1.436,8.472v19.224l-.274,36.277c14.073,7.42,31.97,7.913,46.985-3.047,0,0-.844-46.7-.844-54.339v-1.1c-.548-10.96-11.289-18.4-21.865-15.684l-8.889,2.291Z" transform="translate(-141.738 -132.677)"/><circle class="h" cx="13.481" cy="13.481" r="13.481" transform="translate(16.775 26.241) rotate(-76.72)"/><path class="h" d="M150.71,160.27s2.192,10.259,3.069,11.946a4.581,4.581,0,0,0,2.685,2.192l-.153-7.212Z" transform="translate(-141.01 -134.457)"/><path class="h" d="M153.657,146.863a5.031,5.031,0,0,0-4.176,1.469c-1.8,1.841-.8,7.6,1.436,13.229l4.121.471Z" transform="translate(-141.217 -135.747)"/><path class="l" d="M156.418,162.587c-.822.493-1.995-1.1-3.014-2.192s-4.384-2.51-6,.975,1.458,8.253,4.077,9.075c4.5,1.414,5.184-1.469,5.184-1.469L157,185.724h0c5.6,7.179,21.153,6.576,14.675-.932v-4.943a28.432,28.432,0,0,0,6.083.318c3.288-.515,5.392-3.135,6.4-6.718,1.611-5.765,2.192-10.412.855-21.745-1.5-12.418-15.947-12.549-23.739-7.672S156.418,162.587,156.418,162.587Z" transform="translate(-141.369 -136.303)"/><path class="h" d="M155.9,164.424c-.416,0-1.984-2.608-3.014-3.551-1.425-1.293.406-13.009.406-13.009a5.568,5.568,0,0,1,1.381-5.929c1.951-2.192,4.066-3.507,9.689-3.8a114.182,114.182,0,0,1,11.508.537c5.557.373,7.6-.986,10.785-1.885,2.444-.68,2.718,8.121-3.441,11.037,0,0-2.006,1.293-7.288,1.94a77.817,77.817,0,0,1-14.621-.274c-1.523-.208-1.852,1.271-2.685,5.327C157.9,158.331,157.3,164.359,155.9,164.424Z" transform="translate(-140.853 -136.715)"/><path class="h" d="M153.657,148.062l-4.987-2.685a2.751,2.751,0,0,1,3.781-1.238A2.97,2.97,0,0,1,153.657,148.062Z" transform="translate(-141.206 -136.037)"/><path class="o" d="M170.677,177.041s-7.387-1.491-9.974-2.861a8.625,8.625,0,0,1-3.584-3.54,11.826,11.826,0,0,0,2.039,4.176c1.885,2.411,11.519,4.2,11.519,4.2Z" transform="translate(-140.394 -133.461)"/><path class="h" d="M169.419,159.13a1.48,1.48,0,1,1-1.48-1.48A1.48,1.48,0,0,1,169.419,159.13Z" transform="translate(-139.498 -134.708)"/><path class="h" d="M168.027,154l-3.167,1.754a1.9,1.9,0,0,1,.734-2.532,1.776,1.776,0,0,1,2.433.778Z" transform="translate(-139.673 -135.154)"/><path class="o" d="M168.889,168.36l3.387,1.26a1.776,1.776,0,0,1-2.3,1.1A1.9,1.9,0,0,1,168.889,168.36Z" transform="translate(-139.274 -133.68)"/><path class="h" d="M181.083,155.258l-2.893-2.192a1.765,1.765,0,0,1,2.521-.384A1.907,1.907,0,0,1,181.083,155.258Z" transform="translate(-138.372 -135.22)"/><path class="h" d="M180.261,158.765a1.5,1.5,0,1,1-.416-1.082,1.491,1.491,0,0,1,.416,1.082Z" transform="translate(-138.459 -134.749)"/><path class="o" d="M173.13,157.35l.482,8.91,4.658-1.589Z" transform="translate(-138.857 -134.737)"/><path class="h" d="M156.931,372.393V371c.932.406,3.113,8.768,7,12.275,3.091,2.817,7.31,6.072,8.384,9.217s-5.875,5.085-8.768,4.57c-3.354-.592-9.173-2.959-10.631-5.151s-2.192-5.425-3.288-7.025-3.924-3.409-4.57-5.261c-.351-1.019.066-3.288.559-5.151s.954-3.639,1.545-3.474v1.1a7.672,7.672,0,0,0,4.9,1.655C153.457,373.763,156.942,373.489,156.931,372.393Z" transform="translate(-141.564 -114.228)"/><path class="h" d="M181.855,362.826c.5,0,.921.734,2.039,1.951a21.481,21.481,0,0,0,5.776,4.154c3.672,1.841,10.807,4.669,14.04,6.116,2.017.91,1.918,3.354-.164,4.735s-7.124,2.389-13.152,1.041c-3.288-.734-7.584-3.781-10.3-3.617s-7.793.121-9.8-1.26-1.195-4.329-.636-6.861c.625-2.773,1.392-7.08,2.313-6.894v.954c1.173,1.786,7.255,2.51,9.864,1.195Z" transform="translate(-139.253 -115.074)"/><path class="h" d="M165.94,268.155A36.277,36.277,0,0,0,179.6,260.33s-2.63,4.932-10.467,9.524l1.1,34.666Z" transform="translate(-139.548 -124.851)"/></g><path class="p" d="M352.444,78.294c-.164-1.228-1.162-1.677-2.345-.986L221.287,151.693a4.954,4.954,0,0,0-1.677,1.776l-4.45-2.576a4.822,4.822,0,0,1,1.677-1.765L345.649,74.743a4.384,4.384,0,0,1,6.8,3.551Z" transform="translate(-134.823 -74.02)"/><path class="b" d="M220.9,381.651a6.335,6.335,0,0,1-1.392.34,4.691,4.691,0,0,1-2.762-.471,5.1,5.1,0,0,1-2.192-4.022V146.505a2.472,2.472,0,0,1,0-.285,5.552,5.552,0,0,1,.1-.592,5.985,5.985,0,0,1,.592-1.469l4.45,2.576A4.855,4.855,0,0,0,219,149.07V380.062c0,1.1.537,1.7,1.3,1.7a1.457,1.457,0,0,0,.307,0,1.569,1.569,0,0,0,.285-.11Z" transform="translate(-134.882 -67.287)"/><path class="p" d="M218.59,155.554V386.546c0,1.512,1.1,2.126,2.367,1.359L349.77,313.53a5.261,5.261,0,0,0,2.367-4.11V78.428c0-1.512-1.1-2.126-2.367-1.37L220.957,151.444a5.206,5.206,0,0,0-2.367,4.11Z" transform="translate(-134.493 -73.759)"/><path class="q" d="M240.885,178.212a1.589,1.589,0,0,1-.274-1.1v-23.2a3.288,3.288,0,0,1,.274-1.447,2.072,2.072,0,0,1,.877-.943l1.9-1.1q.647-.362.888-.1a1.732,1.732,0,0,1,.263,1.162v23.18a3.288,3.288,0,0,1-.263,1.414,2.06,2.06,0,0,1-.888.932l-1.9,1.1C241.356,178.343,241.038,178.376,240.885,178.212Z" transform="translate(-132.381 -66.705)"/><path class="q" d="M247.644,174.857a1.611,1.611,0,0,1-.263-1.1V150.515a3.409,3.409,0,0,1,.263-1.425,2.192,2.192,0,0,1,.9-.932l1.578-.9a.658.658,0,0,1,1.1.208l7.113,11.344V144.224a3.551,3.551,0,0,1,.263-1.447,2.049,2.049,0,0,1,.877-.932l1.907-1.1c.416-.252.712-.285.888-.11a1.841,1.841,0,0,1,.252,1.162v23.191a3.508,3.508,0,0,1-.252,1.414,2.1,2.1,0,0,1-.888.921l-1.6.921a.658.658,0,0,1-1.1-.23l-7.135-11.278v14.577a3.529,3.529,0,0,1-.252,1.425,2.05,2.05,0,0,1-.888.921l-1.907,1.1C248.115,175.021,247.819,175.021,247.644,174.857Z" transform="translate(-131.731 -67.635)"/><path class="q" d="M270.6,161.895a1.26,1.26,0,0,1-.384-.68L263.8,140.764a2.921,2.921,0,0,1-.077-.581.975.975,0,0,1,.46-.932l3.047-1.765c.241-.132.416-.164.548-.077a.877.877,0,0,1,.285.493l4.066,14.434,4.066-19.125a1.885,1.885,0,0,1,.866-1.392l3.047-1.765c.3-.175.449,0,.449.406a3.361,3.361,0,0,1-.077.669l-6.39,27.849a4.2,4.2,0,0,1-.395,1.1,1.633,1.633,0,0,1-.625.592l-1.852,1.1C270.932,161.928,270.724,161.971,270.6,161.895Z" transform="translate(-130.162 -68.647)"/><path class="q" d="M281.845,154.562a1.644,1.644,0,0,1-.274-1.1v-23.2a3.475,3.475,0,0,1,.274-1.447,2.071,2.071,0,0,1,.877-.943l1.9-1.1c.427-.241.723-.274.9-.1a1.819,1.819,0,0,1,.252,1.162v23.18a3.442,3.442,0,0,1-.252,1.414,2.192,2.192,0,0,1-.9.932l-1.9,1.1C282.316,154.693,282.042,154.726,281.845,154.562Z" transform="translate(-128.448 -68.975)"/><path class="q" d="M292.913,148.719a1.611,1.611,0,0,1-.263-1.1V127.446l-4.165,2.411c-.406.23-.69.263-.844.11a1.83,1.83,0,0,1-.23-1.1v-1.447a3.606,3.606,0,0,1,.23-1.425,1.962,1.962,0,0,1,.844-.877l12.538-7.234c.405-.241.69-.274.855-.11a1.907,1.907,0,0,1,.241,1.162v1.436a3.485,3.485,0,0,1-.241,1.392,2.017,2.017,0,0,1-.855.888l-4.165,2.4V145.19a3.287,3.287,0,0,1-.263,1.425,2.093,2.093,0,0,1-.9.932l-1.885,1.1C293.384,148.829,293.088,148.872,292.913,148.719Z" transform="translate(-127.888 -69.829)"/><path class="q" d="M303.115,142.718a1.589,1.589,0,0,1-.274-1.1v-23.2a3.289,3.289,0,0,1,.274-1.447,2,2,0,0,1,.877-.932l10.533-6.094c.406-.23.69-.263.844-.11a1.929,1.929,0,0,1,.219,1.1v1.447a3.848,3.848,0,0,1-.219,1.425,1.962,1.962,0,0,1-.844.877L307.039,119v6.181l5.228-3.025c.406-.23.68-.274.833-.11a1.83,1.83,0,0,1,.23,1.1v1.37a3.55,3.55,0,0,1-.23,1.414,1.874,1.874,0,0,1-.833.877l-5.228,3.025v6.214l7.464-4.307c.406-.241.68-.263.833-.1a1.929,1.929,0,0,1,.23,1.162v1.4a3.42,3.42,0,0,1-.23,1.4,1.885,1.885,0,0,1-.833.855l-10.511,6.072C303.586,142.9,303.29,142.9,303.115,142.718Z" transform="translate(-126.407 -70.59)"/><path class="r" d="M241.265,197.921l84.326-48.662c1.315-.767,2.378-.153,2.378,1.37v2.192a5.272,5.272,0,0,1-2.378,4.11L241.3,205.6c-1.315.756-2.378.142-2.378-1.37v-2.192A5.239,5.239,0,0,1,241.265,197.921Z" transform="translate(-132.542 -66.829)"/><path class="r" d="M253.458,211.73l57.573-33.242c1.315-.756,2.378-.142,2.378,1.37v2.192a5.239,5.239,0,0,1-2.378,4.11l-57.573,33.231c-1.315.756-2.378.142-2.378-1.37v-2.192A5.239,5.239,0,0,1,253.458,211.73Z" transform="translate(-131.375 -64.022)"/><path class="r" d="M253.454,225.991l57.573-33.231c1.337-.8,2.433-.142,2.433,1.392v2.192a5.239,5.239,0,0,1-2.378,4.11L253.508,233.7c-1.315.756-2.378.142-2.378-1.37v-2.192a5.239,5.239,0,0,1,2.324-4.143Z" transform="translate(-131.37 -62.654)"/><path class="r" d="M253.458,240.259l57.573-33.231c1.315-.756,2.378-.142,2.378,1.37v2.192a5.239,5.239,0,0,1-2.378,4.11l-57.573,33.231c-1.315.756-2.378.142-2.378-1.37v-2.192A5.239,5.239,0,0,1,253.458,240.259Z" transform="translate(-131.375 -61.283)"/><path class="r" d="M241.265,271.142l84.326-48.673c1.315-.756,2.378-.142,2.378,1.37v2.192a5.272,5.272,0,0,1-2.378,4.11L241.3,278.814c-1.315.756-2.378.142-2.378-1.37v-2.192A5.239,5.239,0,0,1,241.265,271.142Z" transform="translate(-132.542 -59.8)"/><path class="r" d="M253.458,285.01l57.573-33.242c1.315-.756,2.378-.142,2.378,1.37v2.192a5.239,5.239,0,0,1-2.378,4.11l-57.573,33.274c-1.315.756-2.378.142-2.378-1.37v-2.192A5.239,5.239,0,0,1,253.458,285.01Z" transform="translate(-131.375 -56.988)"/><path class="r" d="M253.458,299.27l57.573-33.242c1.315-.756,2.378-.153,2.378,1.37v2.192a5.239,5.239,0,0,1-2.378,4.11l-57.573,33.242c-1.315.756-2.378.142-2.378-1.37V303.38a5.239,5.239,0,0,1,2.378-4.11Z" transform="translate(-131.375 -55.619)"/><path class="r" d="M253.458,313.54,311.031,280.3c1.315-.756,2.378-.142,2.378,1.37v2.192a5.239,5.239,0,0,1-2.378,4.11L253.458,321.2c-1.315.756-2.378.142-2.378-1.37v-2.192A5.239,5.239,0,0,1,253.458,313.54Z" transform="translate(-131.375 -54.249)"/><path class="l" d="M219.561,224.96c-1.841,1.1-3.836,1.567-6.3,3.376-2.192,1.589-3.135,1.6-5.579,2.192-2.641.647-23.586-5.546-27.246-8.768-5.7-4.976-15.793-22.928-19.564-27.236-3.1-3.551-7.409-8.362-11.234-8.384-6.324,1.918-4.888,11.322.395,19.783,4.384,7,13.393,20.988,22.8,27.159,4.559,2.992,26.852,8.264,33.833,8.713,2.115.142,5.875,1.1,9.206,1.271a18.632,18.632,0,0,0,9.535-1.633,14.752,14.752,0,0,0,5.962-5.053,9.469,9.469,0,0,0,1.545-4.033,6.225,6.225,0,0,0-.954-4.154,1.732,1.732,0,0,0-.625-.6,2.061,2.061,0,0,0-1.545.11c-2.795.975-5.677,2.444-8.56,3.113-2.433.559-4.231.625-3.989.186s1.688-.68,3.343-2.093a5.36,5.36,0,0,0,.57-.548v-4.384a16.446,16.446,0,0,0-1.589.986Z" transform="translate(-141.514 -63.257)"/><path class="m" d="M149.377,184.151c-4.68,2.28-6.576,5.765-4.494,13.536,1.863,6.971,9.009,18.851,14.632,24.671,0,0,9.612-4.559,14.741-10.478-5.074-7.76-7.508-12.319-12.275-18.884S152.227,183.362,149.377,184.151Z" transform="translate(-141.65 -63.459)"/></g></g></svg>