<svg xmlns="http://www.w3.org/2000/svg" width="512" height="462.144" viewBox="0 0 512 462.144"><defs><style>.a{fill:#2f75ff;}.b{opacity:0.9;}.c,.f,.h,.i,.r{fill:#fff;}.d{fill:#f5f5f5;}.e,.j{fill:#263238;}.f,.j,.l,.o,.s{opacity:0.2;}.g,.i,.w{opacity:0.3;}.h{opacity:0.6;}.k,.n,.r,.t{opacity:0.1;}.m,.q{fill:#6bcfff;}.p{fill:#ffc760;}.q{opacity:0.836;}.s,.t,.v{isolation:isolate;}.u{fill:#ff8b7b;}.v{opacity:0.4;}.x{fill:#a02724;}</style></defs><g transform="translate(-51.29 -73.69)"><g transform="translate(56.002 138.796)"><path class="a" d="M483.706,389.683,197.84,475.4a78.375,78.375,0,0,1-98.906-57.514l-42.079-172.2a78.4,78.4,0,0,1,75.061-95.962L440.2,144.444c62.954-1.069,128.165,47.862,117.972,154.968h0a105.2,105.2,0,0,1-74.467,90.271Z" transform="translate(-54.859 -116.136)"/><g class="b" transform="translate(0 28.291)"><path class="c" d="M483.706,389.683,197.84,475.4a78.375,78.375,0,0,1-98.906-57.514l-42.079-172.2a78.4,78.4,0,0,1,75.061-95.962L440.2,144.444c62.954-1.069,128.165,47.862,117.972,154.968h0a105.2,105.2,0,0,1-74.467,90.271Z" transform="translate(-54.859 -144.427)"/></g><path class="c" d="M175.481,336.181,220.8,123H172.484L127.17,336.181Z" transform="translate(-31.695 -123)"/><path class="c" d="M175.481,336.181,220.8,123H172.484L127.17,336.181Z" transform="translate(-31.695 -123)"/><path class="c" d="M175.481,336.181,220.8,123H172.484L127.17,336.181Z" transform="translate(-31.695 -123)"/><path class="c" d="M175.481,336.181,220.8,123H172.484L127.17,336.181Z" transform="translate(-31.695 -123)"/><path class="c" d="M175.481,336.181,220.8,123H172.484L127.17,336.181Z" transform="translate(-31.695 -123)"/><path class="c" d="M175.481,336.181,220.8,123H172.484L127.17,336.181Z" transform="translate(-31.695 -123)"/><path class="c" d="M175.481,336.181,220.8,123H172.484L127.17,336.181Z" transform="translate(-31.695 -123)"/></g><g transform="translate(51.29 505.942)"><ellipse class="d" cx="256" cy="14.946" rx="256" ry="14.946"/></g><g transform="translate(72.652 167.048)"><path class="e" d="M163.89,420.1v3.855a3.618,3.618,0,0,0,3.618,3.6h138.12a3.314,3.314,0,0,0,3.327-3.327v-3.7a3.314,3.314,0,0,0-3.327-3.327H271.3a6.3,6.3,0,0,1-6.206-7.367l12.055-69.608H198.681l-33.589,74.335A13.282,13.282,0,0,0,163.89,420.1Z" transform="translate(-36.582 -81.666)"/><path class="f" d="M308.955,420.48V424.2a3.3,3.3,0,0,1-3.314,3.314H167.508a3.618,3.618,0,0,1-3.618-3.6v-3.855a13.2,13.2,0,0,1,.343-3.037,14.023,14.023,0,0,1,.845-2.509l33.6-74.322h78.468l-12.055,69.727a4.818,4.818,0,0,0-.092,1.228,6.272,6.272,0,0,0,4.978,5.994,5.278,5.278,0,0,0,1.32.145h34.329A3.314,3.314,0,0,1,308.955,420.48Z" transform="translate(-36.582 -81.679)"/><path class="e" d="M161.718,414.565l33.6-74.335h4.436l-33.589,74.335a13.283,13.283,0,0,0-1.2,5.532v3.855a3.618,3.618,0,0,0,3.618,3.6h-4.436a3.6,3.6,0,0,1-3.618-3.6V420.1a13.479,13.479,0,0,1,1.188-5.531Z" transform="translate(-37.658 -81.666)"/><path class="g" d="M192.188,340.23h78.454l-3.076,17.758H184.16Z" transform="translate(-30.088 -81.666)"/><path class="e" d="M442.312,410.765H107.58a13.626,13.626,0,0,1-13.309-12.24L73.146,156.64a11.038,11.038,0,0,1,11.17-12.24H419.008a13.613,13.613,0,0,1,13.309,12.24l21.125,241.886a11.038,11.038,0,0,1-11.13,12.239Z" transform="translate(-65.671 -144.398)"/><path class="a" d="M446.611,317.06l2.284,26.156a11.038,11.038,0,0,1-11.17,12.24H102.993a13.626,13.626,0,0,1-13.309-12.24L87.4,317.06Z" transform="translate(-61.084 -89.088)"/><path class="h" d="M446.611,317.06l2.284,26.156a11.038,11.038,0,0,1-11.17,12.24H102.993a13.626,13.626,0,0,1-13.309-12.24L87.4,317.06Z" transform="translate(-61.084 -89.088)"/><path class="a" d="M102.341,363.182h334.3a5.981,5.981,0,0,0,6.06-6.6L425.2,156.6a7.381,7.381,0,0,0-7.209-6.6H83.7a5.981,5.981,0,0,0-6.06,6.6L95.132,356.554a7.381,7.381,0,0,0,7.209,6.628Z" transform="translate(-64.222 -142.604)"/><path class="h" d="M102.341,363.182h334.3a5.981,5.981,0,0,0,6.06-6.6L425.2,156.6a7.381,7.381,0,0,0-7.209-6.6H83.7a5.981,5.981,0,0,0-6.06,6.6L95.132,356.554a7.381,7.381,0,0,0,7.209,6.628Z" transform="translate(-64.222 -142.604)"/><path class="a" d="M78.733,144.4H86.14a11.038,11.038,0,0,0-11.17,12.24L96.1,398.526A13.626,13.626,0,0,0,109.4,410.765h-7.434a13.626,13.626,0,0,1-13.309-12.24L67.536,156.64a11.025,11.025,0,0,1,11.2-12.24Z" transform="translate(-67.469 -144.398)"/><path class="i" d="M78.733,144.4H86.14a11.038,11.038,0,0,0-11.17,12.24L96.1,398.526A13.626,13.626,0,0,0,109.4,410.765h-7.434a13.626,13.626,0,0,1-13.309-12.24L67.536,156.64a11.025,11.025,0,0,1,11.2-12.24Z" transform="translate(-67.469 -144.398)"/><path class="j" d="M347.71,304.913H161.952L152.34,195.18H338.111Z" transform="translate(-40.282 -128.131)"/><path class="c" d="M254.152,233.167a20.822,20.822,0,0,1-21.125,23.106,25.707,25.707,0,0,1-25.086-23.106,20.822,20.822,0,0,1,21.125-23.106,25.72,25.72,0,0,1,25.086,23.106Z" transform="translate(-22.511 -123.365)"/><path class="e" d="M239.914,230.907,219.7,219.79l1.954,22.221Z" transform="translate(-18.704 -120.247)"/><path class="c" d="M340.973,262.845H160.127l-.317-3.565H340.656Z" transform="translate(-37.889 -107.597)"/><path class="a" d="M261.5,262.845H160.127l-.317-3.565H261.185Z" transform="translate(-37.889 -107.597)"/><path class="c" d="M162.967,273.633h-1.743l-.594-6.853h1.743Z" transform="translate(-37.626 -105.195)"/><path class="c" d="M165.277,273.633h-1.743l-.594-6.853h1.743Z" transform="translate(-36.886 -105.195)"/><path class="c" d="M178.387,273.633h-6.853l-.594-6.853h6.853Z" transform="translate(-34.323 -105.195)"/><path class="c" d="M183.47,270.2l5.638-3.42.594,6.853Z" transform="translate(-30.31 -105.195)"/><path class="c" d="M184.27,273.633h-1.756l-.594-6.853h1.743Z" transform="translate(-30.806 -105.195)"/><path class="c" d="M199.565,270.2l-6.245-3.42.607,6.853Z" transform="translate(-27.154 -105.195)"/><path class="c" d="M198.414,273.633h1.756l-.607-6.853H197.82Z" transform="translate(-25.713 -105.195)"/><path class="c" d="M208.443,266.68l-3.063,4.133h6.853Z" transform="translate(-23.291 -105.227)"/><path class="c" d="M212.632,272.5l-.158-1.756h-7.1l.145,1.756Z" transform="translate(-23.294 -103.926)"/><path class="c" d="M301.376,274.354h-13.2l-.713-8.094h13.2Zm-12.213-1.122h10.985l-.515-5.849H288.661Z" transform="translate(3.002 -105.361)"/><path class="c" d="M281.3,272.989h-2.68l-.211-2.377,1.122-.092.119,1.347h1.65Z" transform="translate(0.103 -103.997)"/><path class="c" d="M285.743,272.989H283.05v-1.122h1.466l-.106-1.254,1.122-.092Z" transform="translate(1.59 -103.997)"/><path class="c" d="M284.28,268.835l-.119-1.452H282.59V266.26h2.6l.211,2.482Z" transform="translate(1.442 -105.361)"/><path class="c" d="M278.254,268.835l-.224-2.575H280.8v1.122h-1.545l.119,1.36Z" transform="translate(-0.019 -105.361)"/><g class="k" transform="translate(276.263 96.477)"><path class="c" d="M282.957,272.526l-.819,3.552-1.426,6.206L279.4,288l-2.2,9.612h5.479l3.473-15.329,1.413-6.206.805-3.552,12.372-54.556" transform="translate(-276.547 -217.307)"/><path class="e" d="M282.838,298.434h-5.466a.674.674,0,0,1-.528-.251.647.647,0,0,1-.119-.554l5.743-25.086a.677.677,0,0,1,1.32.3l-5.559,24.281h4.146L300.319,218a.676.676,0,1,1,1.32.29l-18.155,79.629A.673.673,0,0,1,282.838,298.434Z" transform="translate(-276.706 -217.468)"/></g><path class="a" d="M338.32,197.589H152.548l-.858-9.929H337.448Z" transform="translate(-40.49 -130.54)"/><path class="c" d="M163.8,192.213a2.759,2.759,0,0,1-2.8,3.076,3.406,3.406,0,0,1-3.327-3.076,2.773,2.773,0,0,1,2.8-3.063A3.406,3.406,0,0,1,163.8,192.213Z" transform="translate(-38.578 -130.062)"/><path class="c" d="M170.763,192.213a2.773,2.773,0,0,1-2.8,3.076,3.406,3.406,0,0,1-3.34-3.076,2.773,2.773,0,0,1,2.8-3.063,3.433,3.433,0,0,1,3.34,3.063Z" transform="translate(-36.352 -130.062)"/><path class="c" d="M177.713,192.213a2.773,2.773,0,0,1-2.8,3.076,3.433,3.433,0,0,1-3.34-3.076,2.773,2.773,0,0,1,2.8-3.063,3.433,3.433,0,0,1,3.34,3.063Z" transform="translate(-34.125 -130.062)"/><g class="k" transform="translate(37.803 7.396)"><path class="c" d="M200.7,150h-12.86L142.53,363.181h12.86Z" transform="translate(-81.227 -150)"/><path class="c" d="M144.411,363.181,189.725,150H141.414L96.1,363.181Z" transform="translate(-96.1 -150)"/></g><path class="f" d="M182,401.906v3.538a3.486,3.486,0,0,0,3.486,3.473H299.88a3.314,3.314,0,0,0,3.327-3.314v-3.71a3.327,3.327,0,0,0-3.327-3.327H265.551a5.891,5.891,0,0,1-1.32-.145H185.446A3.486,3.486,0,0,0,182,401.906Z" transform="translate(-30.78 -63.026)"/><path class="l" d="M164.16,399.878H269.906a6.245,6.245,0,0,1-4.991-6.008H166.853Z" transform="translate(-36.495 -64.483)"/></g><g transform="translate(285.016 117.037)"><path class="l" d="M239.124,236.343,228.31,112.68H351.986L362.8,236.343Z" transform="translate(-228.31 -104.547)"/><path class="m" d="M367.4,230.2H243.724L232.91,106.52H356.573Z" transform="translate(-226.836 -106.52)"/><path class="c" d="M276.619,138.278l-5.889-9.52s3.261-6.985,7.922-7.235,9.9,3.869,9.9,3.869l5.73-2.482-3.01,16.808S283.656,146.305,276.619,138.278Z" transform="translate(-214.721 -101.718)"/><path class="a" d="M321.8,170.222c1.862,21.323-10.8,29.972-27.357,29.972a33.365,33.365,0,0,1-32.6-29.972c-1.452-16.557,10.127-37.682,26.684-37.682C288.5,132.54,320.093,150.695,321.8,170.222Z" transform="translate(-217.609 -98.185)"/><path class="c" d="M321.8,170.222c1.862,21.323-10.8,29.972-27.357,29.972a33.365,33.365,0,0,1-32.6-29.972c-1.452-16.557,10.127-37.682,26.684-37.682C288.5,132.54,320.093,150.695,321.8,170.222Z" transform="translate(-217.609 -98.185)"/><path class="m" d="M297.791,167.354c1.505,4.318-.951,7.2-6.206,7.645l.528,3.565h-3.235L288.351,175a20.716,20.716,0,0,1-8.331-2.5l.766-3.961a17.282,17.282,0,0,0,6.932,2.3l-.819-5.466c-3.327-.911-7.051-2.113-8.424-6.034-1.505-4.3,1-7.222,6.377-7.605l-.541-3.565h3.248l.541,3.591a18.71,18.71,0,0,1,6.6,1.848l-.568,3.961a14.405,14.405,0,0,0-5.413-1.677l.858,5.7C292.893,162.469,296.471,163.631,297.791,167.354Zm-11.606-6.6-.687-4.661c-1.73.357-2.416,1.32-2.02,2.641a4.405,4.405,0,0,0,2.733,1.954Zm6.6,7.513a3.591,3.591,0,0,0-2.548-1.941l.673,4.436c1.69-.37,2.377-1.334,1.941-2.561Z" transform="translate(-212.379 -93.178)"/><path class="n" d="M286.123,137.734c-1.122-3.657-2.126-7.354-3.235-11.012a5.281,5.281,0,0,0-4.357-1.162,4.027,4.027,0,0,0-2.971,2.76,41.129,41.129,0,0,0,4.106,8.859,3.261,3.261,0,0,1,3.05-1.32A4.687,4.687,0,0,1,286.123,137.734Z" transform="translate(-213.174 -100.448)"/><path class="n" d="M284.879,135.865c.489-2.812.726-5.783,1.228-8.6-.607.317-1.043.621-1.637.937-.079,2.152-.581,7.328-.423,7.645" transform="translate(-210.465 -99.873)"/><path class="e" d="M357.444,116.449H233.768l-.858-9.929H356.573Z" transform="translate(-226.836 -106.52)"/><path class="c" d="M245.02,111.076a2.746,2.746,0,0,1-2.786,3.063,3.406,3.406,0,0,1-3.34-3.063A2.773,2.773,0,0,1,241.68,108a3.407,3.407,0,0,1,3.34,3.076Z" transform="translate(-224.925 -106.046)"/><path class="c" d="M251.984,111.077a2.773,2.773,0,0,1-2.8,3.063,3.406,3.406,0,0,1-3.34-3.063A2.773,2.773,0,0,1,248.7,108a3.433,3.433,0,0,1,3.288,3.076Z" transform="translate(-222.699 -106.046)"/><path class="c" d="M258.933,111.073a2.773,2.773,0,0,1-2.8,3.063,3.433,3.433,0,0,1-3.34-3.063,2.773,2.773,0,0,1,2.8-3.063A3.42,3.42,0,0,1,258.933,111.073Z" transform="translate(-220.472 -106.043)"/></g><g transform="translate(104.341 214.966)"><g class="o" transform="translate(0 11.025)"><path d="M249.158,396.953H109.664L91.47,189.04H230.964Z" transform="translate(-91.47 -189.04)"/></g><path class="a" d="M255.695,388.6H116.2L98.02,180.69H237.5Z" transform="translate(-89.372 -180.69)"/><g transform="translate(8.648)"><path class="m" d="M255.695,388.6H116.2L98.02,180.69H237.5Z" transform="translate(-98.02 -180.69)"/></g><path class="p" d="M169.337,229.183l14.709-16.623,7.658,22.485,21.746-6.3-4.344,22.327,22.961,5.7-15.184,16.187,18.009,16.174-21.957,5.7,8.252,22.327-22.842-6.3-3.737,22.485-17.613-16.623-14.709,16.623-7.658-22.485-21.746,6.3,4.344-22.327-22.961-5.7,15.2-16.174L111.44,256.778l21.957-5.7-8.252-22.327,22.855,6.3,3.723-22.485Z" transform="translate(-85.073 -170.481)"/><path class="c" d="M150.068,251.59a5.413,5.413,0,0,1,1.756,4.674,6.892,6.892,0,0,1-1.2,3.459,7.341,7.341,0,0,1-3.063,2.482,11.249,11.249,0,0,1-4.846.937,15.488,15.488,0,0,1-4.278-.581,10.166,10.166,0,0,1-3.486-1.637l2.165-3.684a8.3,8.3,0,0,0,2.641,1.386,9.94,9.94,0,0,0,3.182.515,5.281,5.281,0,0,0,2.9-.713,2.482,2.482,0,0,0,1.175-1.981,2.06,2.06,0,0,0-.937-2.02,7.275,7.275,0,0,0-3.71-.687h-5.281l1.888-11.672h12.662l-.277,3.855H142.7l-.594,3.961h1.69Q148.1,249.9,150.068,251.59Z" transform="translate(-77.542 -161.028)"/><path class="c" d="M153.054,261.981a7.8,7.8,0,0,1-2.892-3.7,12.913,12.913,0,0,1-.726-5.757,14.128,14.128,0,0,1,1.545-5.77,9.573,9.573,0,0,1,3.42-3.7,8.912,8.912,0,0,1,4.687-1.32,8,8,0,0,1,4.5,1.32,7.8,7.8,0,0,1,2.892,3.7,12.966,12.966,0,0,1,.739,5.77,14.062,14.062,0,0,1-1.558,5.757,9.467,9.467,0,0,1-3.42,3.7,8.886,8.886,0,0,1-4.687,1.32,8.028,8.028,0,0,1-4.5-1.32Zm7.922-4.423a9.876,9.876,0,0,0,1.439-5.03,8.9,8.9,0,0,0-.726-5.044,3.142,3.142,0,0,0-2.865-1.637,3.671,3.671,0,0,0-3.063,1.637,9.625,9.625,0,0,0-1.439,5.044,8.873,8.873,0,0,0,.726,5.03,3.076,3.076,0,0,0,2.826,1.637,3.684,3.684,0,0,0,3.076-1.637Z" transform="translate(-72.923 -161.134)"/><path class="c" d="M165.81,251.761a5.6,5.6,0,0,1-1.149-4.172,6.324,6.324,0,0,1,1.73-4.159,5.2,5.2,0,0,1,3.842-1.558,4.436,4.436,0,0,1,3.591,1.558,5.545,5.545,0,0,1,1.122,4.159,6.311,6.311,0,0,1-1.716,4.172,5.162,5.162,0,0,1-3.816,1.545A4.5,4.5,0,0,1,165.81,251.761Zm5.427-1.7a4.634,4.634,0,0,0,.753-2.469,4.12,4.12,0,0,0-.409-2.456,1.69,1.69,0,0,0-1.518-.832,1.981,1.981,0,0,0-1.637.845,4.463,4.463,0,0,0-.766,2.443,3.961,3.961,0,0,0,.423,2.443,1.677,1.677,0,0,0,1.505.845,2.007,2.007,0,0,0,1.65-.819Zm11.342-7.922H186.1l-15.7,20.716h-3.525ZM180.2,262.429a4.37,4.37,0,0,1-1.69-2.007,6.5,6.5,0,0,1-.436-3.024,7.1,7.1,0,0,1,.871-3.024,5.189,5.189,0,0,1,4.661-2.641,4.489,4.489,0,0,1,3.618,1.558,5.493,5.493,0,0,1,1.135,4.159,6.258,6.258,0,0,1-1.73,4.159,5.163,5.163,0,0,1-3.829,1.558,4.806,4.806,0,0,1-2.6-.766Zm4.423-2.641a4.568,4.568,0,0,0,.753-2.443,4.2,4.2,0,0,0-.409-2.443,1.677,1.677,0,0,0-1.532-.845,1.994,1.994,0,0,0-1.624.832,4.476,4.476,0,0,0-.766,2.456,3.961,3.961,0,0,0,.423,2.456,1.677,1.677,0,0,0,1.505.832,1.967,1.967,0,0,0,1.65-.819Z" transform="translate(-68.039 -161.093)"/><path class="c" d="M139.622,285.021a9.242,9.242,0,0,1-3.789-3.829,9.969,9.969,0,0,1-1.083-5.506,11.065,11.065,0,0,1,1.862-5.493,11.4,11.4,0,0,1,4.331-3.842,12.714,12.714,0,0,1,5.915-1.32,11.487,11.487,0,0,1,5.717,1.32,9.48,9.48,0,0,1,3.789,3.842,9.9,9.9,0,0,1,1.1,5.493,11.17,11.17,0,0,1-1.875,5.506,11.659,11.659,0,0,1-4.331,3.829,12.53,12.53,0,0,1-5.915,1.4A11.394,11.394,0,0,1,139.622,285.021Zm9.388-3.538a6.6,6.6,0,0,0,2.5-2.35,7.222,7.222,0,0,0,1.083-3.446,6.6,6.6,0,0,0-.594-3.433,5.505,5.505,0,0,0-2.165-2.363,6.351,6.351,0,0,0-3.261-.845,6.958,6.958,0,0,0-3.367.845,6.8,6.8,0,0,0-2.5,2.363,7.182,7.182,0,0,0-1.1,3.433,6.6,6.6,0,0,0,.607,3.446,5.374,5.374,0,0,0,2.152,2.35,6.218,6.218,0,0,0,3.261.845,6.865,6.865,0,0,0,3.38-.845Z" transform="translate(-77.619 -153.674)"/><path class="c" d="M160.114,269.1l-.383,5.493h9.6l-.277,3.855h-9.6L158.913,286H154.12l1.466-20.756h15.686l-.277,3.855Z" transform="translate(-71.401 -153.606)"/><path class="c" d="M174.454,269.083l-.4,5.493H183.7l-.277,3.855h-9.6l-.555,7.605H168.46l1.479-20.756h15.672l-.264,3.855Z" transform="translate(-66.807 -153.593)"/><path class="e" d="M238.735,194.606H99.215L98,180.69H237.507Z" transform="translate(-89.378 -180.69)"/><path class="c" d="M114.987,187.045a3.869,3.869,0,0,1-3.961,4.291,4.78,4.78,0,0,1-4.661-4.291,3.882,3.882,0,0,1,3.961-4.3A4.78,4.78,0,0,1,114.987,187.045Z" transform="translate(-86.706 -180.034)"/><path class="c" d="M124.741,187.045a3.869,3.869,0,0,1-3.961,4.291,4.793,4.793,0,0,1-4.674-4.291,3.882,3.882,0,0,1,3.961-4.3A4.793,4.793,0,0,1,124.741,187.045Z" transform="translate(-83.586 -180.034)"/><path class="c" d="M134.491,187.045a3.869,3.869,0,0,1-3.961,4.291,4.78,4.78,0,0,1-4.674-4.291,3.882,3.882,0,0,1,3.961-4.3A4.793,4.793,0,0,1,134.491,187.045Z" transform="translate(-80.462 -180.034)"/></g><g transform="translate(98.769 73.69)"><path class="l" d="M289.887,175.586H90.53L87.81,144.4H287.168Z" transform="translate(-87.071 -51.039)"/><path class="a" d="M296.8,190.157H97.43L87.25,73.69H286.621Z" transform="translate(-87.25 -73.69)"/><path class="q" d="M296.8,190.157H97.43L87.25,73.69H286.621Z" transform="translate(-87.25 -73.69)"/><path class="e" d="M287.426,83.012H88.069L87.25,73.69H286.621Z" transform="translate(-87.25 -73.69)"/><path class="c" d="M98.652,77.968a2.641,2.641,0,0,1-2.641,2.878,3.2,3.2,0,0,1-3.129-2.878,2.641,2.641,0,0,1,2.641-2.878A3.208,3.208,0,0,1,98.652,77.968Z" transform="translate(-85.449 -73.242)"/><path class="c" d="M105.182,77.968a2.641,2.641,0,0,1-2.641,2.878,3.2,3.2,0,0,1-3.129-2.878,2.641,2.641,0,0,1,2.641-2.878,3.182,3.182,0,0,1,3.129,2.878Z" transform="translate(-83.357 -73.242)"/><path class="c" d="M111.706,77.968a2.641,2.641,0,0,1-2.641,2.878A3.182,3.182,0,0,1,106,77.968a2.641,2.641,0,0,1,2.641-2.878,3.2,3.2,0,0,1,3.063,2.878Z" transform="translate(-81.246 -73.242)"/><path class="p" d="M205.07,96.081l7.988-9.031,4.159,12.213,11.817-3.42-2.363,12.121,12.477,3.1L230.9,119.86l9.784,8.793-11.923,3.09,4.476,12.134-12.411-3.42-2.02,12.213-9.572-9.031-7.988,9.031-4.159-12.213-11.817,3.42,2.363-12.134-12.477-3.09,8.252-8.793-9.784-8.793,11.923-3.1-4.476-12.121,12.411,3.42L195.5,87.05Z" transform="translate(-59.583 -69.41)"/><path class="c" d="M194.62,113.126h2.113l.3,3.5a5.9,5.9,0,0,1-3.459,1.069,4.846,4.846,0,0,1-5.03-4.384,3.961,3.961,0,0,1,4.318-4.4,5,5,0,0,1,3.816,1.545l-1.4,1.32a2.891,2.891,0,0,0-2.126-.937,2.06,2.06,0,0,0-2.2,2.416,2.535,2.535,0,0,0,2.641,2.4,2.812,2.812,0,0,0,1.32-.277Z" transform="translate(-54.809 -62.412)"/><path class="c" d="M202.974,115.6l.172,1.835h-6.787L195.62,109h6.6l.158,1.848h-4.265l.132,1.413H202l.158,1.8h-3.75l.132,1.545Z" transform="translate(-52.535 -62.379)"/><path class="c" d="M203.932,110.928h-2.641l-.172-1.888h7.566l.158,1.888h-2.575l.568,6.6h-2.39Z" transform="translate(-50.773 -62.366)"/><path class="c" d="M204.266,124l.158,1.888h-6.6l-.132-1.492,2.892-2.958c.621-.621.687-1.017.66-1.32a1.153,1.153,0,0,0-1.162-.871,1.558,1.558,0,0,0-1.439.819l-1.862-.99a3.525,3.525,0,0,1,3.354-1.756c1.941,0,3.367,1,3.5,2.561a3.09,3.09,0,0,1-1.2,2.641l-1.4,1.479Z" transform="translate(-52.164 -59.717)"/><path class="c" d="M194.912,106.3c.106,1.135-.766,1.8-2.522,1.8h-3.512l-.568-6.509h3.327c1.716,0,2.641.687,2.641,1.69a1.32,1.32,0,0,1-.739,1.426A1.8,1.8,0,0,1,194.912,106.3Zm-4.661-3.393.106,1.32h1.32q.924,0,.871-.634c0-.409-.37-.621-.977-.621Zm2.786,3.2c0-.449-.383-.66-1.017-.66h-1.479l.106,1.32h1.545c.568,0,.885-.211.845-.673Z" transform="translate(-54.877 -64.753)"/><path class="c" d="M194,105.195l-.317-3.6h1.848l.3,3.552c.092,1.109.607,1.558,1.32,1.558s1.188-.449,1.1-1.558l-.317-3.552h1.809l.317,3.6a2.509,2.509,0,0,1-2.786,3.024A3.063,3.063,0,0,1,194,105.195Z" transform="translate(-53.157 -64.753)"/><path class="c" d="M203.237,105.762l.211,2.337H201.6l-.2-2.363-2.852-4.146h1.914l1.769,2.641,1.32-2.641h1.782Z" transform="translate(-51.597 -64.753)"/><path class="c" d="M208.75,101.59l.568,6.509h-1.888l-.436-5.1h-1.215l-.119-1.413Z" transform="translate(-49.319 -64.753)"/><path class="e" d="M147.717,122.428l-1.32-2.958c-15.012.687-17.164-4.991-17.508-6.8-.581-3.354,2.179-6.4,6.153-6.8,5.479-.568,9.6,4.384,11.751,7.645a16.8,16.8,0,0,1,11.962-6.258h0a6.43,6.43,0,0,1,6.6,4.516,4.766,4.766,0,0,1-.66,4.872c-3.156,3.961-13.335,3.182-16.412,2.865Zm1.32-6.008c4.621.409,11.249.106,12.939-2.007.264-.33.541-.673.185-1.756a2.786,2.786,0,0,0-3.116-2.047h0a13.613,13.613,0,0,0-10.074,5.809Zm-12.847-7.235a3.369,3.369,0,0,0-.515,0c-2.258.224-3.7,1.862-3.472,3.182s3.261,3.961,12.556,3.763c-1.413-2.3-4.634-6.945-8.635-6.945Z" transform="translate(-73.936 -63.396)"/><path class="a" d="M187.16,159.777H121.725L117.79,114.82h65.436Z" transform="translate(-77.467 -60.515)"/><path class="r" d="M187.16,159.777H121.725L117.79,114.82h65.436Z" transform="translate(-77.467 -60.515)"/><path class="s" d="M186.831,156.007H121.395L118.82,126.59h65.436Z" transform="translate(-77.137 -56.744)"/><path class="e" d="M156.128,114.82H150.82l3.935,44.957h5.308Z" transform="translate(-66.886 -60.515)"/><path class="e" d="M132.58,159.777h-3.895L124.75,114.82h3.908Z" transform="translate(-75.237 -60.515)"/><path class="s" d="M147.722,159.777h-26L117.79,114.82h26Z" transform="translate(-77.467 -60.515)"/><path class="e" d="M187.65,129.006c-2.047.224-8.833.739-11.447-1.941a3.631,3.631,0,0,1-1.017-3.288,3.525,3.525,0,0,1,3.961-3.063h0a13.837,13.837,0,0,1,8.833,4.238c1.069-2.218,3.274-5.559,7.037-5.176,2.746.264,4.978,2.337,4.978,4.608,0,1.215-.805,5.057-11.038,4.595l-.594,2.007Zm-8.345-6.06h0c-1.122,0-1.7.37-1.862,1.4a1.149,1.149,0,0,0,.33,1.2c1.386,1.426,5.915,1.624,8.991,1.32A11.421,11.421,0,0,0,179.306,122.946Zm10.325,3.789c6.311.158,8.041-1.545,8.041-2.548s-1.162-1.994-2.72-2.152H194.6c-2.707-.013-4.331,3.129-4.964,4.648Z" transform="translate(-59.103 -58.936)"/><path class="a" d="M170.977,156.247h44.258l-2.654-30.407H168.31Z" transform="translate(-61.284 -56.984)"/><path class="h" d="M170.977,156.247h44.258l-2.654-30.407H168.31Z" transform="translate(-61.284 -56.984)"/><path class="t" d="M170.753,153.7h44.258l-1.73-19.911H169.01Z" transform="translate(-61.059 -54.438)"/><path class="f" d="M191.174,156.247h17.587l-2.654-30.407H188.52Z" transform="translate(-54.81 -56.984)"/><path class="e" d="M176.77,125.84h3.6l2.654,30.407h-3.591Z" transform="translate(-58.573 -56.984)"/><path class="e" d="M197.8,156.247h2.641l-2.667-30.407H195.13Z" transform="translate(-52.692 -56.984)"/></g><g transform="translate(379.695 327.152)"><path class="u" d="M353.5,396.978l-9.52-9.348-11.9,26.3,6.971,4.529Z" transform="translate(-289.748 -226.585)"/><path class="s" d="M350.29,398.893l-4.674,6.958-9.506-4.621L341,390.43Z" transform="translate(-288.457 -225.688)"/><path class="a" d="M401.495,435.4h-.2a13.2,13.2,0,0,1-9.374-4.978c-9.652-12.306-15.263-30.935-21.4-43.162a31.876,31.876,0,0,0-2.443-4.172,25.735,25.735,0,0,1-.858,2.852,84.5,84.5,0,0,1-17.362,28.7L337.63,406.5s15.276-37.6,16.927-41.3c13.362-30.09,45.565,6.456,57.514,27.925a73.934,73.934,0,0,1,4.278,8.793l28.572.937C446.98,419.252,439.652,438.4,401.495,435.4Z" transform="translate(-287.97 -237.426)"/><g class="v" transform="translate(49.713 116.351)"><path d="M401.482,435.4h0a13.52,13.52,0,0,1-9.612-5.1c-9.586-12.319-15.184-30.869-21.31-43.056a31.869,31.869,0,0,0-2.443-4.172,25.717,25.717,0,0,1-.858,2.852,84.5,84.5,0,0,1-17.362,28.7l-12.226-8.146s15.276-37.6,16.927-41.3c13.362-30.09,45.565,6.456,57.514,27.925a73.944,73.944,0,0,1,4.278,8.793l28.572.937C446.967,419.256,439.64,438.4,401.482,435.4Z" transform="translate(-337.67 -353.78)"/></g><path class="e" d="M356.805,399.346l-17.838-9.916-2.258,6.206,15.382,9.242Z" transform="translate(-288.265 -226.009)"/><path class="e" d="M338.126,402.038c-4.133,1.32-8.846,2.561-18.841.832-2.218-.409-4.106,4.819.805,6.813s25.786,8.318,25.865,8.331a2.046,2.046,0,0,0,2.509-1.386l2.733-11.012a1.043,1.043,0,0,0-.66-1.2L340.318,402.1a3.288,3.288,0,0,0-2.192-.066Z" transform="translate(-294.579 -222.02)"/><path class="a" d="M334.514,402.516a.3.3,0,0,0,0-.343.29.29,0,0,0-.3-.172c-.634.079-6.245.766-7.051,2.337a.95.95,0,0,0,0,.937,1.611,1.611,0,0,0,1.254.911A4.661,4.661,0,0,0,331.4,405.1a22.624,22.624,0,0,0,3.116-2.588Zm-6.39,1.664a16.292,16.292,0,0,1,5.281-1.466c-2.06,1.954-3.842,3.024-4.872,2.878a1.07,1.07,0,0,1-.819-.594.4.4,0,0,1,0-.383,1.214,1.214,0,0,1,.409-.409Z" transform="translate(-291.364 -221.983)"/><path class="a" d="M334.354,403.074a.29.29,0,0,0,0-.291c-.092-.106-2.245-2.773-4.3-2.971a2.205,2.205,0,0,0-1.65.5c-.647.528-.66,1.056-.462,1.32.607,1.32,4.608,1.9,6.232,1.611l.106-.066a.264.264,0,0,0,.079-.106Zm-5.532-2.416a1.6,1.6,0,0,1,1.109-.277,6.892,6.892,0,0,1,3.512,2.324c-1.782.079-4.661-.555-5.03-1.32,0-.066-.119-.264.3-.621l.145-.092Z" transform="translate(-291.111 -222.687)"/><path class="a" d="M417.781,432.259c-1.7-.132-3.486-.3-5.281-.5-38.99-4.291-103.475-23.41-111.3-45.472,0,0-9.242-26.407,24.07-20.056,10.1,1.928,27.885,5.757,43.888,10.312,6.945,1.941,32.071,12.345,33.378,14.682l22.353.99,32.665,1.466a44.892,44.892,0,0,1,1.624,7.566C461.075,416.811,454.1,435.058,417.781,432.259Z" transform="translate(-300.018 -233.757)"/><g class="w" transform="translate(0 131.486)"><path d="M417.781,432.259c-1.7-.132-3.486-.3-5.281-.5-38.99-4.291-103.475-23.41-111.3-45.472,0,0-9.242-26.407,24.07-20.056,10.1,1.928,27.885,5.757,43.888,10.312,6.945,1.941,32.071,12.345,33.378,14.682l22.353.99,32.665,1.466a44.892,44.892,0,0,1,1.624,7.566C461.075,416.811,454.1,435.058,417.781,432.259Z" transform="translate(-300.018 -365.243)"/></g><g transform="translate(24.837 10.239)"><path class="e" d="M406.133,282.468c10.682,44.046,2.918,40.415.264,41.789,1.162,2.1,4.529,3.235,6.443,1.782a7.724,7.724,0,0,0,2.641-6.417c-.066-2.39-1.558-27.608-5.281-36.969a3.459,3.459,0,0,0-1.518-2.047C407.9,280.21,405.961,281.649,406.133,282.468Z" transform="translate(-290.867 -271.129)"/><path class="u" d="M400.97,314.576c1.941,5.611,2.443,8.939-5.664,11.632,0,0-9.176,13.045,3.961,31.068a165.292,165.292,0,0,0,19.052-33.008c-5.611-4.489-5.083-15.408-4.278-22.947Z" transform="translate(-295.33 -264.472)"/><path class="e" d="M388.69,322.505a12.24,12.24,0,0,1,6.985-5.136c4.912-1.426,23.621-.594,25.377.845a10.167,10.167,0,0,1,3.7,5.506Z" transform="translate(-296.451 -259.568)"/><path class="s" d="M415.71,339.557a72.442,72.442,0,0,0,6.443,12.728l9.48-6.245a33.008,33.008,0,0,0-3.037-5.017C424.411,335.794,419.539,336.718,415.71,339.557Z" transform="translate(-287.796 -252.959)"/><path class="u" d="M415.8,369.46s.475-5.915.713-9.533.462-7.235.594-10.866.211-7.288.317-10.919c0-.964,0-1.954.066-2.931a8.345,8.345,0,0,1,8-8.239h0a8.331,8.331,0,0,1,8.648,9.084c-.5,5.7-1.175,12.081-1.32,14.3-.264,3.8-.713,7.592-1.162,11.408s-1.083,7.605-1.809,11.421l-.317,1.215Z" transform="translate(-287.767 -256.258)"/><path class="u" d="M394.111,364.56l-11.025-5.149a3.314,3.314,0,0,0-2.891,0l-10.153,5.281a3.248,3.248,0,0,0-1.7,2.284h0a3.274,3.274,0,0,0,3.037,3.961l9.757.528,14.669,2.8S400.792,367.689,394.111,364.56Z" transform="translate(-302.994 -245.97)"/><path class="u" d="M425.892,357.82l-38.052,7.143s.409,10.338,1.69,9.665c.871-.449,23.053-.832,37.405-1.03a12.53,12.53,0,0,0,12.345-12.226h0Z" transform="translate(-296.724 -246.373)"/><path class="a" d="M415.887,330.9c-4.5,5.876-.871,23.3-.871,23.3l22.446-4.9s.423-20.927-3.961-24.8C428.509,320.1,420.508,324.8,415.887,330.9Z" transform="translate(-288.461 -257.598)"/><g class="k" transform="translate(125.171 65.18)"><path d="M415.887,330.9c-4.5,5.876-.871,23.3-.871,23.3l22.446-4.9s.423-20.927-3.961-24.8C428.509,320.1,420.508,324.8,415.887,330.9Z" transform="translate(-413.632 -322.778)"/></g><path class="e" d="M382.188,373.407h4.093a.753.753,0,0,0,.792-.713v-3.961a.753.753,0,0,0-.792-.713H383.35a.779.779,0,0,0-.766.528l-1.149,3.961a.726.726,0,0,0,.753.9Z" transform="translate(-298.782 -243.106)"/><path class="e" d="M377.888,373.407h4.093a.753.753,0,0,0,.792-.713v-3.961a.753.753,0,0,0-.792-.713H379.05a.779.779,0,0,0-.766.528l-1.149,3.961a.726.726,0,0,0,.753.9Z" transform="translate(-300.159 -243.106)"/><path class="e" d="M373.6,373.407H377.7a.753.753,0,0,0,.779-.713v-3.961a.753.753,0,0,0-.779-.713H374.76a.766.766,0,0,0-.753.528l-1.162,3.961a.726.726,0,0,0,.753.9Z" transform="translate(-301.534 -243.106)"/><path class="e" d="M369.308,373.407h4.106a.739.739,0,0,0,.779-.713v-3.961a.739.739,0,0,0-.779-.713H370.47a.766.766,0,0,0-.753.528l-1.162,3.961a.726.726,0,0,0,.753.9Z" transform="translate(-302.908 -243.106)"/><path class="e" d="M365.03,373.407h4.093a.739.739,0,0,0,.779-.713v-3.961a.739.739,0,0,0-.779-.713h-2.944a.766.766,0,0,0-.753.528l-1.162,3.961a.739.739,0,0,0,.766.9Z" transform="translate(-304.281 -243.106)"/><path class="e" d="M360.738,373.407h4.093a.739.739,0,0,0,.779-.713v-3.961a.739.739,0,0,0-.779-.713h-2.944a.779.779,0,0,0-.753.528l-1.149,3.961a.726.726,0,0,0,.753.9Z" transform="translate(-305.653 -243.106)"/><path class="e" d="M356.448,373.407h4.093a.752.752,0,0,0,.792-.713v-3.961a.753.753,0,0,0-.792-.713H357.6a.779.779,0,0,0-.753.528l-1.149,3.961a.726.726,0,0,0,.753.9Z" transform="translate(-307.027 -243.106)"/><path class="e" d="M352.188,373.407h4.093a.752.752,0,0,0,.792-.713v-3.961a.753.753,0,0,0-.792-.713H353.35a.779.779,0,0,0-.766.528l-1.149,3.961a.726.726,0,0,0,.753.9Z" transform="translate(-308.392 -243.106)"/><path class="e" d="M347.868,373.407h4.106a.753.753,0,0,0,.779-.713v-3.961a.752.752,0,0,0-.779-.713H349.03a.766.766,0,0,0-.753.528l-1.162,3.961a.726.726,0,0,0,.753.9Z" transform="translate(-309.776 -243.106)"/><path class="e" d="M343.578,373.407h4.106a.739.739,0,0,0,.779-.713v-3.961a.739.739,0,0,0-.779-.713H344.74a.766.766,0,0,0-.753.528l-1.162,3.961a.726.726,0,0,0,.753.9Z" transform="translate(-311.15 -243.106)"/><path class="e" d="M339.294,373.407h4.093a.739.739,0,0,0,.779-.713v-3.961a.739.739,0,0,0-.779-.713h-2.918a.766.766,0,0,0-.753.528l-1.162,3.961a.739.739,0,0,0,.739.9Z" transform="translate(-312.517 -243.106)"/><path class="e" d="M335.008,373.407H339.1a.739.739,0,0,0,.779-.713v-3.961a.739.739,0,0,0-.779-.713h-2.944a.766.766,0,0,0-.753.528l-1.149,3.961a.726.726,0,0,0,.753.9Z" transform="translate(-313.895 -243.106)"/><path class="e" d="M330.718,373.407h4.093a.752.752,0,0,0,.792-.713v-3.961a.753.753,0,0,0-.792-.713h-2.944a.779.779,0,0,0-.753.528l-1.149,3.961a.726.726,0,0,0,.753.9Z" transform="translate(-315.27 -243.106)"/><path class="e" d="M326.428,373.407h4.093a.752.752,0,0,0,.792-.713v-3.961a.753.753,0,0,0-.792-.713H327.59a.779.779,0,0,0-.766.528l-1.149,3.961a.726.726,0,0,0,.753.9Z" transform="translate(-316.644 -243.106)"/><path class="e" d="M322.188,373.407h4.106a.753.753,0,0,0,.779-.713v-3.961a.753.753,0,0,0-.779-.713H323.35a.753.753,0,0,0-.753.528l-1.162,3.961a.726.726,0,0,0,.753.9Z" transform="translate(-318.002 -243.106)"/><path class="e" d="M318.83,373.186a3.288,3.288,0,0,0,3.406,3.116h84.779a3.274,3.274,0,0,0,3.406-3.116,2.944,2.944,0,0,0-.99-2.205,3.564,3.564,0,0,0-2.337-.911H322.236a4.238,4.238,0,0,0-.937.119,3.182,3.182,0,0,0-2.469,3Z" transform="translate(-318.83 -242.449)"/><path class="f" d="M318.83,373.186a3.288,3.288,0,0,0,3.406,3.116h84.779a3.274,3.274,0,0,0,3.406-3.116,2.944,2.944,0,0,0-.99-2.205,3.564,3.564,0,0,0-2.337-.911H322.236a4.238,4.238,0,0,0-.937.119,3.182,3.182,0,0,0-2.469,3Z" transform="translate(-318.83 -242.449)"/><path class="e" d="M318.83,373.157a3.288,3.288,0,0,0,3.406,3.116h28.7a3.2,3.2,0,0,0,2.377-2.984,3.771,3.771,0,0,0,0-.555,2.984,2.984,0,0,0-.964-1.65,4.213,4.213,0,0,0-.726-.515l-.4-.172a3.593,3.593,0,0,0-1.32-.238H321.3a3.182,3.182,0,0,0-2.469,3Z" transform="translate(-318.83 -242.42)"/><path class="a" d="M399.358,319.007a174.982,174.982,0,0,1,24.981,1.32,147.181,147.181,0,0,1,15.356,2.641l.462.106a7.513,7.513,0,0,1,5.163,9.242c-11.236,39.4-11.883,52.88-12.266,74.018l-54.966-3.169c-.937-8.859,2.865-17.891,1.782-31.147-2.773-33.84-6.126-32.837-5.2-39.425C373.836,323.378,392.638,319.179,399.358,319.007Z" transform="translate(-300.993 -258.816)"/><path class="e" d="M389.25,289.891c-.66-.066-1.32.713-1.32,1.716s.4,1.862,1.043,1.928,1.32-.673,1.32-1.73S389.9,289.944,389.25,289.891Z" transform="translate(-296.695 -268.135)"/><path class="e" d="M387.36,289.27l2.35.9C388.443,291.264,387.36,289.27,387.36,289.27Z" transform="translate(-296.877 -268.332)"/><path class="x" d="M389.467,299.536a4.357,4.357,0,0,1-3.327-1.544,26.406,26.406,0,0,0,5.083-5.282Z" transform="translate(-297.268 -267.23)"/><path class="e" d="M389.487,287.218a4.74,4.74,0,0,1,3.723,2.126v.106a.594.594,0,1,0,.977-.673,5.875,5.875,0,0,0-4.661-2.746.621.621,0,0,0-.647.555.608.608,0,0,0,.264.528A.554.554,0,0,0,389.487,287.218Z" transform="translate(-296.391 -269.37)"/><path class="u" d="M424.5,295.483c-1.8,12.24-2.218,17.521-9.044,23.383a17.508,17.508,0,0,1-12.9,4.4h-.079a15.658,15.658,0,0,1-4.067-.9,17.161,17.161,0,0,1-3.222-1.624h0a15.039,15.039,0,0,1-6.6-10.563c-1.743-11.355,1.466-29.562,13.969-33.484a16.98,16.98,0,0,1,21.931,18.775Z" transform="translate(-296.625 -272.617)"/><path class="e" d="M410.592,321.153a3.684,3.684,0,0,0,4.661,0c4.78-3.869,15.3-13.362,16.768-23.211,1.9-12.768-3.2-20.954-12.609-23.5s-24.043-.356-28.678,6.6,0,8.252,8.543,19.673C397.415,308.94,406.2,317.508,410.592,321.153Z" transform="translate(-296.383 -273.412)"/><path class="u" d="M397.807,290.746c-3.037.594-4.291,4.806-4.185,7.513.119,3.024,2.456,5.136,5.083,3.34a9.057,9.057,0,0,0,3.763-5.836,4.067,4.067,0,0,0-4.661-5.017Z" transform="translate(-294.873 -267.88)"/><path class="e" d="M432.563,383.1l-54.886-3.156c-.541,0-.99.238-.964.581L376,385.036c0,.832.317,1.1.819,1.135l56.906,3.129c.621,0,1.109-.33.924-.726l-1.135-5.03a.977.977,0,0,0-.951-.449Z" transform="translate(-300.516 -239.288)"/><path class="a" d="M414.22,388.46l-.33-6.443c0-.185.224-.29.515-.317l1.492.092a.554.554,0,0,1,.568.383l.317,6.417c0,.2-.224.3-.515.317l-1.492-.079a.488.488,0,0,1-.554-.37Z" transform="translate(-288.379 -238.724)"/><path class="a" d="M380.3,386.492l.5-6.456a.647.647,0,0,1,.594-.475l1.439.132a.607.607,0,0,1,.5.515l-.436,6.456a.541.541,0,0,1-.568.383l-1.532-.119C380.511,386.875,380.287,386.743,380.3,386.492Z" transform="translate(-299.139 -239.409)"/><path class="a" d="M397.11,387.57l.119-6.8c0-.2.238-.277.541-.29l1.466.185a.53.53,0,0,1,.541.409v6.747c0,.185-.251.264-.541.264l-1.558-.092C397.348,387.953,397.1,387.768,397.11,387.57Z" transform="translate(-293.754 -239.115)"/></g><path class="u" d="M375.027,367.309s0-6.153-.092-9.9-.132-7.513-.317-11.276-.409-7.552-.607-11.315c0-1-.119-2.02-.185-3.037a8.661,8.661,0,0,1,7.566-9.242h0a8.648,8.648,0,0,1,9.718,8.635c0,5.955-.185,12.6-.158,14.907,0,3.961-.079,7.922-.211,11.883s-.475,7.922-.9,11.949l-.224,1.32Z" transform="translate(-276.383 -247.459)"/><path class="u" d="M352.075,363.467,341.921,359.7a2.958,2.958,0,0,0-2.575.264l-8.622,5.466a2.918,2.918,0,0,0-1.32,2.152h0a2.918,2.918,0,0,0,2.984,3.248l8.7-.251,13.2,1.413S358.254,365.751,352.075,363.467Z" transform="translate(-290.611 -235.589)"/><path class="u" d="M384.879,355l-38.7,10.642s1.466,8.556,2.746,7.75c.858-.555,23.581-.753,38.4-2.192a12.979,12.979,0,0,0,11.711-13.679h0Z" transform="translate(-285.231 -237.038)"/><path class="e" d="M380.387,322.421c-8.371,3.327-11.051,19.488-6.971,28.242,16.636-3.367,22.749.224,22.565.66a39.158,39.158,0,0,0,.594-11.883,20.531,20.531,0,0,0-5.4-13.362C387.688,322.566,384.876,320.375,380.387,322.421Z" transform="translate(-277.108 -247.727)"/><path class="a" d="M380.387,322.421c-8.371,3.327-11.051,19.488-6.971,28.242,16.636-3.367,22.749.224,22.565.66a39.158,39.158,0,0,0,.594-11.883,20.531,20.531,0,0,0-5.4-13.362C387.688,322.566,384.876,320.375,380.387,322.421Z" transform="translate(-277.108 -247.727)"/><path class="s" d="M400.768,312.49a15.658,15.658,0,0,1-4.067-.9,17.161,17.161,0,0,1-3.222-1.624h0v-.092a7.631,7.631,0,0,0,4.793-.119,1.809,1.809,0,0,1,1.32-.185c.462.2.634.753.753,1.254S400.61,311.936,400.768,312.49Z" transform="translate(-270.079 -251.606)"/><path class="e" d="M390.573,281.847c10.682,44.06,2.918,40.429.264,41.8,1.162,2.1,4.529,3.222,6.456,1.782a7.724,7.724,0,0,0,2.641-6.417c0-2.4-1.558-27.608-5.281-36.969A3.406,3.406,0,0,0,393.135,280C392.343,279.576,390.375,281,390.573,281.847Z" transform="translate(-271.015 -261.088)"/><path class="e" d="M426.211,291.315c-1.809,1.822-4.819,1.215-7.262.449a27.884,27.884,0,0,1-7.433-3.208,10.272,10.272,0,0,1-4.529-6.483,7.988,7.988,0,0,1,6.232-8.86,8.107,8.107,0,0,1,5.717-7.315,8.411,8.411,0,0,1,8.873,3.327c9.137,1.954,6.6,10.972,6.3,12.147a3.142,3.142,0,0,1-2.641,2.311C431.928,286.39,428.957,290.892,426.211,291.315Z" transform="translate(-265.775 -265.658)"/></g></g></svg>