<svg width="240" height="100" viewBox="0 0 345 96" fill="none" xmlns="http://www.w3.org/2000/svg">
<path d="M58 12H31.488C29.562 12 28 13.562 28 15.488V30.006H58V12Z" fill="#169154"/>
<path d="M28 66.108V80.512C28 82.438 29.562 84 31.486 84H58V66.108H28Z" fill="#18482A"/>
<path d="M28 30.006H58V48.01H28V30.006Z" fill="#0C8045"/>
<path d="M28 48.01H58V66.11H28V48.01Z" fill="#17472A"/>
<path d="M84.512 12H58V30.006H88V15.488C88 13.562 86.438 12 84.512 12Z" fill="#29C27F"/>
<path d="M58 66.108V84H84.514C86.438 84 88 82.438 88 80.514V66.11H58V66.108Z" fill="#27663F"/>
<path d="M58 30.006H88V48.01H58V30.006Z" fill="#19AC65"/>
<path d="M58 48.01H88V66.11H58V48.01Z" fill="#129652"/>
<path d="M44.638 68H11.362C9.506 68 8 66.494 8 64.638V31.362C8 29.506 9.506 28 11.362 28H44.638C46.494 28 48 29.506 48 31.362V64.638C48 66.494 46.494 68 44.638 68Z" fill="#0C7238"/>
<path d="M19.614 38H24.386L28.258 45.508L32.35 38H36.808L30.666 48L36.948 58H32.246L28.026 50.14L23.824 58H19.052L25.438 47.964L19.614 38Z" fill="white"/>
<path d="M155.44 40H150.28L149.56 28.44C149.32 24.3067 149.2 21.0267 149.2 18.6V17.16L144.16 37H139.16L133.8 17.12C133.853 18.88 133.88 20.2133 133.88 21.12C133.88 23.5467 133.8 26.04 133.64 28.6L132.96 40H127.84L130.04 12.36H136.84L141.76 31.72L146.4 12.36H153.28L155.44 40ZM165.489 18.84V40H160.369V18.84H165.489ZM162.889 8.12C163.849 8.12 164.622 8.42666 165.209 9.04C165.822 9.62667 166.129 10.36 166.129 11.24C166.129 12.12 165.822 12.8533 165.209 13.44C164.622 14.0267 163.849 14.32 162.889 14.32C161.956 14.32 161.182 14.0267 160.569 13.44C159.982 12.8533 159.689 12.12 159.689 11.24C159.689 10.36 159.982 9.62667 160.569 9.04C161.182 8.42666 161.956 8.12 162.889 8.12ZM180.178 18.24C181.565 18.24 182.805 18.44 183.898 18.84C185.018 19.24 186.071 19.8667 187.058 20.72L184.778 23.8C184.058 23.2667 183.365 22.88 182.698 22.64C182.031 22.4 181.298 22.28 180.498 22.28C177.325 22.28 175.738 24.6933 175.738 29.52C175.738 31.9733 176.151 33.7467 176.978 34.84C177.805 35.9067 178.978 36.44 180.498 36.44C181.245 36.44 181.925 36.32 182.538 36.08C183.178 35.84 183.925 35.4533 184.778 34.92L187.058 38.16C185.058 39.7867 182.778 40.6 180.218 40.6C178.191 40.6 176.431 40.16 174.938 39.28C173.445 38.3733 172.298 37.0933 171.498 35.44C170.698 33.7867 170.298 31.84 170.298 29.6C170.298 27.36 170.698 25.3867 171.498 23.68C172.298 21.9467 173.445 20.6133 174.938 19.68C176.431 18.72 178.178 18.24 180.178 18.24ZM201.2 18.28C201.973 18.28 202.68 18.3733 203.32 18.56L202.44 23.52C201.8 23.36 201.173 23.28 200.56 23.28C199.306 23.28 198.32 23.7333 197.6 24.64C196.88 25.52 196.306 26.88 195.88 28.72V40H190.76V18.84H195.2L195.68 23C196.186 21.48 196.92 20.32 197.88 19.52C198.84 18.6933 199.946 18.28 201.2 18.28ZM213.931 18.24C217.051 18.24 219.478 19.24 221.211 21.24C222.971 23.2133 223.851 25.9333 223.851 29.4C223.851 31.6133 223.451 33.5733 222.651 35.28C221.851 36.96 220.704 38.2667 219.211 39.2C217.718 40.1333 215.944 40.6 213.891 40.6C210.771 40.6 208.331 39.6133 206.571 37.64C204.811 35.64 203.931 32.8933 203.931 29.4C203.931 27.1867 204.331 25.24 205.131 23.56C205.931 21.88 207.078 20.5733 208.571 19.64C210.091 18.7067 211.878 18.24 213.931 18.24ZM213.931 22.12C210.864 22.12 209.331 24.5467 209.331 29.4C209.331 31.9067 209.704 33.76 210.451 34.96C211.224 36.1333 212.371 36.72 213.891 36.72C215.411 36.72 216.544 36.12 217.291 34.92C218.064 33.72 218.451 31.88 218.451 29.4C218.451 26.92 218.064 25.0933 217.291 23.92C216.544 22.72 215.424 22.12 213.931 22.12ZM235.33 18.24C238.184 18.24 240.69 19.08 242.85 20.76L240.85 23.76C239.037 22.6133 237.264 22.04 235.53 22.04C234.517 22.04 233.73 22.24 233.17 22.64C232.61 23.0133 232.33 23.52 232.33 24.16C232.33 24.64 232.45 25.04 232.69 25.36C232.93 25.68 233.357 25.9867 233.97 26.28C234.61 26.5467 235.544 26.8533 236.77 27.2C239.064 27.8133 240.757 28.6267 241.85 29.64C242.97 30.6533 243.53 32.0667 243.53 33.88C243.53 35.9867 242.677 37.64 240.97 38.84C239.264 40.0133 237.144 40.6 234.61 40.6C232.877 40.6 231.29 40.3333 229.85 39.8C228.437 39.2667 227.21 38.5333 226.17 37.6L228.73 34.72C230.57 36.1067 232.49 36.8 234.49 36.8C235.637 36.8 236.544 36.5733 237.21 36.12C237.904 35.6667 238.25 35.04 238.25 34.24C238.25 33.6267 238.117 33.1467 237.85 32.8C237.61 32.4267 237.157 32.1067 236.49 31.84C235.85 31.5467 234.837 31.2 233.45 30.8C231.29 30.2133 229.704 29.4 228.69 28.36C227.677 27.2933 227.17 25.9733 227.17 24.4C227.17 23.2267 227.504 22.1733 228.17 21.24C228.864 20.3067 229.824 19.5733 231.05 19.04C232.304 18.5067 233.73 18.24 235.33 18.24ZM256.314 18.24C259.434 18.24 261.86 19.24 263.594 21.24C265.354 23.2133 266.234 25.9333 266.234 29.4C266.234 31.6133 265.834 33.5733 265.034 35.28C264.234 36.96 263.087 38.2667 261.594 39.2C260.1 40.1333 258.327 40.6 256.274 40.6C253.154 40.6 250.714 39.6133 248.954 37.64C247.194 35.64 246.314 32.8933 246.314 29.4C246.314 27.1867 246.714 25.24 247.514 23.56C248.314 21.88 249.46 20.5733 250.954 19.64C252.474 18.7067 254.26 18.24 256.314 18.24ZM256.314 22.12C253.247 22.12 251.714 24.5467 251.714 29.4C251.714 31.9067 252.087 33.76 252.834 34.96C253.607 36.1333 254.754 36.72 256.274 36.72C257.794 36.72 258.927 36.12 259.674 34.92C260.447 33.72 260.834 31.88 260.834 29.4C260.834 26.92 260.447 25.0933 259.674 23.92C258.927 22.72 257.807 22.12 256.314 22.12ZM279.593 13.68C278.58 13.68 277.846 13.92 277.393 14.4C276.966 14.8533 276.753 15.5867 276.753 16.6V18.84H281.833L281.273 22.52H276.753V40H271.633V22.52H268.193V18.84H271.633V16.52C271.633 14.52 272.273 12.9067 273.553 11.68C274.86 10.4267 276.7 9.8 279.073 9.8C280.94 9.8 282.766 10.2133 284.553 11.04L283.073 14.48C281.926 13.9467 280.766 13.68 279.593 13.68ZM297.02 39C296.274 39.5333 295.434 39.9333 294.5 40.2C293.594 40.4667 292.66 40.6 291.7 40.6C289.62 40.5733 288.034 39.9867 286.94 38.84C285.874 37.6667 285.34 35.9467 285.34 33.68V22.52H282.02V18.84H285.34V14.16L290.46 13.56V18.84H295.38L294.86 22.52H290.46V33.56C290.46 34.6 290.634 35.3467 290.98 35.8C291.354 36.2533 291.927 36.48 292.7 36.48C293.474 36.48 294.314 36.2267 295.22 35.72L297.02 39ZM145.28 60.36L144.72 64.28H134.52V72H143.4V75.92H134.52V84.04H145.44V88H129.24V60.36H145.28ZM160.251 76.68L167.331 88H161.411L157.051 79.6L152.731 88H147.091L154.131 76.84L147.811 66.84H153.651L157.251 74.04L160.811 66.84H166.371L160.251 76.68ZM178.381 66.24C179.768 66.24 181.008 66.44 182.101 66.84C183.221 67.24 184.275 67.8667 185.261 68.72L182.981 71.8C182.261 71.2667 181.568 70.88 180.901 70.64C180.235 70.4 179.501 70.28 178.701 70.28C175.528 70.28 173.941 72.6933 173.941 77.52C173.941 79.9733 174.355 81.7467 175.181 82.84C176.008 83.9067 177.181 84.44 178.701 84.44C179.448 84.44 180.128 84.32 180.741 84.08C181.381 83.84 182.128 83.4533 182.981 82.92L185.261 86.16C183.261 87.7867 180.981 88.6 178.421 88.6C176.395 88.6 174.635 88.16 173.141 87.28C171.648 86.3733 170.501 85.0933 169.701 83.44C168.901 81.7867 168.501 79.84 168.501 77.6C168.501 75.36 168.901 73.3867 169.701 71.68C170.501 69.9467 171.648 68.6133 173.141 67.68C174.635 66.72 176.381 66.24 178.381 66.24ZM205.542 76.92C205.542 77.1867 205.502 77.88 205.422 79H192.142C192.302 81.0533 192.835 82.52 193.742 83.4C194.648 84.28 195.848 84.72 197.342 84.72C198.275 84.72 199.155 84.5733 199.982 84.28C200.808 83.96 201.688 83.48 202.622 82.84L204.742 85.76C202.395 87.6533 199.782 88.6 196.902 88.6C193.675 88.6 191.182 87.6133 189.422 85.64C187.688 83.6667 186.822 80.9733 186.822 77.56C186.822 75.4 187.195 73.4667 187.942 71.76C188.688 70.0267 189.768 68.68 191.182 67.72C192.595 66.7333 194.275 66.24 196.222 66.24C199.182 66.24 201.475 67.1867 203.102 69.08C204.728 70.9467 205.542 73.56 205.542 76.92ZM200.462 75.44C200.462 71.7333 199.088 69.88 196.342 69.88C195.088 69.88 194.102 70.3467 193.382 71.28C192.688 72.1867 192.275 73.6533 192.142 75.68H200.462V75.44ZM215.135 88.6C213.508 88.6 212.228 88.1333 211.295 87.2C210.388 86.24 209.935 84.8933 209.935 83.16V58.36L215.055 57.8V83C215.055 83.9867 215.455 84.48 216.255 84.48C216.655 84.48 217.055 84.4133 217.455 84.28L218.535 87.88C217.468 88.36 216.335 88.6 215.135 88.6Z" fill="#6B7280"/>
</svg>
