<svg xmlns="http://www.w3.org/2000/svg" width="512" height="508.258" viewBox="0 0 512 508.258"><defs><style>.a,.g,.l{fill:#2f75ff;}.b,.d,.e,.i{fill:#fff;}.b{opacity:0.9;}.c{fill:#f5f5f5;}.d{opacity:0.5;}.e{opacity:0.7;}.f{opacity:0.2;}.g,.p{opacity:0.3;}.h{fill:#f0f0f0;}.j{fill:#e0e0e0;}.k{fill:#ffc760;}.l{font-size:13px;font-family:Poppins-Bold, Poppins;font-weight:700;}.m{fill:#ffb573;}.n{fill:#263238;}.o{fill:#ed893e;}</style></defs><g transform="translate(-56.11 -42.614)"><g transform="translate(73.103 42.614)"><path class="a" d="M552.909,328.62c23.357-54.609-10.642-127.32-66.809-157.648-49-26.407-92.424-4.674-138.5-45.512-42.871-38.039-70.559-85.9-138.16-82.693C156.254,45.289,126.982,86.127,102.49,130c-67.113,119.966-32.163,204.916,93.6,256.409,60.128,24.664,137.315,47.73,202.777,45.7C477.36,429.731,523.928,396.327,552.909,328.62Z" transform="translate(-68.981 -42.614)"/><path class="b" d="M552.909,328.62c23.357-54.609-10.642-127.32-66.809-157.648-49-26.407-92.424-4.674-138.5-45.512-42.871-38.039-70.559-85.9-138.16-82.693C156.254,45.289,126.982,86.127,102.49,130c-67.113,119.966-32.163,204.916,93.6,256.409,60.128,24.664,137.315,47.73,202.777,45.7C477.36,429.731,523.928,396.327,552.909,328.62Z" transform="translate(-68.981 -42.614)"/></g><g transform="translate(56.11 520.98)"><ellipse class="c" cx="256" cy="14.946" rx="256" ry="14.946"/></g><g transform="translate(258.588 98.827)"><path class="a" d="M451.719,462.344H237.3a15.052,15.052,0,0,1-15.171-16.425l26.261-344.3A18.089,18.089,0,0,1,266.079,85.19H480.5a15.039,15.039,0,0,1,15.171,16.425l-26.261,344.3a18.1,18.1,0,0,1-17.692,16.425Z" transform="translate(-205.428 -85.189)"/><path class="d" d="M451.719,462.344H237.3a15.052,15.052,0,0,1-15.171-16.425l26.261-344.3A18.089,18.089,0,0,1,266.079,85.19H480.5a15.039,15.039,0,0,1,15.171,16.425l-26.261,344.3a18.1,18.1,0,0,1-17.692,16.425Z" transform="translate(-205.428 -85.189)"/><path class="a" d="M449.312,462.344H234.876a15.052,15.052,0,0,1-15.171-16.425l26.275-344.3A18.089,18.089,0,0,1,263.686,85.19H478.108a15.039,15.039,0,0,1,15.171,16.425l-26.261,344.3a18.089,18.089,0,0,1-17.706,16.425Z" transform="translate(-206.203 -85.189)"/><path class="e" d="M449.312,462.344H234.876a15.052,15.052,0,0,1-15.171-16.425l26.275-344.3A18.089,18.089,0,0,1,263.686,85.19H478.108a15.039,15.039,0,0,1,15.171,16.425l-26.261,344.3a18.089,18.089,0,0,1-17.706,16.425Z" transform="translate(-206.203 -85.189)"/><path class="a" d="M233.965,454.427a10.008,10.008,0,0,1-10.114-10.946l25.918-339.736A12.028,12.028,0,0,1,261.56,92.8H475.982A10.008,10.008,0,0,1,486.1,103.746L460.178,443.482A12.028,12.028,0,0,1,448.4,454.427Z" transform="translate(-204.869 -82.751)"/><path class="f" d="M431.45,139.229H278a5.942,5.942,0,0,1-5.994-6.5h0a7.156,7.156,0,0,1,6.985-6.483H432.44a5.928,5.928,0,0,1,5.994,6.483h0A7.13,7.13,0,0,1,431.45,139.229Z" transform="translate(-189.437 -72.036)"/><path class="g" d="M349.553,91.035H324.77a1.466,1.466,0,0,1-1.479-1.6h0a1.769,1.769,0,0,1,1.716-1.6h24.8a1.466,1.466,0,0,1,1.466,1.6h0a1.743,1.743,0,0,1-1.716,1.6Z" transform="translate(-173.002 -84.34)"/><path class="h" d="M280.023,135.517a16.4,16.4,0,0,0-16.583-17.957h155.8a16.4,16.4,0,0,1,16.583,17.957Z" transform="translate(-192.173 -74.82)"/><path class="i" d="M276.726,117.56a19.726,19.726,0,0,0-19.343,17.957L241.42,344.75a19.713,19.713,0,0,1-19.33,17.957h155.8a19.726,19.726,0,0,0,19.343-17.957L413.2,135.517a19.713,19.713,0,0,1,19.33-17.957Z" transform="translate(-205.419 -74.819)"/><path class="h" d="M365.338,289.63a16.4,16.4,0,0,0,16.583,17.957h-155.8a16.4,16.4,0,0,1-16.583-17.957Z" transform="translate(-209.464 -19.699)"/><path class="j" d="M260.74,289.854c.594-7.645-1.809-13.824-9.44-13.824H371.266c7.632,0,13.375,6.985,9.454,13.824Z" transform="translate(-196.062 -24.056)"/><path class="h" d="M365.32,294a19.713,19.713,0,0,1,19.33-18H228.85a19.713,19.713,0,0,0-19.33,17.957Z" transform="translate(-209.446 -24.065)"/><path class="i" d="M427.761,331.207H248.922a4.317,4.317,0,0,1-4.357-4.714h0a5.189,5.189,0,0,1,5.07-4.714H428.487a4.317,4.317,0,0,1,4.344,4.714h0A5.189,5.189,0,0,1,427.761,331.207Z" transform="translate(-198.225 -9.4)"/><path class="i" d="M337.87,348.367H247.612a4.3,4.3,0,0,1-4.357-4.714h0a5.189,5.189,0,0,1,5.07-4.714h90.258a4.318,4.318,0,0,1,4.357,4.714h0a5.189,5.189,0,0,1-5.07,4.714Z" transform="translate(-198.645 -3.904)"/><path class="i" d="M372.172,348.367h-36.56a4.3,4.3,0,0,1-4.357-4.714h0a5.189,5.189,0,0,1,5.07-4.714h36.56a4.331,4.331,0,0,1,4.357,4.714h0a5.189,5.189,0,0,1-5.07,4.714Z" transform="translate(-170.456 -3.903)"/><path class="k" d="M397.435,280.928l-9.335,1.466a8.608,8.608,0,0,0-1.069-2.443,5.506,5.506,0,0,0-1.73-1.386l-.555,7.169q7.394,2.02,9.744,4.251a9.057,9.057,0,0,1,2.759,7.605,10.841,10.841,0,0,1-1.584,4.965,13.363,13.363,0,0,1-3.354,3.763,13.574,13.574,0,0,1-4.146,2.205,20.914,20.914,0,0,1-5.281.805L382.529,314h-3.486l.356-4.674a22.259,22.259,0,0,1-5.823-1.175,10.971,10.971,0,0,1-3.776-2.377,10.245,10.245,0,0,1-2.284-3.261,13.972,13.972,0,0,1-1.017-4.225l10.1-1.162a8.871,8.871,0,0,0,.924,3.552,5.559,5.559,0,0,0,2.35,1.928l.66-8.754a44.068,44.068,0,0,1-6.919-2.4,8.569,8.569,0,0,1-3.38-3.261,8.952,8.952,0,0,1-1.109-5.479,10.642,10.642,0,0,1,3.644-7.367,14.84,14.84,0,0,1,9.427-3.288l.185-2.456H386l-.185,2.456a14.259,14.259,0,0,1,8.292,2.641,9.639,9.639,0,0,1,3.327,6.232Zm-15.752-2.482a5.149,5.149,0,0,0-2.3,1.32,2.984,2.984,0,0,0-.766,1.822,2.826,2.826,0,0,0,.488,1.9,4.238,4.238,0,0,0,2.086,1.32Zm1.756,24.413a6.311,6.311,0,0,0,3.208-1.558,3.829,3.829,0,0,0,1.162-2.416,3.01,3.01,0,0,0-.66-2.152,6.72,6.72,0,0,0-3.1-1.822Z" transform="translate(-159.159 -26.116)"/><path class="k" d="M383.6,187.415H254.83l.264-3.565H383.88Z" transform="translate(-194.931 -53.584)"/><path class="h" d="M383.807,186.55H255.035L254.19,197.5H382.976Z" transform="translate(-195.136 -52.719)"/><path class="h" d="M382.547,203.12H253.762l-.832,10.932H381.716Z" transform="translate(-195.54 -47.411)"/><path class="h" d="M381.274,219.68H252.5l-.832,10.946H380.442Z" transform="translate(-195.943 -42.107)"/><path class="h" d="M380.017,236.25H251.232l-.832,10.932H379.186Z" transform="translate(-196.35 -36.799)"/><path class="k" d="M378.346,256.388H249.56l.277-3.578H378.623Z" transform="translate(-196.619 -31.494)"/><path class="h" d="M336.235,136.08H363l-1.215,15.963H335.02Z" transform="translate(-169.243 -68.887)"/><text class="l" transform="translate(59.521 120.787)"><tspan x="0" y="0">PAYMENT REMINDER</tspan></text></g><g transform="translate(99.397 131.756)"><path class="m" d="M139.394,213.018l4.78,1.914a10.734,10.734,0,0,1,4.436,3.327l2.192,2.773a4.846,4.846,0,0,1-.158,6.219l-2.324,2.641a4.872,4.872,0,0,1-6.919.409l-2.245-1.981s-6.866-4.819-8.886-11.2l1.32-1.32a9.124,9.124,0,0,1,7.8-2.786Z" transform="translate(-75.641 -77.194)"/><path class="m" d="M157.021,182.066l-1.558,1.03-1.73,1.188c-1.149.819-2.311,1.664-3.433,2.522-2.258,1.756-4.45,3.565-6.483,5.493A53.445,53.445,0,0,0,133.6,204.736c-.33.555-.621,1.109-.9,1.677l-.211.423a5.432,5.432,0,0,0,.132-.541,1.637,1.637,0,0,0,0-.66c-.119-.383-.132.607.172,1.584a40.589,40.589,0,0,0,3.156,7.315c2.72,5.2,6.126,10.563,9.348,15.844l.079.145a4.648,4.648,0,0,1-1.545,6.377,4.7,4.7,0,0,1-5.281-.3,86.458,86.458,0,0,1-7.539-6.6,89.606,89.606,0,0,1-6.892-7.513,45.723,45.723,0,0,1-6.06-9.414,25.36,25.36,0,0,1-1.241-3.248,16.161,16.161,0,0,1-.687-4.45,13.045,13.045,0,0,1,.33-3.037,14.431,14.431,0,0,1,.5-1.677l.251-.673c.33-.911.7-1.8,1.083-2.641a61.925,61.925,0,0,1,12.6-18.075,80.219,80.219,0,0,1,7.922-7.09c1.4-1.083,2.812-2.139,4.278-3.129.739-.5,1.479-1,2.245-1.479l1.175-.713,1.32-.766a9.242,9.242,0,0,1,9.718,15.686Z" transform="translate(-80.171 -92.559)"/><path class="n" d="M153.768,162.05c-7.711,0-16.161,3.34-26.988,16.768,0,8.014,16.914,18.67,16.914,18.67S171.421,161.984,153.768,162.05Z" transform="translate(-76.759 -93.497)"/><path class="n" d="M104.7,404.229a1.562,1.562,0,0,1-.409-.066c-1.6-.568-3.1-4.634-3.2-6.905a.343.343,0,0,1,.2-.343.383.383,0,0,1,.409,0c.172.145,4.146,3.406,4.331,5.6a1.545,1.545,0,0,1-.356,1.188A1.32,1.32,0,0,1,104.7,404.229Zm-2.76-6.087c.356,2.152,1.584,4.951,2.641,5.281a.489.489,0,0,0,.568-.211.805.805,0,0,0,.185-.634c-.145-1.254-2.1-3.274-3.393-4.436Z" transform="translate(-84.985 -18.28)"/><path class="n" d="M107.188,399.534a12.859,12.859,0,0,1-5.928-1.822.375.375,0,0,1,.119-.673c.211,0,5.189-1.32,7.064-.211a1.518,1.518,0,0,1,.753.99,1.215,1.215,0,0,1-.475,1.32,2.721,2.721,0,0,1-1.532.4Zm-4.714-1.994c1.941.977,4.938,1.637,5.823,1.03.132-.092.251-.224.172-.581a.766.766,0,0,0-.409-.528c-1.1-.673-3.882-.264-5.585.079Z" transform="translate(-84.986 -18.431)"/><path class="a" d="M91.331,399.882a62.213,62.213,0,0,0,9.85-13.982s12.253,3.01,9.85,6.6c-4.37,6.4-6.5,19.567-.871,26.618,3.208,4.027-1.862,4.7-5.281,2.971-5.281-2.733-5.11-3.763-7.922-8.292-2.377-3.869-3.314-5.387-6.6-7.051C87.713,405.309,89.034,402.616,91.331,399.882Z" transform="translate(-88.895 -21.789)"/><path class="n" d="M192.949,222.33S175.2,308.944,162.186,346.006c-13.652,38.844-51.348,98.8-52.813,101.375-5.361-1.439-10.14-3.314-13.322-6.417,0,0,17.693-65.027,34.936-107.211,6.6-88.066,20.98-111.357,20.98-111.357Z" transform="translate(-86.603 -74.187)"/><path class="f" d="M149.137,257.506c-.805,16.755-1.32,39.795-.568,67.839,5.427-17.481,11.328-41.181,16.293-62.452C161.548,258.47,156.4,256.344,149.137,257.506Z" transform="translate(-69.896 -63.019)"/><path class="m" d="M149.72,141.89c1.862,7.539,3.684,19.805.713,26.407,0,0,11.117.5,25.324,11.883,6.694-9.823-1.056-11.751-1.056-11.751-5.9-1.32-5.611-9.242-5.6-14.854Z" transform="translate(-69.41 -99.955)"/><path class="a" d="M148.286,166.911c-5.545-.607-1.716-11.144,1.162-10.114,7.288,2.641,23.634-.29,28.691,2.5s3.776,8.5,3.776,8.5S154.254,167.571,148.286,166.911Z" transform="translate(-70.776 -95.202)"/><path class="e" d="M148.286,166.911c-5.545-.607-1.716-11.144,1.162-10.114,7.288,2.641,23.634-.29,28.691,2.5s3.776,8.5,3.776,8.5S154.254,167.571,148.286,166.911Z" transform="translate(-70.776 -95.202)"/><path class="n" d="M172.107,132.316c.185,1,.858,1.73,1.518,1.611s1.043-1.03.871-2.033-.858-1.73-1.518-1.611S171.975,131.313,172.107,132.316Z" transform="translate(-62.248 -103.677)"/><path class="n" d="M172.55,130.632l2.3-1.122S173.936,131.623,172.55,130.632Z" transform="translate(-62.097 -103.92)"/><path class="n" d="M174.311,125.936a.581.581,0,0,0,0-.449.607.607,0,0,0-.739-.423,6.007,6.007,0,0,0-4.146,3.591.634.634,0,0,0,.383.766.607.607,0,0,0,.766-.383,4.727,4.727,0,0,1,3.314-2.812.634.634,0,0,0,.423-.29Z" transform="translate(-63.106 -105.351)"/><path class="o" d="M173,133.68a27.372,27.372,0,0,0,4.318,6.113,4.383,4.383,0,0,1-3.565,1.056Z" transform="translate(-61.953 -102.585)"/><path class="m" d="M146.125,136.612c2.944,12.253,3.961,17.494,11.183,22.763,10.919,7.922,25.02,1.664,25.733-11.2.634-11.593-4.278-29.668-17.032-32.493S143.181,124.359,146.125,136.612Z" transform="translate(-70.727 -108.488)"/><path class="n" d="M173.07,140.511c7.209-9.533,11.883-17.244,8.358-25.681-2.971-7.051-11.2-4.991-12.345-1.466-21.865-1.862-29.721,6.06-25.205,19.158,2.878,8.358-8.292,3.961-5.572,14.629,2.073,8.133-5.281,11.236-1.545,15.91,5.387,6.747,16.5-2.047,29.193,3.01C176.305,170.219,191.912,163.947,173.07,140.511Z" transform="translate(-73.906 -110.129)"/><path class="m" d="M163.314,136.386a8.107,8.107,0,0,0,5.479,3.763c2.865.423,3.855-2.8,2.641-5.783-1.056-2.641-3.816-6.14-6.522-5.176S161.69,133.811,163.314,136.386Z" transform="translate(-65.351 -104.075)"/><path class="n" d="M167.864,409.408a11.882,11.882,0,0,1-6.245-2.733.374.374,0,0,1,.211-.647c.211,0,5.281-.568,7.024.832a1.466,1.466,0,0,1,.594,1.1,1.188,1.188,0,0,1-.66,1.32A2.179,2.179,0,0,1,167.864,409.408Zm-5.03-2.72c1.8,1.254,4.661,2.35,5.625,1.875.145-.079.277-.2.251-.555a.779.779,0,0,0-.33-.581c-.937-.819-3.8-.845-5.545-.739Z" transform="translate(-65.637 -15.378)"/><path class="n" d="M161.868,407.982a.41.41,0,0,1-.3-.158.383.383,0,0,1,0-.409c.106-.185,2.641-4.648,4.793-5.189a1.492,1.492,0,0,1,1.241.172,1.2,1.2,0,0,1,.634,1.32c-.29,1.677-4.067,3.829-6.272,4.291Zm4.925-5.07h-.264c-1.241.317-2.918,2.575-3.855,4.04,2.06-.713,4.634-2.377,4.819-3.433a.548.548,0,0,0-.3-.541A.805.805,0,0,0,166.793,402.912Z" transform="translate(-65.635 -16.58)"/><path class="a" d="M181.606,417.074c-10.695-.832-17.9-8.173-17.164-15.95.409-4.291-13.3-4.674-13.3-4.674,2.165,13.3-.555,15.2-1.452,18.63s-.673,7.235,2.165,7.3c3.393.092,4.978-.555,9.242-.4,4.938.2,10.272.383,19.052.4C183.626,422.395,186.359,417.443,181.606,417.074Z" transform="translate(-69.569 -18.41)"/><path class="n" d="M195.757,222.33s-.937,65.607-6.113,108.716S166.67,458.71,166.67,458.71a29.774,29.774,0,0,1-14.22-.132s-5.625-66.017,3.816-129.881c-6.932-66.9-11.276-106.366-11.276-106.366Z" transform="translate(-70.926 -74.187)"/><path class="a" d="M200.909,181.121c-.224,5.07,7.777,16.795-2.1,23.581,1.848,4.133,3.406,32.111-.33,37.1-5.453,3.961-34.963,3.235-59.415,0-1.043-10.114,4.529-31.068-2.3-63.733a13.032,13.032,0,0,1,11.447-15.633c2.06-.2,4.238-.383,6.47-.489a166.711,166.711,0,0,1,23.41,0c2.522.238,5.136.555,7.632.911A17.666,17.666,0,0,1,200.909,181.121Z" transform="translate(-73.648 -93.661)"/><g class="p" transform="translate(62.941 67.959)"><path class="n" d="M137.351,176.173l-.541.3h0a.343.343,0,1,0,.317.594l.607-.33c2.641.964,5.453,3.156,7.077,3.38-2.641-2.311-4.5-3.961-6.6-3.671.621-.37,1.228-.739,1.835-1.135,2.4.9,5.017,2.9,6.509,3.1-2.429-2.139-4.172-3.671-6.087-3.38l1.32-.911.739-.541c2.179.937,4.476,2.931,5.849,3.208-2.192-2.165-3.737-3.7-5.585-3.393.581-.436,1.149-.871,1.7-1.32,1.994.871,4.106,2.641,5.361,2.944-2.007-1.994-3.42-3.393-5.123-3.129l1.426-1.188.343-.29c1.756.924,3.5,2.746,4.648,3.076-1.664-1.994-2.826-3.38-4.568-3.156.449-.383.9-.779,1.32-1.188,1.624.858,3.222,2.535,4.278,2.839-1.532-1.835-2.641-3.1-4.2-2.9l1.4-1.32c1.413.871,2.759,2.456,3.7,2.786-1.32-1.743-2.165-2.944-3.6-2.878.251-.251.5-.489.739-.739l.423-.436c1.32.805,2.548,2.271,3.406,2.575-1.162-1.6-1.994-2.72-3.314-2.641.383-.4.766-.805,1.135-1.215,1.188.647,2.311,1.875,3.1,2.113-1.043-1.32-1.782-2.3-3.05-2.165l.211-.224.792-.924a32.785,32.785,0,0,0,2.826,1.914c-.951-1.228-1.624-2.086-2.76-1.994.3-.37.607-.766.871-1.162a.106.106,0,0,0,0-.158.119.119,0,0,0-.145,0h0q-.4.555-.832,1.069a2.5,2.5,0,0,0-.489-1.743h-.449a17.087,17.087,0,0,1,.726,1.954c-.238.277-.489.541-.726.805l-.172.185c.251-.964-.251-1.8-1.017-2.852H150.5c.211.819.832,1.941,1.083,3.024l-1.056,1.069c.343-1.215-.5-2.284-1.677-3.8,0,.911,1.109,2.482,1.532,3.961l-.37.37-.726.687c.33-1.32-.568-2.469-1.848-4.093,0,.977,1.2,2.641,1.664,4.265l-1.32,1.149c.277-1.32-.607-2.641-1.809-4.357,0,1.043,1.069,2.892,1.505,4.621l-1.043.885c.3-1.426-.647-2.826-1.954-4.74,0,1.135,1.162,3.142,1.624,5.017l-.277.224c-.475.4-.964.779-1.452,1.162.383-1.466-.528-3.116-1.782-5.361-.092,1.215.99,3.591,1.32,5.691-.555.423-1.109.819-1.677,1.228.634-1.664-.4-3.525-1.822-6.113-.119,1.32,1.122,4.04,1.479,6.351l-.5.343-1.571,1.017c.726-1.677-.158-3.657-1.452-6.351-.066.092-.132.185-.185.277.092,1.584,1.017,4.119,1.215,6.324-.581.37-1.188.713-1.782,1.043.687-1.4.29-2.984-.555-4.964a12.645,12.645,0,0,0-.462,1.716,23.146,23.146,0,0,1,.753,3.5Z" transform="translate(-136.565 -161.491)"/><path class="n" d="M166.2,167.132c-1.994-1.32-3.961-3.6-5.281-4.093,1.809,2.482,3.1,4.238,4.978,4.238-.647.33-1.32.673-1.9,1.03-1.822-1.175-3.618-3.314-4.819-3.763,1.664,2.284,2.852,3.895,4.568,3.961-.541.3-1.069.621-1.6.937l-.383.238c-1.6-1.188-3.024-3.261-4.106-3.776,1.32,2.245,2.258,3.789,3.961,3.842-.515.3-1.017.634-1.518.964-1.452-1.1-2.773-3.01-3.763-3.473,1.215,2.047,2.06,3.473,3.684,3.525l-1.584,1.069c-1.254-1.083-2.337-2.865-3.208-3.34.977,1.914,1.664,3.261,3.1,3.42l-.858.607-.475.357c-1.162-.99-2.165-2.641-2.971-3.076.911,1.769,1.545,3,2.865,3.156-.449.33-.885.66-1.32,1-1.083-.819-1.994-2.2-2.746-2.561.832,1.505,1.4,2.548,2.641,2.641l-.238.185-.937.792c-.977-.766-1.809-2.02-2.5-2.35.753,1.32,1.32,2.324,2.416,2.416-.357.317-.713.66-1.056,1.017a.092.092,0,0,0,0,.145.106.106,0,0,0,.145,0h0a10.936,10.936,0,0,1,.99-.924c-.33.9.145,1.809.779,3.05a24.909,24.909,0,0,0-.541-3.248c.277-.238.555-.449.845-.673l.2-.158c-.449,1.017.066,2.033.792,3.459a31.927,31.927,0,0,0-.594-3.6c.409-.317.805-.607,1.228-.9-.528,1.135.132,2.337,1.056,3.961.092-.9-.713-2.641-.885-4.146l.423-.3.819-.555c-.528,1.228.172,2.522,1.175,4.331.092-.977-.766-2.839-.964-4.476l1.439-.924c-.489,1.254.172,2.641,1.083,4.582.158-1.03-.594-3.024-.753-4.793l1.175-.713c-.528,1.32.185,2.892,1.188,4.991.172-1.122-.66-3.3-.819-5.215l.3-.172,1.624-.924c-.607,1.386,0,3.156.9,5.585.29-1.188-.4-3.71-.423-5.836.621-.33,1.228-.647,1.862-.951-.9,1.545-.185,3.538.832,6.324.317-1.32-.475-4.159-.462-6.5l.541-.264,1.73-.766c-1.03,1.611-.383,3.829.541,6.905.423-1.426-.264-4.542-.092-7.09.634-.264,1.32-.5,1.928-.739-1.241,1.756-.528,4.2.489,7.605.475-1.545-.29-4.978-.092-7.737l.594-.211h0a.33.33,0,0,0,.211-.436.356.356,0,0,0-.436-.211l-.647.238a42.037,42.037,0,0,1-4.383-3.208H165.9c1.716,2.047,3.129,3.42,4.885,3.446-.673.251-1.32.541-1.994.832-2.231-1.32-4.489-3.657-5.928-4.106,2.06,2.509,3.538,4.291,5.479,4.3l-1.479.687Z" transform="translate(-131.685 -161.6)"/><path class="n" d="M153.91,186.812c-1.452-1.584-2.469-2.641-3.895-2.469l.66-.805.37-.475c1.32.647,2.773,1.967,3.671,2.165-1.32-1.452-2.284-2.482-3.6-2.271.343-.436.673-.871,1-1.32,1.254.5,2.509,1.6,3.327,1.743-1.2-1.228-2.033-2.086-3.288-1.809a1.754,1.754,0,0,0,.185-.251c.238-.33.462-.66.687-1a32.5,32.5,0,0,0,3.037,1.6c-1.1-1.122-1.848-1.9-2.971-1.677a10.426,10.426,0,0,0,.739-1.32.109.109,0,0,0-.2-.092h0a10.384,10.384,0,0,1-.713,1.149c.079-.951-.621-1.7-1.571-2.733a25.085,25.085,0,0,0,1.4,3l-.634.871-.158.2c.172-1.1-.607-1.941-1.677-3.116a29.824,29.824,0,0,0,1.532,3.327l-.937,1.188c.2-1.254-.753-2.218-2.1-3.6.158.9,1.32,2.35,1.967,3.763l-.33.409-.647.753c.185-1.32-.832-2.377-2.284-3.855.172.964,1.492,2.535,2.126,4.053l-1.135,1.32c.132-1.32-.885-2.522-2.284-4.133.132,1.043,1.4,2.759,2.02,4.423l-.937,1c.145-1.452-.964-2.733-2.482-4.489.132,1.122,1.505,3,2.179,4.793l-.251.264c-.423.449-.871.885-1.32,1.32.224-1.492-.858-3.024-2.35-5.123,0,1.215,1.32,3.459,1.967,5.506-.5.475-1.017.951-1.532,1.4.449-1.716-.779-3.446-2.5-5.862,0,1.32,1.571,3.882,2.179,6.14l-.462.4c-.475.409-.964.805-1.452,1.2.568-1.835-.66-3.789-2.363-6.509,0,1.479,1.466,4.3,1.98,6.8q-.805.634-1.664,1.228a4.7,4.7,0,0,0-.5-3.71c.158,1.571.29,3.1.4,4.608l.185-.132c2.707.673,5.77,2.522,7.407,2.561-2.852-2.007-4.912-3.433-6.932-2.9.581-.436,1.149-.885,1.7-1.32,2.5.621,5.281,2.324,6.813,2.363-2.641-1.862-4.555-3.2-6.43-2.641.423-.356.832-.7,1.241-1.069l.673-.621c2.271.7,4.78,2.429,6.166,2.535-2.4-1.9-4.119-3.248-5.928-2.746.528-.489,1.043-.99,1.558-1.505,2.073.647,4.384,2.231,5.651,2.337-2.218-1.756-3.789-3-5.453-2.535.436-.449.871-.885,1.32-1.32l.3-.33c1.848.726,3.789,2.337,4.964,2.548-1.875-1.8-3.182-3.05-4.885-2.641.4-.436.805-.885,1.188-1.32,1.7.673,3.486,2.152,4.568,2.337-1.716-1.65-2.918-2.786-4.489-2.416.423-.475.832-.964,1.228-1.452C151.428,185.162,152.946,186.588,153.91,186.812Z" transform="translate(-135.881 -156.59)"/><path class="n" d="M171.372,185.589c-.951.423-2.231,2.126-3.644,3.208l-1.228-.607c1.439-.277,2.337-1.7,3.578-3.671-1.043.449-2.429,2.311-3.961,3.486l-.317-.172c-.555-.277-1.1-.581-1.637-.871,1.492-.224,2.641-1.716,4.212-3.763-1.162.4-2.9,2.337-4.687,3.5-.607-.343-1.2-.687-1.8-1.056,1.769-.066,3.076-1.756,4.885-4.106-1.32.449-3.261,2.641-5.281,3.882l-.515-.317-1.558-1.043c1.9,0,3.42-1.73,5.519-4.159-1.426.4-3.684,2.641-5.915,3.882q-.858-.594-1.664-1.228c2.139.106,3.816-1.809,6.153-4.5-1.571.423-4.053,2.918-6.5,4.238l-.489-.4h0a.356.356,0,0,0-.489,0,.343.343,0,0,0,0,.475l.541.423c.158,2.786-.726,6.258-.29,7.843,1.083-3.327,1.862-5.717.766-7.486.581.423,1.175.832,1.769,1.228.132,2.641-.673,5.757-.264,7.209,1-3.076,1.716-5.281.673-6.932l1.32.871.792.475c0,2.363-.924,5.281-.634,6.6,1.122-2.852,1.914-4.885.911-6.456.621.356,1.32.7,1.888,1.043,0,2.179-.845,4.832-.581,6.087,1.03-2.641,1.756-4.5.832-5.955l1.664.845.4.2c-.145,1.967-1.122,4.3-.977,5.479,1.175-2.311,1.98-3.961,1.083-5.44l1.624.753c-.145,1.822-1.043,3.961-.9,5.057,1.069-2.139,1.809-3.618.99-5,.581.264,1.162.515,1.756.753-.238,1.637-1.162,3.512-1.1,4.5,1.1-1.862,1.848-3.156,1.215-4.45l.977.4.555.211c-.211,1.518-1.056,3.235-1,4.146,1-1.7,1.7-2.9,1.122-4.106.515.2,1.03.4,1.558.568-.106,1.32-.792,2.865-.687,3.7.819-1.505,1.32-2.561.766-3.671l.29.106c.383.119.766.251,1.162.356a33,33,0,0,0-.634,3.367c.739-1.32,1.32-2.324.726-3.34a10.67,10.67,0,0,0,1.426.343.106.106,0,0,0,.119-.079.119.119,0,0,0-.079-.132h0c-.449-.092-.885-.211-1.32-.343.924-.211,1.439-1.083,2.139-2.3-.66.29-1.492,1.466-2.443,2.2l-1.017-.343-.238-.092c1.1-.158,1.677-1.149,2.482-2.522-.753.33-1.664,1.637-2.733,2.429-.462-.172-.937-.343-1.4-.541,1.241-.172,1.9-1.32,2.812-3.05-.805.409-1.835,2.007-3.01,2.971l-.489-.2-.911-.4c1.32-.2,2.033-1.492,3.024-3.3-.871.436-1.98,2.152-3.248,3.208-.528-.224-1.043-.462-1.558-.713C169.4,188.705,170.237,187.4,171.372,185.589Z" transform="translate(-130.356 -156.33)"/><path class="n" d="M165.71,197.8a33.137,33.137,0,0,0,3.116,1.4c-1.149-1.043-1.967-1.769-3.063-1.492a12.308,12.308,0,0,0,.66-1.32.109.109,0,0,0-.2-.092h0c-.2.409-.409.805-.634,1.2,0-.951-.739-1.664-1.743-2.641a25.083,25.083,0,0,0,1.571,2.892l-.568.911-.145.211c.092-1.109-.726-1.9-1.875-3a32.029,32.029,0,0,0,1.73,3.208l-.845,1.254c.119-1.254-.9-2.179-2.324-3.459.211.885,1.532,2.258,2.192,3.631l-.3.423c-.185.264-.4.528-.594.792.106-1.32-.977-2.324-2.522-3.7.238.951,1.65,2.429,2.377,3.961-.343.462-.7.911-1.056,1.32,0-1.32-1.03-2.456-2.535-3.961.2,1.017,1.571,2.641,2.284,4.278q-.423.541-.871,1.069c0-1.466-1.122-2.641-2.746-4.331.2,1.109,1.69,2.892,2.482,4.648l-.238.277c-.409.475-.819.937-1.241,1.386.132-1.492-1.056-2.971-2.641-4.964.106,1.215,1.6,3.367,2.311,5.374-.475.5-.951,1-1.439,1.492.33-1.73-1-3.393-2.865-5.691.132,1.32,1.822,3.776,2.561,5.994l-.423.423-1.386,1.32c.449-1.862-.9-3.737-2.76-6.338,0,1.479,1.73,4.212,2.4,6.6-.515.462-1.043.911-1.584,1.32.594-2.06-.871-4.133-2.958-7.024,0,1.624,1.9,4.608,2.641,7.288l-.5.4h0a.343.343,0,0,0,.423.541l.528-.436c2.746.488,5.928,2.152,7.566,2.086-2.984-1.822-5.123-3.129-7.1-2.469.541-.462,1.083-.951,1.611-1.439,2.522.462,5.44,1.98,6.945,1.928-2.759-1.69-4.753-2.892-6.6-2.258.4-.383.792-.753,1.175-1.149l.647-.66c2.3.555,4.912,2.113,6.3,2.139-2.522-1.743-4.3-2.984-6.087-2.363.5-.528.977-1.056,1.452-1.6,2.126.5,4.516,1.941,5.8,1.967-2.324-1.611-3.961-2.746-5.6-2.192.409-.462.805-.937,1.2-1.413l.277-.357c1.9.607,3.961,2.1,5.123,2.231-1.994-1.677-3.367-2.839-5.044-2.311l1.109-1.4c1.743.555,3.6,1.914,4.7,2.033-1.822-1.532-3.09-2.641-4.634-2.126.383-.5.766-1.017,1.135-1.532,1.545.607,3.156,1.941,4.133,2.1-1.558-1.479-2.641-2.522-4.053-2.2.211-.277.409-.568.607-.845s.224-.343.343-.5c1.413.555,2.892,1.782,3.8,1.928-1.439-1.32-2.443-2.324-3.737-2.033q.475-.687.911-1.386c1.32.423,2.641,1.439,3.433,1.532-1.32-1.149-2.165-1.954-3.393-1.6l.172-.264Z" transform="translate(-132.313 -150.946)"/><path class="n" d="M168.426,212.392q.422-.541.871-1.03c-.2.924.37,1.769,1.162,2.931a28.563,28.563,0,0,0-.937-3.169l.753-.766.172-.185c-.317,1.069.317,2.02,1.215,3.327a31.966,31.966,0,0,0-1.03-3.5l1.1-1.043c-.37,1.2.423,2.311,1.558,3.869,0-.911-1.03-2.535-1.4-3.961l.4-.343.739-.66c-.383,1.32.475,2.482,1.69,4.159,0-.99-1.1-2.733-1.505-4.318.436-.383.871-.739,1.32-1.109-.33,1.32.5,2.641,1.637,4.423,0-1.043-.964-2.944-1.32-4.674l1.083-.845c-.37,1.413.541,2.839,1.782,4.806,0-1.135-1.056-3.2-1.452-5.07l.29-.224,1.492-1.1c-.436,1.439.409,3.116,1.584,5.413.132-1.215-.858-3.631-1.135-5.73.568-.4,1.135-.792,1.716-1.175-.7,1.637.264,3.538,1.611,6.179.158-1.32-.99-4.08-1.32-6.4l.5-.317c.541-.33,1.083-.66,1.624-.964-.832,1.716.092,3.829,1.32,6.773.251-1.466-.805-4.476-.951-7.011.594-.343,1.2-.673,1.822-.977-1.017,1.888,0,4.225,1.426,7.486.277-1.6-.9-4.912-1.043-7.671l.555-.277h0a.33.33,0,0,0,.158-.449.343.343,0,0,0-.462-.158l-.607.317c-2.575-1.056-5.347-3.354-6.958-3.631,2.535,2.4,4.357,4.133,6.43,3.961-.634.33-1.254.7-1.875,1.056-2.377-.977-4.912-3.076-6.39-3.327,2.35,2.231,4.04,3.816,5.968,3.591l-1.386.871-.766.515c-2.139-1.03-4.37-3.1-5.717-3.42,2.1,2.245,3.591,3.829,5.453,3.591-.594.409-1.175.832-1.756,1.32-1.967-.937-3.961-2.839-5.281-3.129,1.941,2.06,3.314,3.512,5.017,3.314-.488.37-.99.739-1.466,1.122l-.357.29c-1.716-.99-3.393-2.878-4.529-3.248,1.584,2.06,2.641,3.472,4.45,3.314l-1.386,1.135c-1.584-.9-3.129-2.641-4.172-2.984,1.466,1.888,2.482,3.2,4.093,3.063a16.51,16.51,0,0,0-1.439,1.32c-1.32-.924-2.641-2.561-3.591-2.918,1.2,1.782,2.06,3.024,3.5,3.01l-.779.7-.436.423c-1.32-.858-2.456-2.363-3.314-2.641,1.122,1.637,1.9,2.786,3.235,2.773-.409.383-.805.766-1.188,1.162-1.162-.673-2.245-1.941-3.037-2.2,1,1.32,1.7,2.35,2.984,2.271l-.211.211c-.277.29-.568.594-.832.9-1.069-.634-2.047-1.782-2.759-2.02.911,1.254,1.545,2.139,2.641,2.1a12.656,12.656,0,0,0-.924,1.122.106.106,0,0,0,0,.158.092.092,0,0,0,.145,0Z" transform="translate(-127.027 -150.798)"/><path class="n" d="M157.469,225.771q.792-.739,1.545-1.505c2.086.647,4.384,2.231,5.664,2.337-2.218-1.756-3.789-3-5.453-2.548.436-.436.871-.885,1.32-1.32l.3-.33c1.848.726,3.776,2.337,4.964,2.548-1.875-1.809-3.182-3.05-4.9-2.641.409-.436.805-.885,1.2-1.32,1.7.673,3.486,2.152,4.568,2.337-1.73-1.65-2.931-2.8-4.489-2.416l1.228-1.452c1.505.7,3.024,2.126,3.961,2.35-1.452-1.571-2.482-2.641-3.961-2.456l.66-.805.37-.475c1.386.647,2.786,1.954,3.684,2.165-1.32-1.466-2.284-2.482-3.6-2.271.343-.436.673-.871.99-1.32,1.32.5,2.509,1.6,3.327,1.743-1.188-1.228-2.02-2.086-3.274-1.809l.185-.251c.224-.33.462-.66.687-1a33.616,33.616,0,0,0,3.024,1.584c-1.083-1.109-1.848-1.888-2.971-1.677a13.051,13.051,0,0,0,.739-1.254.106.106,0,1,0-.185-.106h0q-.33.594-.713,1.149c0-.951-.621-1.7-1.571-2.733a28.1,28.1,0,0,0,1.32,3l-.621.871-.158.2c.172-1.1-.607-1.941-1.69-3.116a34.085,34.085,0,0,0,1.532,3.314c-.3.409-.607.805-.924,1.188.2-1.241-.753-2.218-2.1-3.591.158.9,1.386,2.35,1.967,3.763-.119.132-.224.277-.33.409l-.647.753c.185-1.32-.832-2.377-2.284-3.855.172.964,1.492,2.522,2.126,4.053l-1.135,1.32c.132-1.32-.885-2.522-2.284-4.133.119,1.03,1.32,2.759,2.007,4.423l-.937,1c.145-1.466-.951-2.733-2.469-4.489.132,1.122,1.505,3,2.179,4.793l-.251.264-1.32,1.32c.224-1.492-.871-3.037-2.363-5.123,0,1.215,1.386,3.459,1.967,5.506l-1.518,1.4c.436-1.716-.779-3.446-2.509-5.862,0,1.32,1.584,3.882,2.192,6.14l-.462.4c-.475.409-.964.805-1.452,1.188.568-1.822-.66-3.776-2.363-6.5,0,1.466,1.426,4.238,1.954,6.707h1.017c.409-.343.819-.687,1.215-1.043s.462-.409.687-.621A42.878,42.878,0,0,1,161.68,228h1C160.7,226.431,159.119,225.309,157.469,225.771Z" transform="translate(-131.544 -145.362)"/><path class="n" d="M150.67,219.42c0,1.32.99,3.486,1.69,5.691l1,.079C153.245,223.553,152.122,221.744,150.67,219.42Z" transform="translate(-132.047 -143.078)"/><path class="n" d="M154.64,223.952l1.994.119A3.578,3.578,0,0,0,154.64,223.952Z" transform="translate(-130.775 -141.655)"/><path class="n" d="M188.058,225.107a1.874,1.874,0,0,0,.106-.238l-.475-.172-.238-.079a2.034,2.034,0,0,0,1-.475c.119-.343.238-.713.343-1.122a14.432,14.432,0,0,1-1.6,1.505l-1.439-.515c1.241-.185,1.9-1.32,2.812-3.063-.805.409-1.835,2.007-3.01,2.984l-.489-.2-.911-.4c1.32-.211,2.033-1.492,3.024-3.314-.871.449-1.98,2.165-3.248,3.222l-1.558-.713c1.32-.277,2.139-1.584,3.274-3.393-.951.423-2.231,2.139-3.644,3.222l-1.228-.607c1.439-.29,2.337-1.716,3.578-3.684-1.043.462-2.429,2.324-3.961,3.486l-.317-.158-1.637-.885c1.492-.224,2.641-1.716,4.212-3.75-1.162.4-2.9,2.337-4.687,3.486-.607-.33-1.2-.687-1.8-1.043,1.769-.079,3.076-1.756,4.885-4.106-1.32.436-3.261,2.641-5.281,3.882l-.515-.317c-.528-.343-1.043-.687-1.558-1.056,1.9,0,3.42-1.73,5.519-4.146-1.426.4-3.684,2.641-5.915,3.882l-1.677-1.241c2.152.106,3.829-1.809,6.166-4.5-1.571.436-4.053,2.918-6.5,4.238l-.489-.383h0a.343.343,0,0,0-.423.541l.541.409c.158,2.786-.726,6.272-.29,7.843,1.083-3.314,1.862-5.7.766-7.486.581.436,1.175.845,1.769,1.241.132,2.561-.673,5.757-.264,7.209,1-3.09,1.716-5.281.673-6.932.462.29.911.594,1.32.871l.792.475c0,2.363-.924,5.281-.634,6.6,1.122-2.865,1.914-4.885.911-6.47.621.37,1.32.713,1.888,1.043,0,2.179-.845,4.846-.581,6.087,1.03-2.641,1.756-4.489.832-5.942l1.664.832.4.2c-.145,1.98-1.122,4.3-.977,5.493,1.175-2.324,1.98-3.961,1.083-5.44l1.624.753c-.132,1.769-.977,3.816-.911,4.938h.066c1.043-2.06,1.743-3.512.937-4.885l1.756.766c-.2,1.32-.832,2.8-1.03,3.842l.356-.066c.845-1.479,1.32-2.641.792-3.723l.964.383.568.224a20.464,20.464,0,0,1-.739,2.746l.607-.185a2.733,2.733,0,0,0,.251-2.522l1.558.568a7.922,7.922,0,0,1-.251,1.32,4.817,4.817,0,0,0,.581-.343,1.848,1.848,0,0,0-.251-.964l.29.092Z" transform="translate(-125.772 -145.583)"/><path class="n" d="M147.176,202.294h0a.356.356,0,0,0,.238-.423.343.343,0,0,0-.423-.238l-.66.2c-2.337-1.518-4.621-4.291-6.153-4.872,2.033,2.839,3.5,4.872,5.585,5.044-.687.211-1.32.449-2.047.7a54.058,54.058,0,0,1-4.423-3.7v.9c1.32,1.716,2.469,2.865,3.961,2.971-.515.185-1.017.383-1.518.594l-.858.357a15.385,15.385,0,0,1-1.6-1.386v1.1a3.1,3.1,0,0,0,1.32.423l-1.32.621v.555l1.782-.766c-.99,1.479-.4,3.525.423,6.364.409-1.32-.211-4.185,0-6.522l.555-.224,1.769-.647c-1.135,1.545-.634,3.8.092,6.919.515-1.386,0-4.542.357-7.064.66-.224,1.32-.436,1.98-.621-1.32,1.677-.792,4.146,0,7.632.568-1.518,0-4.991.409-7.737Z" transform="translate(-135.696 -150.273)"/><path class="n" d="M139.08,207.954a1.719,1.719,0,0,0,.132.475,11.883,11.883,0,0,0,0-3.459C139.172,205.987,139.133,206.99,139.08,207.954Z" transform="translate(-135.76 -147.707)"/><path class="n" d="M143.965,224.413l-.489-.779c1.069-2.113,3.208-4.291,3.552-5.638-2.3,2.047-3.961,3.5-3.723,5.361-.4-.607-.805-1.188-1.215-1.782.99-1.941,2.944-3.961,3.274-5.163-2.113,1.875-3.6,3.208-3.446,4.925l-1.1-1.505-.264-.357c1.017-1.69,2.944-3.327,3.354-4.45-2.1,1.532-3.552,2.641-3.42,4.37l-1.109-1.413c.951-1.558,2.72-3.063,3.09-4.093-1.928,1.413-3.261,2.39-3.156,3.961l-.819-.977v.555l.475.581a3.3,3.3,0,0,0-.5-.079v.581l.766-.185.832,1.109a2.892,2.892,0,0,0-1.637,0v.819a13.014,13.014,0,0,1,1.928-.515l.211.277,1.069,1.532a4.753,4.753,0,0,0-3.222.436c0,.238,0,.488,0,.726a33.545,33.545,0,0,1,3.539-.713c.383.581.753,1.162,1.109,1.756-1.254-.581-2.641-.145-4.555.673v.528h.29a41.443,41.443,0,0,1,4.45-.885l.317.515.568,1.017.739.092A7.913,7.913,0,0,1,143.965,224.413Z" transform="translate(-135.971 -144.85)"/><path class="n" d="M138.71,212.921v.621a4.648,4.648,0,0,0,.924-1.2Z" transform="translate(-135.878 -145.346)"/><path class="n" d="M144.59,224.072l1.175.132a17.918,17.918,0,0,0,2.39-4.3,20.109,20.109,0,0,0-3.565,4.172Z" transform="translate(-133.995 -142.924)"/><path class="n" d="M143.69,224.438c1.1-2.231,3.037-4.529,3.314-5.928-2.3,2.3-3.961,3.961-3.75,5.875Z" transform="translate(-134.428 -143.37)"/><path class="n" d="M138.6,215.025a5.469,5.469,0,0,1-.066,1.043,20.173,20.173,0,0,0,2.535-2.918,11.711,11.711,0,0,0-2.469,1.875Z" transform="translate(-135.936 -145.087)"/></g><path class="m" d="M208.256,191.622l5.836-6.192,8.094,11.395s-6.826,4.832-13.362,4.648l-.753-1.677A9.163,9.163,0,0,1,208.256,191.622Z" transform="translate(-50.998 -86.007)"/><path class="m" d="M221.821,186.4l2.284,4.291a4.04,4.04,0,0,1-1.65,5.453l-1.9,1.043-8.094-11.395,4.634-1.32a4.04,4.04,0,0,1,4.727,1.928Z" transform="translate(-49.312 -86.37)"/><path class="m" d="M189.142,175.188l.5,2.522.555,2.641c.4,1.782.779,3.578,1.228,5.281.858,3.538,1.888,7.011,2.984,10.365a70.778,70.778,0,0,0,3.961,9.388,25.615,25.615,0,0,0,4.832,6.734l-2.8-1.32c-.819-.106-.977.145-.541.132a5.914,5.914,0,0,0,1.994-.581,33.073,33.073,0,0,0,5.625-3.288c1.967-1.32,3.961-2.878,5.928-4.476s3.961-3.3,5.889-4.872l.211-.158a4.648,4.648,0,0,1,7.077,5.717,70.967,70.967,0,0,1-4.423,7.328,69.2,69.2,0,0,1-5.387,6.813,40.033,40.033,0,0,1-7.117,6.311,22.774,22.774,0,0,1-5.281,2.641,16,16,0,0,1-3.723.819,14.668,14.668,0,0,1-4.7-.343,7.078,7.078,0,0,1-2.5-1.149l-.317-.238a38.421,38.421,0,0,1-10.048-11.21,65.6,65.6,0,0,1-3.248-5.942q-1.439-3-2.641-5.994a108.571,108.571,0,0,1-3.882-12.068c-.515-2.033-1-4.053-1.413-6.1-.2-1.03-.409-2.047-.581-3.09s-.33-2.02-.5-3.261a9.242,9.242,0,0,1,18.221-3.037Z" transform="translate(-62.673 -91.794)"/><path class="n" d="M177.45,162.8c7.684.792,13.824,5.889,18.115,22.116-3.3,4.568-24.1,14.59-24.1,14.59S159.889,161,177.45,162.8Z" transform="translate(-63.643 -93.275)"/></g></g></svg>