<svg xmlns="http://www.w3.org/2000/svg" width="512" height="438.102" viewBox="0 0 512 438.102"><defs><style>.a,.j{fill:#2f75ff;}.b,.g,.i,.l{fill:#fff;}.b{opacity:0.9;}.c{fill:#f5f5f5;}.d{fill:#ffb573;}.e{fill:#263238;}.f{opacity:0.2;}.g,.k{opacity:0.4;}.h{fill:#ed893e;}.i,.j{opacity:0.5;}.m{fill:#e0e0e0;}</style></defs><g transform="translate(-56.11 -95.749)"><g transform="translate(106.753 95.749)"><path class="a" d="M101.416,346.3C129.935,386.2,278,430.574,358.882,414.625c104.874-20.7,171.868-113.892,137.011-217.2C463.545,101.507,356.6,72.1,264.174,114.974,181.838,153.172,64.645,299.888,101.416,346.3Z" transform="translate(-94.466 -95.749)"/><path class="b" d="M101.416,346.3C129.935,386.2,278,430.574,358.882,414.625c104.874-20.7,171.868-113.892,137.011-217.2C463.545,101.507,356.6,72.1,264.174,114.974,181.838,153.172,64.645,299.888,101.416,346.3Z" transform="translate(-94.466 -95.749)"/></g><g transform="translate(56.11 503.959)"><ellipse class="c" cx="256" cy="14.946" rx="256" ry="14.946"/></g><g transform="translate(235.53 114.172)"><path class="d" d="M274.639,413.341H264.446l-.436-23.581H274.2Z" transform="translate(-168.933 -19.989)"/><path class="d" d="M321.942,413.341h-10.18L307.22,389.76H317.4Z" transform="translate(-155.091 -19.989)"/><path class="e" d="M314.036,406.73h11.447a.845.845,0,0,1,.845.7l1.8,9.044a1.558,1.558,0,0,1-1.532,1.822c-3.961-.079-5.928-.3-10.959-.3-3.1,0-9.493.317-13.758.317s-4.74-4.225-2.971-4.608c7.922-1.716,10.893-4.093,13.467-6.351A2.641,2.641,0,0,1,314.036,406.73Z" transform="translate(-158.064 -14.553)"/><path class="e" d="M270.43,406.73h11.13a.858.858,0,0,1,.845.7l1.8,9.044A1.532,1.532,0,0,1,282.7,418.3c-3.961-.079-9.81-.3-14.854-.3-5.9,0-11,.317-17.917.317-4.172,0-5.281-4.225-3.473-4.608,8.014-1.743,14.524-1.928,21.508-6.179A4.832,4.832,0,0,1,270.43,406.73Z" transform="translate(-174.825 -14.553)"/><path class="d" d="M282.479,167.874l-10.814-9.744S247.9,195.575,243.12,197.661c-6.6,2.826-28.532,21.772-35.755,26.156-.462,1.664-.343,6.245.489,7.579,12.015-1.03,41.076-18.7,45.855-23.145C264.536,198.1,282.479,167.874,282.479,167.874Z" transform="translate(-187.164 -94.189)"/><path class="e" d="M279.206,161.864c1.6,9.612-20.584,33.167-20.584,33.167L240.85,180.507a129.038,129.038,0,0,1,16.121-21.561C266.134,149.637,277.463,151.327,279.206,161.864Z" transform="translate(-176.352 -95.876)"/><path class="f" d="M250.83,188.887l4.595,3.723s4.978-5.281,10.035-11.883c5.928-8.609,10.5-16.4,10.642-20v-.092C273.844,158.982,260.983,172.938,250.83,188.887Z" transform="translate(-173.155 -93.43)"/><path class="d" d="M211.094,207.31l-10.483,1.941-.581,11.276a44.891,44.891,0,0,0,12.622-5.44Z" transform="translate(-189.428 -78.435)"/><path class="d" d="M192,212.569l1.545,5.8,9.057,1.69.581-11.276Z" transform="translate(-192 -77.964)"/><path class="f" d="M264.01,389.76l.224,12.16h10.193l-.224-12.16Z" transform="translate(-168.933 -19.989)"/><path class="f" d="M317.413,389.76H307.22l2.35,12.16h10.18Z" transform="translate(-155.091 -19.989)"/><path class="a" d="M244.59,169.24l-6.1,7.262,19.765,16.293,7.909-7.816Z" transform="translate(-177.108 -90.63)"/><path class="e" d="M260.4,154.216s-12.781,30.764-2.759,88.04h54.517c.581-8.358-3.671-49.156,5.361-88.555a141.473,141.473,0,0,0-18.181-2.311,202.117,202.117,0,0,0-23.159,0,104,104,0,0,0-15.778,2.825Z" transform="translate(-172.202 -96.454)"/><path class="f" d="M292.952,161.868c-1.056,6.5.607,22.01,6.338,39.94a261.23,261.23,0,0,1,4.885-45.736v-.04C300.6,155.623,293.982,155.795,292.952,161.868Z" transform="translate(-159.757 -94.904)"/><path class="d" d="M291.791,134.91c-1.65,7.447-2.641,16.689,2.5,21.654,0,0-3.182,7.566-17.032,7.566-12.649,0-6.126-7.566-6.126-7.566,8.358-1.981,8.173-12.253,6.866-18.049Z" transform="translate(-167.191 -101.627)"/><path class="f" d="M276.007,138.528a22.445,22.445,0,0,1-.356,12.226,13.309,13.309,0,0,0,3.737-1.135c4.74-2.2,7.13-5.691,9.665-10.84.211-1.32.462-2.641.753-3.869Z" transform="translate(-165.204 -101.627)"/><path class="d" d="M267.46,131.525a9.335,9.335,0,0,0,3.961,6.06c2.786,1.809,5.281-.489,5.361-3.684.106-2.865-1.228-7.275-4.463-7.8a4.423,4.423,0,0,0-4.859,5.427Z" transform="translate(-167.867 -104.461)"/><path class="f" d="M267.46,131.525a9.335,9.335,0,0,0,3.961,6.06c2.786,1.809,5.281-.489,5.361-3.684.106-2.865-1.228-7.275-4.463-7.8a4.423,4.423,0,0,0-4.859,5.427Z" transform="translate(-167.867 -104.461)"/><path class="e" d="M280.205,117.323l-6.707,22.05C264.717,123.621,274.58,110.232,280.205,117.323Z" transform="translate(-167.013 -107.885)"/><path class="d" d="M299.443,134.951c-4.3,9.242-6.351,14.867-13.005,17.957-9.995,4.661-19.871-3.961-18.392-14.273,1.32-9.242,8.147-22.829,18.815-23.172a13.467,13.467,0,0,1,12.583,19.488Z" transform="translate(-167.687 -107.86)"/><path class="e" d="M291.748,144.807c-5.281.647-.924-12.741,3.657-16.359-6.14-.819-22.631-2.192-21.838-11.157.951-10.866,13.2-7.618,13.2-5.07,2.337,1.677,20.7.29,18.907,14.207C314.682,126.811,309.651,142.655,291.748,144.807Z" transform="translate(-165.88 -109.702)"/><path class="e" d="M298.645,125.437h-.092a.356.356,0,0,1-.238-.436c2.033-6.76-.4-9.15-2.733-10.483a.37.37,0,0,1-.132-.475.356.356,0,0,1,.475-.132c3.75,2.139,4.727,5.73,3.05,11.3a.343.343,0,0,1-.33.224Z" transform="translate(-158.874 -108.368)"/><path class="e" d="M300.92,130.164a.317.317,0,0,1-.251-.106.343.343,0,0,1,0-.489c1.994-1.8,2.8-3.393,2.337-4.621s-2.5-2.152-5.083-2.152a.343.343,0,0,1,0-.687c2.918,0,5.123.99,5.73,2.641.409,1.056.29,2.852-2.522,5.387A.369.369,0,0,1,300.92,130.164Z" transform="translate(-158.179 -105.727)"/><path class="d" d="M294.5,140.395a9.77,9.77,0,0,1-7.13,1.9c-3.327-.462-3.578-3.776-1.466-6.219,1.888-2.2,5.915-4.621,8.675-2.918S297.027,138.414,294.5,140.395Z" transform="translate(-162.352 -102.372)"/><path class="a" d="M257.425,220.133s-3.274,76.157-2.918,107.224c.357,32.3,9.044,126.554,9.044,126.554h17.257s3.182-92.424,4.727-124.112c1.677-34.593,7.7-109.68,7.7-109.68Z" transform="translate(-171.986 -74.331)"/><path class="g" d="M257.425,220.133s-3.274,76.157-2.918,107.224c.357,32.3,9.044,126.554,9.044,126.554h17.257s3.182-92.424,4.727-124.112c1.677-34.593,7.7-109.68,7.7-109.68Z" transform="translate(-171.986 -74.331)"/><path class="e" d="M280.4,393.347c.079,0-.145,5.638-.145,5.638H260.373l-.673-6.324Z" transform="translate(-170.313 -19.06)"/><path class="f" d="M274.408,235.4c-.594,37.788,1.122,60.735,5.281,79.22,1.043-18.023,2.746-41.855,4.238-61.66Z" transform="translate(-165.638 -69.436)"/><path class="a" d="M271.35,220.13s9.652,77.9,15.276,106.947c6.166,31.939,29.734,126.752,29.734,126.752h18.656S320.308,361.644,317.1,330.035c-3.459-34.329-10.563-109.9-10.563-109.9Z" transform="translate(-166.581 -74.328)"/><path class="g" d="M271.35,220.13s9.652,77.9,15.276,106.947c6.166,31.939,29.734,126.752,29.734,126.752h18.656S320.308,361.644,317.1,330.035c-3.459-34.329-10.563-109.9-10.563-109.9Z" transform="translate(-166.581 -74.328)"/><path class="e" d="M324.843,393.7c.079,0,.805,5.2.805,5.2h-20.5l-1.664-5.981Z" transform="translate(-156.289 -18.977)"/><path class="e" d="M280.706,128.648c-.3.766-.951,1.241-1.452,1.056s-.66-.964-.357-1.73.951-1.32,1.452-1.069S281.01,127.869,280.706,128.648Z" transform="translate(-164.213 -104.211)"/><path class="e" d="M274.166,126.2c-.3.766-.951,1.241-1.452,1.056s-.66-.964-.356-1.73.951-1.241,1.452-1.056S274.47,125.434,274.166,126.2Z" transform="translate(-166.308 -104.984)"/><path class="h" d="M277.162,126.84a30.842,30.842,0,0,1-6.232,5.281,4.6,4.6,0,0,0,3.367,2.047Z" transform="translate(-166.716 -104.212)"/><path class="e" d="M274.567,134.85a.224.224,0,0,1-.132-.3.238.238,0,0,1,.317-.145,6.6,6.6,0,0,0,5.876-.555.238.238,0,0,1,.33,0,.251.251,0,0,1,0,.343,7.011,7.011,0,0,1-6.39.66Z" transform="translate(-165.599 -101.989)"/><path class="e" d="M283.7,127.753a.449.449,0,0,1-.29-.3,3.723,3.723,0,0,0-2.284-2.641.462.462,0,0,1-.3-.594.475.475,0,0,1,.594-.33,4.621,4.621,0,0,1,2.918,3.222.489.489,0,0,1-.33.607.475.475,0,0,1-.3.04Z" transform="translate(-163.554 -105.165)"/><path class="e" d="M271.735,122.829a.5.5,0,0,1-.158-.132.489.489,0,0,1,.066-.687,4.859,4.859,0,0,1,4.3-1.069.475.475,0,0,1,.3.594.5.5,0,0,1-.607.33h0a3.842,3.842,0,0,0-3.393.885.488.488,0,0,1-.515.079Z" transform="translate(-166.544 -106.143)"/><path class="d" d="M295.28,166.868l14.154-4.608s13.032,33.193,17.864,35.121c6.6,2.641,19.9,9.612,28.189,11.276.951,1.4,2.231,5.7,1.822,7.222-11.883,3.09-36.072-3.433-40.838-7.7C305.605,198.424,295.28,166.868,295.28,166.868Z" transform="translate(-158.916 -92.866)"/><path class="e" d="M305.537,153.105c9.6,1.4,19.805,34.791,19.805,34.791L304.824,199.33s-8.529-15.844-12.636-27.727C287.937,159.3,295.278,151.6,305.537,153.105Z" transform="translate(-160.3 -95.858)"/><path class="a" d="M322.882,176.66l5.189,9.044L303.1,196.28l-4.423-9.493Z" transform="translate(-157.827 -88.253)"/><path class="a" d="M308.142,408.72a3.011,3.011,0,0,1-1.954-.528,1.386,1.386,0,0,1-.462-1.32.805.805,0,0,1,.423-.687c1.135-.581,4.383,1.439,4.753,1.677a.238.238,0,0,1,.106.238.278.278,0,0,1-.2.2A12.029,12.029,0,0,1,308.142,408.72Zm-1.466-2.113a.794.794,0,0,0-.317,0c-.066,0-.132.092-.158.277a.964.964,0,0,0,.3.871c.555.475,1.875.541,3.618.185a9.61,9.61,0,0,0-3.446-1.333Z" transform="translate(-155.578 -14.761)"/><path class="a" d="M310.237,408.927h-.119c-1.03-.568-3.024-2.8-2.773-3.961a.792.792,0,0,1,.779-.634,1.32,1.32,0,0,1,1.03.317c1.149.964,1.32,3.9,1.32,4.027a.264.264,0,0,1-.119.224A.225.225,0,0,1,310.237,408.927Zm-1.954-4.133h-.066c-.317,0-.343.185-.356.251-.145.673,1.109,2.35,2.139,3.156a5.744,5.744,0,0,0-1.122-3.2A.832.832,0,0,0,308.283,404.794Z" transform="translate(-155.058 -15.324)"/><path class="a" d="M261.872,408.708a3.75,3.75,0,0,1-2.456-.634,1.32,1.32,0,0,1-.423-1.175.792.792,0,0,1,.409-.634c1.254-.7,5.281,1.32,5.757,1.624a.242.242,0,0,1-.079.449A17.3,17.3,0,0,1,261.872,408.708Zm-1.782-2.113a.924.924,0,0,0-.462.092.3.3,0,0,0-.158.251.9.9,0,0,0,.277.779c.607.555,2.284.647,4.542.277a12.886,12.886,0,0,0-4.2-1.4Z" transform="translate(-170.544 -14.749)"/><path class="a" d="M264.419,408.937h-.106c-1.215-.555-3.591-2.759-3.38-3.961,0-.264.251-.607.924-.673a1.743,1.743,0,0,1,1.32.409c1.32,1.07,1.479,3.816,1.492,3.961a.277.277,0,0,1-.106.211A.329.329,0,0,1,264.419,408.937Zm-2.39-4.133h-.145c-.436,0-.462.224-.475.277-.132.687,1.492,2.416,2.72,3.169a5.453,5.453,0,0,0-1.32-3.129,1.241,1.241,0,0,0-.779-.317Z" transform="translate(-169.922 -15.334)"/><path class="d" d="M342.864,205.447l9.7.475-5.163-10.563s-8.49-.119-9.876,6.4Z" transform="translate(-145.381 -82.263)"/><path class="d" d="M358.015,201.772l-5.136-9.322-7.869,3.869,5.163,10.563Z" transform="translate(-142.985 -83.195)"/><rect class="a" width="14.246" height="56.774" transform="translate(234.501 67.011) rotate(86.43)"/><rect class="i" width="14.246" height="56.774" transform="translate(235.65 85.37) rotate(86.43)"/><rect class="j" width="14.246" height="56.774" transform="translate(235.65 85.37) rotate(86.43)"/></g><g transform="translate(130.385 240.848)"><path class="a" d="M403.52,403.479,128.111,381.417a13.124,13.124,0,0,1-12-14.088l11.962-149.356A13.111,13.111,0,0,1,142.16,206.01l275.409,22.05a13.2,13.2,0,0,1,12,14.088l-11.962,149.37a13.2,13.2,0,0,1-14.088,11.962Z" transform="translate(-111.177 -205.54)"/><path class="k" d="M403.52,403.479,128.111,381.417a13.124,13.124,0,0,1-12-14.088l11.962-149.356A13.111,13.111,0,0,1,142.16,206.01l275.409,22.05a13.2,13.2,0,0,1,12,14.088l-11.962,149.37a13.2,13.2,0,0,1-14.088,11.962Z" transform="translate(-111.177 -205.54)"/><path class="a" d="M399.809,403.187,124.4,381.138a13.2,13.2,0,0,1-12-14.088L124.36,217.68a13.2,13.2,0,0,1,14.088-12l275.409,22.05a13.2,13.2,0,0,1,12,14.035L413.9,391.133a13.2,13.2,0,0,1-14.088,12.055Z" transform="translate(-112.364 -205.644)"/><path class="l" d="M410.061,379.29,116.088,355.748a2.179,2.179,0,0,1-2.007-2.337l10.259-128.073a2.179,2.179,0,0,1,2.337-2.007l293.986,23.542a2.192,2.192,0,0,1,2.007,2.429L412.411,377.375A2.179,2.179,0,0,1,410.061,379.29Z" transform="translate(-111.816 -199.981)"/><path class="l" d="M138.13,224.441a4.668,4.668,0,0,1-.607,0,7.486,7.486,0,1,1,.607,0Zm0-14a6.522,6.522,0,1,0,.515,0Z" transform="translate(-106.606 -204.417)"/><path class="l" d="M154.636,225.963h-.607a7.922,7.922,0,1,1,.607,0Zm0-14a6.456,6.456,0,1,0,4.185,11.368,6.391,6.391,0,0,0,2.245-4.4h0a6.456,6.456,0,0,0-5.915-6.945Z" transform="translate(-101.458 -204.209)"/><path class="l" d="M170.88,227.052h-.607a7.446,7.446,0,1,1,.607,0Zm0-14a6.364,6.364,0,1,0,.515,0Z" transform="translate(-96.102 -203.556)"/><rect class="a" width="14.246" height="56.774" transform="translate(116.496 53.696) rotate(94.58)"/><rect class="a" width="14.246" height="56.774" transform="translate(241.346 82.146) rotate(94.58)"/><rect class="j" width="14.246" height="56.774" transform="translate(176.717 95.431) rotate(94.58)"/><rect class="j" width="14.246" height="56.774" transform="translate(110.624 127.075) rotate(94.58)"/><rect class="a" width="14.246" height="56.774" transform="translate(303.027 105.549) rotate(94.58)"/><rect class="j" width="14.246" height="56.774" transform="translate(301.552 123.894) rotate(94.58)"/><rect class="a" width="14.246" height="56.774" transform="translate(236.936 137.18) rotate(94.58)"/><path class="m" d="M420.839,266.508v-.647L358,260.831l1.571-19.633h-.647l-1.571,19.633-62.5-5,1.571-19.633h-.66l-1.571,19.633-62.5-5,1.571-19.633h-.647l-1.505,19.475-62.5-5L170.16,226h-.647l-1.571,19.633L122.561,242v.647l45.38,3.631L166.41,263.96,121.1,260.329v.66l45.314,3.618L165,282.3l-45.38-3.631v.647L165,282.959l-1.413,17.693-45.38-3.631v.647l45.274,3.591-1.426,17.706-45.367-3.644v.66l45.38,3.631L160.64,337.3l-45.38-3.631v.647l45.367,3.644L159,358.311h.647l1.637-20.36,62.5,5.017-1.637,20.346h.66l1.624-20.36,62.5,5-1.7,20.5h.647l1.624-20.36,62.5,5-1.624,20.36h.647l1.637-20.36,62.822,5.03v-.647l-62.822-5.03,1.413-17.693,62.835,5.03v-.66l-62.742-4.872,1.413-17.692,62.835,5.03v-.647l-62.835-5.03,1.426-17.706,62.822,5.03v-.647l-62.822-5.03,1.413-17.693,62.835,5.03v-.66l-62.729-5.083,1.413-17.693Zm-126.647-10.14-1.413,17.706-62.5-5,1.413-17.706Zm-66.849,49.394,1.413-17.693,62.5,5-1.413,17.693Zm62.452,5.651-1.426,17.706L225.825,324.1l1.426-17.693Zm-60.986-24,1.413-17.693,62.5,5-1.413,17.693Zm-60.273-41.1,62.571,5-1.413,17.706-62.5-5Zm-1.466,18.353,62.5,5-1.426,17.693-62.5-5Zm-1.479,18.353,62.5,5.044-1.413,17.693-62.5-5Zm-1.466,18.34,62.5,5-1.413,17.706-62.5-5ZM161.247,337.4,162.66,319.7l62.5,5L223.752,342.4Zm63.152,5.057,1.426-17.693,62.5,5L286.9,347.471Zm125.656,10.061-62.5-5.044,1.426-17.693,62.5,5Zm1.479-18.353-62.5-5,1.413-17.693,62.5,5ZM353,315.783l-62.478-4.964,1.413-17.693,62.5,5Zm1.466-18.353-62.5-5,1.413-17.693,62.5,5Zm1.466-18.339-62.5-5,1.426-17.719,62.5,5Z" transform="translate(-111.437 -199.124)"/></g></g></svg>