<svg xmlns="http://www.w3.org/2000/svg" width="33.323" height="41" viewBox="0 0 33.323 41"><defs><style>.a{fill:#ffc760;}.b{fill:#6bcfff;stroke:#2f75ff;}</style></defs><g transform="translate(7829.5 11429.5)"><path class="a" d="M24.162,44.2q.3,0,.606-.025a1.917,1.917,0,0,0,.556-.126,20.574,20.574,0,0,0,10.808-8.384,23.789,23.789,0,0,0,4.192-13.586v-9.9a2.941,2.941,0,0,0-.556-1.742A3.2,3.2,0,0,0,38.354,9.3L25.222,4.4a2.885,2.885,0,0,0-2.121,0L9.97,9.3a3.2,3.2,0,0,0-1.414,1.136A2.941,2.941,0,0,0,8,12.18v9.9a23.789,23.789,0,0,0,4.192,13.586A20.573,20.573,0,0,0,23,44.048a1.917,1.917,0,0,0,.556.126Q23.859,44.2,24.162,44.2Zm0-2.929a17.807,17.807,0,0,1-8.864-6.49A21.057,21.057,0,0,1,11.182,24.2h12.98V7.281l13.131,4.9h0v9.9q0,.606-.025,1.035T37.141,24.2H24.162Z" transform="translate(-7837 -11433.2)"/><path class="b" d="M24.162,44.2q-.3,0-.606-.025A1.917,1.917,0,0,1,23,44.048a20.573,20.573,0,0,1-10.808-8.384A23.789,23.789,0,0,1,8,22.079v-9.9a2.941,2.941,0,0,1,.556-1.742A3.2,3.2,0,0,1,9.97,9.3L23.1,4.4a2.885,2.885,0,0,1,2.121,0L38.354,9.3a3.2,3.2,0,0,1,1.414,1.136,2.941,2.941,0,0,1,.556,1.742v9.9a23.789,23.789,0,0,1-4.192,13.586,20.574,20.574,0,0,1-10.808,8.384,1.917,1.917,0,0,1-.556.126Q24.465,44.2,24.162,44.2Zm0-2.929a17.807,17.807,0,0,0,8.864-6.49A21.056,21.056,0,0,0,37.141,24.2H24.162V7.281L11.03,12.18h0v9.9q0,.606.025,1.035t.126,1.086h12.98Z" transform="translate(-7837 -11433.2)"/></g></svg>