<svg xmlns="http://www.w3.org/2000/svg" width="41" height="31.66" viewBox="0 0 41 31.66"><defs><style>.a{fill:#6bcfff;stroke:#2f75ff;}.b{fill:#ffc760;}</style></defs><g transform="translate(7832.506 11375.5)"><path class="a" d="M33.492,17.175l7.919-7.868a1.508,1.508,0,1,1,2.132,2.132l-8.934,8.985a1.472,1.472,0,0,1-2.132,0l-4.772-4.772a1.508,1.508,0,1,1,2.132-2.132Zm-27.97.457a1.523,1.523,0,1,1,0-3.046H20.751a1.523,1.523,0,1,1,0,3.046ZM34.457,34.485l-4.619,4.569a1.664,1.664,0,0,1-1.066.431,1.374,1.374,0,0,1-1.066-.431,1.472,1.472,0,0,1,0-2.132l4.619-4.569-4.619-4.569a1.472,1.472,0,0,1,0-2.132,1.374,1.374,0,0,1,1.066-.431,1.664,1.664,0,0,1,1.066.431l4.619,4.569,4.569-4.569a1.508,1.508,0,1,1,2.132,2.132l-4.569,4.569,4.569,4.569a1.508,1.508,0,1,1-2.132,2.132ZM5.523,33.875a1.523,1.523,0,1,1,0-3.046H20.751a1.523,1.523,0,1,1,0,3.046Z" transform="translate(-7836.006 -11383.85)"/><path class="b" d="M5.523,599.859a1.523,1.523,0,1,1,0-3.046H20.751a1.523,1.523,0,1,1,0,3.046Z" transform="translate(-7836.006 -11949.833)"/><path class="b" d="M5.523,599.859a1.523,1.523,0,1,1,0-3.046H20.751a1.523,1.523,0,1,1,0,3.046Z" transform="translate(-7836.006 -11966.095)"/></g></svg>