<svg xmlns="http://www.w3.org/2000/svg" width="657.017" height="415.102" viewBox="0 0 657.017 415.102"><defs><style>.a{fill:#f5f5f5;}.b{fill:#263238;}.c{fill:#455a64;}.d{fill:#2f75ff;}.e{fill:#fafafa;}.f{fill:#fff;}.g{opacity:0.4;}.h{fill:#e0e0e0;}.i{fill:#ebebeb;}.j{opacity:0.2;}.k{fill:#ffbe9d;}.l{opacity:0.6;}.m{fill:#eb996e;}.n{opacity:0.3;}</style></defs><g transform="translate(-61.36 -46.028)"><path class="a" d="M651.72,163.5c-12.4-46.28-49.24-84.79-94.1-97.12s-96.05,2.48-127.76,37.83c-15.49,17.26-26.65,39-45.15,52.71-22.52,16.69-52.09,18.68-79.66,16.93s-55.43-6.63-82.61-1.37c-43.56,8.43-81,44.76-92,89.21s5.18,94.62,39.61,123.2l38.07,31.5c34.91,25.35,167.16,35.93,249.51,29.66,58.29-4.44,98.11-26.81,133.21-61.73,27.16-27,43.25-63.87,54-101.18C656.1,244.29,662.15,202.44,651.72,163.5Z"/><path class="b" d="M675,455.83c0,.14-137.39.26-306.82.26S61.36,456,61.36,455.83s137.36-.26,306.86-.26S675,455.69,675,455.83Z"/><rect class="b" width="12.52" height="19.54" transform="translate(477.841 115.962) rotate(-40.539)"/><path class="c" d="M495.58,106.67,476,123.49l-13.73-16c5.4-7.58,11.84-13.3,19.55-16.82Z"/><path class="b" d="M479.3,120.67c-.11.1-3.42-3.54-7.4-8.11a108.846,108.846,0,0,1-7-8.45c.12-.1,3.42,3.54,7.4,8.11S479.41,120.58,479.3,120.67Z"/><path class="b" d="M483,117.47a23.153,23.153,0,0,1-2.2-2.47c-1.32-1.55-3.11-3.7-5.08-6.1l-5-6.16-1.5-1.87c-.36-.46-.55-.67-.55-.7.2-.18,3.53,3.61,7.47,8.4,2,2.4,3.72,4.59,5,6.2a18.594,18.594,0,0,1,1.86,2.7Z"/><path class="b" d="M488,113.2a22.564,22.564,0,0,1-2.23-2.47c-1.33-1.57-3.13-3.76-5.11-6.19l-5-6.26-1.5-1.91a5.13,5.13,0,0,1-.52-.73,14.129,14.129,0,0,1,2.3,2.41c1.35,1.55,3.17,3.73,5.14,6.16s3.74,4.66,5,6.29a19.7,19.7,0,0,1,1.92,2.7Z"/><path class="b" d="M492.51,109.2c-.11.09-3.4-3.58-7.35-8.2s-7.05-8.45-6.94-8.55,3.39,3.58,7.34,8.21S492.62,109.11,492.51,109.2Z"/><rect class="b" width="12.52" height="19.54" transform="matrix(0.691, 0.723, -0.723, 0.691, 646.264, 108.883)"/><path class="c" d="M655.33,126.84l-17.82-18.65,15.23-14.55c7.84,5,13.9,11.13,17.81,18.65Z"/><path class="b" d="M640.49,111.32c-.1-.11,3.35-3.61,7.71-7.82s8-7.54,8.07-7.44-3.35,3.6-7.71,7.82S640.59,111.42,640.49,111.32Z"/><path class="b" d="M643.89,114.87a20.937,20.937,0,0,1,2.32-2.34c1.47-1.4,3.53-3.31,5.82-5.41l5.89-5.33,1.79-1.6c.43-.38.64-.57.67-.58.19.19-3.42,3.72-8,7.9-2.29,2.09-4.39,4-5.93,5.29a20.915,20.915,0,0,1-2.56,2.07Z"/><path class="b" d="M648.41,119.6a21,21,0,0,1,2.35-2.36c1.49-1.41,3.58-3.33,5.91-5.43l6-5.34,1.83-1.6a8.5,8.5,0,0,1,.7-.56,14.089,14.089,0,0,1-2.28,2.43c-1.48,1.43-3.57,3.36-5.89,5.46s-4.46,4-6,5.32A21.743,21.743,0,0,1,648.41,119.6Z"/><path class="b" d="M652.64,123.91c-.1-.11,3.4-3.58,7.81-7.77s8.07-7.49,8.17-7.38-3.4,3.58-7.81,7.76S652.74,124,652.64,123.91Z"/><rect class="b" width="14.82" height="23.13" transform="translate(560.26 74.72)"/><path class="d" d="M583,81.64H552.5V56.71c10.69-2.64,20.89-2.8,30.53,0Z"/><path class="b" d="M583.39,56.81a6.379,6.379,0,0,1-1.13.56,27.371,27.371,0,0,1-3.21,1.18,38.359,38.359,0,0,1-5,1.18,42.23,42.23,0,0,1-6.21.52,41.319,41.319,0,0,1-6.21-.46,37.5,37.5,0,0,1-5-1.13,29.307,29.307,0,0,1-3.22-1.15,5.28,5.28,0,0,1-1.13-.55c0-.09,1.68.6,4.45,1.34a43,43,0,0,0,4.94,1,46.53,46.53,0,0,0,6.14.42,46.24,46.24,0,0,0,6.14-.48,44.159,44.159,0,0,0,4.92-1C581.71,57.43,583.35,56.72,583.39,56.81Z"/><path class="b" d="M562.58,81.57c-.14,0-.26-4.79-.26-10.69s.12-10.69.26-10.69.26,4.78.26,10.69S562.73,81.57,562.58,81.57Z"/><path class="b" d="M568.39,81.71c-.14,0-.26-4.81-.26-10.74s.12-10.73.26-10.73.26,4.8.26,10.73S568.54,81.71,568.39,81.71Z"/><path class="b" d="M574.2,81.62c-.14,0-.26-4.81-.26-10.74s.12-10.74.26-10.74.26,4.81.26,10.74S574.35,81.62,574.2,81.62Z"/><path class="b" d="M579,81.62c-.15,0-.26-5.2-.26-11.61s.11-11.61.26-11.61.26,5.2.26,11.61S579.18,81.62,579,81.62Z"/><path class="b" d="M557.09,81.47c-.14,0-.26-5.2-.26-11.61s.12-11.61.26-11.61.26,5.2.26,11.61S557.24,81.47,557.09,81.47Z"/><circle class="d" cx="107.83" cy="107.83" r="107.83" transform="translate(413.387 198.523) rotate(-45)"/><circle class="e" cx="90.56" cy="90.56" r="90.56" transform="translate(475.32 107.11)"/><path class="b" d="M656.44,197.67s0-.49-.07-1.46,0-2.42-.19-4.31a90.066,90.066,0,0,0-2.58-16.34,88.714,88.714,0,0,0-3.71-11.36,87.7,87.7,0,0,0-6.3-12.74,91.649,91.649,0,0,0-23-25.69,90.2,90.2,0,0,0-38.05-16.88,92.061,92.061,0,0,0-35.41.41,97.548,97.548,0,0,0-12.08,3.45,90.57,90.57,0,0,0-42,31.49,88.452,88.452,0,0,0-7.36,11.86c-1.11,2.07-2.06,4.22-3,6.38a65.853,65.853,0,0,0-2.49,6.68,86.382,86.382,0,0,0-3.44,14,97.421,97.421,0,0,0-1.19,14.53,99.007,99.007,0,0,0,1.18,14.54,88.909,88.909,0,0,0,3.44,14c.72,2.27,1.62,4.47,2.49,6.67a67.752,67.752,0,0,0,3,6.39,87.5,87.5,0,0,0,7.37,11.86,90.54,90.54,0,0,0,42,31.5,97.547,97.547,0,0,0,12.08,3.45,90.859,90.859,0,0,0,12.11,1.69,90.174,90.174,0,0,0,61.35-18.16,91.492,91.492,0,0,0,23-25.69,88.207,88.207,0,0,0,6.3-12.74,89.87,89.87,0,0,0,6.29-27.7c.17-1.89.14-3.34.19-4.31s.07-1.47.07-1.47v1.47c0,.97,0,2.42-.14,4.31a88.723,88.723,0,0,1-6.17,27.79,87.46,87.46,0,0,1-6.28,12.8,91.66,91.66,0,0,1-23,25.83,90.656,90.656,0,0,1-61.61,18.32,91.5,91.5,0,0,1-12.17-1.69,96.417,96.417,0,0,1-12.15-3.46,91,91,0,0,1-42.25-31.65,88.345,88.345,0,0,1-7.4-11.92c-1.12-2.08-2.08-4.26-3.06-6.43a59.908,59.908,0,0,1-2.5-6.71,88.827,88.827,0,0,1-3.46-14.06,90.4,90.4,0,0,1,0-29.24,89,89,0,0,1,3.46-14c.73-2.29,1.63-4.5,2.51-6.71a61.834,61.834,0,0,1,3.05-6.42,89.422,89.422,0,0,1,7.41-11.92,90.92,90.92,0,0,1,42.24-31.64,96.755,96.755,0,0,1,12.14-3.46,91.879,91.879,0,0,1,12.18-1.69,90.649,90.649,0,0,1,61.6,18.32,91.039,91.039,0,0,1,33,50.04,89.687,89.687,0,0,1,2.49,16.39c.15,1.89.1,3.34.14,4.31A7.367,7.367,0,0,1,656.44,197.67Z"/><path class="b" d="M643.15,194.39c-2.87.12-5.21,0-5.22-.25s2.3-.59,5.17-.75,5.21-.06,5.23.24S646,194.27,643.15,194.39Z"/><path class="b" d="M641.22,215.24c-2.8-.66-5-1.39-5-1.64s2.38.05,5.19.66,5,1.35,5,1.64S644,215.89,641.22,215.24Z"/><path class="b" d="M633.75,234.79c-2.53-1.38-4.47-2.69-4.35-2.91s2.28.69,4.82,2,4.49,2.66,4.35,2.92S636.27,236.18,633.75,234.79Z"/><path class="b" d="M621.3,251.63c-2.06-2-3.59-3.78-3.41-4s2,1.27,4.1,3.25,3.61,3.75,3.41,4S623.35,253.64,621.3,251.63Z"/><path class="b" d="M604.8,264.53c-1.44-2.49-2.44-4.61-2.22-4.74s1.6,1.77,3.08,4.23,2.48,4.58,2.23,4.74S606.25,267,604.8,264.53Z"/><path class="b" d="M585.45,272.52c-.72-2.79-1.11-5.1-.86-5.16s1.06,2.13,1.83,4.9,1.15,5.08.86,5.16S586.17,275.3,585.45,272.52Z"/><path class="b" d="M564.66,275c0-2.88.29-5.21.54-5.21s.46,2.34.46,5.21-.25,5.21-.54,5.21S564.61,277.89,564.66,275Z"/><path class="b" d="M544,271.87c.82-2.76,1.68-4.93,1.93-4.86s-.19,2.37-1,5.14-1.64,5-1.93,4.86S543.13,274.63,544,271.87Z"/><path class="b" d="M524.87,263.26c1.53-2.43,2.94-4.3,3.16-4.17s-.82,2.24-2.31,4.7-2.91,4.32-3.16,4.17S523.34,265.7,524.87,263.26Z"/><path class="b" d="M508.78,249.86c2.13-1.94,4-3.36,4.16-3.17s-1.38,1.93-3.48,3.9-3.95,3.39-4.16,3.18S506.66,251.8,508.78,249.86Z"/><path class="b" d="M496.86,232.64c2.57-1.29,4.75-2.16,4.86-1.94s-1.85,1.49-4.4,2.83-4.72,2.21-4.86,1.94S494.3,233.94,496.86,232.64Z"/><path class="b" d="M490,212.86c2.83-.56,5.16-.81,5.21-.56s-2.19.94-5,1.54-5.15.85-5.21.56S487.2,213.42,490,212.86Z"/><path class="b" d="M488.73,192c2.87.21,5.18.59,5.17.84s-2.36.32-5.23.15-5.19-.54-5.17-.84S485.86,191.74,488.73,192Z"/><path class="b" d="M493.08,171.47c2.71,1,4.83,2,4.75,2.21s-2.36-.33-5.08-1.27-4.84-1.92-4.75-2.2S490.38,170.49,493.08,171.47Z"/><path class="b" d="M502.79,152.92c2.34,1.67,4.12,3.19,4,3.4s-2.18-.95-4.55-2.58-4.15-3.15-4-3.4S500.44,151.25,502.79,152.92Z"/><path class="b" d="M517.1,137.64c1.81,2.23,3.12,4.17,2.93,4.34s-1.86-1.5-3.7-3.71-3.16-4.14-2.93-4.33S515.29,135.41,517.1,137.64Z"/><path class="b" d="M535,126.74c1.14,2.64,1.89,4.86,1.65,5s-1.38-1.94-2.56-4.56-1.93-4.84-1.66-5S533.83,124.11,535,126.74Z"/><path class="b" d="M555.14,121.07c.39,2.85.51,5.19.25,5.23s-.81-2.24-1.24-5.08-.55-5.19-.26-5.23S554.75,118.22,555.14,121.07Z"/><path class="b" d="M576.08,121c-.38,2.85-.89,5.14-1.14,5.11s-.19-2.38.15-5.23.85-5.15,1.14-5.11S576.46,118.14,576.08,121Z"/><path class="b" d="M596.27,126.53c-1.13,2.65-2.24,4.71-2.48,4.61s.47-2.33,1.56-5,2.21-4.72,2.48-4.6S597.41,123.89,596.27,126.53Z"/><path class="b" d="M614.23,137.3c-1.8,2.25-3.42,3.94-3.62,3.78s1.07-2.13,2.84-4.4,3.38-4,3.62-3.77S616,135.06,614.23,137.3Z"/><path class="b" d="M628.66,152.48c-2.34,1.68-4.35,2.88-4.5,2.67s1.6-1.76,3.91-3.48,4.32-2.91,4.5-2.67S631,150.8,628.66,152.48Z"/><path class="b" d="M638.49,171c-2.7,1-5,1.59-5.06,1.36s2-1.27,4.71-2.3,4.94-1.64,5.05-1.36S641.19,170,638.49,171Z"/><path class="b" d="M643,191.42c-2.87.23-5.21.21-5.23,0s2.28-.67,5.14-1,5.21-.25,5.23.05S645.84,191.19,643,191.42Z"/><path class="f" d="M530.71,99.7l-.31.14-.92.37c-.8.34-2,.75-3.53,1.42a105,105,0,0,0-12.53,6.25c-2.56,1.48-5.27,3.25-8.12,5.24a91.738,91.738,0,0,0-8.67,6.92,102.189,102.189,0,0,0-28.39,41.53c-1.37,3.66-2.4,7.24-3.29,10.59a90.272,90.272,0,0,0-1.94,9.47,105.924,105.924,0,0,0-1.27,13.94c-.08,1.66,0,2.94,0,3.81v1a2.143,2.143,0,0,1,0,.34,1.388,1.388,0,0,1,0-.33v-1c0-.87-.11-2.15-.06-3.81a98.322,98.322,0,0,1,1.11-14c.42-2.94,1.07-6.13,1.88-9.52a108.581,108.581,0,0,1,3.26-10.65,101.18,101.18,0,0,1,28.53-41.73c2.93-2.61,5.91-4.86,8.73-6.91a83.835,83.835,0,0,1,8.19-5.21,99.249,99.249,0,0,1,12.63-6.12c1.53-.64,2.76-1,3.58-1.33l.94-.32a1.374,1.374,0,0,1,.18-.09Z"/><path class="f" d="M560.81,93.86a21.257,21.257,0,0,1-3.12.41c-1.94.2-4.6.49-7.54.87s-5.59.78-7.51,1.08a20.912,20.912,0,0,1-3.12.4,17.171,17.171,0,0,1,3.06-.76c1.91-.39,4.56-.85,7.5-1.23s5.63-.62,7.58-.73a16.818,16.818,0,0,1,3.15-.04Z"/><g class="g"><path d="M493.5,252.11s46.93,74.06,119.73,36.13c76-39.6,34-130.37,34-130.37s35.76,72.34-38.32,119.5c-18.45,11.75-38.54,11.76-53.86,10.22C515.9,283.67,493.5,252.11,493.5,252.11Z"/></g><path class="h" d="M591.12,149.54a311.154,311.154,0,0,1-1.2,39.81c-.46,4.79-1,9.63-2.85,14.08s-5,8.53-9.44,10.41-10.12,1.1-13.21-2.58Z"/><path class="d" d="M563.91,190.53l32.91-55.42-19.86,62.57-10.15,3.03Z"/><g class="g"><path d="M596.82,135.11l-24.41,56.63,4.55,5.94Z"/></g><circle class="e" cx="10.59" cy="10.59" r="10.59" transform="translate(556.22 190.12)"/><path class="b" d="M577.4,200.71a23,23,0,0,0-.43-2.56,10.58,10.58,0,0,0-3.86-5.71,10.39,10.39,0,0,0-9.83-1.45,9.6,9.6,0,0,0-2.61,1.41,9.731,9.731,0,0,0-2.19,2.2,10.33,10.33,0,0,0,0,12.22A10.446,10.446,0,0,0,577,203.27a22.163,22.163,0,0,0,.43-2.56,8.311,8.311,0,0,1-.23,2.61,10.56,10.56,0,0,1-3.84,6,10.669,10.669,0,0,1-4.53,2.05,10.83,10.83,0,0,1-5.68-.44,9.88,9.88,0,0,1-2.75-1.47,10.24,10.24,0,0,1-2.3-2.3,10.75,10.75,0,0,1,0-12.82,10.451,10.451,0,0,1,2.3-2.3,10.271,10.271,0,0,1,2.75-1.46,10.712,10.712,0,0,1,14.05,7.56,8.317,8.317,0,0,1,.2,2.57Z"/><circle class="c" cx="7.88" cy="7.88" r="7.88" transform="translate(557.559 206.897) rotate(-78.57)"/><path class="h" d="M483.32,454.89h52.1L511.13,245.55Z"/><path class="e" d="M226.96,245.55,193.04,457.36l289.45,3.77,28.64-215.58Z"/><path class="i" d="M498.24,342.58H211.42l6.24-39H503.42Z"/><path class="b" d="M498.26,342.61H211.39l6.25-39H503.45Zm-286.81-.05H498.22l5.17-39H217.69Z"/><path class="d" d="M226.96,245.55l-9.3,58.03H503.42l7.71-58.03Z"/><path class="b" d="M227,245.55l284.17-.24h.27v.27c-8.37,63.11-17.87,134.68-27.91,210.27v.23h-3.48L193.28,456H193v-.25l34-210.2c-.28,1.74-13.2,82.95-33.47,210.3l-.21-.25H483.23l-.25.22c10.05-75.59,19.57-147.15,28-210.26l.23.26Z"/><path class="b" d="M503.42,303.58c0,.14-64,.26-142.87.26s-142.89-.12-142.89-.26,64-.26,142.89-.26S503.42,303.43,503.42,303.58Z"/><path class="b" d="M498.24,342.58c0,.15-64.34.26-143.68.26s-143.69-.11-143.69-.26,64.32-.26,143.69-.26S498.24,342.44,498.24,342.58Z"/><path class="b" d="M492.4,378.47c0,.15-64.33.26-143.67.26S205,378.62,205,378.47s64.32-.26,143.69-.26S492.4,378.33,492.4,378.47Z"/><path class="b" d="M486.57,414.36c0,.14-64.34.26-143.68.26s-143.69-.12-143.69-.26,64.32-.26,143.69-.26S486.57,414.22,486.57,414.36Z"/><path class="b" d="M233.67,456.14c-.14,0,5.11-34.2,11.74-76.32s12.1-76.27,12.24-76.24-5.11,34.18-11.73,76.32S233.82,456.16,233.67,456.14Z"/><path class="b" d="M277.9,456.14c-.15,0,5.11-34.2,11.73-76.32s12.1-76.27,12.25-76.24-5.11,34.18-11.74,76.32S278,456.16,277.9,456.14Z"/><path class="b" d="M319,454.61c-.14,0,5.06-33.85,11.61-75.55s12-75.51,12.13-75.48-5.06,33.84-11.61,75.56S319.13,454.63,319,454.61Z"/><path class="b" d="M359.65,455.82c-.14,0,5.1-34.13,11.71-76.16s12.08-76.11,12.22-76.08-5.1,34.11-11.71,76.16S359.79,455.84,359.65,455.82Z"/><path class="b" d="M400.5,455.82c-.14,0,5.1-34.13,11.71-76.16s12.08-76.11,12.22-76.08-5.09,34.11-11.7,76.16S400.65,455.84,400.5,455.82Z"/><path class="b" d="M441.32,456c-.14,0,5.11-34.17,11.73-76.27s12.09-76.22,12.24-76.19-5.11,34.16-11.73,76.27S441.46,456.06,441.32,456Z"/><g class="j"><path d="M415.62,306.3c4.92-2.18,8-7.3,9.27-12.53s1.07-10.69,1.26-16.08.83-10.94,3.58-15.57c1.63-2.73,3.92-5,5.73-7.63s3.15-5.83,2.48-9l-30.78.16Z"/></g><path class="b" d="M288,345.47a1.629,1.629,0,0,1-.3.36l-.92,1c-.81.83-2,2-3.5,3.46-3,2.88-7.17,6.8-11.92,11s-9.15,7.86-12.38,10.46c-1.62,1.3-2.94,2.34-3.86,3l-1.07.8a1.48,1.48,0,0,1-.4.25,3.947,3.947,0,0,1,.33-.33l1-.88,3.75-3.17c3.18-2.67,7.54-6.38,12.28-10.56s9-8.06,12-10.87l3.61-3.33,1-.89a1.921,1.921,0,0,1,.38-.3Z"/><path class="b" d="M285.69,376.2a11.8,11.8,0,0,1-1.19-1.2l-3.13-3.34c-2.7-2.87-6.32-6.73-10.31-11l-10.42-10.9-3.16-3.31a12.053,12.053,0,0,1-1.11-1.26,9.328,9.328,0,0,1,1.26,1.12c.78.74,1.9,1.83,3.27,3.19,2.74,2.72,6.48,6.53,10.53,10.81s7.65,8.22,10.21,11.11c1.28,1.44,2.31,2.62,3,3.44a9.254,9.254,0,0,1,1.05,1.34Z"/><path class="d" d="M296.37,354.66s.1-.26.31-.77a12.678,12.678,0,0,1,1.2-2.11,15.21,15.21,0,0,1,7.42-5.53,15.73,15.73,0,0,1,6.69-.88,17.489,17.489,0,0,1,7.6,2.59,20.3,20.3,0,0,1,6.55,6.5,17,17,0,0,1,2.73,9.93,11.36,11.36,0,0,1-1.71,5.34,13.62,13.62,0,0,1-4.12,4.16A19.87,19.87,0,0,1,311.16,377a20.519,20.519,0,0,1-6.4-1.39,15.24,15.24,0,0,1-5.6-3.8,13.07,13.07,0,0,1-1.94-2.91,12.691,12.691,0,0,1-1-3.38,16.16,16.16,0,0,1,.61-7.13,19.63,19.63,0,0,1,9.26-11.25,17.09,17.09,0,0,1,15.05-.69,15.78,15.78,0,0,1,6.31,4.83,15.14,15.14,0,0,1,3,7.49,14.65,14.65,0,0,1-1.29,8.08,13.56,13.56,0,0,1-2.38,3.44,16.261,16.261,0,0,1-3.3,2.59,20.25,20.25,0,0,1-16.09,1.5,18.37,18.37,0,0,1-7-4,12.87,12.87,0,0,1-3.89-6.91,11.39,11.39,0,0,1,1.05-7.7,9.561,9.561,0,0,1,2.54-3,11.92,11.92,0,0,1,3.4-1.79,21.35,21.35,0,0,1,7.44-1,28.34,28.34,0,0,1,7.26,1,15.4,15.4,0,0,1,6.31,3.38,11.33,11.33,0,0,1,3.38,6.06,13.179,13.179,0,0,1-.39,6.75,14,14,0,0,1-3.49,5.55,17.19,17.19,0,0,1-11.21,4.88,15,15,0,0,1-5.8-.84,11.84,11.84,0,0,1-4.68-3.09,12.67,12.67,0,0,1-2.71-4.61,13.449,13.449,0,0,1-.73-5,13.28,13.28,0,0,1,3.54-8.44,15.79,15.79,0,0,1,6.73-4.35,15.46,15.46,0,0,1,6.72-.64,18.09,18.09,0,0,1,8.61,3.47,16.719,16.719,0,0,1,1.85,1.58c.39.39.58.6.58.6s-.22-.19-.61-.56a19.576,19.576,0,0,0-1.88-1.54,18.261,18.261,0,0,0-8.57-3.35,15.38,15.38,0,0,0-13.21,5,12.93,12.93,0,0,0-3.43,8.25,13.21,13.21,0,0,0,.73,4.9,12.39,12.39,0,0,0,2.65,4.47,11.57,11.57,0,0,0,4.54,3,14.81,14.81,0,0,0,5.65.8,16.77,16.77,0,0,0,10.93-4.79,13.55,13.55,0,0,0,3.37-5.37,12.74,12.74,0,0,0,.36-6.52,10.92,10.92,0,0,0-3.25-5.82,15.1,15.1,0,0,0-6.12-3.26,28.221,28.221,0,0,0-7.14-1,21.089,21.089,0,0,0-7.26,1A9.86,9.86,0,0,0,298,356a10.91,10.91,0,0,0-1,7.36,12.32,12.32,0,0,0,3.75,6.63,17.74,17.74,0,0,0,6.8,3.92,19.69,19.69,0,0,0,15.66-1.46,15.18,15.18,0,0,0,3.19-2.5,13.1,13.1,0,0,0,2.29-3.3,14.11,14.11,0,0,0,1.25-7.8,14.65,14.65,0,0,0-2.87-7.24,15.27,15.27,0,0,0-6.1-4.67,16.57,16.57,0,0,0-14.61.66,19.13,19.13,0,0,0-9,10.95,15.839,15.839,0,0,0-.61,6.92,12.26,12.26,0,0,0,1,3.26,12.869,12.869,0,0,0,1.86,2.8,14.76,14.76,0,0,0,5.42,3.68,20.169,20.169,0,0,0,6.26,1.38,19.5,19.5,0,0,0,11.64-3,12,12,0,0,0,5.69-9.2,16.68,16.68,0,0,0-2.65-9.72,20,20,0,0,0-6.42-6.43,17.3,17.3,0,0,0-7.47-2.59,15.781,15.781,0,0,0-14,6.22,12.682,12.682,0,0,0-1.24,2.08A6.1,6.1,0,0,0,296.37,354.66Z"/><path class="b" d="M323.46,382.27c.09.11-7.84,6.89-17.72,15.15s-18,14.85-18.06,14.74,7.84-6.89,17.72-15.14S323.37,382.16,323.46,382.27Z"/><path class="b" d="M325.19,411.27a9.219,9.219,0,0,1-1.33-.95l-3.52-2.74c-2.95-2.34-7-5.6-11.46-9.22s-8.47-6.92-11.36-9.33l-3.41-2.88a9.084,9.084,0,0,1-1.2-1.1,10.005,10.005,0,0,1,1.33.95l3.51,2.74c2.95,2.34,7,5.6,11.46,9.22s8.47,6.92,11.37,9.33l3.4,2.87a11.389,11.389,0,0,1,1.21,1.11Z"/><path class="b" d="M406.94,382.66c.08.11-7.5,5.92-16.95,13s-17.17,12.67-17.26,12.55,7.5-5.92,16.95-13S406.85,382.54,406.94,382.66Z"/><path class="b" d="M409.88,407.26c-.07.12-8.13-4.87-18-11.16s-17.78-11.47-17.71-11.6,8.13,4.88,18,11.16S410,407.14,409.88,407.26Z"/><path class="d" d="M324.76,455.83c-.11-.1,7.77-8.36,17.59-18.43s17.87-18.18,18-18.08-7.77,8.36-17.59,18.44S324.86,455.93,324.76,455.83Z"/><path class="d" d="M358.07,455.82a3.083,3.083,0,0,1-.33-.35l-.84-1c-.78-1-1.82-2.29-3.09-3.87-2.61-3.26-6.31-7.69-10.6-12.4s-8.36-8.8-11.36-11.7l-3.56-3.5-1-.94a2.188,2.188,0,0,1-.31-.35,2.583,2.583,0,0,1,.38.27l1,.87c.89.76,2.15,1.89,3.69,3.31,3.06,2.84,7.18,6.9,11.49,11.62s8,9.2,10.5,12.52c1.28,1.66,2.29,3,3,4l.77,1.1a2,2,0,0,1,.26.42Z"/><path class="i" d="M276.21,413.76s.32,24.57-5.88,39.28l-37.79-6.44s11.38-23.28,8.28-36.22Z"/><path class="d" d="M276.2,412.84S271.46,443,268.56,452L231,444.54s7.73-29.16,7.63-37.28Z"/><path class="f" d="M242.44,420.78c0,.14,5.58,1.44,12.53,2.9s12.6,2.53,12.63,2.4-5.58-1.44-12.53-2.9S242.47,420.64,242.44,420.78Z"/><path class="f" d="M241.48,427.17c0,.14,5.58,1.43,12.53,2.9s12.6,2.53,12.63,2.4-5.58-1.44-12.53-2.9S241.51,427,241.48,427.17Z"/><path class="f" d="M247,434.4a8.82,8.82,0,0,0,2,.6c1.29.31,3.08.72,5.05,1.14s3.78.76,5.09,1a8.65,8.65,0,0,0,2.14.26,9.649,9.649,0,0,0-2.07-.61c-1.28-.32-3.07-.73-5.05-1.14s-3.78-.77-5.08-1A8.69,8.69,0,0,0,247,434.4Z"/><path class="i" d="M455,344.77s3.87,23.94-.05,39.21l-37.84-.81s7.74-24.38,2.83-36.57Z"/><path class="c" d="M454.83,343.87s-.25,30.11-1.78,39.3l-37.77-1.79s3.31-29.6,2-37.51Z"/><path class="f" d="M422.64,357.27c0,.14,5.68.26,12.69.27s12.7-.09,12.7-.23-5.68-.26-12.7-.27S422.64,357.13,422.64,357.27Z"/><path class="f" d="M423,363.64c0,.14,5.68.26,12.69.27s12.7-.09,12.7-.23-5.68-.26-12.7-.27S423,363.5,423,363.64Z"/><path class="f" d="M429.77,369.51a8.748,8.748,0,0,0,2.12.19c1.31,0,3.12.07,5.12.08s3.8,0,5.11-.07a8.868,8.868,0,0,0,2.12-.17,8.5,8.5,0,0,0-2.12-.18c-1.31-.05-3.11-.08-5.11-.09s-3.81,0-5.12.07A8.87,8.87,0,0,0,429.77,369.51Z"/><path class="b" d="M463,275.74c-7.06,0-14.17-4.43-17.91-11.4a34,34,0,0,1-3.19-22.6c2.07-10,8.69-18.2,16.87-20.82,6.95-2.23,19.37-1,25.23,8.81a29.59,29.59,0,0,1,4,15.83,3.007,3.007,0,1,1-6-.4,24.14,24.14,0,0,0-3.22-12.35c-4.52-7.55-14.43-7.4-18.25-6.18-7,2.24-11.48,9.81-12.83,16.32a27.9,27.9,0,0,0,2.61,18.56c2.95,5.5,8.92,8.92,14.21,8.11a3,3,0,1,1,.91,5.93A16.1,16.1,0,0,1,463,275.74Z"/><path class="b" d="M269.32,275.74c-7.07,0-14.17-4.43-17.91-11.4a34,34,0,0,1-3.2-22.6c1.75-8.44,7.67-18.16,17-20.84a22,22,0,0,1,13.62.69l-2.16,5.6a16.13,16.13,0,0,0-9.8-.53c-6.88,2-11.36,9.62-12.74,16.29a27.9,27.9,0,0,0,2.61,18.56c2.95,5.51,8.93,8.92,14.21,8.11l.91,5.93a16.2,16.2,0,0,1-2.54.19Z"/><path class="d" d="M460.53,245.71l-2.76,15.11h40.61l3.61-14.96Z"/><path class="b" d="M279.61,273.35a6.46,6.46,0,1,1-6.45-6.45A6.46,6.46,0,0,1,279.61,273.35Z"/><path class="b" d="M473.12,273.35a6.46,6.46,0,1,1-6.45-6.45,6.46,6.46,0,0,1,6.45,6.45Z"/><path class="k" d="M366.55,148.32,355.93,188.6l-36.66,3.94v6.5l51.51,1.81,9.68-45.19Z"/><path class="b" d="M382,201.92s-57.28-2.73-73.59,10S300,245.55,300,245.55l92.18-.24,8.14-46.73Z"/><path class="c" d="M391.75,232.75a4.282,4.282,0,0,1-.83-.06c-.54-.06-1.33-.14-2.35-.27-2-.25-5-.67-8.6-1.28a245.248,245.248,0,0,1-28-6.47c-5.38-1.59-10.47-3.19-15.17-4.36a66.438,66.438,0,0,0-12.67-2,38.061,38.061,0,0,0-8.63.5c-1,.12-1.77.38-2.31.47a7,7,0,0,1-.81.15,4.149,4.149,0,0,1,.79-.25,20.33,20.33,0,0,1,2.29-.57,35.679,35.679,0,0,1,8.68-.67A65.219,65.219,0,0,1,337,219.85c4.73,1.14,9.83,2.74,15.19,4.33A274.048,274.048,0,0,0,380,230.77c3.61.66,6.54,1.13,8.57,1.45l2.34.37A5.122,5.122,0,0,1,391.75,232.75Z"/><path class="c" d="M338.51,220a38,38,0,0,0-5.07-3.53,38.417,38.417,0,0,0-5.79-2.16,5,5,0,0,1,1.83.18,16.569,16.569,0,0,1,4.2,1.52,16.83,16.83,0,0,1,3.64,2.59,5,5,0,0,1,1.19,1.4Z"/><path class="d" d="M388.07,326.43l.77,24.07L384,369.72a2.46,2.46,0,0,0,2,3h0a2.46,2.46,0,0,0,2.16-.66c3.64-3.56,17-16.72,16.83-18.47-.18-2,.87-25.46.87-25.46Z"/><g class="l"><path class="f" d="M385.91,372.76l19-20.76v1a3.7,3.7,0,0,1-.86,2.42c-1.51,1.81-5.8,6.72-15.89,16.66a2.46,2.46,0,0,1-2.23.66Z"/></g><g class="l"><path class="f" d="M399.87,344.27a1.5,1.5,0,0,0-.39,2,1.44,1.44,0,0,0,1.93.4,1.56,1.56,0,0,0,.4-2.07,1.48,1.48,0,0,0-2.05-.2"/></g><path class="b" d="M391.32,362.18c-.14.07-.7-1.18-2.13-1.85a7.239,7.239,0,0,0-2.78-.5c0-.06.28-.25.84-.34a3.91,3.91,0,0,1,3.8,1.83C391.33,361.81,391.37,362.16,391.32,362.18Z"/><path class="b" d="M389.63,365.43a18.921,18.921,0,0,0-2.14-1,21.1,21.1,0,0,0-2.36-.28,2.72,2.72,0,0,1,2.5-.23C389.05,364.3,389.75,365.36,389.63,365.43Z"/><path class="b" d="M394.47,358a25.164,25.164,0,0,0-3.2-1.79,23.883,23.883,0,0,0-3.58-.8,6.71,6.71,0,0,1,6.78,2.59Z"/><path class="b" d="M394.85,350.68c-.06.15-1.4-.4-3.13-.44s-3.1.38-3.16.23a6.15,6.15,0,0,1,6.29.21Z"/><path class="b" d="M394.8,343.61a12.071,12.071,0,0,0-3.25-.55,11.811,11.811,0,0,0-3.18.83,1.815,1.815,0,0,1,.77-.68A5.36,5.36,0,0,1,394,343C394.55,343.27,394.84,343.55,394.8,343.61Z"/><path class="b" d="M391.58,341.71a2.24,2.24,0,0,1,0-.91,6.29,6.29,0,0,1,.71-2.39,2.75,2.75,0,0,1,1.19-1.35,1,1,0,0,1,1.12.21,1.62,1.62,0,0,1,.39,1.08,3.5,3.5,0,0,1-3,3.26,4.05,4.05,0,0,1-4-2.08,1.4,1.4,0,0,1-.08-1.17,1,1,0,0,1,1-.53,3.51,3.51,0,0,1,1.6.81,7.271,7.271,0,0,1,1.66,1.86,2.5,2.5,0,0,1,.38.83,11.28,11.28,0,0,0-2.27-2.39,3.25,3.25,0,0,0-1.4-.67.53.53,0,0,0-.56.28,1,1,0,0,0,.1.77,3.61,3.61,0,0,0,3.48,1.76,3,3,0,0,0,2.61-2.73,1.15,1.15,0,0,0-.24-.76.53.53,0,0,0-.62-.13,2.57,2.57,0,0,0-1,1.13A9.71,9.71,0,0,0,391.58,341.71Z"/><path class="b" d="M400.27,198.58s-24.77,46.83-25.11,55,0,83.48,0,83.48H413.5c1,0,6.75-33.93,5.58-41.74s-5.3-49.79-5.3-49.79h22.06s6.05-6.47,5.83-14.68c-.13-4.53-3.09-13.79-6-18.7-1.89-3.15-14-19.64-14-19.64Z"/><path class="c" d="M398.61,201.75a1.354,1.354,0,0,1-.11.27c-.09.2-.21.45-.36.76l-1.44,2.92c-.65,1.27-1.42,2.81-2.32,4.6l-1.44,2.87-1.51,3.27L384,232.53c-1.41,3-2.89,6.21-4.43,9.5l-2.33,5a27,27,0,0,0-1.7,5.38,29,29,0,0,0-.59,5.63c-.06,1.87-.1,3.72-.13,5.53,0,3.64-.07,7.14-.06,10.48,0,6.68.08,12.7.15,17.75s.13,9.1.18,12v4.39a.85.85,0,0,1,0-.29q0-.33,0-.84c0-.79-.08-1.87-.14-3.26-.1-2.82-.23-6.91-.34-12s-.23-11.06-.26-17.75V263.57c0-1.82.06-3.67.13-5.55a29.468,29.468,0,0,1,.59-5.72,27.551,27.551,0,0,1,1.74-5.48l2.34-5,4.46-9.48,7.58-16.05,1.54-3.26c.53-1,1-2,1.48-2.85l2.39-4.56c.65-1.23,1.17-2.19,1.53-2.88.17-.3.31-.54.41-.74A.441.441,0,0,0,398.61,201.75Z"/><path class="c" d="M390.59,217.7a46.709,46.709,0,0,1-2-5.85,46.144,46.144,0,0,1-1.71-5.94,29.821,29.821,0,0,1,2.2,5.79,30.119,30.119,0,0,1,1.51,6Z"/><path class="c" d="M419.16,293.85a2,2,0,0,1-.12-.53q-.07-.61-.21-1.53c-.18-1.41-.41-3.33-.7-5.66-.55-4.84-1.29-11.41-2.11-18.67s-1.49-13.91-1.9-18.7c-.19-2.34-.35-4.26-.47-5.67,0-.63-.08-1.14-.11-1.55a3.721,3.721,0,0,1,0-.54,1.81,1.81,0,0,1,.11.53c.05.41.12.92.2,1.54.16,1.41.38,3.32.64,5.66.53,4.84,1.25,11.42,2,18.68s1.46,13.83,2,18.68c.22,2.34.41,4.26.54,5.67.05.62.09,1.14.12,1.55A3.157,3.157,0,0,1,419.16,293.85Z"/><path class="b" d="M409.42,73.16c-.59-4,2.84-7.85,6.8-8.32a10.052,10.052,0,0,1,9.77,5.61,14.58,14.58,0,0,1,.3,11.64c-1,2.53-2.85,5.09-5.54,5.29s-4.75-1.85-6.53-3.74"/><path class="b" d="M381.27,93c-8-17.53,11-26.34,21.33-23.42,9.72,2.75,13.87,7.59,15.47,14.09a32.08,32.08,0,0,1-1,19.74c-1.26,3.06-3.52,6.16-6.8,6.54"/><path class="k" d="M408.8,79.31a3.29,3.29,0,0,1,2.95,3.35h0l-1.87,44.62c-.07,5.27-7.76,8.25-13.41,8.13h0c-5.69-.12-5.88-2.92-6-7.93-.13-8.37-.13-11.52-.13-11.47s-7.2-1.2-8.69-10.59c-.75-4.67-.51-12.33-.12-18.59.36-5.63,4.09-12.55,9.71-12Z"/><path class="b" d="M385.21,92.17a1.2,1.2,0,0,0,1.16,1.22,1.15,1.15,0,0,0,1.24-1.09,1.21,1.21,0,0,0-1.16-1.22,1.15,1.15,0,0,0-1.24,1.09Z"/><path class="b" d="M383.22,90.82c.15.15,1.07-.52,2.36-.52s2.25.65,2.39.49-.08-.35-.5-.65a3.33,3.33,0,0,0-1.91-.59,3.08,3.08,0,0,0-1.87.61C383.29,90.46,383.15,90.75,383.22,90.82Z"/><path class="b" d="M397.88,92.17A1.21,1.21,0,0,0,399,93.39a1.15,1.15,0,0,0,1.24-1.09,1.21,1.21,0,0,0-1.16-1.22A1.15,1.15,0,0,0,397.88,92.17Z"/><path class="b" d="M396,91.06c.15.15,1.06-.52,2.35-.52s2.25.65,2.39.5-.08-.36-.5-.66a3.3,3.3,0,0,0-1.91-.59,3.17,3.17,0,0,0-1.87.61C396,90.7,395.89,91,396,91.06Z"/><path class="b" d="M391.26,100.67a8.92,8.92,0,0,0-2.1-.38c-.33,0-.65-.1-.7-.32a1.7,1.7,0,0,1,.22-1c.31-.8.63-1.64,1-2.52a43.848,43.848,0,0,0,2.2-6.59,42.6,42.6,0,0,0-2.73,6.4l-.94,2.54a1.93,1.93,0,0,0-.17,1.3.84.84,0,0,0,.55.48,2.429,2.429,0,0,0,.56.08A8.54,8.54,0,0,0,391.26,100.67Z"/><path class="m" d="M390.37,116A23.85,23.85,0,0,0,403,112.65s-3.06,6.46-12.46,5.58Z"/><path class="m" d="M391.81,103.79a2.34,2.34,0,0,1,2.09-.86,2.12,2.12,0,0,1,1.48.79,1.35,1.35,0,0,1,.1,1.54,1.56,1.56,0,0,1-1.7.43,4.79,4.79,0,0,1-1.66-1,1.48,1.48,0,0,1-.37-.38.44.44,0,0,1,0-.48"/><path class="b" d="M395.08,101.57c-.21,0-.22,1.39-1.42,2.39s-2.7.84-2.71,1,.33.27,1,.29a3.54,3.54,0,0,0,2.27-.79,3.08,3.08,0,0,0,1.1-2C395.33,101.91,395.17,101.56,395.08,101.57Z"/><path class="b" d="M395.38,88.79c.13.35,1.43.18,2.95.37s2.75.59,2.95.28c.09-.15-.13-.48-.62-.83a4.93,4.93,0,0,0-2.19-.76,4.85,4.85,0,0,0-2.3.27C395.61,88.34,395.33,88.62,395.38,88.79Z"/><path class="b" d="M383.7,87.06c.23.3,1.12,0,2.2,0s2,.2,2.19-.11c.09-.15,0-.45-.45-.72a3,3,0,0,0-1.78-.49,3.08,3.08,0,0,0-1.75.59C383.73,86.62,383.6,86.92,383.7,87.06Z"/><path class="b" d="M395.93,71.75a19,19,0,0,0-9,2.8,13.06,13.06,0,0,0-6.44,7.65,2.68,2.68,0,0,0,.08,2.12,2.06,2.06,0,0,0,2.57.55,5.87,5.87,0,0,0,2.1-1.93,4,4,0,0,0,7.8-.09,3.51,3.51,0,0,0,3.62,3.23,4.64,4.64,0,0,0,4-3.15,11.619,11.619,0,0,0,1.65,4.58,4,4,0,0,0,4.25,1.74,8.4,8.4,0,0,0,.06,4.2c.5,1.32,2.49,23.91,3.83,23.45s1.29-23.5,1.59-24.84a31.352,31.352,0,0,0,1-7.87,11.53,11.53,0,0,0-9.3-11.69,30.731,30.731,0,0,0-8.18-.75"/><path class="b" d="M414.75,112.89a1.417,1.417,0,0,1-.29.13,3.929,3.929,0,0,1-.87.21,7.4,7.4,0,0,1-7.17-3.36,9.69,9.69,0,0,1-1.23-5.88c.15-2.15.65-4.11.88-5.91a45,45,0,0,0,.42-4.82c0-1.38,0-2.49,0-3.27a5.576,5.576,0,0,1,0-1.2A5.061,5.061,0,0,1,406.7,90a32.257,32.257,0,0,1,.16,3.29,39.107,39.107,0,0,1-.31,4.87c-.22,1.84-.69,3.81-.84,5.88a9.44,9.44,0,0,0,1.12,5.6,6.92,6.92,0,0,0,3.58,2.93,7.53,7.53,0,0,0,3.15.48C414.33,113,414.74,112.84,414.75,112.89Z"/><path class="c" d="M392.62,70.54a4.25,4.25,0,0,1,.49,2.23,7.17,7.17,0,0,1-7,7.3,4.23,4.23,0,0,1-2.24-.4,21.615,21.615,0,0,0,2.22,0,7.18,7.18,0,0,0,6.69-6.94C392.81,71.4,392.53,70.56,392.62,70.54Z"/><path class="c" d="M394,81.6c.05,0-.07.64-.79,1.34a4.77,4.77,0,0,1-3.54,1.21,7.81,7.81,0,0,1-3.53-1.21c-.81-.51-1.25-.9-1.21-1a6.17,6.17,0,0,1,1.38.63,9.24,9.24,0,0,0,3.39,1,4.91,4.91,0,0,0,3.27-1A5.668,5.668,0,0,0,394,81.6Z"/><path class="c" d="M416.65,78.73a8.779,8.779,0,0,1-.18,2.57,12.92,12.92,0,0,1-2.3,5.79,7.81,7.81,0,0,1-5.38,3.06,5.11,5.11,0,0,1-1.91-.19c-.43-.13-.64-.26-.63-.29a9.43,9.43,0,0,0,2.5.11,7.87,7.87,0,0,0,5-3,14.15,14.15,0,0,0,2.35-5.54,20.776,20.776,0,0,1,.55-2.51Z"/><path class="c" d="M418.37,83.28a2.59,2.59,0,0,1,.15.8,15.764,15.764,0,0,1,.05,2.19,10.94,10.94,0,0,1-2.5,6.73,7.57,7.57,0,0,1-3.33,2.27,6.52,6.52,0,0,1-3.29.2,5.37,5.37,0,0,1-2.05-.86c-.42-.31-.6-.54-.58-.56a7.61,7.61,0,0,0,2.69,1.06,6.57,6.57,0,0,0,3.07-.29,7.49,7.49,0,0,0,3.1-2.16,11.42,11.42,0,0,0,2.53-6.42C418.37,84.43,418.28,83.29,418.37,83.28Z"/><path class="c" d="M286.56,204.15l-18.15,41.51H293.4l17.8-41.84Z"/><path class="h" d="M273.36,160l20.47,40.26h64.56L355.78,195l-18.7-.56L321.83,160.5a5.87,5.87,0,0,0-5.36-3.47H275.18a2,2,0,0,0-1.82,2.97Z"/><path class="b" d="M305.69,178.05a2.47,2.47,0,1,1-2.47-2.47,2.47,2.47,0,0,1,2.47,2.47Z"/><rect class="c" width="78.92" height="3.85" transform="translate(286.35 200.34)"/><path class="c" d="M340.96,202.27l24.01,43.43h11.48l2.5-4.97,2.3-5.23-15.98-31.31Z"/><path class="d" d="M382.68,127.81s-13.94,4.91-16.94,20.51l14.72,7.34Z"/><path class="d" d="M382.68,127.81s-9.75,21.86-9.38,33.8c.13,4.15,2.85,15,2.85,15l5.07,26.86s38.81-5.25,39.67-5.25-1.3-22.05-1.3-22.05l6.33-42.37s-2.9-5.77-16-7.77C402.07,124.8,382.68,127.81,382.68,127.81Z"/><path class="b" d="M379,140.5c.09.05-.93,1.68-2.16,4.5a40.158,40.158,0,0,0-1.8,5.08,44.14,44.14,0,0,0-1.27,6.47,45.251,45.251,0,0,0-.21,6.59,40.423,40.423,0,0,0,.63,5.35c.56,3,1.2,4.84,1.1,4.87a6.47,6.47,0,0,1-.5-1.25,15.739,15.739,0,0,1-.46-1.51c-.16-.6-.37-1.27-.51-2a38.13,38.13,0,0,1-.74-5.4,42.268,42.268,0,0,1,.17-6.68,41.4,41.4,0,0,1,1.33-6.55,36,36,0,0,1,1.93-5.09,20.246,20.246,0,0,1,.94-1.87,15,15,0,0,1,.79-1.37,6.752,6.752,0,0,1,.76-1.14Z"/><path class="d" d="M387.4,127.61l.56-6a2.55,2.55,0,0,1,2.5-2.3l19.15-.29a2.29,2.29,0,0,1,2.31,2.11l.49,6.47a16.54,16.54,0,0,1-7.69,7.8c-5.63,2.73-14.38,2.82-14.38,2.82Z"/><path class="b" d="M392.41,119.36c.06,0-.22.39-.34,1a10.93,10.93,0,0,0,0,2.66,15,15,0,0,1,0,3.88,14.6,14.6,0,0,1-.52-3.85,7.5,7.5,0,0,1,.12-2.78C392,119.58,392.38,119.31,392.41,119.36Z"/><path class="b" d="M397,126.78a13.622,13.622,0,0,1-.48-3.76,16.361,16.361,0,0,1,0-2.7c.1-.72.39-1.09.45-1s-.09.42-.08,1.08.11,1.6.11,2.6a14.219,14.219,0,0,1,0,3.78Z"/><path class="b" d="M402.75,126.62A13.6,13.6,0,0,1,402,123a13.6,13.6,0,0,1-.23-3.72,13.46,13.46,0,0,1,.75,3.65,13.669,13.669,0,0,1,.23,3.69Z"/><path class="b" d="M407.71,127a12.5,12.5,0,0,1-.72-4,12.47,12.47,0,0,1,.1-4.09,22,22,0,0,1,.42,4,21.891,21.891,0,0,1,.2,4.09Z"/><g class="n"><path d="M411.51,149.91c-.77,6.73-.26,18.33,2.12,24.68l11.18-18.47Z"/></g><path class="d" d="M424.88,132.41l.06.06a28.52,28.52,0,0,1,6.76,11.79l2.06,9.39-22,3.4a27.39,27.39,0,0,1-.84-12.3C412,137.67,424.88,132.41,424.88,132.41Z"/><path class="b" d="M433.76,153.65a2.41,2.41,0,0,1-.44.11l-1.26.23-4.71.77-15.94,2.42h-.28v-.29c-.05-1.33-.09-2.71-.12-4.13-.05-3.69,0-7.22.22-10.43a17,17,0,0,1,2.56-8.11,12.071,12.071,0,0,1,4.1-4,7.75,7.75,0,0,1,1.42-.66,1.81,1.81,0,0,1,.52-.15,11.575,11.575,0,0,0-1.84,1,12.26,12.26,0,0,0-3.89,4,17.11,17.11,0,0,0-2.4,8c-.23,3.18-.22,6.7-.16,10.39,0,1.4.07,2.79.1,4.11l-.29-.25,16-2.25,4.73-.61,1.28-.15A1.55,1.55,0,0,1,433.76,153.65Z"/><path class="e" d="M387.29,139.86a14.74,14.74,0,0,1-3.06-2.37,14.35,14.35,0,0,1-2.72-2.76,29,29,0,0,1,5.78,5.13Z"/><path class="e" d="M384.32,151.43a10.56,10.56,0,0,1-2.69,2,11.07,11.07,0,0,1-3,1.54,21.7,21.7,0,0,1,5.67-3.52Z"/><path class="e" d="M396.59,154.28a17.239,17.239,0,0,1,0-4.28,18.288,18.288,0,0,1,.52-4.24,17.462,17.462,0,0,1,0,4.27A18,18,0,0,1,396.59,154.28Z"/><path class="e" d="M408.52,165.85a29.373,29.373,0,0,1-2.78-3,30.116,30.116,0,0,1-2.75-3,11.27,11.27,0,0,1,3.13,2.69,11.61,11.61,0,0,1,2.4,3.31Z"/><path class="e" d="M410.2,141.66a13.2,13.2,0,0,1-2.91,2.28,13.68,13.68,0,0,1-3.21,1.84A13.121,13.121,0,0,1,407,143.5a14,14,0,0,1,3.2-1.84Z"/><path class="e" d="M399.42,132.91a14.68,14.68,0,0,1-3.18,2.35,15.18,15.18,0,0,1-3.46,1.92,14.891,14.891,0,0,1,3.18-2.36,15.85,15.85,0,0,1,3.46-1.91Z"/><path class="e" d="M409.14,136.39a12.14,12.14,0,0,1-1.52-3.14,12.161,12.161,0,0,1-1-3.34,11.589,11.589,0,0,1,1.52,3.15A11.65,11.65,0,0,1,409.14,136.39Z"/><path class="e" d="M422.51,140.78a16.37,16.37,0,0,1-4.1-4.09,8.3,8.3,0,0,1,2.23,1.86,8.07,8.07,0,0,1,1.87,2.23Z"/><path class="e" d="M417,150.53a9.051,9.051,0,0,1-.43-3.06,8.909,8.909,0,0,1,.09-3.08,18.259,18.259,0,0,1,.34,6.14Z"/><path class="e" d="M428.11,148.51a9.16,9.16,0,0,1-3.5-.12,9.37,9.37,0,0,1-3.37-.93,15.74,15.74,0,0,1,3.45.42A16.319,16.319,0,0,1,428.11,148.51Z"/><path class="e" d="M383.31,168.66a16.789,16.789,0,0,1-2-3.65,17,17,0,0,1-1.54-3.87,16.789,16.789,0,0,1,2,3.65,16.772,16.772,0,0,1,1.54,3.87Z"/><path class="e" d="M398,184.44a13.841,13.841,0,0,1-2.43-2.91,14.66,14.66,0,0,1-2-3.22,26.311,26.311,0,0,1,4.43,6.13Z"/><path class="e" d="M410.14,177.82a13.289,13.289,0,0,1-3.32,1.56,12.69,12.69,0,0,1-3.51,1.07,25.61,25.61,0,0,1,6.83-2.63Z"/><path class="e" d="M380.23,190.6a16.571,16.571,0,0,1,2.39-5.28,8.37,8.37,0,0,1-1,2.75,8.259,8.259,0,0,1-1.39,2.53Z"/><path class="e" d="M370.82,145.41a4.72,4.72,0,0,1-1-2.55,4.63,4.63,0,0,1,.12-2.73,16.189,16.189,0,0,1,.4,2.64,16.567,16.567,0,0,1,.48,2.64Z"/><path class="e" d="M387.53,180.48a10,10,0,0,1-3-1.35,10.339,10.339,0,0,1-2.72-1.8,10.27,10.27,0,0,1,3,1.35,10.86,10.86,0,0,1,2.72,1.8Z"/><path class="e" d="M397.18,163.82a27.619,27.619,0,0,1-5.66,5.13,14.311,14.311,0,0,1,2.66-2.76,14.05,14.05,0,0,1,3-2.37Z"/><g class="n"><path d="M391.27,163.51a17,17,0,0,0,4.45,9.3c2.5,2.44,6.37,3.67,9.62,2.4a2.29,2.29,0,0,0,1.55-1.44,1.86,1.86,0,0,0-1.25-2,7.56,7.56,0,0,0-2.51-.36,14.26,14.26,0,0,1-11.66-7.54"/></g><path class="b" d="M404.27,171.57a3.1,3.1,0,0,1-.67.12,9.249,9.249,0,0,1-1.86,0,11.879,11.879,0,0,1-2.69-.64,13,13,0,0,1-5.52-3.83,11.87,11.87,0,0,1-1.53-2.3,8.249,8.249,0,0,1-.69-1.73,2.05,2.05,0,0,1-.13-.67c.1,0,.37.9,1.14,2.22a13.49,13.49,0,0,0,1.57,2.16,15,15,0,0,0,2.45,2.17,15.231,15.231,0,0,0,2.88,1.53,13.17,13.17,0,0,0,2.57.72C403.3,171.54,404.27,171.47,404.27,171.57Z"/><path class="k" d="M349.22,187.69,363.7,186l10.21,6.69,39-9.36.92-26.72,17.33-2.28v32.35A14.84,14.84,0,0,1,416,201.15l-57.16-1.59-2.43-4.86-12.27-.37Z"/><path class="m" d="M412.45,183.28a5,5,0,0,1-.74.23l-2.12.55L401.76,186l-25.88,6.27-2.41.58h-.18l-10.2-6.71h.14l-14.49,1.68.1-.06L345,192.63l-1,1.28a2.622,2.622,0,0,1-.38.42,4.327,4.327,0,0,1,.31-.47l1-1.32,3.72-4.94h.06l14.47-1.81h.14l10.22,6.68h-.18l2.41-.58,25.91-6.14,7.87-1.81,2.14-.47a5,5,0,0,1,.76-.19Z"/><path class="m" d="M357.13,191.84a36.432,36.432,0,0,1-5.63.22h-1l.14-.05a25.87,25.87,0,0,1-3.65,2.8,27.7,27.7,0,0,1,3.36-3.14l.06-.06h1.11A34.247,34.247,0,0,1,357.13,191.84Z"/><path class="m" d="M419.64,187.65a10.68,10.68,0,0,0-2.85-3,10.46,10.46,0,0,0-3.91-1.28,2.51,2.51,0,0,1,1.26-.1,6.67,6.67,0,0,1,5,3.17,2.531,2.531,0,0,1,.5,1.21Z"/></g></svg>