<svg xmlns="http://www.w3.org/2000/svg" width="39" height="36.227" viewBox="0 0 39 36.227"><defs><style>.a{fill:#6bcfff;stroke:#2f75ff;}.b{fill:#ffc760;}</style></defs><g transform="translate(1379.5 9946.503)"><path class="a" d="M6,37.75V28.9a1.46,1.46,0,0,1,.325-.95,1.383,1.383,0,0,1,.825-.5L21.1,24,7.15,20.45a1.383,1.383,0,0,1-.825-.5A1.46,1.46,0,0,1,6,19V10.25a1.363,1.363,0,0,1,.675-1.225A1.5,1.5,0,0,1,8.1,8.9L39.2,22H34.5A12.433,12.433,0,0,0,22.05,33.25h0L8.1,39.1a1.5,1.5,0,0,1-1.425-.125A1.363,1.363,0,0,1,6,37.75ZM34.5,44a9.183,9.183,0,0,1-6.7-2.775A9.06,9.06,0,0,1,25,34.55,9.56,9.56,0,0,1,34.5,25,9.56,9.56,0,0,1,44,34.55a9.06,9.06,0,0,1-2.8,6.675A9.183,9.183,0,0,1,34.5,44Zm.85-9.95v-5a1.025,1.025,0,0,0-1-1,1.044,1.044,0,0,0-.725.3.925.925,0,0,0-.325.7v5.5a1.077,1.077,0,0,0,.075.425,1.038,1.038,0,0,0,.225.325l3.65,3.65a1.018,1.018,0,0,0,.75.3,1.066,1.066,0,0,0,1.025-1.1,1.11,1.11,0,0,0-.325-.75Z" transform="translate(-1385 -9954.775)"/><path class="b" d="M6,37.75v0ZM34.5,44a9.183,9.183,0,0,1-6.7-2.775A9.06,9.06,0,0,1,25,34.55,9.56,9.56,0,0,1,34.5,25,9.56,9.56,0,0,1,44,34.55a9.06,9.06,0,0,1-2.8,6.675A9.183,9.183,0,0,1,34.5,44Zm4.25-5.1a.939.939,0,0,0,.275-.75,1.11,1.11,0,0,0-.325-.75l-3.35-3.35v-5a1.025,1.025,0,0,0-1-1A1.116,1.116,0,0,0,33.3,29.1v5.45a1.077,1.077,0,0,0,.075.425,1.038,1.038,0,0,0,.225.325l3.65,3.65a1.018,1.018,0,0,0,.75.3A.947.947,0,0,0,38.75,38.9ZM9,29.45V20.9H9V27H9v2.45Z" transform="translate(-1385 -9954.775)"/></g></svg>