<svg xmlns="http://www.w3.org/2000/svg" width="41" height="38.912" viewBox="0 0 41 38.912"><defs><style>.a{fill:#ffc760;}.b{fill:#6bcfff;stroke:#2f75ff;}</style></defs><g transform="translate(1267.5 9946.5)"><circle class="a" cx="2.5" cy="2.5" r="2.5" transform="translate(-1258 -9933)"/><circle class="a" cx="2.5" cy="2.5" r="2.5" transform="translate(-1249 -9933)"/><circle class="a" cx="2.5" cy="2.5" r="2.5" transform="translate(-1241 -9933)"/><path class="b" d="M15.3,21.85a1.964,1.964,0,1,0-1.425-.575A1.935,1.935,0,0,0,15.3,21.85Zm8.85,0a1.964,1.964,0,1,0-1.425-.575A1.935,1.935,0,0,0,24.15,21.85Zm8.5,0a1.964,1.964,0,1,0-1.425-.575A1.935,1.935,0,0,0,32.65,21.85ZM4,40.4V7a2.906,2.906,0,0,1,.9-2.075A2.841,2.841,0,0,1,7,4H41a2.869,2.869,0,0,1,2.075.925A2.869,2.869,0,0,1,44,7V33a3.174,3.174,0,0,1-3,3H12L6.55,41.45a1.388,1.388,0,0,1-1.625.325A1.37,1.37,0,0,1,4,40.4Z" transform="translate(-1271 -9950)"/></g></svg>