<svg xmlns="http://www.w3.org/2000/svg" width="512" height="496.398" viewBox="0 0 512 496.398"><defs><style>.a{fill:#2f75ff;}.b,.d,.e,.f,.i,.j,.l,.n{fill:#fff;}.b{opacity:0.9;}.c{fill:#f5f5f5;}.d{opacity:0.5;}.e,.h{opacity:0.3;}.f{opacity:0.8;}.g,.r{fill:#263238;}.j,.o{opacity:0.6;}.k,.q,.r{opacity:0.1;}.l{opacity:0.7;}.m,.n,.s{opacity:0.4;}.p{fill:#ebb376;}.t{fill:#d58745;}.u{fill:#2e353a;}</style></defs><g transform="translate(-51.29 -44.501)"><g transform="translate(175.183 44.501)"><path class="a" d="M514.343,263.671c-1.584,44.6,23.235,103.505-17.606,136.231-58.462,46.8-111.268-12.514-167.085-22.188-42.661-7.383-115.483,64.627-165.58,9.163C112.81,330.2,186.613,257,185.475,213.182c-1.113-43.355-58.684-99.932-12.5-148.772C222.9,11.682,283.22,79.189,338.527,89.661c49.076,9.36,132.213-70.282,171.2-32.647C560.749,106.352,515.875,220.643,514.343,263.671Z" transform="translate(-145.935 -44.501)"/><path class="b" d="M514.343,263.671c-1.584,44.6,23.235,103.505-17.606,136.231-58.462,46.8-111.268-12.514-167.085-22.188-42.661-7.383-115.483,64.627-165.58,9.163C112.81,330.2,186.613,257,185.475,213.182c-1.113-43.355-58.684-99.932-12.5-148.772C222.9,11.682,283.22,79.189,338.527,89.661c49.076,9.36,132.213-70.282,171.2-32.647C560.749,106.352,515.875,220.643,514.343,263.671Z" transform="translate(-145.935 -44.501)"/></g><g transform="translate(51.29 511.262)"><ellipse class="c" cx="253.809" cy="14.818" rx="253.809" ry="14.818"/></g><g transform="translate(111.074 84.766)"><rect class="a" width="318.514" height="226.83" rx="7.19" transform="translate(0 0)"/><rect class="d" width="318.514" height="226.83" rx="7.19" transform="translate(0 0)"/><rect class="d" width="303.814" height="187.14" rx="2.46" transform="translate(7.357 32.346)"/><rect class="e" width="13.719" height="13.719" rx="2.95" transform="translate(256.283 8.823)"/><rect class="d" width="13.719" height="13.719" rx="2.95" transform="translate(276.861 8.823)"/><rect class="f" width="13.719" height="13.719" rx="2.95" transform="translate(297.452 8.823)"/><rect class="a" width="19.112" height="19.112" rx="3.67" transform="translate(7.357 6.126)"/><rect class="f" width="222.471" height="22.542" rx="4.02" transform="translate(71.552 44.101)"/><rect class="f" width="222.471" height="22.542" rx="4.02" transform="translate(71.552 74)"/><rect class="f" width="222.471" height="98.125" rx="4.02" transform="translate(71.552 108.768)"/><rect class="a" width="222.471" height="19.688" rx="4.51" transform="translate(71.552 108.768)"/><rect class="d" width="222.471" height="19.688" rx="4.51" transform="translate(71.552 108.768)"/><rect class="d" width="13.457" height="13.457" rx="1.85" transform="translate(144.832 111.844)"/><rect class="d" width="13.457" height="13.457" rx="1.85" transform="translate(164.061 111.844)"/><rect class="d" width="13.457" height="13.457" rx="1.85" transform="translate(183.54 111.844)"/><path class="g" d="M116.187,115.645H114.21V114.48h5.38v1.165h-1.977v5.014h-1.427Z" transform="translate(-91.629 -63.14)"/><path class="g" d="M120.189,120.408a3.164,3.164,0,0,1,0-5.563,3.927,3.927,0,0,1,3.456,0A3.22,3.22,0,0,1,124.863,116a3.312,3.312,0,0,1,0,3.273,3.089,3.089,0,0,1-1.217,1.139A3.77,3.77,0,0,1,120.189,120.408Zm2.723-1.06a1.767,1.767,0,0,0,.694-.694,2.029,2.029,0,0,0,.249-1.021,2,2,0,0,0-.249-1.021,1.9,1.9,0,0,0-.694-.707,1.977,1.977,0,0,0-.995-.249,1.924,1.924,0,0,0-.982.249,1.806,1.806,0,0,0-.694.707,2,2,0,0,0-.249,1.021,2.029,2.029,0,0,0,.249,1.021,1.689,1.689,0,0,0,.694.694,1.937,1.937,0,0,0,.982.262,1.977,1.977,0,0,0,.995-.314Z" transform="translate(-90.291 -63.151)"/><path class="g" d="M115.47,143.462a3.076,3.076,0,0,1-1.1-.524l.484-1.073a3.507,3.507,0,0,0,2.042.641,1.807,1.807,0,0,0,.9-.17.563.563,0,0,0,.288-.484.445.445,0,0,0-.17-.367,1.571,1.571,0,0,0-.445-.236l-.72-.2a10.47,10.47,0,0,1-1.165-.327,2.108,2.108,0,0,1-.772-.537,1.492,1.492,0,0,1-.314-.995,1.689,1.689,0,0,1,.288-.969,1.9,1.9,0,0,1,.877-.694,3.561,3.561,0,0,1,1.427-.262,4.895,4.895,0,0,1,1.165.144,3.509,3.509,0,0,1,.982.406l-.432,1.087a3.456,3.456,0,0,0-1.715-.484,1.6,1.6,0,0,0-.89.2.589.589,0,0,0-.288.511.51.51,0,0,0,.327.471,5.535,5.535,0,0,0,1.021.3,9.884,9.884,0,0,1,1.152.34,1.938,1.938,0,0,1,.772.524,1.427,1.427,0,0,1,.314.982,1.715,1.715,0,0,1-.288.969,2.016,2.016,0,0,1-.89.694,3.639,3.639,0,0,1-1.44.249,5.118,5.118,0,0,1-1.414-.2Z" transform="translate(-91.58 -56.097)"/><path class="g" d="M119.734,142.857a2.827,2.827,0,0,1-.733-2.029v-3.456h1.427v3.4c0,1.113.458,1.662,1.309,1.662a1.309,1.309,0,0,0,1.034-.406,1.846,1.846,0,0,0,.353-1.309v-3.4h1.4v3.508a2.553,2.553,0,0,1-2.788,2.828,2.827,2.827,0,0,1-2-.8Z" transform="translate(-90.15 -56.081)"/><path class="g" d="M129.717,140.82a1.584,1.584,0,0,1,.3.969,1.44,1.44,0,0,1-.628,1.309,3.286,3.286,0,0,1-1.846.432H124.35v-6.179h3.024a2.958,2.958,0,0,1,1.728.432,1.309,1.309,0,0,1,.6,1.178,1.479,1.479,0,0,1-.209.8,1.663,1.663,0,0,1-.6.563A1.676,1.676,0,0,1,129.717,140.82Zm-3.927-2.435v1.453H127.2a1.44,1.44,0,0,0,.8-.183.641.641,0,0,0,.275-.55.615.615,0,0,0-.275-.55,1.453,1.453,0,0,0-.8-.17Zm2.513,3.835a.628.628,0,0,0,.288-.576c0-.511-.38-.772-1.139-.772H125.79V142.4h1.662a1.649,1.649,0,0,0,.838-.183Z" transform="translate(-88.496 -56.073)"/><path class="g" d="M129.7,143.358a2.2,2.2,0,0,1-.864-.668l.8-.942a1.4,1.4,0,0,0,1.139.668c.589,0,.877-.34.877-1.021v-2.932h-2.173V137.31h3.587v4.006a2.33,2.33,0,0,1-.563,1.715,2.225,2.225,0,0,1-1.649.563,2.749,2.749,0,0,1-1.152-.236Z" transform="translate(-87.108 -56.084)"/><path class="g" d="M137.928,142.346v1.113H133.15V137.28h4.673v1.152h-3.246v1.309h2.867v1.113h-2.867v1.427Z" transform="translate(-85.776 -56.094)"/><path class="g" d="M139,143.212a3.122,3.122,0,0,1-1.636-2.788,3.089,3.089,0,0,1,.445-1.649A2.906,2.906,0,0,1,139,137.649a3.573,3.573,0,0,1,1.715-.419,3.468,3.468,0,0,1,1.453.288,2.8,2.8,0,0,1,1.087.812l-.916.838a1.99,1.99,0,0,0-1.545-.72,2.108,2.108,0,0,0-1.021.249,1.833,1.833,0,0,0-.707.707,2.225,2.225,0,0,0,0,2.042,1.833,1.833,0,0,0,.707.707,2.068,2.068,0,0,0,2.618-.484l.916.851a2.8,2.8,0,0,1-1.087.812,3.469,3.469,0,0,1-1.453.288,3.56,3.56,0,0,1-1.767-.406Z" transform="translate(-84.475 -56.109)"/><path class="g" d="M144,138.475h-2V137.31h5.38v1.165H145.4v4.974h-1.427Z" transform="translate(-83.041 -56.084)"/><path class="g" d="M120.107,187.237a1.584,1.584,0,0,1,.3.969,1.427,1.427,0,0,1-.628,1.309,3.155,3.155,0,0,1-1.846.445H114.74v-6.179h3.024a2.959,2.959,0,0,1,1.728.432,1.309,1.309,0,0,1,.6,1.178,1.479,1.479,0,0,1-.209.8,1.663,1.663,0,0,1-.6.563,1.545,1.545,0,0,1,.825.484Zm-3.927-2.448v1.453h1.414a1.414,1.414,0,0,0,.812-.183.589.589,0,0,0,.262-.537.6.6,0,0,0-.262-.55,1.519,1.519,0,0,0-.812-.183Zm2.513,3.835a.615.615,0,0,0,.288-.563c0-.511-.38-.772-1.139-.772H116.18v1.532h1.662a1.479,1.479,0,0,0,.838-.2Z" transform="translate(-91.465 -41.725)"/><path class="g" d="M121.249,189.619a3.089,3.089,0,0,1-1.217-1.139,3.312,3.312,0,0,1,0-3.273,3.089,3.089,0,0,1,1.217-1.139,3.77,3.77,0,0,1,3.456,0,3.181,3.181,0,0,1,1.217,1.139,3.312,3.312,0,0,1,0,3.273,3.181,3.181,0,0,1-1.217,1.139,3.77,3.77,0,0,1-3.456,0Zm2.723-1.047a1.9,1.9,0,0,0,.694-.707,2.225,2.225,0,0,0,0-2.042,1.9,1.9,0,0,0-.694-.707,1.977,1.977,0,0,0-.995-.249,1.885,1.885,0,0,0-.982.249,1.807,1.807,0,0,0-.694.707,2.225,2.225,0,0,0,0,2.042,1.806,1.806,0,0,0,.694.707,2.029,2.029,0,0,0,.982.249,2.108,2.108,0,0,0,.995-.249Z" transform="translate(-89.964 -41.764)"/><path class="g" d="M125.58,183.73h2.814a4.084,4.084,0,0,1,1.78.38,2.906,2.906,0,0,1,1.191,1.087,3.266,3.266,0,0,1,0,3.246,2.867,2.867,0,0,1-1.191,1.073,3.927,3.927,0,0,1-1.78.393H125.58Zm2.736,5a2.094,2.094,0,0,0,1.479-.51,1.846,1.846,0,0,0,.55-1.4,1.82,1.82,0,0,0-.55-1.4,2.1,2.1,0,0,0-1.479-.511h-1.309v3.822Z" transform="translate(-88.115 -41.739)"/><path class="g" d="M134.112,187.713V189.9h-1.427v-2.212l-2.4-3.927h1.518l1.649,2.749,1.649-2.749h1.348Z" transform="translate(-86.66 -41.73)"/><path class="g" d="M162.774,167.433a1.479,1.479,0,0,1,.3.969,1.427,1.427,0,0,1-.628,1.244,3.246,3.246,0,0,1-1.833.432H157.42v-6.166h3.011a2.971,2.971,0,0,1,1.741.432,1.309,1.309,0,0,1,.6,1.165,1.544,1.544,0,0,1-.223.812,1.44,1.44,0,0,1-.6.55,1.636,1.636,0,0,1,.825.563Zm-3.927-2.448v1.453h1.427a1.466,1.466,0,0,0,.8-.183.641.641,0,0,0,.275-.55.6.6,0,0,0-.275-.537,1.309,1.309,0,0,0-.8-.183Zm2.526,3.835a.668.668,0,0,0,.288-.576c0-.511-.393-.772-1.139-.772h-1.689V169h1.676a1.676,1.676,0,0,0,.851-.183Z" transform="translate(-78.276 -47.865)"/><path class="g" d="M163.916,169.8a3.089,3.089,0,0,1-1.636-2.788,3.181,3.181,0,0,1,.432-1.636,3.063,3.063,0,0,1,1.2-1.139,3.679,3.679,0,0,1,1.741-.419,3.587,3.587,0,0,1,1.728.419,3.063,3.063,0,0,1,1.2,1.139,3.194,3.194,0,0,1,.445,1.636,3.128,3.128,0,0,1-.445,1.636,3.089,3.089,0,0,1-1.2,1.152,3.587,3.587,0,0,1-1.728.406A3.665,3.665,0,0,1,163.916,169.8Zm2.723-1.06a1.859,1.859,0,0,0,.694-.694,2.252,2.252,0,0,0,0-2.055,1.689,1.689,0,0,0-.694-.694,1.937,1.937,0,0,0-.982-.262,1.977,1.977,0,0,0-.995.262,1.767,1.767,0,0,0-.694.694,2.252,2.252,0,0,0,0,2.055,1.885,1.885,0,0,0,1.689.943,1.924,1.924,0,0,0,.982-.249Z" transform="translate(-76.774 -47.892)"/><path class="g" d="M168.26,163.91h2.8a3.927,3.927,0,0,1,1.78.38,2.906,2.906,0,0,1,1.2,1.073,3.155,3.155,0,0,1,.419,1.623,3.09,3.09,0,0,1-.419,1.623,2.932,2.932,0,0,1-1.2,1.087,4.045,4.045,0,0,1-1.78.38h-2.8Zm2.736,5a2.108,2.108,0,0,0,1.479-.524,1.82,1.82,0,0,0,.55-1.4,1.793,1.793,0,0,0-.55-1.388,2.042,2.042,0,0,0-1.479-.524h-1.309v3.835Z" transform="translate(-74.926 -47.864)"/><path class="g" d="M176.792,167.93v2.186h-1.44v-2.2l-2.382-3.927h1.518l1.649,2.736,1.649-2.736h1.4Z" transform="translate(-73.47 -47.839)"/><path class="g" d="M197,163.91v6.166H195.57v-5.027h-1.23V163.91Z" transform="translate(-66.866 -47.864)"/><path class="g" d="M201.885,168.938V170.1h-4.66v-.929l2.409-2.238a2.723,2.723,0,0,0,.524-.628,1.231,1.231,0,0,0,.131-.511.694.694,0,0,0-.262-.576,1.139,1.139,0,0,0-.733-.2,1.531,1.531,0,0,0-1.309.615l-1.034-.668a2.409,2.409,0,0,1,.995-.838,3.207,3.207,0,0,1,1.453-.314,2.867,2.867,0,0,1,1.2.236,1.793,1.793,0,0,1,.812.628,1.715,1.715,0,0,1,.275.969,2.068,2.068,0,0,1-.209.942,3.352,3.352,0,0,1-.812,1.008l-1.427,1.309Z" transform="translate(-66.06 -47.892)"/><path class="g" d="M216.124,167.315h0a1.781,1.781,0,0,0-.589-.484,1.65,1.65,0,0,0,.38-.419,1.715,1.715,0,0,0,.236-.9,1.545,1.545,0,0,0-.681-1.309,3.181,3.181,0,0,0-1.833-.458H210.43v6.545h3.364a3.429,3.429,0,0,0,1.95-.471,1.584,1.584,0,0,0,.707-1.4,1.754,1.754,0,0,0-.327-1.1Zm-3.927.34h1.479c.956,0,.956.432.956.589a.471.471,0,0,1-.2.419,1.466,1.466,0,0,1-.759.157h-1.453Zm1.937-1.558a1.309,1.309,0,0,1-.707.157H212.2v-1.087h1.23a1.427,1.427,0,0,1,.707.144.511.511,0,0,1,0,.785Z" transform="translate(-61.894 -47.918)"/><path class="g" d="M227.686,163.87h1.44l-1.309,6.166H226.39Z" transform="translate(-56.962 -47.876)"/><path class="g" d="M240.915,168.473a2.814,2.814,0,0,1-.733-2.094v-3.456h1.427v3.4c0,1.1.458,1.662,1.309,1.662a1.309,1.309,0,0,0,1.021-.406,1.846,1.846,0,0,0,.353-1.309v-3.4h1.414v3.456a2.867,2.867,0,0,1-.733,2.094,3.267,3.267,0,0,1-4.058.052Z" transform="translate(-52.701 -48.185)"/><path class="g" d="M303.074,167.188l1.95-1.964a2.252,2.252,0,0,0,0-3.181l-.628-.628a2.252,2.252,0,0,0-3.181,0l-1.964,1.95a2.265,2.265,0,0,0-.157,2.985l-1.191,1.2a2.238,2.238,0,0,0-2.985.157l-1.964,1.95a2.265,2.265,0,0,0,0,3.194l.628.628a2.265,2.265,0,0,0,3.194,0l1.95-1.964a2.225,2.225,0,0,0,.157-2.972l1.2-1.2A2.265,2.265,0,0,0,303.074,167.188Zm-2.828-2.828,1.964-1.95a.851.851,0,0,1,1.191,0l.628.628a.851.851,0,0,1,0,1.191l-1.95,1.964a.864.864,0,0,1-.982.144l.3-.3-.995-.995-.3.3a.864.864,0,0,1,.144-.982Zm-2.513,6.166-1.95,1.964a.864.864,0,0,1-1.2,0l-.628-.628a.864.864,0,0,1,0-1.2l1.964-1.95a.838.838,0,0,1,.969-.144l-.38.38.995.995.38-.38a.838.838,0,0,1-.144.969Z" transform="translate(-36.594 -48.838)"/><rect class="g" width="9.922" height="1.466" transform="translate(235.587 112.682)"/><rect class="g" width="15.8" height="1.466" transform="translate(232.642 116.151)"/><rect class="g" width="9.922" height="1.466" transform="translate(235.587 119.607)"/><rect class="g" width="12.868" height="1.466" transform="translate(234.108 123.062)"/><path class="g" d="M257.194,162.234a1.427,1.427,0,1,1-1.427-1.414,1.427,1.427,0,0,1,1.427,1.414Z" transform="translate(-48.324 -48.819)"/><path class="g" d="M257.194,166.207a1.414,1.414,0,1,1-.414-1.013,1.427,1.427,0,0,1,.414,1.013Z" transform="translate(-48.324 -47.595)"/><path class="g" d="M257.194,170.164a1.427,1.427,0,1,1-1.427-1.414,1.427,1.427,0,0,1,1.427,1.414Z" transform="translate(-48.324 -46.368)"/><rect class="g" width="9.922" height="1.466" transform="translate(211.854 112.682)"/><rect class="g" width="9.922" height="1.466" transform="translate(211.854 117.879)"/><rect class="g" width="9.922" height="1.466" transform="translate(211.854 123.062)"/><path class="g" d="M192.448,165.91l-2.749,2.736-2.749-2.736Z" transform="translate(-69.15 -47.246)"/><rect class="g" width="5.59" height="1.1" transform="translate(187.48 121.832)"/><path class="g" d="M157.218,185.492h55.948a1.662,1.662,0,0,0,0-3.312H157.218a1.662,1.662,0,0,0,0,3.312Z" transform="translate(-78.806 -42.218)"/><path class="g" d="M206.628,185.492h44.154a1.662,1.662,0,0,0,0-3.312H206.628a1.662,1.662,0,0,0,0,3.312Z" transform="translate(-63.537 -42.218)"/><path class="g" d="M247.208,185.492h38.315a1.662,1.662,0,0,0,0-3.312H247.208a1.662,1.662,0,0,0,0,3.312Z" transform="translate(-50.996 -42.218)"/><path class="g" d="M283,185.492h38.3a1.662,1.662,0,0,0,0-3.312H283a1.662,1.662,0,0,0,0,3.312Z" transform="translate(-39.936 -42.218)"/><path class="g" d="M157.249,197.869h40.515a1.649,1.649,0,1,0,0-3.3H157.249a1.649,1.649,0,0,0,0,3.3Z" transform="translate(-78.838 -38.389)"/><path class="g" d="M194.869,197.869h45.384a1.649,1.649,0,1,0,0-3.3H194.869a1.649,1.649,0,0,0,0,3.3Z" transform="translate(-67.212 -38.389)"/><path class="g" d="M236.389,197.869h37.242a1.649,1.649,0,0,0,0-3.3H236.389a1.649,1.649,0,1,0,0,3.3Z" transform="translate(-54.381 -38.389)"/><path class="g" d="M271.389,197.869h53.54a1.649,1.649,0,0,0,0-3.3h-53.54a1.649,1.649,0,0,0,0,3.3Z" transform="translate(-43.565 -38.389)"/><path class="g" d="M157.218,210.262h51.576a1.662,1.662,0,0,0,0-3.312H157.218a1.662,1.662,0,0,0,0,3.312Z" transform="translate(-78.806 -34.563)"/><path class="g" d="M203.3,210.262h48.526a1.662,1.662,0,0,0,0-3.312H203.258a1.662,1.662,0,0,0,0,3.312Z" transform="translate(-64.578 -34.563)"/><path class="g" d="M247.208,210.262h54.979a1.662,1.662,0,0,0,0-3.312H247.208a1.662,1.662,0,0,0,0,3.312Z" transform="translate(-50.996 -34.563)"/><path class="g" d="M295.748,210.262H317.36a1.662,1.662,0,0,0,0-3.312H295.748a1.662,1.662,0,0,0,0,3.312Z" transform="translate(-35.996 -34.563)"/><path class="g" d="M157.218,222.642h43.2a1.662,1.662,0,0,0,0-3.312h-43.2a1.662,1.662,0,0,0,0,3.312Z" transform="translate(-78.806 -30.737)"/><path class="g" d="M196.908,222.642h42.675a1.662,1.662,0,0,0,0-3.312H196.908a1.662,1.662,0,0,0,0,3.312Z" transform="translate(-66.541 -30.737)"/><path class="g" d="M236.358,222.642h29.126a1.662,1.662,0,0,0,0-3.312H236.358a1.662,1.662,0,0,0,0,3.312Z" transform="translate(-54.349 -30.737)"/><path class="g" d="M265.1,222.642h61.734a1.662,1.662,0,0,0,0-3.312H265.1a1.662,1.662,0,0,0,0,3.312Z" transform="translate(-45.468 -30.737)"/><g class="h" transform="translate(76.762 139.962)"><path class="i" d="M157.218,185.492h55.948a1.662,1.662,0,0,0,0-3.312H157.218a1.662,1.662,0,0,0,0,3.312Z" transform="translate(-155.568 -182.18)"/><path class="i" d="M206.628,185.492h44.154a1.662,1.662,0,0,0,0-3.312H206.628a1.662,1.662,0,0,0,0,3.312Z" transform="translate(-140.299 -182.18)"/><path class="i" d="M247.208,185.492h38.315a1.662,1.662,0,0,0,0-3.312H247.208a1.662,1.662,0,0,0,0,3.312Z" transform="translate(-127.758 -182.18)"/><path class="i" d="M283,185.492h38.3a1.662,1.662,0,0,0,0-3.312H283a1.662,1.662,0,0,0,0,3.312Z" transform="translate(-116.698 -182.18)"/><path class="i" d="M157.249,197.869h40.515a1.649,1.649,0,1,0,0-3.3H157.249a1.649,1.649,0,0,0,0,3.3Z" transform="translate(-155.6 -178.351)"/><path class="i" d="M194.869,197.869h45.384a1.649,1.649,0,1,0,0-3.3H194.869a1.649,1.649,0,0,0,0,3.3Z" transform="translate(-143.974 -178.351)"/><path class="i" d="M236.389,197.869h37.242a1.649,1.649,0,0,0,0-3.3H236.389a1.649,1.649,0,1,0,0,3.3Z" transform="translate(-131.143 -178.351)"/><path class="i" d="M271.389,197.869h53.54a1.649,1.649,0,0,0,0-3.3h-53.54a1.649,1.649,0,0,0,0,3.3Z" transform="translate(-120.327 -178.351)"/><path class="i" d="M157.218,210.262h51.576a1.662,1.662,0,0,0,0-3.312H157.218a1.662,1.662,0,0,0,0,3.312Z" transform="translate(-155.568 -174.525)"/><path class="i" d="M203.3,210.262h48.526a1.662,1.662,0,0,0,0-3.312H203.258a1.662,1.662,0,0,0,0,3.312Z" transform="translate(-141.34 -174.525)"/><path class="i" d="M247.208,210.262h54.979a1.662,1.662,0,0,0,0-3.312H247.208a1.662,1.662,0,0,0,0,3.312Z" transform="translate(-127.758 -174.525)"/><path class="i" d="M295.748,210.262H317.36a1.662,1.662,0,0,0,0-3.312H295.748a1.662,1.662,0,0,0,0,3.312Z" transform="translate(-112.758 -174.525)"/><path class="i" d="M157.218,222.642h43.2a1.662,1.662,0,0,0,0-3.312h-43.2a1.662,1.662,0,0,0,0,3.312Z" transform="translate(-155.568 -170.699)"/><path class="i" d="M196.908,222.642h42.675a1.662,1.662,0,0,0,0-3.312H196.908a1.662,1.662,0,0,0,0,3.312Z" transform="translate(-143.303 -170.699)"/><path class="i" d="M236.358,222.642h29.126a1.662,1.662,0,0,0,0-3.312H236.358a1.662,1.662,0,0,0,0,3.312Z" transform="translate(-131.111 -170.699)"/><path class="i" d="M265.1,222.642h61.734a1.662,1.662,0,0,0,0-3.312H265.1a1.662,1.662,0,0,0,0,3.312Z" transform="translate(-122.23 -170.699)"/></g><rect class="a" width="79.616" height="75.217" rx="5.2" transform="translate(61.158 154.859)"/><rect class="a" width="79.616" height="75.217" rx="5.2" transform="translate(58.213 154.859)"/><rect class="j" width="79.616" height="75.217" rx="5.2" transform="translate(58.213 154.859)"/><path class="g" d="M151.2,210.262h54.979a1.662,1.662,0,0,0,0-3.312H151.2a1.662,1.662,0,0,0,0,3.312Z" transform="translate(-80.667 -34.563)"/><path class="g" d="M151.229,235.349h54.979a1.649,1.649,0,0,0,0-3.3H151.229a1.649,1.649,0,1,0,0,3.3Z" transform="translate(-80.699 -26.806)"/><path class="g" d="M151.2,222.642h54.979a1.662,1.662,0,0,0,0-3.312H151.2a1.662,1.662,0,0,0,0,3.312Z" transform="translate(-80.667 -30.737)"/><g class="k" transform="translate(68.881 172.387)"><path class="i" d="M151.2,210.262h54.979a1.662,1.662,0,0,0,0-3.312H151.2a1.662,1.662,0,0,0,0,3.312Z" transform="translate(-149.548 -206.95)"/><path class="i" d="M151.229,235.349h54.979a1.649,1.649,0,0,0,0-3.3H151.229a1.649,1.649,0,1,0,0,3.3Z" transform="translate(-149.58 -199.193)"/><path class="i" d="M151.2,222.642h54.979a1.662,1.662,0,0,0,0-3.312H151.2a1.662,1.662,0,0,0,0,3.312Z" transform="translate(-149.548 -203.124)"/></g><rect class="a" width="12.017" height="8.09" rx="1.42" transform="translate(113.52 215.493)"/><rect class="f" width="12.017" height="8.09" rx="1.42" transform="translate(98.034 215.493)"/></g><g transform="translate(339.693 217.461)"><path class="a" d="M300.3,431.763H294.02l7.331-97.523h8.365Z" transform="translate(-264.681 -127.921)"/><path class="l" d="M300.3,431.763H294.02l7.331-97.523h8.365Z" transform="translate(-264.681 -127.921)"/><g class="m" transform="translate(80.849 206.319)"><path class="a" d="M339.653,431.763H333.37L340.7,334.24h8.365Z" transform="translate(-333.37 -334.24)"/></g><path class="a" d="M387.875,431.763h6.27l-7.318-97.523H378.45Z" transform="translate(-238.589 -127.921)"/><g class="m" transform="translate(139.861 206.319)"><path class="i" d="M387.875,431.763h6.27l-7.318-97.523H378.45Z" transform="translate(-378.45 -334.24)"/></g><rect class="a" width="103.047" height="9.111" transform="translate(41.33 206.319)"/><rect class="d" width="103.047" height="9.111" transform="translate(41.33 206.319)"/><path class="a" d="M348.525,431.763h6.27l-7.318-97.523H339.1Z" transform="translate(-250.75 -127.921)"/><path class="l" d="M348.525,431.763h6.27l-7.318-97.523H339.1Z" transform="translate(-250.75 -127.921)"/><path class="g" d="M407.008,247.3H389.925a23.249,23.249,0,0,0-20.945,13.234L320.9,361.108h81.291a10.892,10.892,0,0,0,10.826-9.688l9.569-86.8A15.6,15.6,0,0,0,407.008,247.3Z" transform="translate(-256.374 -154.789)"/><path class="n" d="M407.008,247.3H389.925a23.249,23.249,0,0,0-20.945,13.234L320.9,361.108h81.291a10.892,10.892,0,0,0,10.826-9.688l9.569-86.8A15.6,15.6,0,0,0,407.008,247.3Z" transform="translate(-256.374 -154.789)"/><path class="g" d="M399.03,247.3H382.012a23.275,23.275,0,0,0-20.945,13.234L313,361.108h79.681a12.658,12.658,0,0,0,12.579-11.268l9.4-85.221A15.6,15.6,0,0,0,399.03,247.3Z" transform="translate(-258.816 -154.789)"/><path class="e" d="M399.03,247.3H382.012a23.275,23.275,0,0,0-20.945,13.234L313,361.108h79.681a12.658,12.658,0,0,0,12.579-11.268l9.4-85.221A15.6,15.6,0,0,0,399.03,247.3Z" transform="translate(-258.816 -154.789)"/><path class="g" d="M370.721,339.5H303.96a11.14,11.14,0,0,1-11.14-11.153h0a11.14,11.14,0,0,1,11.14-11.14h66.761Z" transform="translate(-265.052 -133.184)"/><path class="e" d="M370.721,339.5H303.96a11.14,11.14,0,0,1-11.14-11.153h0a11.14,11.14,0,0,1,11.14-11.14h66.761Z" transform="translate(-265.052 -133.184)"/><path class="g" d="M396.237,339.5h-43.2a10.669,10.669,0,0,1-10.669-10.669v-.956a10.669,10.669,0,0,1,10.669-10.669h43.2a11.14,11.14,0,0,1,11.153,11.14h0A11.14,11.14,0,0,1,396.237,339.5Z" transform="translate(-249.739 -133.184)"/><path class="n" d="M396.237,339.5h-43.2a10.669,10.669,0,0,1-10.669-10.669v-.956a10.669,10.669,0,0,1,10.669-10.669h43.2a11.14,11.14,0,0,1,11.153,11.14h0A11.14,11.14,0,0,1,396.237,339.5Z" transform="translate(-249.739 -133.184)"/><path class="g" d="M335.833,205.2s-5.747,18.025,0,11.978c0,0-4.189,20.054,3.561,6.768,0,0-3.678,17.881,2.356,18.039s23.471-.655,23.471-.655l4.595-8,1.806-4.726s8.9,1.309,6.545-7.344a182.753,182.753,0,0,0-7.972-20.853l-5.9-7.213-24.832,4.621Z" transform="translate(-252.549 -171.507)"/><path class="o" d="M335.833,205.2s-5.747,18.025,0,11.978c0,0-4.189,20.054,3.561,6.768,0,0-3.678,17.881,2.356,18.039s23.471-.655,23.471-.655l4.595-8,1.806-4.726s8.9,1.309,6.545-7.344a182.753,182.753,0,0,0-7.972-20.853l-5.9-7.213-24.832,4.621Z" transform="translate(-252.549 -171.507)"/><path class="p" d="M335.983,239.8s.772,15.2-7.684,22.424c-7.684,6.545-19.793,11.69-19.793,11.69l-10.289-3.037a2.618,2.618,0,0,0-2.736.785l-4.974,5.668a2.618,2.618,0,0,0,.34,3.809h0a2.618,2.618,0,0,0,1.964.55l5.446-.654a44.508,44.508,0,0,0,6.545.8,35.749,35.749,0,0,0,5-1.374s18.706-1.61,27.071-9.556,11.218-24.427,11.218-24.427Z" transform="translate(-265.973 -157.106)"/><path class="a" d="M335.961,218.81c-6.689-1.008-11.376,15.564-12.541,31.22l15.708,5.629S348.436,220.708,335.961,218.81Z" transform="translate(-255.595 -163.606)"/><path class="q" d="M338.065,254.568s4.673-17.515,2.971-28.419l-9.792-3.639s-7.134,15.355-3.456,51.236c5.014-6.454,7.553-15.708,8.483-19.832Z" transform="translate(-254.571 -162.45)"/><path class="p" d="M282.93,376.531l1.152,35.488h7.946l3.718-36.129Z" transform="translate(-268.108 -115.05)"/><path class="g" d="M287.463,400.711h9.059a.825.825,0,0,1,.812.655l1.872,8.522a1.388,1.388,0,0,1-1.047,1.676,1.189,1.189,0,0,1-.3,0c-3.77-.079-7.121-.288-11.781-.3-5.537,0-4.137.654-10.656.733-3.927,0-4.634-4.425-2.971-4.634,7.632-.943,9.831-3.26,12.776-5.982a3.43,3.43,0,0,1,2.238-.668Z" transform="translate(-271.607 -107.381)"/><path class="r" d="M292.694,399.592l.89-8.692H283.4l.288,8.692Z" transform="translate(-267.963 -110.411)"/><path class="g" d="M376.428,274.81s24.754,56.289.982,56.289H308.764s-2.971,14.962-13.666,97.183h-11.48s-5.472-96.293.877-110.666c4.974-11.245,40.384-19.3,55.477-22.254a9.634,9.634,0,0,0,7.71-8.168l3.351-13.823Z" transform="translate(-268.573 -146.732)"/><path class="g" d="M281.43,390.17l.916,6.244h13.64l1.257-6.244Z" transform="translate(-268.572 -110.637)"/><path class="e" d="M281.43,390.17l.916,6.244h13.64l1.257-6.244Z" transform="translate(-268.572 -110.637)"/><path class="s" d="M324.179,320.906l43.408-21.4V287.722l-6.545-13.012s-.746,13.261-9.909,17.973-44.206,6.846-52.479,17.947c-6.624,8.888-1.113,37.962,1.309,49.076,3.351-23.419,4.477-29.074,4.477-29.074h10.04l.851-3.364Z" transform="translate(-264.222 -146.318)"/><path class="p" d="M307.23,376.541l3.168,35.017,7.606-.013,3.574-35.645Z" transform="translate(-260.599 -115.047)"/><path class="g" d="M312.813,400.711h9.059a.851.851,0,0,1,.825.655l1.872,8.522a1.4,1.4,0,0,1-1.06,1.676,1.115,1.115,0,0,1-.3,0c-3.77-.079-7.121-.288-11.781-.3-5.537,0-4.137.654-10.656.733-3.927,0-4.634-4.425-2.971-4.634,7.632-.943,9.831-3.26,12.776-5.982a3.43,3.43,0,0,1,2.238-.668Z" transform="translate(-263.773 -107.381)"/><path class="r" d="M318.332,399.592l.877-8.692H308.54l.785,8.692Z" transform="translate(-260.194 -110.411)"/><path class="g" d="M388.4,275.791s1.937,5.629,4.451,13.287c5.393,16.35,8.325,41.981-7.854,41.981H327.125s6.323,6.1-4.843,97.183H310.8s-15.263-99.238-8.928-113.6c4.9-11.061,34.532-16.114,47.9-17.855a8.155,8.155,0,0,0,7.069-7.409l1.309-16.049Z" transform="translate(-262.73 -146.744)"/><path class="g" d="M306.75,390.17l1.322,6.244h13.234l1.27-6.244Z" transform="translate(-260.747 -110.637)"/><path class="e" d="M306.75,390.17l1.322,6.244h13.234l1.27-6.244Z" transform="translate(-260.747 -110.637)"/><path class="a" d="M334.281,296.394a224.019,224.019,0,0,0-1.309-25.133c-1.689-16.114-4.974-36.09-2.906-47.544a6.362,6.362,0,0,1,6.388-5.236h43.709a4.686,4.686,0,0,1,4.582,5.328c-2.16,12.266-7.645,44.7-3.377,73.555C381.42,297.337,347.9,300.007,334.281,296.394Z" transform="translate(-253.746 -163.695)"/><path class="q" d="M377.295,266.011c-.131-4.019-.131-8,0-11.86l-7.043-.641-12.829,12.724-11.179,3.116-5.694,5.315s26.076-.707,33.433-5.917a35.686,35.686,0,0,0,3.312-2.736Z" transform="translate(-250.302 -152.869)"/><path class="p" d="M357.083,201.19c-.681,6.323,1.047,19.78,5.76,23.563,0,0-1.741,8.234-15.879,9.53-8.613-3.8-5.406-10.8-5.406-10.8,6.781-2.291,7.462-6.414,5.9-11.14Z" transform="translate(-250.171 -169.038)"/><path class="a" d="M343.662,217.38s-3.8,9.752,5.865,9.792c11.1,0,12.082-9.792,12.082-9.792l2.985,1.414s-.5,19.518-16.86,11.323c0,0-6.31,4.4-7.16-2.945s.6-8.378.6-8.378Z" transform="translate(-250.377 -164.035)"/><path class="e" d="M343.662,217.38s-3.8,9.752,5.865,9.792c11.1,0,12.082-9.792,12.082-9.792l2.985,1.414s-.5,19.518-16.86,11.323c0,0-6.31,4.4-7.16-2.945s.6-8.378.6-8.378Z" transform="translate(-250.377 -164.035)"/><path class="q" d="M345.7,218.546c2.513,0,7.5-1.1,9.386-9.163,2.618-11.009-9.085,1.833-9.085,1.833C346.9,213.925,347.048,216.451,345.7,218.546Z" transform="translate(-248.71 -167.884)"/><path class="p" d="M363.253,195.211c.956,10.407,1.584,14.792-2.814,20.879-6.545,9.163-19.636,8.064-23.628-1.846-3.639-8.928-4.582-24.427,4.87-30.108a14.229,14.229,0,0,1,19.557,4.817,14.059,14.059,0,0,1,2.016,6.257Z" transform="translate(-252.257 -174.945)"/><path class="t" d="M340.149,199.63a22.83,22.83,0,0,1-2.029,5.878,3.665,3.665,0,0,0,3.076,0Z" transform="translate(-251.053 -169.52)"/><path class="u" d="M345.671,195.041a.419.419,0,0,0,.17-.131.406.406,0,0,0-.065-.576h0a4.83,4.83,0,0,0-4.372-.89.419.419,0,0,0,.262.785,4.032,4.032,0,0,1,3.613.772A.445.445,0,0,0,345.671,195.041Z" transform="translate(-250.108 -171.49)"/><path class="u" d="M333.671,196.974a.576.576,0,0,1-.209-.079.406.406,0,0,1-.1-.563h0a4.857,4.857,0,0,1,3.927-2.212.419.419,0,0,1,.406.419.406.406,0,0,1-.406.406,4.1,4.1,0,0,0-3.194,1.859A.458.458,0,0,1,333.671,196.974Z" transform="translate(-252.546 -171.223)"/><path class="u" d="M344.472,198.078c.157.825-.17,1.584-.72,1.689s-1.1-.5-1.244-1.309.17-1.584.707-1.676S344.3,197.227,344.472,198.078Z" transform="translate(-249.707 -170.403)"/><path class="u" d="M337.263,199.372c.144.838-.17,1.584-.72,1.689s-1.1-.5-1.309-1.309.17-1.584.707-1.689S337.119,198.534,337.263,199.372Z" transform="translate(-251.963 -170.008)"/><path class="u" d="M336.5,198.049l-2.108-.209S335.7,199.267,336.5,198.049Z" transform="translate(-252.205 -170.073)"/><path class="u" d="M343.708,196.8l-2.108-.223S342.909,197.968,343.708,196.8Z" transform="translate(-249.977 -170.463)"/><path class="g" d="M356.569,192.286s-22.254,10.093-15.42,0c0,0-12.815,8.64-9.229,1.872s6.545-7.435,6.545-7.435-3.377,1.152-3.089-1.453,7.54-6.545,13.627-4.411c0,0-1.9-2.932.131-4.084s6.1,4.9,6.1,4.9,9.582-2.121,10.59.17-2.121,1.95-2.121,1.95,10.629,3.43,9.818,6.048-2.684.969-2.684.969,8.744,10.3,6.938,13.889-5.066-.628-5.066-.628,8.836,13.418,5.066,16.4-7.03-5.236-7.03-5.236,5.092,12.737,1.479,13.706-4.857-8.522-4.857-8.522,1.309,7.723-1.545,7.71-4.071-24.178-4.071-24.178S359.03,213.493,356.569,192.286Z" transform="translate(-253.165 -176.629)"/><path class="p" d="M360.947,199.015a7.619,7.619,0,0,1-2.906,5.04c-2.16,1.6-4.189-.092-4.385-2.618-.183-2.265.707-5.838,3.259-6.44a3.469,3.469,0,0,1,4.071,2.683A3.34,3.34,0,0,1,360.947,199.015Z" transform="translate(-246.259 -170.973)"/><path class="g" d="M342.936,208.061a7.158,7.158,0,0,1-.916.209.183.183,0,0,1-.209-.157h0a.183.183,0,0,1,.157-.209,5.079,5.079,0,0,0,3.77-2.618.187.187,0,1,1,.34.157A5.236,5.236,0,0,1,342.936,208.061Z" transform="translate(-249.913 -167.806)"/><path class="q" d="M366.139,227.44s-3.521,17.751-6.139,22.594l7.854.982,3.364-22Z" transform="translate(-244.291 -160.926)"/><path class="p" d="M377.139,236.61s1.964,18.012-7.1,23.563-28.6,13.339-28.6,13.339L329.661,271a1.571,1.571,0,0,0-1.623.655l-5.145,7.671a1.558,1.558,0,0,0,.065,1.833h0a1.571,1.571,0,0,0,1.388.589l7.213-.746a32.729,32.729,0,0,0,4.935.838,41.888,41.888,0,0,0,6.231-1.453s27.49-2.618,36.339-11.022,10.813-25.7,10.813-25.7Z" transform="translate(-255.841 -158.092)"/><path class="a" d="M371.5,218.759c-8.443-1.008-7.187,17.986-8.928,31.286l15.708,3.665S384.077,220.264,371.5,218.759Z" transform="translate(-243.497 -163.621)"/></g><g transform="translate(299.671 290.716)"><path class="g" d="M292.643,273.858a1.82,1.82,0,0,1,0-3.626H341.9a1.82,1.82,0,1,1,0,3.626Z" transform="translate(-225.599 -220.959)"/><path class="g" d="M299.306,282.373l-6.545-46.667a3.691,3.691,0,0,0-3.547-3.116H282.93v52.9h13.706a2.618,2.618,0,0,0,2.67-3.115Z" transform="translate(-228.086 -232.59)"/><g class="k" transform="translate(54.844)"><path class="i" d="M292.643,273.858a1.82,1.82,0,0,1,0-3.626H341.9a1.82,1.82,0,1,1,0,3.626Z" transform="translate(-280.443 -220.959)"/><path class="i" d="M299.306,282.373l-6.545-46.667a3.691,3.691,0,0,0-3.547-3.116H282.93v52.9h13.706a2.618,2.618,0,0,0,2.67-3.115Z" transform="translate(-282.93 -232.59)"/></g><path class="g" d="M306.873,285.485h-55.7a3.678,3.678,0,0,1-3.548-3.1l-6.545-46.667A2.618,2.618,0,0,1,243.7,232.6h55.7a3.7,3.7,0,0,1,3.547,3.116l6.545,46.667a2.618,2.618,0,0,1-2.618,3.1Z" transform="translate(-241.033 -232.587)"/><path class="l" d="M306.873,285.485h-55.7a3.678,3.678,0,0,1-3.548-3.1l-6.545-46.667A2.618,2.618,0,0,1,243.7,232.6h55.7a3.7,3.7,0,0,1,3.547,3.116l6.545,46.667a2.618,2.618,0,0,1-2.618,3.1Z" transform="translate(-241.033 -232.587)"/><path class="l" d="M270.641,252.491a2.409,2.409,0,0,1-2.435,2.841,3.39,3.39,0,0,1-3.246-2.841,2.409,2.409,0,0,1,2.448-2.841A3.364,3.364,0,0,1,270.641,252.491Z" transform="translate(-233.652 -227.318)"/></g><g transform="translate(208.662 343.627)"><path class="a" d="M188.174,449.507h-6.349l-2.775-167.9h11.9Z" transform="translate(-169.18 -270.352)"/><path class="l" d="M188.174,449.507h-6.349l-2.775-167.9h11.9Z" transform="translate(-169.18 -270.352)"/><path class="a" d="M241.664,449.507h-6.349l-2.775-167.9h11.9Z" transform="translate(-152.65 -270.352)"/><path class="n" d="M241.664,449.507h-6.349l-2.775-167.9h11.9Z" transform="translate(-152.65 -270.352)"/><rect class="a" width="119.711" height="13.13" transform="translate(15.813 8.443)"/><rect class="e" width="119.711" height="13.13" transform="translate(15.813 8.443)"/><rect class="a" width="70.204" height="13.13" transform="translate(135.538 8.443)"/><rect class="d" width="70.204" height="13.13" transform="translate(135.538 8.443)"/><path class="a" d="M333.114,449.507h-6.336l-2.788-167.9H335.9Z" transform="translate(-124.388 -270.352)"/><path class="n" d="M333.114,449.507h-6.336l-2.788-167.9H335.9Z" transform="translate(-124.388 -270.352)"/><rect class="g" width="100.495" height="11.258" rx="2.65" transform="translate(118.271)"/><rect class="n" width="100.495" height="11.258" rx="2.65" transform="translate(118.271)"/><rect class="g" width="133.914" height="11.258" rx="2.65"/><rect class="e" width="133.914" height="11.258" rx="2.65"/><path class="a" d="M279.624,449.507h-6.349L270.5,281.61h11.9Z" transform="translate(-140.919 -270.352)"/><path class="l" d="M279.624,449.507h-6.349L270.5,281.61h11.9Z" transform="translate(-140.919 -270.352)"/></g></g></svg>