<svg xmlns="http://www.w3.org/2000/svg" width="512" height="424.785" viewBox="0 0 512 424.785"><defs><style>.a{fill:#2f75ff;}.b,.d,.e,.f,.g,.i,.l,.m,.s{fill:#fff;}.b{opacity:0.9;}.c{fill:#f5f5f5;}.d,.o,.t{opacity:0.2;}.e,.q{opacity:0.5;}.f,.p{opacity:0.4;}.g{opacity:0.7;}.h,.t,.w{fill:#263238;}.i{opacity:0.6;}.j,.k{fill:#ffc760;}.j{opacity:0.996;}.l,.x{opacity:0.3;}.n{fill:#ffb573;}.r{fill:#ed893e;}.s{opacity:0.8;}.u{fill:#ce7a63;}.v{fill:#ba4d3c;}.w{opacity:0.21;}</style></defs><g transform="translate(-52.593 -94.081)"><g transform="translate(52.593 94.081)"><path class="a" d="M316.678,202.225c-30.065-11.456-21.121-68.235-83.055-98.352C173.557,74.646,95.36,114.7,68.4,173.076c-32.99,71.419-12.6,173.2,44.949,197.773,60.207,25.709,123.236-14.008,164.087-9.5,42.359,4.665,66.212,74.743,152.992,75.143,67.991.3,119.293-47.114,132.424-145.9,8.364-62.913-11.508-126.883-102.05-134.022C392.968,151.142,350.106,214.906,316.678,202.225Z" transform="translate(-52.593 -94.081)"/><path class="b" d="M316.678,202.225c-30.065-11.456-21.121-68.235-83.055-98.352C173.557,74.646,95.36,114.7,68.4,173.076c-32.99,71.419-12.6,173.2,44.949,197.773,60.207,25.709,123.236-14.008,164.087-9.5,42.359,4.665,66.212,74.743,152.992,75.143,67.991.3,119.293-47.114,132.424-145.9,8.364-62.913-11.508-126.883-102.05-134.022C392.968,151.142,350.106,214.906,316.678,202.225Z" transform="translate(-52.593 -94.081)"/></g><g transform="translate(57.125 489.691)"><ellipse class="c" cx="249.862" cy="14.588" rx="249.862" ry="14.588"/></g><g transform="translate(258.468 157.354)"><path class="a" d="M248.78,145.4V484.8H472V145.4Z" transform="translate(-201.833 -142.539)"/><path class="d" d="M248.78,145.4V484.8H472V145.4Z" transform="translate(-201.833 -142.539)"/><path class="a" d="M213.89,145.4V484.8h44.962V145.4Z" transform="translate(-211.905 -142.539)"/><path class="e" d="M213.89,145.4V484.8h44.962V145.4Z" transform="translate(-211.905 -142.539)"/><path class="a" d="M309.61,145.4V484.8h44.949V145.4Z" transform="translate(-184.273 -142.539)"/><path class="e" d="M309.61,145.4V484.8h44.949V145.4Z" transform="translate(-184.273 -142.539)"/><path class="a" d="M403.79,143.18V488.314h46.934V143.18Z" transform="translate(-157.085 -143.18)"/><path class="f" d="M403.79,143.18V488.314h46.934V143.18Z" transform="translate(-157.085 -143.18)"/><path class="a" d="M339.646,143.18H212.35V488.314H463.024V143.18ZM216.319,148.9H335.676v107.45H216.319Zm0,113.146H335.676v107.4H216.319Zm0,220.531v-107.4H335.676v107.4Zm242.735,0H339.7v-107.4H459.054Zm0-113.133H339.7v-107.4H459.054ZM339.7,256.352V148.9H459.054v107.45Z" transform="translate(-212.35 -143.18)"/><path class="g" d="M212.35,143.18V488.314H463.024V143.18Zm3.969,5.722H335.676v107.45H216.319Zm0,113.146H335.676v107.4H216.319Zm0,220.531v-107.4H335.676v107.4Zm242.735,0H339.7v-107.4H459.054Zm0-113.133H339.7v-107.4H459.054ZM339.7,256.352V148.9H459.054v107.45Z" transform="translate(-212.35 -143.18)"/><rect class="h" width="47.41" height="47.41" transform="translate(168.662 65.955)"/><rect class="g" width="47.41" height="47.41" transform="translate(168.662 65.955)"/><rect class="h" width="21.134" height="47.41" transform="translate(237.207 113.365) rotate(180)"/><rect class="i" width="21.134" height="47.41" transform="translate(237.207 113.365) rotate(180)"/><rect class="g" width="16.392" height="10.838" transform="translate(195.364 98.004)"/><rect class="h" width="1.173" height="6.173" transform="translate(198.701 100.349)"/><rect class="h" width="0.593" height="6.173" transform="translate(200.789 100.349)"/><rect class="h" width="1.624" height="6.173" transform="translate(201.987 100.349)"/><rect class="h" width="0.593" height="6.173" transform="translate(204.384 100.349)"/><rect class="h" width="0.593" height="6.173" transform="translate(205.892 100.349)"/><rect class="h" width="1.173" height="6.173" transform="translate(207.232 100.349)"/><rect class="h" width="21.134" height="10.541" transform="translate(218.482 57.81)"/><rect class="f" width="21.134" height="10.541" transform="translate(218.482 57.81)"/><rect class="h" width="52.23" height="10.541" transform="translate(166.252 57.81)"/><rect class="e" width="52.23" height="10.541" transform="translate(166.252 57.81)"/><rect class="a" width="6.688" height="15.361" transform="translate(225.699 57.81)"/><rect class="a" width="6.688" height="15.361" transform="translate(225.699 98.004)"/><rect class="j" width="6.688" height="15.361" transform="translate(225.699 57.81)"/><rect class="k" width="6.688" height="15.361" transform="translate(225.699 98.004)"/><rect class="h" width="60.929" height="60.929" transform="translate(13.312 165.221)"/><rect class="g" width="60.929" height="60.929" transform="translate(13.312 165.221)"/><rect class="h" width="27.152" height="60.929" transform="translate(101.393 226.15) rotate(180)"/><rect class="i" width="27.152" height="60.929" transform="translate(101.393 226.15) rotate(180)"/><rect class="g" width="21.07" height="13.931" transform="translate(47.617 206.408)"/><rect class="h" width="1.508" height="7.925" transform="translate(51.921 209.41)"/><rect class="h" width="0.76" height="7.925" transform="translate(54.601 209.41)"/><rect class="h" width="2.088" height="7.925" transform="translate(56.135 209.41)"/><rect class="h" width="0.76" height="7.925" transform="translate(59.228 209.41)"/><rect class="h" width="0.76" height="7.925" transform="translate(61.161 209.41)"/><rect class="h" width="1.508" height="7.925" transform="translate(62.887 209.41)"/><rect class="h" width="27.152" height="13.557" transform="translate(77.334 154.757)"/><rect class="f" width="27.152" height="13.557" transform="translate(77.334 154.757)"/><rect class="h" width="67.114" height="13.557" transform="translate(10.219 154.757)"/><rect class="e" width="67.114" height="13.557" transform="translate(10.219 154.757)"/><rect class="a" width="8.595" height="19.743" transform="translate(86.612 154.757)"/><rect class="a" width="8.595" height="19.743" transform="translate(86.612 206.408)"/><rect class="l" width="8.595" height="19.743" transform="translate(86.612 154.757)"/><rect class="l" width="8.595" height="19.743" transform="translate(86.612 206.408)"/><rect class="h" width="60.929" height="60.929" transform="translate(17.075 278.251)"/><rect class="g" width="60.929" height="60.929" transform="translate(17.075 278.251)"/><rect class="h" width="27.152" height="60.929" transform="translate(105.156 339.193) rotate(180)"/><rect class="i" width="27.152" height="60.929" transform="translate(105.156 339.193) rotate(180)"/><rect class="g" width="21.07" height="13.931" transform="translate(51.38 319.45)"/><rect class="h" width="1.508" height="7.925" transform="translate(55.671 322.453)"/><rect class="h" width="0.76" height="7.925" transform="translate(58.364 322.453)"/><rect class="h" width="2.088" height="7.925" transform="translate(59.898 322.453)"/><rect class="h" width="0.76" height="7.925" transform="translate(62.991 322.453)"/><rect class="h" width="0.76" height="7.925" transform="translate(64.924 322.453)"/><rect class="h" width="1.508" height="7.925" transform="translate(66.638 322.453)"/><rect class="h" width="27.152" height="13.557" transform="translate(81.096 267.787)"/><rect class="e" width="27.152" height="13.557" transform="translate(81.096 267.787)"/><rect class="h" width="67.114" height="13.557" transform="translate(13.982 267.787)"/><rect class="i" width="67.114" height="13.557" transform="translate(13.982 267.787)"/><rect class="a" width="8.595" height="19.743" transform="translate(90.375 267.787)"/><rect class="a" width="8.595" height="19.743" transform="translate(90.375 319.45)"/><rect class="m" width="8.595" height="19.743" transform="translate(90.375 267.787)"/><rect class="m" width="8.595" height="19.743" transform="translate(90.375 319.45)"/><rect class="h" width="60.929" height="60.929" transform="translate(145.311 278.251)"/><rect class="g" width="60.929" height="60.929" transform="translate(145.311 278.251)"/><rect class="h" width="27.152" height="60.929" transform="translate(233.405 339.193) rotate(180)"/><rect class="i" width="27.152" height="60.929" transform="translate(233.405 339.193) rotate(180)"/><rect class="g" width="21.07" height="13.931" transform="translate(179.629 319.45)"/><rect class="h" width="1.508" height="7.925" transform="translate(183.92 322.453)"/><rect class="h" width="0.76" height="7.925" transform="translate(186.601 322.453)"/><rect class="h" width="2.088" height="7.925" transform="translate(188.134 322.453)"/><rect class="h" width="0.76" height="7.925" transform="translate(191.227 322.453)"/><rect class="h" width="0.76" height="7.925" transform="translate(193.16 322.453)"/><rect class="h" width="1.508" height="7.925" transform="translate(194.887 322.453)"/><rect class="h" width="27.152" height="13.557" transform="translate(209.333 267.787)"/><rect class="f" width="27.152" height="13.557" transform="translate(209.333 267.787)"/><rect class="h" width="67.114" height="13.557" transform="translate(142.218 267.787)"/><rect class="e" width="67.114" height="13.557" transform="translate(142.218 267.787)"/><rect class="a" width="8.595" height="19.743" transform="translate(218.611 267.787)"/><rect class="a" width="8.595" height="19.743" transform="translate(218.611 319.45)"/><rect class="l" width="8.595" height="19.743" transform="translate(218.611 267.787)"/><rect class="l" width="8.595" height="19.743" transform="translate(218.611 319.45)"/><rect class="h" width="60.929" height="60.929" transform="translate(145.311 165.221)"/><rect class="g" width="60.929" height="60.929" transform="translate(145.311 165.221)"/><rect class="h" width="27.152" height="60.929" transform="translate(233.405 226.15) rotate(180)"/><rect class="i" width="27.152" height="60.929" transform="translate(233.405 226.15) rotate(180)"/><rect class="g" width="21.07" height="13.931" transform="translate(179.629 206.408)"/><rect class="h" width="1.508" height="7.925" transform="translate(183.92 209.41)"/><rect class="h" width="0.76" height="7.925" transform="translate(186.601 209.41)"/><rect class="h" width="2.088" height="7.925" transform="translate(188.134 209.41)"/><rect class="h" width="0.76" height="7.925" transform="translate(191.227 209.41)"/><rect class="h" width="0.76" height="7.925" transform="translate(193.16 209.41)"/><rect class="h" width="1.508" height="7.925" transform="translate(194.887 209.41)"/><rect class="h" width="27.152" height="13.557" transform="translate(209.333 154.757)"/><rect class="f" width="27.152" height="13.557" transform="translate(209.333 154.757)"/><rect class="h" width="67.114" height="13.557" transform="translate(142.218 154.757)"/><rect class="e" width="67.114" height="13.557" transform="translate(142.218 154.757)"/><rect class="a" width="8.595" height="19.743" transform="translate(218.611 154.757)"/><rect class="a" width="8.595" height="19.743" transform="translate(218.611 206.408)"/><rect class="l" width="8.595" height="19.743" transform="translate(218.611 154.757)"/><rect class="l" width="8.595" height="19.743" transform="translate(218.611 206.408)"/><rect class="h" width="38.892" height="38.892" transform="translate(58.003 74.215)"/><rect class="g" width="38.892" height="38.892" transform="translate(58.003 74.215)"/><rect class="h" width="17.333" height="38.892" transform="translate(114.228 113.107) rotate(180)"/><rect class="i" width="17.333" height="38.892" transform="translate(114.228 113.107) rotate(180)"/><rect class="g" width="13.454" height="8.892" transform="translate(79.911 100.517)"/><rect class="h" width="0.967" height="5.065" transform="translate(82.643 102.424)"/><rect class="h" width="0.477" height="5.065" transform="translate(84.357 102.424)"/><rect class="h" width="1.34" height="5.065" transform="translate(85.336 102.424)"/><rect class="h" width="0.477" height="5.065" transform="translate(87.308 102.424)"/><rect class="h" width="0.477" height="5.065" transform="translate(88.545 102.424)"/><rect class="h" width="0.967" height="5.065" transform="translate(89.64 102.424)"/><rect class="h" width="17.333" height="8.647" transform="translate(98.867 67.54)"/><rect class="f" width="17.333" height="8.647" transform="translate(98.867 67.54)"/><rect class="h" width="42.849" height="8.647" transform="translate(56.032 67.54)"/><rect class="e" width="42.849" height="8.647" transform="translate(56.032 67.54)"/><rect class="a" width="5.49" height="12.603" transform="translate(104.795 67.54)"/><rect class="a" width="5.49" height="12.603" transform="translate(104.795 100.517)"/><rect class="k" width="5.49" height="12.603" transform="translate(104.795 67.54)"/><rect class="l" width="5.49" height="12.603" transform="translate(104.795 100.517)"/><rect class="h" width="38.892" height="66.302" transform="translate(16.998 46.818)"/><rect class="g" width="38.892" height="66.302" transform="translate(16.998 46.818)"/><rect class="h" width="17.333" height="66.302" transform="translate(73.236 113.107) rotate(180)"/><rect class="i" width="17.333" height="66.302" transform="translate(73.236 113.107) rotate(180)"/><rect class="g" width="13.454" height="8.892" transform="translate(57.836 100.517)"/><rect class="h" width="0.967" height="5.065" transform="translate(60.581 102.424)"/><rect class="h" width="0.477" height="5.065" transform="translate(62.295 102.424)"/><rect class="h" width="1.34" height="5.065" transform="translate(63.274 102.424)"/><rect class="h" width="0.477" height="5.065" transform="translate(65.246 102.424)"/><rect class="h" width="0.477" height="5.065" transform="translate(66.483 102.424)"/><rect class="h" width="0.967" height="5.065" transform="translate(67.578 102.424)"/><rect class="h" width="17.333" height="8.647" transform="translate(57.875 40.129)"/><rect class="f" width="17.333" height="8.647" transform="translate(57.875 40.129)"/><rect class="h" width="42.849" height="8.647" transform="translate(15.026 40.129)"/><rect class="e" width="42.849" height="8.647" transform="translate(15.026 40.129)"/><rect class="a" width="5.49" height="12.603" transform="translate(36.16 40.129)"/><rect class="a" width="5.49" height="12.603" transform="translate(36.16 100.517)"/><rect class="k" width="5.49" height="12.603" transform="translate(36.16 40.129)"/><rect class="k" width="5.49" height="12.603" transform="translate(36.16 100.517)"/></g><g transform="translate(321.188 176.63)"><path class="n" d="M297.534,215.91l-.168,2.822c-.064.979-.142,1.972-.219,2.964-.193,1.985-.387,3.982-.619,5.967q-.7,5.992-1.74,11.946l-.979,5.438c-.09.374-2.5,0-4.162-.619a53.568,53.568,0,0,1-5.155-2.41l-3.583,4.2a27.44,27.44,0,0,0,2.384,2.487,26.654,26.654,0,0,0,2.668,2.242,22.043,22.043,0,0,0,3.144,1.946,13.97,13.97,0,0,0,4.124,1.366,9.485,9.485,0,0,0,2.784,0,8.737,8.737,0,0,0,3.157-1.07,9.124,9.124,0,0,0,2.577-2.242,10.311,10.311,0,0,0,1.43-2.487c.167-.4.309-.8.425-1.173l.142-.477.1-.387.438-1.559c.3-1.031.567-2.075.825-3.119,1.031-4.175,1.881-8.389,2.513-12.668.309-2.139.58-4.278.76-6.443.09-1.082.18-2.165.245-3.26s.09-2.152.1-3.415Z" transform="translate(-255.278 -141.461)"/><path class="h" d="M300.431,207.258c-9.3,7.114-8.931,20.516-8.931,20.516l16.624,3.969s5.155-13.467,3.028-18.4C309,208.186,305.65,203.251,300.431,207.258Z" transform="translate(-252.222 -144.382)"/><path class="b" d="M300.431,207.258c-9.3,7.114-8.931,20.516-8.931,20.516l16.624,3.969s5.155-13.467,3.028-18.4C309,208.186,305.65,203.251,300.431,207.258Z" transform="translate(-252.222 -144.382)"/><path class="a" d="M308.753,225.5l-17.178-4.137c-.09,1.2-.064,1.92-.064,1.92l16.611,3.969S308.38,226.579,308.753,225.5Z" transform="translate(-252.219 -139.888)"/><path class="n" d="M335,408.175l-9.549.915-4.6-22.255,9.562-.915Z" transform="translate(-243.748 -92.383)"/><path class="n" d="M391.908,381.39l-7.023,6.6L369.73,371.325l7.023-6.585Z" transform="translate(-229.638 -98.497)"/><path class="h" d="M379.337,382.552l5.271-9.51a.786.786,0,0,1,.954-.361l8.119,3.093a1.559,1.559,0,0,1,.76,2.191c-1.894,3.286-2.977,4.781-5.3,9.021-1.43,2.577-4.214,8.467-6.186,12.023s-5.58,1.791-5.077.129c2.255-7.423,1.83-11.6,1.186-14.82a2.5,2.5,0,0,1,.271-1.766Z" transform="translate(-227.299 -96.218)"/><path class="h" d="M327.655,401.651h11.482a.954.954,0,0,1,.9.709l2.5,9.021a1.418,1.418,0,0,1-1.4,1.817H314.665c-4.188,0-5.064-4.24-3.338-4.626,7.732-1.727,12.268-4.1,14.678-6.366A2.371,2.371,0,0,1,327.655,401.651Z" transform="translate(-246.738 -87.842)"/><path class="o" d="M320.85,386.845l2.371,11.469h9.742l-2.552-12.384Z" transform="translate(-243.748 -92.38)"/><path class="o" d="M376.763,364.74l-7.023,6.6,7.809,8.583,7.023-6.6Z" transform="translate(-229.635 -98.497)"/><path class="h" d="M309.948,251.124s-13.248,58.609-4.407,99.924c5.928,27.668,18.312,82.1,18.312,82.1l16.753-.438s-7.191-57.192-10.541-80.259c-5.722-39.459,8.608-103.8,8.608-103.8Z" transform="translate(-249.046 -132.01)"/><path class="p" d="M320.94,259.75l8.351,13.209a400.764,400.764,0,0,0-4.768,47.178C312.77,299.08,318.337,270.884,320.94,259.75Z" transform="translate(-244.766 -128.805)"/><path class="h" d="M318.931,395.169l20.632-.528-1.2-6.34-21.044.992Z" transform="translate(-244.767 -91.696)"/><path class="h" d="M314.92,250.7s7.732,62.153,24.627,96.071c13.6,27.41,49.91,66.418,49.91,66.418l9.279-9.562s-24.485-42.4-34.627-60.568c-24.807-44.627-4.536-78.7-18.6-95.092Z" transform="translate(-245.46 -132.206)"/><path class="h" d="M373.084,381.008l11.985-11.675-3.982-5.412L368.38,376.6Z" transform="translate(-230.028 -98.734)"/><path class="a" d="M377.8,385.194a1.2,1.2,0,0,0,.374-.064c1.147-.387,1.907-2.513,2.255-3.737a.232.232,0,0,0-.064-.206.219.219,0,0,0-.219,0c-.348.18-3.415,1.817-3.505,3.028a.735.735,0,0,0,.322.683,1.4,1.4,0,0,0,.838.3Zm2.126-3.467c-.528,1.7-1.224,2.822-1.869,3.041a.889.889,0,0,1-.863-.193.374.374,0,0,1-.18-.348C377.1,383.532,378.87,382.321,379.927,381.728Z" transform="translate(-227.644 -93.758)"/><path class="a" d="M377.542,382.461a6.843,6.843,0,0,0,3.015-.709.168.168,0,0,0,.09-.168.18.18,0,0,0-.09-.155c-.1-.064-2.577-1.392-3.866-.928a1.134,1.134,0,0,0-.722.67.76.76,0,0,0,.18.941,2.1,2.1,0,0,0,1.392.348Zm2.5-.863c-1.044.438-3.054.709-3.621.232-.1-.077-.193-.219-.064-.515a.76.76,0,0,1,.477-.451,5.3,5.3,0,0,1,3.209.7Z" transform="translate(-227.862 -93.975)"/><path class="a" d="M320.485,403.628a15.693,15.693,0,0,0,3.131-.4.193.193,0,0,0,.142-.168.18.18,0,0,0-.1-.193c-.477-.219-4.639-2.152-5.683-1.443a.606.606,0,0,0-.271.593,1.379,1.379,0,0,0,.567,1.082,3.866,3.866,0,0,0,2.217.528Zm2.474-.657c-1.289.232-3.518.528-4.472-.18a1.018,1.018,0,0,1-.412-.8.232.232,0,0,1,.1-.245C318.771,401.347,321.232,402.211,322.959,402.971Z" transform="translate(-244.659 -87.952)"/><path class="a" d="M323.13,403.737h.116a.219.219,0,0,0,0-.193c0-.18-.979-4.278-3.247-4.021-.567.064-.722.348-.747.567-.142,1.057,2.487,3.157,3.737,3.673Zm-2.861-3.866c1.443,0,2.281,2.384,2.577,3.338-1.289-.709-3.235-2.423-3.144-3.093,0,0,0-.193.425-.245Z" transform="translate(-244.211 -88.459)"/><path class="n" d="M286.227,238.048l-6.121-6.108L276.82,241.5s5.155,2.784,10.09.155Z" transform="translate(-256.459 -136.833)"/><path class="n" d="M273.061,231.21l-1.121,7.552,6.289,2.951,3.286-9.562Z" transform="translate(-257.868 -137.044)"/><path class="h" d="M300.731,207.12s-4.2,1.843,9.9,57.617l39.15-3.389c-2.036-15.877-2.9-25.7,1.881-59.06a116.284,116.284,0,0,0-16.753-.747,123.717,123.717,0,0,0-17.784,1.534,164.317,164.317,0,0,0-16.392,4.046Z" transform="translate(-249.725 -145.622)"/><path class="b" d="M300.731,207.12s-4.2,1.843,9.9,57.617l39.15-3.389c-2.036-15.877-2.9-25.7,1.881-59.06a116.284,116.284,0,0,0-16.753-.747,123.717,123.717,0,0,0-17.784,1.534,164.317,164.317,0,0,0-16.392,4.046Z" transform="translate(-249.725 -145.622)"/><path class="h" d="M330.215,201.31h4.845c1.572,2.436-4.382,10.477-11.7,14.343-2.036-6.353-7.139-4.162-7.139-4.162Z" transform="translate(-245.085 -145.676)"/><path class="b" d="M330.215,201.31h4.845c1.572,2.436-4.382,10.477-11.7,14.343-2.036-6.353-7.139-4.162-7.139-4.162Z" transform="translate(-245.085 -145.676)"/><path class="h" d="M314.38,202.61s-.992.142-3.351.683c-1.585,2.436-3.093,6.508,1.559,11.8,1.8-6.534,5.58-3.943,5.58-3.943Z" transform="translate(-247.034 -145.3)"/><path class="b" d="M314.38,202.61s-.992.142-3.351.683c-1.585,2.436-3.093,6.508,1.559,11.8,1.8-6.534,5.58-3.943,5.58-3.943Z" transform="translate(-247.034 -145.3)"/><path class="a" d="M311.029,203.178c-1.585,2.436-3.093,6.508,1.559,11.8,1.8-6.534,5.58-3.943,5.58-3.943l-.644-1.456a4.059,4.059,0,0,0-5.155,3.66,9.626,9.626,0,0,1-.554-10.232Z" transform="translate(-247.034 -145.185)"/><path class="a" d="M335.069,201.34h-1.082a9.808,9.808,0,0,1-1.495,4.613c-2.4,4.214-8.428,7.848-8.428,7.848a5.7,5.7,0,0,0-5.863-3.75l-2.01,1.469s5.155-2.191,7.139,4.162C330.688,211.817,336.641,203.776,335.069,201.34Z" transform="translate(-245.094 -145.667)"/><path class="h" d="M343.072,207.543a15.464,15.464,0,0,1-2.577-4.588,29.769,29.769,0,0,0,4.7,4.961,35.451,35.451,0,0,0,4.343.374,26.057,26.057,0,0,1-10.825-17.165c-1.624-11.366-9.9-9.24-9.9-9.24l-1.959,3.351s1.418,10.309,5.747,16.637a11.03,11.03,0,0,0,3.866,3.351,18.273,18.273,0,0,1-2.655-7.99,29.831,29.831,0,0,0,5.747,9.343,29.158,29.158,0,0,0,3.505.966Z" transform="translate(-242.013 -151.329)"/><path class="a" d="M328.829,181.887l-1.959,3.351s.193,1.43.67,3.557a33.5,33.5,0,0,0,3.6-7.036A7.642,7.642,0,0,0,328.829,181.887Z" transform="translate(-242.011 -151.33)"/><path class="n" d="M327.708,186.11c-.619,5.812-.838,16.392,3.505,19.871a66.637,66.637,0,0,1-14,9.936c-6.8-4.7-3.789-8.4-3.789-8.4,6.25-2.075,5.67-6.791,4.175-11.147Z" transform="translate(-246.083 -150.063)"/><path class="o" d="M322.512,189.36l-5.992,6.07a18.449,18.449,0,0,1,.825,3.106c2.41-.567,5.889-3.067,5.928-5.632A10.117,10.117,0,0,0,322.512,189.36Z" transform="translate(-244.998 -149.125)"/><path class="h" d="M319.844,171.963s-6.521,9.021-7.59,13.119c-4.446,2.577-5.348-10.168-2.99-18.041C316.57,171.589,319.844,171.963,319.844,171.963Z" transform="translate(-247.459 -155.569)"/><path class="q" d="M319.844,171.963s-6.521,9.021-7.59,13.119c-4.446,2.577-5.348-10.168-2.99-18.041C316.57,171.589,319.844,171.963,319.844,171.963Z" transform="translate(-247.459 -155.569)"/><path class="n" d="M334.8,182.778c-2.436,9.291-3.26,13.273-8.956,17.165-8.583,5.863-19.459.851-19.859-9.021-.361-8.853,3.673-22.565,13.608-24.485a13.106,13.106,0,0,1,15.206,16.34Z" transform="translate(-248.046 -155.816)"/><path class="h" d="M334.329,177.34s-4.678,7.565-5.3,10.851c-3.389,2.307-4.82-7.732-3.389-14.175C327.2,168.4,334.329,177.34,334.329,177.34Z" transform="translate(-242.524 -154.09)"/><path class="h" d="M311.34,166.575c2.745-3.8,12.732-5.374,21.392.322,7.809,5.155,7.307,17.023,1.1,16.392s-12.333-7.912-12.333-7.912Z" transform="translate(-246.494 -156.689)"/><path class="n" d="M330.553,186.645a7.023,7.023,0,0,1-4.124,3.415c-2.358.709-3.583-1.392-2.964-3.634.541-2.023,2.436-4.833,4.82-4.562a3.157,3.157,0,0,1,2.268,4.781Z" transform="translate(-243.039 -151.294)"/><path class="h" d="M316.545,179.164c-.155.76-.683,1.289-1.186,1.211s-.773-.8-.631-1.572.683-1.289,1.186-1.211S316.7,178.391,316.545,179.164Z" transform="translate(-245.526 -152.525)"/><path class="h" d="M309.824,177.844c-.142.76-.67,1.289-1.173,1.211s-.786-.8-.631-1.572.67-1.289,1.173-1.211S309.978,177.071,309.824,177.844Z" transform="translate(-247.464 -152.906)"/><path class="h" d="M309.48,176.539l-1.74-.889S308.4,177.274,309.48,176.539Z" transform="translate(-247.533 -153.083)"/><path class="r" d="M312.146,179a20.993,20.993,0,0,1-3.686,4.356,3.376,3.376,0,0,0,2.577,1.044Z" transform="translate(-247.325 -152.116)"/><path class="h" d="M312.815,186.445a6.34,6.34,0,0,0,4.356-1.662.18.18,0,0,0,0-.271.193.193,0,0,0-.271,0,6.263,6.263,0,0,1-5.451,1.4.193.193,0,1,0-.064.374A7.077,7.077,0,0,0,312.815,186.445Z" transform="translate(-246.538 -150.541)"/><path class="h" d="M320.948,177.129a.374.374,0,0,0,.335-.567,4.51,4.51,0,0,0-3.454-2.242.412.412,0,0,0-.4.374.387.387,0,0,0,.374.387,3.776,3.776,0,0,1,2.822,1.869.387.387,0,0,0,.322.18Z" transform="translate(-244.736 -153.467)"/><path class="h" d="M307.636,174.409a.412.412,0,0,0,.18,0,3.776,3.776,0,0,1,3.376-.232.374.374,0,0,0,.515-.155.387.387,0,0,0-.155-.515,4.51,4.51,0,0,0-4.111.232.374.374,0,0,0-.142.516.361.361,0,0,0,.335.155Z" transform="translate(-247.674 -153.814)"/><path class="h" d="M316.187,177.859l-1.727-.889S315.156,178.594,316.187,177.859Z" transform="translate(-245.593 -152.702)"/><path class="h" d="M328.351,163.781s-19.807-7.2-23.351,9.742a12.276,12.276,0,0,1,1.843-.258,10.747,10.747,0,0,1,3.247-4.639,27.445,27.445,0,0,0-1.972,4.588,26.3,26.3,0,0,1,12.23,3.028,10.026,10.026,0,0,1,2.178-2.719s-.528,1.65-.979,3.363a33.814,33.814,0,0,1,3.969,2.577S332.487,175.585,328.351,163.781Z" transform="translate(-248.324 -156.948)"/><path class="h" d="M312.25,165.21s19.627,2.577,25.052,18.389c0,0,10.76-10.077,0-19.755C322.894,151,312.25,165.21,312.25,165.21Z" transform="translate(-246.231 -158.043)"/><path class="b" d="M312.25,165.21s19.627,2.577,25.052,18.389c0,0,10.76-10.077,0-19.755C322.894,151,312.25,165.21,312.25,165.21Z" transform="translate(-246.231 -158.043)"/><path class="h" d="M314.075,165.306s10.954,1.469,18.763,8.776h0s-15.748-19.523-25.168-15.361C301.395,161.491,314.075,165.306,314.075,165.306Z" transform="translate(-248.056 -158.138)"/><path class="i" d="M314.075,165.306s10.954,1.469,18.763,8.776h0s-15.748-19.523-25.168-15.361C301.395,161.491,314.075,165.306,314.075,165.306Z" transform="translate(-248.056 -158.138)"/><path class="a" d="M330.623,164c1.07,2.577.168,5.838-2.577,9.73l.9.863c3.144-4.33,4.124-8.054,2.861-11.07a8.4,8.4,0,0,0-3.17-3.647,14.7,14.7,0,0,0-6.959-1.379C323.716,158.893,329.051,160.259,330.623,164Z" transform="translate(-243.509 -158.041)"/><rect class="h" width="24.382" height="24.382" transform="translate(1.237 75.841)"/><rect class="b" width="24.382" height="24.382" transform="translate(1.237 75.841)"/><rect class="h" width="10.864" height="24.382" transform="translate(36.482 100.223) rotate(180)"/><rect class="s" width="10.864" height="24.382" transform="translate(36.482 100.223) rotate(180)"/><rect class="g" width="8.428" height="5.567" transform="translate(14.974 92.323)"/><rect class="h" width="0.606" height="3.17" transform="translate(16.688 93.522)"/><rect class="h" width="0.296" height="3.17" transform="translate(17.758 93.522)"/><rect class="h" width="0.838" height="3.17" transform="translate(18.377 93.522)"/><rect class="h" width="0.296" height="3.17" transform="translate(19.614 93.522)"/><rect class="h" width="0.296" height="3.17" transform="translate(20.387 93.522)"/><rect class="h" width="0.606" height="3.17" transform="translate(21.07 93.522)"/><rect class="h" width="10.864" height="5.425" transform="translate(26.856 71.653)"/><rect class="f" width="10.864" height="5.425" transform="translate(26.856 71.653)"/><rect class="h" width="26.856" height="5.425" transform="translate(0 71.653)"/><rect class="e" width="26.856" height="5.425" transform="translate(0 71.653)"/><rect class="a" width="3.441" height="7.9" transform="translate(30.567 71.653)"/><rect class="a" width="3.441" height="7.9" transform="translate(30.567 92.323)"/><rect class="k" width="3.441" height="7.9" transform="translate(30.567 71.653)"/><rect class="k" width="3.441" height="7.9" transform="translate(30.567 92.323)"/><path class="h" d="M314.59,231.443l2.745,12.152-1.224,1.224h7.784l-5.49-14.24Z" transform="translate(-245.555 -137.226)"/><path class="q" d="M318.416,230.58l-3.866.851.464,2.1a29.925,29.925,0,0,0,4.3-.5Z" transform="translate(-245.567 -137.226)"/><path class="h" d="M315.041,225.88a30.245,30.245,0,0,0-6.121.593v6.6a30.244,30.244,0,0,0,6.121.593c6.443,0,11.6-1.753,11.6-3.866S321.459,225.88,315.041,225.88Z" transform="translate(-247.192 -138.583)"/><path class="h" d="M315.041,225.88a30.245,30.245,0,0,0-6.121.593v6.6a30.244,30.244,0,0,0,6.121.593c6.443,0,11.6-1.753,11.6-3.866S321.459,225.88,315.041,225.88Z" transform="translate(-247.192 -138.583)"/><path class="a" d="M309.951,226.19c-.348.064-.7.116-1.031.193v6.6l1.031.18Z" transform="translate(-247.192 -138.493)"/><path class="n" d="M347.9,208.21l1.031,1.044.889.967c.567.644,1.121,1.289,1.65,1.972,1.07,1.289,2.075,2.68,3.016,4.072a67.268,67.268,0,0,1,4.948,8.827,53.8,53.8,0,0,1,3.428,9.562,50.652,50.652,0,0,1,1.057,5,11.779,11.779,0,0,1-.889,7.732,10.5,10.5,0,0,1-2.783,3.3,12.667,12.667,0,0,1-3.144,1.791,20.361,20.361,0,0,1-5.747,1.289,47.5,47.5,0,0,1-10.181-.245,98.481,98.481,0,0,1-18.737-4.343l1.353-5.348a146.551,146.551,0,0,0,17.938,1.546,43.4,43.4,0,0,0,8.364-.593,13.413,13.413,0,0,0,3.222-1.005c1.07-.644.76-1.766-.464-6.237a50.257,50.257,0,0,0-3.26-7.732,55.123,55.123,0,0,0-4.369-7.242c-.786-1.173-1.624-2.307-2.5-3.4-.438-.541-.876-1.082-1.289-1.585l-.657-.773-.58-.631Z" transform="translate(-243.289 -143.684)"/><path class="n" d="M327.07,237.8l-7.642-4.046-.348,10.116s5.4.335,8.57-2.139Z" transform="translate(-244.259 -136.311)"/><path class="n" d="M314.32,235.039l1.147,7.552,4.987,1.276.348-10.116Z" transform="translate(-245.633 -136.311)"/><path class="h" d="M342.292,202.146c4.807.851,11.534,14.614,11.534,14.614l-12.1,10.941s-9.626-10.49-9.111-16.753C333.117,205.638,336.184,201.063,342.292,202.146Z" transform="translate(-240.358 -145.48)"/><path class="b" d="M342.292,202.146c4.807.851,11.534,14.614,11.534,14.614l-12.1,10.941s-9.626-10.49-9.111-16.753C333.117,205.638,336.184,201.063,342.292,202.146Z" transform="translate(-240.358 -145.48)"/><path class="a" d="M351.144,212.09,338.76,223.417c.709.851,1.186,1.366,1.186,1.366l12.1-10.941S351.711,213.16,351.144,212.09Z" transform="translate(-238.578 -142.564)"/></g><g transform="translate(225.452 308.297)"><rect class="a" width="222.568" height="183.649" transform="translate(227.916 193.907) rotate(180)"/><rect class="a" width="56.032" height="183.649" transform="translate(283.947 193.907) rotate(180)"/><rect class="d" width="56.032" height="183.649" transform="translate(283.947 193.907) rotate(180)"/><rect width="222.568" height="183.649" transform="translate(227.916 193.907) rotate(180)"/><rect class="a" width="222.568" height="183.649" transform="translate(227.916 193.907) rotate(180)"/><rect class="f" width="222.568" height="183.649" transform="translate(227.916 193.907) rotate(180)"/><rect class="h" width="65.504" height="10.258" transform="translate(289.295 10.258) rotate(180)"/><rect class="h" width="223.792" height="10.258" transform="translate(223.792 10.258) rotate(180)"/><rect class="l" width="223.792" height="10.258" transform="translate(223.792 10.258) rotate(180)"/><rect class="t" width="56.032" height="7.887" transform="translate(227.916 10.258)"/><rect class="t" width="222.568" height="7.887" transform="translate(5.348 10.258)"/><rect class="g" width="222.568" height="46.186" transform="translate(5.348 47.423)"/><rect class="f" width="56.032" height="46.186" transform="translate(283.947 93.622) rotate(180)"/><path class="h" d="M213.221,310.28a4.292,4.292,0,0,1,1.933,1.624,4.446,4.446,0,0,1,.683,2.474,4.51,4.51,0,0,1-.683,2.474,4.292,4.292,0,0,1-1.933,1.624,7.307,7.307,0,0,1-2.977.618h-2.577v3.544H204.69V309.751h5.554A7.1,7.1,0,0,1,213.221,310.28Zm-1.1,5.747a2.32,2.32,0,0,0,0-3.312,3.131,3.131,0,0,0-2.049-.58h-2.41v4.472h2.423a3.131,3.131,0,0,0,2.036-.58Z" transform="translate(-181.545 -246.039)"/><path class="h" d="M217.939,322a6.443,6.443,0,0,1-2.577-2.384,6.92,6.92,0,0,1,0-6.83,6.314,6.314,0,0,1,2.577-2.371,7.977,7.977,0,0,1,7.217,0,6.508,6.508,0,0,1,0,11.585,7.977,7.977,0,0,1-7.217,0Zm5.67-2.2a3.866,3.866,0,0,0,1.443-1.456,4.356,4.356,0,0,0,.528-2.139,4.266,4.266,0,0,0-.528-2.126,3.763,3.763,0,0,0-1.443-1.469,4.291,4.291,0,0,0-4.124,0,3.763,3.763,0,0,0-1.443,1.469,4.252,4.252,0,0,0-.515,2.126,4.343,4.343,0,0,0,.515,2.139,3.866,3.866,0,0,0,1.443,1.456A4.291,4.291,0,0,0,223.609,319.795Z" transform="translate(-178.725 -246.095)"/><path class="h" d="M228.674,322.45a7.178,7.178,0,0,1-2.294-1.082l1.018-2.242a6.792,6.792,0,0,0,1.959.979,7.4,7.4,0,0,0,2.281.361,3.75,3.75,0,0,0,1.882-.374,1.16,1.16,0,0,0,.606-1.005.941.941,0,0,0-.361-.76,2.668,2.668,0,0,0-.915-.49c-.374-.116-.889-.258-1.521-.4a21.525,21.525,0,0,1-2.41-.7,4.137,4.137,0,0,1-1.611-1.134,3,3,0,0,1-.67-2.049,3.634,3.634,0,0,1,.606-2.036,4.188,4.188,0,0,1,1.83-1.443,7.384,7.384,0,0,1,2.99-.528,10.028,10.028,0,0,1,2.41.283,7.28,7.28,0,0,1,2.062.851l-.928,2.255a7.178,7.178,0,0,0-3.557-1.005,3.479,3.479,0,0,0-1.856.4,1.289,1.289,0,0,0-.593,1.07,1.07,1.07,0,0,0,.683.992,11.6,11.6,0,0,0,2.113.631,21.523,21.523,0,0,1,2.41.7,4.072,4.072,0,0,1,1.611,1.108,2.977,2.977,0,0,1,.67,2.036,3.492,3.492,0,0,1-.618,2.01,4.111,4.111,0,0,1-1.856,1.443,7.383,7.383,0,0,1-2.99.541A10.734,10.734,0,0,1,228.674,322.45Z" transform="translate(-175.284 -246.096)"/><path class="h" d="M239.124,312.143H235V309.72h11.211v2.423H242.1v10.438h-2.977Z" transform="translate(-172.796 -246.046)"/><path class="h" d="M251.779,322a6.443,6.443,0,0,1-2.577-2.384,6.92,6.92,0,0,1,0-6.83,6.314,6.314,0,0,1,2.577-2.371,7.977,7.977,0,0,1,7.217,0,6.366,6.366,0,0,1,2.513,2.371A6.585,6.585,0,0,1,259,322a7.977,7.977,0,0,1-7.217,0Zm5.67-2.2a3.866,3.866,0,0,0,1.443-1.456,4.356,4.356,0,0,0,.528-2.139,4.265,4.265,0,0,0-.528-2.126,3.763,3.763,0,0,0-1.443-1.469,4.291,4.291,0,0,0-4.124,0,3.762,3.762,0,0,0-1.443,1.469,4.252,4.252,0,0,0-.516,2.126,4.343,4.343,0,0,0,.516,2.139,3.866,3.866,0,0,0,1.443,1.456A4.291,4.291,0,0,0,257.449,319.795Z" transform="translate(-168.956 -246.095)"/><path class="h" d="M264.016,312.11v3.4h6.005v2.4h-5.954v4.678H261V309.7h9.729v2.384Z" transform="translate(-165.29 -246.052)"/><path class="h" d="M273.127,312.11v3.4h5.954v2.4h-5.954v4.678H270.15V309.7h9.717v2.384Z" transform="translate(-162.648 -246.052)"/><path class="h" d="M279.26,309.72h2.977v12.887H279.26Z" transform="translate(-160.019 -246.046)"/><path class="h" d="M286.762,322a6.327,6.327,0,0,1-2.5-2.371,6.959,6.959,0,0,1,0-6.856,6.443,6.443,0,0,1,2.5-2.371,8.041,8.041,0,0,1,6.6-.271,6.108,6.108,0,0,1,2.281,1.7l-1.92,1.753a4.137,4.137,0,0,0-3.235-1.508,4.266,4.266,0,0,0-2.126.528,3.66,3.66,0,0,0-1.469,1.469,4.252,4.252,0,0,0-.515,2.126,4.342,4.342,0,0,0,.516,2.139,3.711,3.711,0,0,0,1.469,1.456,4.265,4.265,0,0,0,2.126.528,4.085,4.085,0,0,0,3.235-1.534l1.92,1.766a6.005,6.005,0,0,1-2.281,1.714,7.732,7.732,0,0,1-3.041.593A7.306,7.306,0,0,1,286.762,322Z" transform="translate(-158.835 -246.095)"/><path class="h" d="M304.374,320.2v2.384H294.4V309.7h9.794v2.384h-6.83v2.8h5.979v2.32h-5.979v2.977Z" transform="translate(-155.648 -246.052)"/><path class="a" d="M355.3,306.35H321.8a2.861,2.861,0,0,0-2.874,2.861v.116h-4.188a1.559,1.559,0,1,0,0,3.119h4.188v3.119H310.2a1.559,1.559,0,0,0,0,3.119h8.724V321.8H312.48a1.572,1.572,0,1,0,0,3.131h6.443v.1A2.861,2.861,0,0,0,321.8,327.9H355.3a2.848,2.848,0,0,0,2.861-2.861V309.211a2.848,2.848,0,0,0-2.861-2.861Zm-1.4,17.32a.954.954,0,0,1,.387,1.289.966.966,0,0,1-1.289.387l-12.964-7.139-1.469.8-1.469-.8-13,7.139a.954.954,0,0,1-.915-1.675l11.946-6.546-11.946-6.546a.954.954,0,0,1,.915-1.675l14.472,7.938,14.459-7.938a.966.966,0,0,1,1.289.387h0a.954.954,0,0,1-.387,1.289l-11.933,6.546Z" transform="translate(-151.537 -247.019)"/></g><g transform="translate(159.119 142.403)"><path class="a" d="M197.221,406.027c1.108,0,2.191-.155,2.577-.657a.748.748,0,0,0,0-.889.954.954,0,0,0-.644-.477c-1.443-.4-4.472,1.289-4.6,1.4a.193.193,0,0,0-.1.206.219.219,0,0,0,.168.168A14.646,14.646,0,0,0,197.221,406.027Zm1.379-1.675a1.8,1.8,0,0,1,.387,0,.67.67,0,0,1,.412.3c.142.245.09.374,0,.451-.412.554-2.577.567-4.2.348a9.2,9.2,0,0,1,3.4-1.1Z" transform="translate(-118.169 -52.953)"/><path class="a" d="M194.616,406.254h.09c1.044-.464,3.106-2.345,2.951-3.312,0-.232-.193-.515-.76-.58a1.52,1.52,0,0,0-1.134.348,5.876,5.876,0,0,0-1.353,3.338.232.232,0,0,0,.09.193Zm2.113-3.518h.129c.361,0,.387.18.4.232.09.58-1.289,2.049-2.384,2.693a4.846,4.846,0,0,1,1.147-2.668,1.083,1.083,0,0,1,.709-.258Z" transform="translate(-118.179 -53.411)"/><path class="u" d="M187.19,409.712h8.647l.863-20.052h-8.66Z" transform="translate(-120.264 -57.076)"/><path class="h" d="M196.533,404.44h-9.459a.76.76,0,0,0-.735.593l-1.714,7.732a1.289,1.289,0,0,0,1.289,1.534c3.415,0,8.338-.258,12.629-.258,5,0,9.33.271,15.206.271,3.557,0,4.549-3.583,3.054-3.866-6.766-1.482-12.294-1.637-18.145-5.245A4.085,4.085,0,0,0,196.533,404.44Z" transform="translate(-121.011 -52.809)"/><path class="o" d="M187.46,401.438h8.66l.5-11.779h-8.66Z" transform="translate(-120.186 -57.076)"/><path class="a" d="M148.368,404.839a2.732,2.732,0,0,0,2.152-.116.825.825,0,0,0,.193-.954.9.9,0,0,0-.528-.593c-1.16-.567-3.866.528-3.969.58a.206.206,0,0,0-.116.18.193.193,0,0,0,.116.193A10.4,10.4,0,0,0,148.368,404.839Zm1.4-1.379.245.077a.593.593,0,0,1,.309.348c.1.374,0,.49-.077.528-.464.4-2.191,0-3.4-.451a6.624,6.624,0,0,1,2.99-.5Z" transform="translate(-132.126 -53.221)"/><path class="a" d="M146.26,404.671h.1c.979-.284,3.067-1.778,3.093-2.758a.644.644,0,0,0-.515-.657,1.1,1.1,0,0,0-.915.064c-1.16.593-1.881,2.99-1.92,3.093a.232.232,0,0,0,0,.206Zm2.448-3.054h.09c.258.077.258.206.258.258,0,.58-1.4,1.753-2.41,2.217a4.82,4.82,0,0,1,1.572-2.423A.67.67,0,0,1,148.709,401.617Z" transform="translate(-132.131 -53.749)"/><path class="u" d="M138.73,406.293l8.467,1.83,8.492-18.673-8.467-1.83Z" transform="translate(-134.253 -57.665)"/><path class="h" d="M149.011,403.336l-9.51-2.062a.747.747,0,0,0-.838.425l-3.3,7.152a1.289,1.289,0,0,0,.915,1.778c3.325.657,4.974.812,9.163,1.714,2.577.567,8.376,1.972,11.92,2.745s4.781-2.642,3.389-3.273c-6.2-2.835-8.8-5.335-10.477-7.668a2.126,2.126,0,0,0-1.263-.812Z" transform="translate(-135.256 -53.728)"/><path class="o" d="M141.41,398.69l8.492,1.765,5.013-11.005-8.467-1.83Z" transform="translate(-133.479 -57.665)"/><path class="h" d="M196.948,152.26c.155.747.683,1.289,1.173,1.173s.773-.786.619-1.546-.683-1.289-1.173-1.173S196.807,151.5,196.948,152.26Z" transform="translate(-117.457 -126.059)"/><path class="v" d="M197.42,152.91a27.514,27.514,0,0,0,4.9,5.709,4.382,4.382,0,0,1-3.454,1.4Z" transform="translate(-117.31 -125.42)"/><path class="h" d="M194.248,149.611a.425.425,0,0,1-.309-.129.451.451,0,0,1,0-.632,4.5,4.5,0,0,1,3.866-1.495.438.438,0,0,1,.361.515.451.451,0,0,1-.515.374h0a3.583,3.583,0,0,0-3.028,1.211.425.425,0,0,1-.374.155Z" transform="translate(-118.353 -127.031)"/><path class="u" d="M180.782,160.12c1.366,6.972,2.732,19.743-2.152,24.395,0,0,1.907,7.075,14.858,7.075,14.24,0,6.8-7.075,6.8-7.075-7.732-1.856-7.565-7.616-6.211-13.041Z" transform="translate(-122.735 -123.339)"/><path class="a" d="M177.366,179.482c-.941-1.753-1.985-3.763.168-4.394,2.371-.7,17.6-1.985,22.075-.683-1.379,2.448.954,5.451.954,5.451Z" transform="translate(-123.417 -119.376)"/><path class="t" d="M177.38,179.01l23.2.374a7.126,7.126,0,0,1-1.379-3.634,174.787,174.787,0,0,0-19.33,0c-1.211,0-2.436.155-3.647.271a7.113,7.113,0,0,0,1.16,2.99Z" transform="translate(-123.43 -118.904)"/><path class="u" d="M177.307,158.3c2.448,9.137,3.415,14.6,9.021,18.4,8.48,5.709,19.034-.851,19.33-10.529.3-8.711-3.75-22.178-13.557-24.021A12.887,12.887,0,0,0,177.307,158.3Z" transform="translate(-123.255 -128.591)"/><path class="w" d="M183.822,174.884c3.866,2.229,18.041-5.155,15.129-16.456,0,0,5.387-6.443,4.781-13.634s-5.516-9.884-10.748-8.351c-4.6,1.353-4.472,3.866-4.472,3.866s-21.766,2.577-17.127,11.418C162.533,161.392,178.977,172.075,183.822,174.884Z" transform="translate(-125.569 -130.294)"/><path class="w" d="M172.719,149.393s-2.577-4.485-6.379-1.972C168.118,147.447,171.057,147.756,172.719,149.393Z" transform="translate(-126.283 -127.225)"/><path class="w" d="M195.962,149.665s4.755-10.722-2.642-14.175A18.338,18.338,0,0,1,195.962,149.665Z" transform="translate(-118.494 -130.449)"/><path class="h" d="M208.128,234.35s-9.82,66.161-15.219,90.942c-5.9,27.14-37.565,116.935-37.565,116.935l-15.464-3.363s22.152-73.171,27.062-111.11c3.866-29.15,11.315-93.4,11.315-93.4Z" transform="translate(-133.921 -101.91)"/><path class="h" d="M159.31,392.4c.064,0-2.887,5.606-2.887,5.606L139,394.235l1.469-5.245Z" transform="translate(-134.175 -57.269)"/><path class="x" d="M190.16,252.66c-11.353,2.229-10.155,44.588-8.789,66.38,3.286-15.4,8.08-45.039,11.353-66.071a3.982,3.982,0,0,0-2.564-.309Z" transform="translate(-122.19 -96.65)"/><path class="h" d="M211.559,234.35s1.186,64.73.245,91.122c-.979,27.462-10.567,117.36-10.567,117.36H186.571s-.541-88.3-1.186-115.259c-.722-29.395-4.266-93.223-4.266-93.223Z" transform="translate(-122.016 -101.91)"/><path class="h" d="M203.21,391.6c.064,0-.825,6.083-.825,6.083H184.55l-.49-5.425Z" transform="translate(-121.167 -56.516)"/><path class="f" d="M159.31,392.4c.064,0-2.887,5.606-2.887,5.606L139,394.235l1.469-5.245Z" transform="translate(-134.175 -57.269)"/><path class="f" d="M203.21,391.6c.064,0-.825,6.083-.825,6.083H184.55l-.49-5.425Z" transform="translate(-121.167 -56.516)"/><path class="u" d="M179.56,190.9l-3.4,5.915-3.325,6.044c-2.191,4.034-4.291,8.093-6.2,12.178-.954,2.049-1.869,4.085-2.693,6.134l-.155.374h0l-.1.142a2.757,2.757,0,0,0-.168.283,2.126,2.126,0,0,0,.1,1.289,12.809,12.809,0,0,0,2.771,4.266,54.293,54.293,0,0,0,4.549,4.382l-2.861,6.108a29.188,29.188,0,0,1-3.866-1.289,29.836,29.836,0,0,1-3.621-1.83,20.49,20.49,0,0,1-6.714-6.2,14.176,14.176,0,0,1-2.113-5.451,13.027,13.027,0,0,1,0-3.247,12.151,12.151,0,0,1,.271-1.6l.206-.786.142-.464c.76-2.423,1.534-4.807,2.461-7.113a145.441,145.441,0,0,1,6.005-13.467c1.1-2.178,2.229-4.33,3.441-6.443s2.384-4.2,3.776-6.366Z" transform="translate(-130.52 -116.514)"/><path class="u" d="M164.543,221.071l6.186-1.611.361,10s-4.845.722-7.809-2.242Z" transform="translate(-127.166 -106.209)"/><path class="u" d="M177.836,218.15l-1.392,8.776-7.023,2.912-.361-10Z" transform="translate(-125.497 -106.587)"/><path class="a" d="M170.4,178.882c-8.119,1.856-14.807,22.578-14.807,22.578L171.879,213.9a35.555,35.555,0,0,0,8.647-15.993C183.309,187.014,178.683,176.975,170.4,178.882Z" transform="translate(-129.386 -117.99)"/><path class="o" d="M173.856,190.65c-4.407,4.356-5.838,12.307-6.186,19.2l.722.554a35.5,35.5,0,0,0,8.647-15.992q.245-.979.425-1.933Z" transform="translate(-125.899 -114.525)"/><path class="a" d="M215.573,179.784s9.214,10.4.515,74.821h-46.3c-.322-7.114,4.15-41.779-2.706-75.272a119.941,119.941,0,0,1,15.464-1.959,170.006,170.006,0,0,1,19.691,0,87.139,87.139,0,0,1,13.338,2.41Z" transform="translate(-126.069 -118.44)"/><path class="o" d="M210.254,194.485l-.18-.155-10.516,2.577c-.606,7.114,6.714,15.632,10.477,19.511a199.325,199.325,0,0,0,.219-21.933Z" transform="translate(-116.704 -113.463)"/><path class="u" d="M210.805,185.21c1.289,2.062,2.835,4.382,4.343,6.534s3.08,4.33,4.7,6.443a87.859,87.859,0,0,0,10.309,11.495c.9.838,1.83,1.611,2.771,2.333l.7.528a2.372,2.372,0,0,0-.464-.168H232.7a3.673,3.673,0,0,0,1.869-.412,24.918,24.918,0,0,0,2.951-1.521,106.745,106.745,0,0,0,12.474-9.575l5.245,4.24a61.327,61.327,0,0,1-5.052,7.268,50.259,50.259,0,0,1-6.263,6.637,27.784,27.784,0,0,1-4.072,3,15.761,15.761,0,0,1-6.018,2.242,10.76,10.76,0,0,1-4.6-.387,10.452,10.452,0,0,1-2.333-1.083l-1.031-.644c-1.289-.876-2.577-1.8-3.866-2.771a85.184,85.184,0,0,1-12.745-12.758c-1.843-2.294-3.634-4.6-5.3-7.01s-3.26-4.742-4.833-7.461Z" transform="translate(-116.817 -116.096)"/><path class="a" d="M194.886,192.345c-2.771,11.6,18.222,22.964,18.222,22.964l13.647-15.98a113.046,113.046,0,0,0-13.943-16.753C203.276,173.35,196.987,183.5,194.886,192.345Z" transform="translate(-118.115 -117.909)"/><path class="u" d="M237.57,201.609l3.222-10.309,8.479,4.227s-1.289,7.539-7.41,8.853Z" transform="translate(-105.72 -114.338)"/><path class="u" d="M243.472,189.05l7.642,2.1-2.564,4.987-8.479-4.227Z" transform="translate(-104.998 -114.987)"/><path class="h" d="M196.631,153.41s3.106,11.25-9.575,18.518a4.588,4.588,0,0,0-4.639,0l-5.567-6.34S179.621,155.15,196.631,153.41Z" transform="translate(-123.249 -125.276)"/><path class="l" d="M196.631,153.41s3.106,11.25-9.575,18.518a4.588,4.588,0,0,0-4.639,0l-5.567-6.34S179.621,155.15,196.631,153.41Z" transform="translate(-123.249 -125.276)"/><path class="h" d="M199.669,159.712s10.928-20.761.142-26.482-3.067,5.258-3.067,5.258-18.982-11.289-9.73,1.392c0,0-22.578-.606-17.487,11.985,0,0-7.59,6.443.606,14.317,0,0-8.647,4.008,5.155,4.781C175.326,170.962,168.573,186.671,199.669,159.712Z" transform="translate(-126.287 -131.578)"/><path class="u" d="M189.3,155.94a10.722,10.722,0,0,0,3.866,5.683c2.487,1.843,4.343,0,4.162-2.784-.155-2.577-1.637-6.521-4.382-7.268S188.589,153.195,189.3,155.94Z" transform="translate(-119.703 -125.847)"/></g></g></svg>