<svg width="240" height="120" viewBox="0 0 345 100" fill="none" xmlns="http://www.w3.org/2000/svg">
<path d="M243.233 19.648H224.827C224.591 19.6649 224.369 19.763 224.201 19.9245C224.034 20.0859 223.932 20.3 223.914 20.5277V30.7916C223.932 31.0193 224.034 31.2333 224.201 31.3948C224.369 31.5563 224.591 31.6544 224.827 31.6713H243.233C243.469 31.6544 243.691 31.5563 243.859 31.3948C244.026 31.2333 244.128 31.0193 244.146 30.7916V20.5277C244.146 19.9412 243.841 19.648 243.233 19.648ZM242.929 34.8971H207.638C207.182 34.8971 206.573 35.337 206.421 35.7769L201.858 52.4923L201.553 53.3721L196.229 35.4836C196.077 35.0437 195.621 34.6039 195.012 34.6039H181.322C180.866 34.6039 180.257 35.0437 180.105 35.4836L174.933 52.199L174.629 53.0788L174.325 52.199L170.065 35.7769C169.913 35.337 169.457 34.8971 168.848 34.8971H141.316V20.5277C141.316 20.0878 140.707 19.5013 140.099 19.7946L122.605 24.9265C122.149 25.0731 121.693 25.3664 121.693 25.8063V34.8971H117.129C116.893 34.914 116.671 35.0122 116.503 35.1736C116.336 35.3351 116.234 35.5492 116.216 35.7769V48.5334C116.234 48.7611 116.336 48.9751 116.503 49.1366C116.671 49.2981 116.893 49.3962 117.129 49.4131H121.693V64.9555C121.693 75.9525 127.929 81.0845 139.49 81.0845C144.206 81.0845 148.921 80.0581 151.964 78.4452V65.2488C151.964 64.5157 151.355 64.369 151.051 64.5157C149.226 65.2488 147.704 65.5421 146.031 65.5421C142.989 65.5421 141.316 64.369 141.316 60.85V49.4131H151.203C151.439 49.3962 151.661 49.2981 151.829 49.1366C151.996 48.9751 152.098 48.7611 152.116 48.5334V37.8296L165.198 79.7648C165.35 80.2047 165.806 80.6446 166.415 80.6446H180.866C181.322 80.6446 181.93 80.2047 182.083 79.7648L188.319 61.1433L194.404 79.6182C194.556 80.0581 195.164 80.4979 195.621 80.4979H210.072C210.528 80.4979 211.137 80.0581 211.289 79.6182L224.523 37.5364V79.6182C224.54 79.8459 224.642 80.06 224.81 80.2214C224.977 80.3829 225.199 80.481 225.435 80.4979H243.081C243.317 80.481 243.539 80.3829 243.707 80.2214C243.874 80.06 243.976 79.8459 243.994 79.6182V35.7769C243.841 35.1904 243.385 34.8971 242.929 34.8971V34.8971ZM266.203 19.648H248.557C248.321 19.6649 248.099 19.763 247.931 19.9245C247.764 20.0859 247.662 20.3 247.644 20.5277V79.6182C247.662 79.8459 247.764 80.06 247.931 80.2214C248.099 80.3829 248.321 80.481 248.557 80.4979H266.203C266.439 80.481 266.661 80.3829 266.828 80.2214C266.996 80.06 267.098 79.8459 267.115 79.6182V20.5277C267.115 19.9412 266.659 19.648 266.203 19.648V19.648ZM289.78 19.648H271.374C271.138 19.6649 270.916 19.763 270.749 19.9245C270.581 20.0859 270.479 20.3 270.462 20.5277V30.7916C270.479 31.0193 270.581 31.2333 270.749 31.3948C270.916 31.5563 271.138 31.6544 271.374 31.6713H289.78C290.017 31.6544 290.239 31.5563 290.406 31.3948C290.574 31.2333 290.676 31.0193 290.693 30.7916V20.5277C290.693 19.9412 290.389 19.648 289.78 19.648ZM289.476 34.8971H271.831C271.595 34.914 271.372 35.0122 271.205 35.1736C271.037 35.3351 270.936 35.5492 270.918 35.7769V79.6182C270.936 79.8459 271.037 80.06 271.205 80.2214C271.372 80.3829 271.595 80.481 271.831 80.4979H289.476C289.712 80.481 289.935 80.3829 290.102 80.2214C290.27 80.06 290.371 79.8459 290.389 79.6182V35.7769C290.389 35.1904 289.933 34.8971 289.476 34.8971V34.8971ZM318.682 33.7241C303.167 33.7241 292.214 44.7211 292.214 57.4776V57.6242C292.214 70.3807 303.167 81.2311 318.53 81.2311C334.046 81.2311 344.998 70.2341 344.998 57.4776V57.331C345.151 44.5745 334.198 33.7241 318.682 33.7241ZM326.288 57.6242C326.288 61.8764 323.094 65.5421 318.682 65.5421C314.423 65.5421 310.925 62.023 310.925 57.4776V57.331C310.925 53.0788 314.119 49.4131 318.53 49.4131C322.79 49.4131 326.288 52.9322 326.288 57.4776V57.6242ZM51.8715 0C23.2737 0 0 22.4339 0 49.9996C0 77.5654 23.2737 99.9993 51.8715 99.9993C80.6213 100.146 103.895 77.712 103.895 49.9996C103.895 22.2872 80.6213 0 51.8715 0ZM51.8715 86.9495C30.8795 86.9495 13.6904 70.3807 13.6904 49.9996C13.6904 29.7652 30.8795 13.1964 51.8715 13.1964C73.0155 13.1964 90.2046 29.7652 90.2046 49.9996C90.2046 70.3807 73.0155 86.9495 51.8715 86.9495Z" fill="#E31E26"/>
<path d="M64.8013 47.9469C70.7661 47.9469 75.6015 43.2859 75.6015 37.5364C75.6015 31.7868 70.7661 27.1259 64.8013 27.1259C58.8365 27.1259 54.0011 31.7868 54.0011 37.5364C54.0011 43.2859 58.8365 47.9469 64.8013 47.9469Z" fill="#E31E26"/>
<path d="M64.8013 72.8734C70.7661 72.8734 75.6015 68.2124 75.6015 62.4629C75.6015 56.7133 70.7661 52.0524 64.8013 52.0524C58.8365 52.0524 54.0011 56.7133 54.0011 62.4629C54.0011 68.2124 58.8365 72.8734 64.8013 72.8734Z" fill="#E31E26"/>
<path d="M38.9416 72.8734C44.9064 72.8734 49.7419 68.2124 49.7419 62.4629C49.7419 56.7133 44.9064 52.0524 38.9416 52.0524C32.9768 52.0524 28.1414 56.7133 28.1414 62.4629C28.1414 68.2124 32.9768 72.8734 38.9416 72.8734Z" fill="#E31E26"/>
<path d="M38.9416 47.9469C44.9064 47.9469 49.7419 43.2859 49.7419 37.5364C49.7419 31.7868 44.9064 27.1259 38.9416 27.1259C32.9768 27.1259 28.1414 31.7868 28.1414 37.5364C28.1414 43.2859 32.9768 47.9469 38.9416 47.9469Z" fill="#E31E26"/>
</svg>
