<svg width="240" height="96" viewBox="0 0 336 96" fill="none" xmlns="http://www.w3.org/2000/svg">
<path d="M84 24.858C81.354 26.03 78.508 26.812 75.506 27.182C78.558 25.37 80.906 22.48 82.008 19.066C79.152 20.74 75.988 21.97 72.622 22.618C69.934 19.768 66.1 18 61.852 18C53.692 18 47.078 24.556 47.078 32.64C47.078 33.784 47.212 34.898 47.464 35.98C35.188 35.364 24.3 29.528 17.016 20.672C15.736 22.836 15.016 25.37 15.016 28.044C15.016 33.126 17.618 37.6 21.586 40.236C19.164 40.162 16.884 39.488 14.888 38.408C14.888 38.452 14.888 38.518 14.888 38.58C14.888 45.682 19.982 51.596 26.734 52.942C25.5 53.28 24.196 53.468 22.852 53.468C21.898 53.468 20.968 53.36 20.068 53.198C21.948 59.002 27.402 63.244 33.864 63.37C28.808 67.29 22.44 69.638 15.516 69.638C14.32 69.638 13.15 69.57 11.994 69.43C18.536 73.572 26.304 76 34.642 76C61.812 76 76.676 53.688 76.676 34.332C76.676 33.698 76.656 33.066 76.626 32.442C79.526 30.394 82.026 27.81 84 24.858Z" fill="#03A9F4"/>
<path d="M141.32 65.4C140.125 66.2533 138.781 66.8933 137.288 67.32C135.837 67.7467 134.344 67.96 132.808 67.96C129.48 67.9173 126.941 66.9787 125.192 65.144C123.485 63.2667 122.632 60.5147 122.632 56.888V39.032H117.32V33.144H122.632V25.656L130.824 24.696V33.144H138.696L137.864 39.032H130.824V56.696C130.824 58.36 131.101 59.5547 131.656 60.28C132.253 61.0053 133.171 61.368 134.408 61.368C135.645 61.368 136.989 60.9627 138.44 60.152L141.32 65.4ZM187.272 33.144L179.912 67H169.672L164.552 40.44L159.304 67H149.256L141.768 33.144H149.96L154.696 60.984L160.584 33.144H168.968L174.344 60.984L179.4 33.144H187.272ZM201.12 33.144V67H192.928V33.144H201.12ZM196.96 15.992C198.496 15.992 199.733 16.4827 200.672 17.464C201.653 18.4027 202.144 19.576 202.144 20.984C202.144 22.392 201.653 23.5653 200.672 24.504C199.733 25.4427 198.496 25.912 196.96 25.912C195.467 25.912 194.229 25.4427 193.248 24.504C192.309 23.5653 191.84 22.392 191.84 20.984C191.84 19.576 192.309 18.4027 193.248 17.464C194.229 16.4827 195.467 15.992 196.96 15.992ZM230.383 65.4C229.188 66.2533 227.844 66.8933 226.351 67.32C224.9 67.7467 223.407 67.96 221.871 67.96C218.543 67.9173 216.004 66.9787 214.255 65.144C212.548 63.2667 211.695 60.5147 211.695 56.888V39.032H206.383V33.144H211.695V25.656L219.887 24.696V33.144H227.759L226.927 39.032H219.887V56.696C219.887 58.36 220.164 59.5547 220.719 60.28C221.316 61.0053 222.233 61.368 223.471 61.368C224.708 61.368 226.052 60.9627 227.503 60.152L230.383 65.4ZM254.383 65.4C253.188 66.2533 251.844 66.8933 250.351 67.32C248.9 67.7467 247.407 67.96 245.871 67.96C242.543 67.9173 240.004 66.9787 238.255 65.144C236.548 63.2667 235.695 60.5147 235.695 56.888V39.032H230.383V33.144H235.695V25.656L243.887 24.696V33.144H251.759L250.927 39.032H243.887V56.696C243.887 58.36 244.164 59.5547 244.719 60.28C245.316 61.0053 246.233 61.368 247.471 61.368C248.708 61.368 250.052 60.9627 251.503 60.152L254.383 65.4ZM285.704 49.272C285.704 49.6987 285.64 50.808 285.512 52.6H264.264C264.52 55.8853 265.373 58.232 266.824 59.64C268.275 61.048 270.195 61.752 272.584 61.752C274.077 61.752 275.485 61.5173 276.808 61.048C278.131 60.536 279.539 59.768 281.032 58.744L284.424 63.416C280.669 66.4453 276.488 67.96 271.88 67.96C266.717 67.96 262.728 66.3813 259.912 63.224C257.139 60.0667 255.752 55.7573 255.752 50.296C255.752 46.84 256.349 43.7467 257.544 41.016C258.739 38.2427 260.467 36.088 262.728 34.552C264.989 32.9733 267.677 32.184 270.792 32.184C275.528 32.184 279.197 33.6987 281.8 36.728C284.403 39.7147 285.704 43.896 285.704 49.272ZM277.576 46.904C277.576 40.9733 275.379 38.008 270.984 38.008C268.979 38.008 267.4 38.7547 266.248 40.248C265.139 41.6987 264.477 44.0453 264.264 47.288H277.576V46.904ZM309.757 32.248C310.994 32.248 312.125 32.3973 313.149 32.696L311.741 40.632C310.717 40.376 309.714 40.248 308.733 40.248C306.728 40.248 305.149 40.9733 303.997 42.424C302.845 43.832 301.928 46.008 301.245 48.952V67H293.053V33.144H300.157L300.925 39.8C301.736 37.368 302.909 35.512 304.445 34.232C305.981 32.9093 307.752 32.248 309.757 32.248Z" fill="#6B7280"/>
</svg>
